<svg width="17" height="15" viewBox="0 0 17 15" fill="none" xmlns="http://www.w3.org/2000/svg">
<path d="M8.49935 12.0833C9.54102 12.0833 10.4266 11.7186 11.156 10.9892C11.8855 10.2597 12.2499 9.37444 12.2494 8.33333C12.2494 7.29167 11.8846 6.40611 11.1552 5.67667C10.4257 4.94722 9.54046 4.58278 8.49935 4.58333C7.45768 4.58333 6.57213 4.94806 5.84268 5.6775C5.11324 6.40694 4.7488 7.29222 4.74935 8.33333C4.74935 9.375 5.11407 10.2606 5.84352 10.99C6.57296 11.7194 7.45824 12.0839 8.49935 12.0833ZM1.83268 15C1.37435 15 0.98185 14.8367 0.655184 14.51C0.328517 14.1833 0.165461 13.7911 0.166017 13.3333V3.33333C0.166017 2.875 0.32935 2.4825 0.656017 2.15583C0.982684 1.82917 1.37491 1.66611 1.83268 1.66667H4.45768L5.99935 0H10.9994L12.541 1.66667H15.166C15.6244 1.66667 16.0169 1.83 16.3435 2.15667C16.6702 2.48333 16.8332 2.87556 16.8327 3.33333V13.3333C16.8327 13.7917 16.6694 14.1842 16.3427 14.5108C16.016 14.8375 15.6238 15.0006 15.166 15H1.83268Z" fill="#9E9E9E"/>
</svg>
