<svg width="19" height="18" viewBox="0 0 19 18" fill="none" xmlns="http://www.w3.org/2000/svg">
<path d="M6.2908 1.5H12.5908C14.9908 1.5 16.9408 3.45 16.9408 5.85V12.15C16.9408 13.3037 16.4825 14.4101 15.6667 15.2259C14.8509 16.0417 13.7445 16.5 12.5908 16.5H6.2908C3.8908 16.5 1.9408 14.55 1.9408 12.15V5.85C1.9408 4.69631 2.3991 3.58987 3.21488 2.77409C4.03066 1.9583 5.1371 1.5 6.2908 1.5ZM6.1408 3C5.42471 3 4.73796 3.28446 4.23161 3.79081C3.72526 4.29716 3.4408 4.98392 3.4408 5.7V12.3C3.4408 13.7925 4.6483 15 6.1408 15H12.7408C13.4569 15 14.1436 14.7155 14.65 14.2092C15.1563 13.7028 15.4408 13.0161 15.4408 12.3V5.7C15.4408 4.2075 14.2333 3 12.7408 3H6.1408ZM13.3783 4.125C13.6269 4.125 13.8654 4.22377 14.0412 4.39959C14.217 4.5754 14.3158 4.81386 14.3158 5.0625C14.3158 5.31114 14.217 5.5496 14.0412 5.72541C13.8654 5.90123 13.6269 6 13.3783 6C13.1297 6 12.8912 5.90123 12.7154 5.72541C12.5396 5.5496 12.4408 5.31114 12.4408 5.0625C12.4408 4.81386 12.5396 4.5754 12.7154 4.39959C12.8912 4.22377 13.1297 4.125 13.3783 4.125ZM9.4408 5.25C10.4354 5.25 11.3892 5.64509 12.0924 6.34835C12.7957 7.05161 13.1908 8.00544 13.1908 9C13.1908 9.99456 12.7957 10.9484 12.0924 11.6517C11.3892 12.3549 10.4354 12.75 9.4408 12.75C8.44623 12.75 7.49241 12.3549 6.78915 11.6517C6.08588 10.9484 5.6908 9.99456 5.6908 9C5.6908 8.00544 6.08588 7.05161 6.78915 6.34835C7.49241 5.64509 8.44623 5.25 9.4408 5.25ZM9.4408 6.75C8.84406 6.75 8.27176 6.98705 7.84981 7.40901C7.42785 7.83097 7.1908 8.40326 7.1908 9C7.1908 9.59674 7.42785 10.169 7.84981 10.591C8.27176 11.0129 8.84406 11.25 9.4408 11.25C10.0375 11.25 10.6098 11.0129 11.0318 10.591C11.4537 10.169 11.6908 9.59674 11.6908 9C11.6908 8.40326 11.4537 7.83097 11.0318 7.40901C10.6098 6.98705 10.0375 6.75 9.4408 6.75Z" fill="#F0821B"/>
</svg>
