<svg width="14" height="18" viewBox="0 0 14 18" fill="none" xmlns="http://www.w3.org/2000/svg">
<path d="M7.00012 0C3.40557 0 0.481201 2.92437 0.481201 6.51888C0.481201 10.9798 6.31499 17.5287 6.56337 17.8053C6.79667 18.0651 7.20399 18.0647 7.43687 17.8053C7.68524 17.5287 13.519 10.9798 13.519 6.51888C13.519 2.92437 10.5946 0 7.00012 0ZM7.00012 9.79871C5.19161 9.79871 3.72032 8.32739 3.72032 6.51888C3.72032 4.71037 5.19165 3.23909 7.00012 3.23909C8.80859 3.23909 10.2799 4.71041 10.2799 6.51892C10.2799 8.32743 8.80859 9.79871 7.00012 9.79871Z" fill="#1E83F6"/>
</svg>
