<svg width="19" height="18" viewBox="0 0 19 18" fill="none" xmlns="http://www.w3.org/2000/svg">
<g clip-path="url(#clip0_2860_15163)">
<path d="M13.4596 9.4314C11.6536 9.4746 11.6506 12.1218 13.456 12.1698C15.262 12.126 15.2644 9.48 13.4596 9.4314ZM12.9886 10.8024C12.9892 10.188 13.9234 10.1856 13.927 10.8C13.9246 11.4126 12.9934 11.415 12.9886 10.8024Z" fill="#F0821B"/>
<path d="M9.85796 8.56848C11.6634 8.52288 11.6634 5.87568 9.85796 5.83008C8.05196 5.87628 8.05316 8.52168 9.85796 8.56848ZM9.85796 6.73068C10.4718 6.73308 10.4718 7.66668 9.85796 7.66908C9.24416 7.66608 9.24476 6.73428 9.85796 6.73068Z" fill="#F0821B"/>
<path d="M14.5805 6.08287C14.4047 5.90647 14.1185 5.90587 13.9421 6.08167L8.72808 11.2711C8.54868 11.4433 8.54328 11.7283 8.71548 11.9071C8.89128 12.0907 9.18588 12.0913 9.36288 11.9089L14.5775 6.72007C14.7545 6.54487 14.7557 6.25987 14.5805 6.08287Z" fill="#F0821B"/>
<path d="M5.97734 6.32227C5.72894 6.32227 5.52734 6.52387 5.52734 6.77227V7.92607C5.52734 8.17447 5.72894 8.37607 5.97734 8.37607C6.22574 8.37607 6.42734 8.17447 6.42734 7.92607V6.77227C6.42734 6.52387 6.22574 6.32227 5.97734 6.32227Z" fill="#F0821B"/>
<path d="M5.97734 9.62451C5.72894 9.62451 5.52734 9.82611 5.52734 10.0745V11.2277C5.52734 11.4761 5.72894 11.6777 5.97734 11.6777C6.22574 11.6777 6.42734 11.4761 6.42734 11.2277V10.0745C6.42734 9.82611 6.22574 9.62451 5.97734 9.62451Z" fill="#F0821B"/>
<path d="M17.6938 7.51318C18.202 7.24078 18.5182 6.70978 18.5164 6.13318V4.58998C18.5152 3.72298 17.8132 3.02098 16.9462 3.01978H2.38662C1.51962 3.02098 0.81762 3.72298 0.81642 4.58998V6.13198C0.81462 6.70858 1.13082 7.23958 1.63902 7.51198C2.46042 7.95178 2.77002 8.97418 2.33022 9.79558C2.17302 10.089 1.93242 10.3296 1.63902 10.4868C1.13022 10.7598 0.81402 11.2908 0.81642 11.868V13.41C0.81762 14.277 1.51962 14.979 2.38662 14.9802H16.9462C17.8132 14.979 18.5152 14.277 18.5164 13.41V11.868C18.5182 11.2914 18.202 10.7604 17.6938 10.488C16.5154 9.89818 16.5244 8.10298 17.6938 7.51318ZM16.2118 10.2204C16.4524 10.6698 16.8208 11.0382 17.2702 11.2788C17.4856 11.3952 17.6188 11.6208 17.6164 11.8656V13.4076C17.6158 13.7778 17.3164 14.0772 16.9462 14.0778H6.42642C6.40182 13.6878 6.58122 12.9414 5.97642 12.9264C5.37102 12.9408 5.55102 13.6908 5.52642 14.0802H2.38662C2.01642 14.0796 1.71702 13.7802 1.71642 13.41V11.868C1.71402 11.6232 1.84722 11.3976 2.06262 11.2812C3.32202 10.6068 3.79542 9.03898 3.12102 7.77958C2.88042 7.33018 2.51202 6.96178 2.06262 6.72118C1.84722 6.60478 1.71402 6.37918 1.71642 6.13438V4.58998C1.71702 4.21978 2.01642 3.92038 2.38662 3.91978H5.52642C5.55102 4.31038 5.37042 5.05858 5.97642 5.07358C6.58182 5.05918 6.40182 4.30918 6.42642 3.91978H16.9462C17.3164 3.92038 17.6158 4.21978 17.6164 4.58998V6.13198C17.6188 6.37678 17.4856 6.60238 17.2702 6.71878C16.0108 7.39318 15.5368 8.96098 16.2118 10.2204Z" fill="#F0821B"/>
</g>
<defs>
<clipPath id="clip0_2860_15163">
<rect width="18" height="18" fill="white" transform="translate(0.666016)"/>
</clipPath>
</defs>
</svg>
