<svg width="19" height="18" viewBox="0 0 19 18" fill="none" xmlns="http://www.w3.org/2000/svg">
<path d="M3.66602 8.25V14.25C3.66602 14.6478 3.82405 15.0294 4.10536 15.3107C4.38666 15.592 4.76819 15.75 5.16602 15.75H14.166C14.5638 15.75 14.9454 15.592 15.2267 15.3107C15.508 15.0294 15.666 14.6478 15.666 14.25V8.25" stroke="#F0821B" stroke-linecap="round" stroke-linejoin="round"/>
<path d="M9.66602 4.125C9.66602 3.42881 9.38945 2.76113 8.89717 2.26884C8.40489 1.77656 7.73721 1.5 7.04102 1.5C6.54373 1.5 6.06682 1.69754 5.71519 2.04917C5.36356 2.40081 5.16602 2.87772 5.16602 3.375C5.16602 3.87228 5.36356 4.34919 5.71519 4.70083C6.06682 5.05246 6.54373 5.25 7.04102 5.25H9.66602M9.66602 4.125V5.25M9.66602 4.125C9.66602 3.42881 9.94258 2.76113 10.4349 2.26884C10.9271 1.77656 11.5948 1.5 12.291 1.5C12.7883 1.5 13.2652 1.69754 13.6168 2.04917C13.9685 2.40081 14.166 2.87772 14.166 3.375C14.166 3.62123 14.1175 3.86505 14.0233 4.09253C13.9291 4.32002 13.791 4.52672 13.6168 4.70083C13.4427 4.87494 13.236 5.01305 13.0085 5.10727C12.7811 5.2015 12.5372 5.25 12.291 5.25H9.66602" stroke="#F0821B" stroke-linejoin="round"/>
<path d="M9.66602 8.25V15.75M2.91602 5.25H16.416V8.25H2.91602V5.25Z" stroke="#F0821B" stroke-linecap="round" stroke-linejoin="round"/>
</svg>
