<svg width="20" height="20" viewBox="0 0 20 20" fill="none" xmlns="http://www.w3.org/2000/svg">
<path d="M2.55268 6.25842C3.24602 4.87778 4.30966 3.71717 5.62471 2.90631C6.93976 2.09544 8.4544 1.66626 9.99935 1.66675C12.2452 1.66675 14.1319 2.49175 15.5744 3.83758L13.1852 6.22758C12.321 5.40175 11.2227 4.98092 9.99935 4.98092C7.82852 4.98092 5.99102 6.44758 5.33685 8.41675C5.17018 8.91675 5.07518 9.45008 5.07518 10.0001C5.07518 10.5501 5.17018 11.0834 5.33685 11.5834C5.99185 13.5534 7.82852 15.0192 9.99935 15.0192C11.1202 15.0192 12.0744 14.7234 12.821 14.2234C13.2539 13.9384 13.6245 13.5686 13.9104 13.1363C14.1962 12.7041 14.3915 12.2183 14.4844 11.7084H9.99935V8.48508H17.8477C17.946 9.03008 17.9993 9.59842 17.9993 10.1892C17.9993 12.7276 17.091 14.8642 15.5143 16.3142C14.136 17.5876 12.2494 18.3334 9.99935 18.3334C8.90488 18.3339 7.82105 18.1186 6.8098 17.7C5.79856 17.2813 4.87972 16.6675 4.10582 15.8936C3.33191 15.1197 2.7181 14.2009 2.29946 13.1896C1.88083 12.1784 1.66558 11.0946 1.66602 10.0001C1.66602 8.65508 1.98768 7.38342 2.55268 6.25842Z" fill="white"/>
</svg>
