<svg width="18" height="18" viewBox="0 0 18 18" fill="none" xmlns="http://www.w3.org/2000/svg">
<path d="M4.5 16.5C4.0875 16.5 3.73425 16.353 3.44025 16.059C3.14625 15.765 2.9995 15.412 3 15V3C3 2.5875 3.147 2.23425 3.441 1.94025C3.735 1.64625 4.088 1.4995 4.5 1.5H10.5L15 6V9H13.5V6.75H9.75V3H4.5V15H9V16.5H4.5ZM13.725 10.8938L14.5313 11.7L11.625 14.5875V15.375H12.4125L15.3188 12.4875L16.1063 13.275L12.8813 16.5H10.5V14.1188L13.725 10.8938ZM16.1063 13.275L13.725 10.8938L14.8125 9.80625C14.95 9.66875 15.125 9.6 15.3375 9.6C15.55 9.6 15.725 9.66875 15.8625 9.80625L17.1938 11.1375C17.3313 11.275 17.4 11.45 17.4 11.6625C17.4 11.875 17.3313 12.05 17.1938 12.1875L16.1063 13.275Z" fill="#F0821B"/>
</svg>
