<svg width="25" height="24" viewBox="0 0 25 24" fill="none" xmlns="http://www.w3.org/2000/svg">
<circle cx="12.9375" cy="12" r="11.5" stroke="#F4F4F4"/>
<g clip-path="url(#clip0_2169_403)">
<path d="M11.2783 16.9175C11.56 17.5543 12.1975 18 12.9375 18C13.6774 18 14.3149 17.5543 14.5966 16.9175H11.2783Z" fill="#FF3F3F"/>
<path d="M12.9375 7.14648C13.4258 7.14648 13.8946 7.23264 14.3297 7.39038V7.33678C14.3297 6.59968 13.7301 6 12.993 6H12.8822C12.1451 6 11.5454 6.59968 11.5454 7.33678V7.3897C11.9803 7.23243 12.449 7.14648 12.9375 7.14648Z" fill="#FF3F3F"/>
<path d="M17.3316 16.2132H8.54356C8.3773 16.2132 8.22501 16.1011 8.19043 15.9385C8.1562 15.7775 8.22959 15.6185 8.37847 15.5497C8.4138 15.5268 8.67974 15.3409 8.94599 14.7783C9.43497 13.7451 9.53761 12.2897 9.53761 11.2507C9.53761 9.37596 11.0628 7.85083 12.9375 7.85083C14.8077 7.85083 16.33 9.36861 16.3373 11.2372C16.3374 11.2416 16.3375 11.2461 16.3375 11.2507C16.3375 12.2897 16.4402 13.7451 16.9292 14.7783C17.1954 15.3409 17.4613 15.5268 17.4967 15.5497C17.6456 15.6185 17.719 15.7774 17.6847 15.9385C17.6501 16.1011 17.4979 16.2132 17.3316 16.2132ZM17.5006 15.5522H17.5009H17.5006Z" fill="#FF3F3F"/>
</g>
<defs>
<clipPath id="clip0_2169_403">
<rect width="12" height="12" fill="white" transform="translate(6.9375 6)"/>
</clipPath>
</defs>
</svg>
