<svg width="24" height="24" viewBox="0 0 24 24" fill="none" xmlns="http://www.w3.org/2000/svg">
<path d="M23.02 12C23.02 18.3707 18.0671 23.5 12 23.5C5.93284 23.5 0.97998 18.3707 0.97998 12C0.97998 5.62929 5.93284 0.5 12 0.5C18.0671 0.5 23.02 5.62929 23.02 12Z" stroke="#F4F4F4"/>
<g clip-path="url(#clip0_2169_3369)">
<path d="M7.08025 8.50439H16.9203C17.3811 8.50439 17.7603 8.89939 17.7603 9.37939V11.1294C17.7603 11.6094 17.3811 12.0044 16.9203 12.0044H16.8003H16.4403H16.0803H12.3603H11.6403H7.92025H7.56025H7.20025H7.08025C6.61945 12.0044 6.24025 11.6094 6.24025 11.1294V9.37939C6.24025 8.89939 6.61945 8.50439 7.08025 8.50439Z" fill="#25E89F"/>
<path d="M16.4403 12.7544H16.8003V16.6294C16.8003 17.3894 16.2099 18.0044 15.4803 18.0044H12.3603V17.6294V17.2544V12.7544H16.0803H16.4403Z" fill="#25E89F"/>
<path d="M7.92014 12.7544H11.6401V17.2544V17.6294V18.0044H8.52014C7.79054 18.0044 7.20014 17.3894 7.20014 16.6294V12.7544H7.56014H7.92014Z" fill="#25E89F"/>
<path d="M9.73261 6.45491C10.2136 5.95441 11.0512 5.95441 11.5312 6.45491C11.7064 6.63741 11.8662 7.01641 12.0001 7.41941C12.1341 7.01641 12.2939 6.63741 12.4691 6.45491C12.9491 5.95391 13.7867 5.95441 14.2677 6.45491C14.5081 6.70491 14.6401 7.03741 14.6401 7.39141C14.6401 7.74541 14.5081 8.07841 14.2677 8.32841C13.8683 8.74441 12.4907 9.08741 12.0779 9.18241C12.052 9.18891 12.0261 9.19191 12.0001 9.19191C11.9742 9.19191 11.9483 9.18891 11.9224 9.18291C11.5101 9.08791 10.1325 8.74441 9.73261 8.32891C9.49213 8.07891 9.36013 7.74591 9.36013 7.39191C9.36013 7.03791 9.49213 6.70491 9.73261 6.45491ZM13.7584 7.79841C13.8625 7.68991 13.9201 7.54541 13.9201 7.39141C13.9201 7.23741 13.863 7.09391 13.7584 6.98491C13.6537 6.87591 13.5155 6.81691 13.3681 6.81691C13.2208 6.81691 13.0821 6.87691 12.9784 6.98491C12.8512 7.11741 12.6544 7.69241 12.4941 8.30241C13.0792 8.13541 13.6312 7.93091 13.7584 7.79841ZM10.2419 7.79841C10.3691 7.93041 10.9211 8.13541 11.5067 8.30241C11.3464 7.69241 11.1496 7.11741 11.0224 6.98491C10.9182 6.87641 10.7795 6.81691 10.6326 6.81691C10.4848 6.81691 10.3465 6.87691 10.2424 6.98541C10.1382 7.09391 10.0801 7.23791 10.0801 7.39141C10.0801 7.54491 10.1377 7.68991 10.2419 7.79841Z" fill="#25E89F"/>
</g>
<defs>
<clipPath id="clip0_2169_3369">
<rect width="11.52" height="12" fill="white" transform="matrix(-1 0 0 1 17.7603 6)"/>
</clipPath>
</defs>
</svg>
