<svg width="24" height="24" viewBox="0 0 24 24" fill="none" xmlns="http://www.w3.org/2000/svg">
<circle cx="12" cy="12" r="11.5" stroke="#F4F4F4"/>
<g clip-path="url(#clip0_2169_938)">
<path d="M6.00007 11.2168C5.99485 11.6704 6.27449 12.0787 6.69936 12.2377V10.2937C6.69936 10.2657 6.71333 10.2238 6.71333 10.1958C6.2856 10.3536 6.00112 10.7608 6.00007 11.2168Z" fill="#208FE0"/>
<path d="M9.818 13.6223H7.98584L8.67115 16.1118C8.77264 16.4917 9.11706 16.7558 9.51031 16.7552C9.79011 16.7585 10.0548 16.6287 10.2236 16.4055C10.394 16.1932 10.4465 15.9096 10.3634 15.6503L9.818 13.6223Z" fill="#208FE0"/>
<path d="M6.71338 10.1817H6.72735V10.1677C6.72735 10.1817 6.72735 10.1817 6.71338 10.1817Z" fill="#208FE0"/>
<path d="M16.7413 9.98584H16.6294V12.5033H16.7413C17.4365 12.5033 18 11.9398 18 11.2446C18 10.5494 17.4365 9.98584 16.7413 9.98584Z" fill="#208FE0"/>
<path d="M7.11914 10.2936V12.2797C7.13427 12.794 7.55568 13.2029 8.07017 13.2027H10.6156V9.42651H8.07017C7.56668 9.42651 7.11914 9.79016 7.11914 10.2936Z" fill="#208FE0"/>
<path d="M11.0352 13.2586L16.2099 15.3285V7.24463L11.0352 9.31456V13.2586Z" fill="#208FE0"/>
</g>
<defs>
<clipPath id="clip0_2169_938">
<rect width="12" height="12" fill="white" transform="translate(6 6)"/>
</clipPath>
</defs>
</svg>
