<svg width="18" height="16" viewBox="0 0 18 16" fill="none" xmlns="http://www.w3.org/2000/svg">
<path d="M8.99935 12.5833C10.041 12.5833 10.9266 12.2186 11.656 11.4892C12.3855 10.7597 12.7499 9.87444 12.7494 8.83333C12.7494 7.79167 12.3846 6.90611 11.6552 6.17667C10.9257 5.44722 10.0405 5.08278 8.99935 5.08333C7.95768 5.08333 7.07213 5.44806 6.34268 6.1775C5.61324 6.90694 5.2488 7.79222 5.24935 8.83333C5.24935 9.875 5.61407 10.7606 6.34352 11.49C7.07296 12.2194 7.95824 12.5839 8.99935 12.5833ZM2.33268 15.5C1.87435 15.5 1.48185 15.3367 1.15518 15.01C0.828517 14.6833 0.665461 14.2911 0.666017 13.8333V3.83333C0.666017 3.375 0.82935 2.9825 1.15602 2.65583C1.48268 2.32917 1.87491 2.16611 2.33268 2.16667H4.95768L6.49935 0.5H11.4994L13.041 2.16667H15.666C16.1244 2.16667 16.5169 2.33 16.8435 2.65667C17.1702 2.98333 17.3332 3.37556 17.3327 3.83333V13.8333C17.3327 14.2917 17.1694 14.6842 16.8427 15.0108C16.516 15.3375 16.1238 15.5006 15.666 15.5H2.33268Z" fill="#F0821B"/>
</svg>
