<svg width="19" height="18" viewBox="0 0 19 18" fill="none" xmlns="http://www.w3.org/2000/svg">
<path d="M16.598 4.8735C16.9408 6.21 16.9408 9 16.9408 9C16.9408 9 16.9408 11.79 16.598 13.1265C16.4075 13.8653 15.8503 14.4465 15.1445 14.643C13.8628 15 9.4408 15 9.4408 15C9.4408 15 5.02105 15 3.73705 14.643C3.0283 14.4435 2.4718 13.863 2.28355 13.1265C1.9408 11.79 1.9408 9 1.9408 9C1.9408 9 1.9408 6.21 2.28355 4.8735C2.47405 4.13475 3.0313 3.5535 3.73705 3.357C5.02105 3 9.4408 3 9.4408 3C9.4408 3 13.8628 3 15.1445 3.357C15.8533 3.5565 16.4098 4.137 16.598 4.8735ZM7.9408 11.625L12.4408 9L7.9408 6.375V11.625Z" fill="#F0821B"/>
</svg>
