<svg width="32" height="32" viewBox="0 0 32 32" fill="none" xmlns="http://www.w3.org/2000/svg">
<g clip-path="url(#clip0_136_65715)">
<path fill-rule="evenodd" clip-rule="evenodd" d="M4.6498 20.1626H17.0686C17.3311 20.1626 17.5373 19.9501 17.5373 19.6876C17.5373 19.4313 17.3311 19.2188 17.0686 19.2188H4.6498C4.3873 19.2188 4.18105 19.4313 4.18105 19.6876C4.18105 19.9501 4.3873 20.1626 4.6498 20.1626ZM17.0686 21.9876H4.6498C4.3873 21.9876 4.18105 22.1938 4.18105 22.4563C4.18105 22.7188 4.3873 22.9251 4.6498 22.9251H17.0686C17.3311 22.9251 17.5373 22.7188 17.5373 22.4563C17.5373 22.1938 17.3311 21.9876 17.0686 21.9876ZM17.0686 24.7438H4.6498C4.3873 24.7438 4.18105 24.9501 4.18105 25.2126C4.18105 25.4751 4.3873 25.6813 4.6498 25.6813H17.0686C17.3311 25.6813 17.5373 25.4751 17.5373 25.2126C17.5373 24.9501 17.3311 24.7438 17.0686 24.7438ZM4.6498 17.3751H13.5748C13.8373 17.3751 14.0498 17.1688 14.0498 16.9063C14.0498 16.6438 13.8373 16.4376 13.5748 16.4376H4.6498C4.3873 16.4376 4.18105 16.6438 4.18105 16.9063C4.18105 17.1688 4.3873 17.3751 4.6498 17.3751ZM4.6498 14.5876H11.1061C11.3373 14.5876 11.5748 14.3813 11.5748 14.1188C11.5748 13.8563 11.3686 13.6501 11.1061 13.6501H4.6498C4.3873 13.6501 4.18105 13.8563 4.18105 14.1188C4.18105 14.3813 4.3873 14.5876 4.6498 14.5876ZM11.1061 13.6563H4.6498C4.3873 13.6563 4.18105 13.8626 4.18105 14.1251C4.18105 14.3876 4.3873 14.5938 4.6498 14.5938H11.1061C11.3373 14.5938 11.5748 14.3876 11.5748 14.1251C11.5748 13.8626 11.3686 13.6563 11.1061 13.6563ZM13.5748 16.4376H4.6498C4.3873 16.4376 4.18105 16.6438 4.18105 16.9063C4.18105 17.1688 4.3873 17.3751 4.6498 17.3751H13.5748C13.8373 17.3751 14.0498 17.1688 14.0498 16.9063C14.0498 16.6438 13.8373 16.4376 13.5748 16.4376ZM17.0686 19.2251H4.6498C4.3873 19.2251 4.18105 19.4376 4.18105 19.6938C4.18105 19.9563 4.3873 20.1688 4.6498 20.1688H17.0686C17.3311 20.1688 17.5373 19.9563 17.5373 19.6938C17.5373 19.4376 17.3311 19.2251 17.0686 19.2251ZM17.0686 21.9876H4.6498C4.3873 21.9876 4.18105 22.1938 4.18105 22.4563C4.18105 22.7188 4.3873 22.9251 4.6498 22.9251H17.0686C17.3311 22.9251 17.5373 22.7188 17.5373 22.4563C17.5373 22.1938 17.3311 21.9876 17.0686 21.9876ZM17.0686 24.7438H4.6498C4.3873 24.7438 4.18105 24.9501 4.18105 25.2126C4.18105 25.4751 4.3873 25.6813 4.6498 25.6813H17.0686C17.3311 25.6813 17.5373 25.4751 17.5373 25.2126C17.5373 24.9501 17.3311 24.7438 17.0686 24.7438ZM31.5436 13.9126C31.8061 13.9126 32.0123 13.7063 32.0123 13.4438V13.0813C32.0123 11.9626 31.0998 11.0251 29.9561 11.0251H27.0998C27.3561 10.7438 27.6748 10.5313 28.0061 10.4251C28.1873 10.3438 28.3186 10.1876 28.3186 9.98131V9.22506C28.3186 9.09381 28.2686 8.94381 28.1373 8.86256C28.0061 8.78756 27.8498 8.75631 27.7186 8.81256C27.3561 8.91881 27.0436 8.88756 26.8123 8.73131C26.5998 8.60006 26.4998 8.31881 26.4998 8.00006C26.4998 7.19381 27.1811 6.28756 28.0123 6.02506C28.1936 5.94381 28.3248 5.79381 28.3248 5.58131V5.21881C28.3248 4.67506 28.0936 4.20631 27.7061 3.91881C27.2623 3.60631 26.6873 3.52506 26.1186 3.71256L1.9373 10.4751C0.874805 10.7626 -0.0126953 11.9626 -0.0126953 13.0563C-0.0126953 13.1126 -0.00644531 13.1626 0.0123047 13.2063V13.4438C0.0123047 13.7063 0.218555 13.9126 0.481055 13.9126C1.2373 13.9126 1.8623 14.5376 1.8623 15.2938C1.8623 16.0438 1.2373 16.6438 0.481055 16.6438C0.218555 16.6438 0.0123047 16.8563 0.0123047 17.1188V17.8501C0.0123047 18.1063 0.218555 18.3188 0.481055 18.3188C1.2373 18.3188 1.8623 18.9438 1.8623 19.6938C1.8623 20.4501 1.2373 21.0751 0.481055 21.0751C0.218555 21.0751 0.0123047 21.2813 0.0123047 21.5438V22.2751C0.0123047 22.5376 0.218555 22.7438 0.481055 22.7438C1.2373 22.7438 1.8623 23.3688 1.8623 24.1251C1.8623 24.8813 1.2373 25.5063 0.481055 25.5063C0.218555 25.5063 0.0123047 25.7126 0.0123047 25.9751V26.3376C0.0123047 27.4563 0.918555 28.3938 2.06855 28.3938H29.9561C31.0998 28.3938 32.0123 27.4563 32.0123 26.3626V26.0001C32.0123 25.7376 31.8061 25.5251 31.5436 25.5251C30.7873 25.5251 30.1623 24.9063 30.1623 24.1501C30.1623 23.3938 30.7873 22.7688 31.5436 22.7688C31.8061 22.7688 32.0123 22.5626 32.0123 22.3001V21.5688C32.0123 21.3063 31.8061 21.1001 31.5436 21.1001C30.7873 21.1001 30.1623 20.4751 30.1623 19.7188C30.1623 18.9626 30.7873 18.3376 31.5436 18.3376C31.8061 18.3376 32.0123 18.1313 32.0123 17.8688V17.1188C32.0123 16.8563 31.8061 16.6438 31.5436 16.6438C30.7873 16.6438 30.1623 16.0438 30.1623 15.2938C30.1623 14.5376 30.7873 13.9126 31.5436 13.9126ZM20.8936 27.4563H2.04355C1.44355 27.4563 0.924805 26.9313 0.899805 26.3376C1.96855 26.1313 2.74355 25.2188 2.76855 24.0938C2.76855 23.0563 2.06855 22.1688 1.10605 21.8813C2.06855 21.6001 2.76855 20.7126 2.76855 19.6688C2.76855 18.6001 2.0373 17.7188 1.0748 17.4563C2.0623 17.1938 2.76855 16.3063 2.76855 15.2688C2.76855 14.1751 1.9623 13.2376 0.918555 13.0251C0.918555 12.4251 1.4373 11.9063 2.06855 11.9063H20.8936V27.4563ZM21.3623 11.0001C21.3061 11.0001 21.2561 11.0063 21.2123 11.0251H3.46855L26.3623 4.58756C26.6748 4.51256 26.9623 4.53756 27.1436 4.66881C27.2998 4.80006 27.3748 4.98131 27.3748 5.23756V5.29381C26.3061 5.78756 25.5248 6.90631 25.5248 8.02506C25.5248 8.65006 25.7873 9.17506 26.2561 9.48131C26.5436 9.66256 26.8561 9.76881 27.1936 9.79381C26.6998 10.0813 26.2686 10.5063 25.9748 11.0188H21.5186C21.4686 11.0063 21.4186 11.0001 21.3623 11.0001ZM30.9498 17.4563C29.9623 17.7188 29.2561 18.6001 29.2561 19.6688C29.2561 20.7063 29.9561 21.5938 30.9186 21.8813C29.9561 22.1688 29.2561 23.0563 29.2561 24.0938C29.2561 25.1876 30.0623 26.1251 31.0998 26.3376C31.0998 26.9376 30.5811 27.4563 29.9561 27.4563H21.8311V11.9063H26.1498C26.2248 11.9313 26.2998 11.9251 26.3748 11.9063H29.9561C30.5561 11.9063 31.0748 12.4313 31.0998 13.0251C30.0311 13.2313 29.2561 14.1438 29.2561 15.2688C29.2561 16.3063 29.9811 17.1938 30.9498 17.4563ZM4.6498 20.1626H17.0686C17.3311 20.1626 17.5373 19.9501 17.5373 19.6876C17.5373 19.4313 17.3311 19.2188 17.0686 19.2188H4.6498C4.3873 19.2188 4.18105 19.4313 4.18105 19.6876C4.18105 19.9501 4.3873 20.1626 4.6498 20.1626ZM4.6498 22.9251H17.0686C17.3311 22.9251 17.5373 22.7188 17.5373 22.4563C17.5373 22.1938 17.3311 21.9876 17.0686 21.9876H4.6498C4.3873 21.9876 4.18105 22.1938 4.18105 22.4563C4.18105 22.7188 4.3873 22.9251 4.6498 22.9251ZM4.6498 25.6813H17.0686C17.3311 25.6813 17.5373 25.4751 17.5373 25.2126C17.5373 24.9501 17.3311 24.7438 17.0686 24.7438H4.6498C4.3873 24.7438 4.18105 24.9501 4.18105 25.2126C4.18105 25.4751 4.3873 25.6813 4.6498 25.6813ZM4.6498 17.3751H13.5748C13.8373 17.3751 14.0498 17.1688 14.0498 16.9063C14.0498 16.6438 13.8373 16.4376 13.5748 16.4376H4.6498C4.3873 16.4376 4.18105 16.6438 4.18105 16.9063C4.18105 17.1688 4.3873 17.3751 4.6498 17.3751ZM4.6498 14.5876H11.1061C11.3373 14.5876 11.5748 14.3813 11.5748 14.1188C11.5748 13.8563 11.3686 13.6501 11.1061 13.6501H4.6498C4.3873 13.6501 4.18105 13.8563 4.18105 14.1188C4.18105 14.3813 4.3873 14.5876 4.6498 14.5876Z" fill="black"/>
<path fill-rule="evenodd" clip-rule="evenodd" d="M31.0998 26.3312C31.0998 26.9312 30.5811 27.45 29.9561 27.45H21.8311V11.9062H26.1498C26.2248 11.9313 26.2998 11.925 26.3748 11.9062H29.9561C30.5561 11.9062 31.0748 12.4312 31.0998 13.025C30.0311 13.2312 29.2561 14.1438 29.2561 15.2688C29.2561 16.3063 29.9873 17.1937 30.9498 17.4562C29.9623 17.7187 29.2561 18.6 29.2561 19.6688C29.2561 20.7063 29.9561 21.5938 30.9186 21.8813C29.9561 22.1688 29.2561 23.0562 29.2561 24.0938C29.2561 25.1875 30.0623 26.125 31.0998 26.3312Z" fill="#F6911E"/>
</g>
<defs>
<clipPath id="clip0_136_65715">
<rect width="32" height="32" fill="white"/>
</clipPath>
</defs>
</svg>
