<svg width="20" height="20" viewBox="0 0 20 20" fill="none" xmlns="http://www.w3.org/2000/svg">
<rect width="20" height="20" rx="10" fill="#FA9D21"/>
<g clip-path="url(#clip0_650_76747)">
<path d="M15.7528 8.40817C15.6086 8.26398 15.5292 8.07227 15.5292 7.86838C15.5292 7.66449 15.6087 7.47278 15.7528 7.32858L16 7.08148L12.9185 4L12.6714 4.24719C12.5272 4.39139 12.3355 4.47076 12.1316 4.47076C11.9277 4.47076 11.736 4.39139 11.5918 4.24719L11.3446 4L10.2757 5.06897L10.77 5.56335L10.2757 6.05765L9.78137 5.56335L4 11.3446L4.24719 11.5918C4.39139 11.736 4.47076 11.9277 4.47076 12.1316C4.47076 12.3355 4.3913 12.5272 4.24719 12.6714L4 12.9185L7.08148 16L7.32858 15.7528C7.47278 15.6087 7.66449 15.5292 7.86838 15.5292C8.07236 15.5292 8.26398 15.6087 8.40817 15.7528L8.65536 16L14.4366 10.2186L13.9424 9.72433L14.4366 9.23004L14.931 9.72433L16 8.65536L15.7528 8.40817ZM7.11948 13.7269L6.50552 13.113L6.26208 13.3565L6.04483 13.1392L6.81195 12.372L7.02921 12.5894L6.78577 12.8327L7.39972 13.4467L7.11948 13.7269ZM7.80466 13.0417L6.97345 12.2105L7.25369 11.9303L8.0849 12.7615L7.80466 13.0417ZM8.75827 12.1262C8.49103 12.3934 8.11575 12.4099 7.8605 12.1547C7.60516 11.8994 7.62183 11.5242 7.88898 11.257C8.05167 11.0943 8.23935 11.0254 8.42813 11.0504L8.40909 11.3852C8.29868 11.3722 8.20483 11.3947 8.13004 11.4695C8.01367 11.5859 8.01605 11.745 8.14313 11.8721C8.27011 11.9991 8.42923 12.0015 8.54568 11.8852C8.62048 11.8104 8.64301 11.7165 8.63 11.6061L8.96481 11.5871C8.98981 11.7759 8.92096 11.9635 8.75827 12.1262ZM9.82816 11.0182L9.34485 10.9506L9.35199 11.0835L9.55743 11.289L9.28195 11.5645L8.45074 10.7332L8.72623 10.4578L9.0278 10.7594L8.99933 10.1847L9.30447 9.87952L9.33771 10.5777L10.1523 10.6941L9.82816 11.0182ZM10.2795 10.567L9.44821 9.73569L10.1239 9.06003L10.3353 9.27142L9.93509 9.6716L10.0325 9.76901L10.384 9.41745L10.5858 9.61942L10.2344 9.97089L10.3436 10.0801L10.7592 9.66446L10.9706 9.87585L10.2795 10.567ZM11.3482 9.4982L10.7343 8.88425L10.4909 9.12769L10.2736 8.91043L11.0407 8.14331L11.258 8.36057L11.0145 8.604L11.6284 9.21796L11.3482 9.4982ZM11.3233 7.10529L10.7995 6.58151L11.2938 6.08713L11.8176 6.61099L11.3233 7.10529ZM12.3709 8.15292L11.8471 7.62906L12.3414 7.13477L12.8652 7.65863L12.3709 8.15292ZM13.4185 9.20056L12.8947 8.6767L13.389 8.1824L13.9129 8.70618L13.4185 9.20056Z" fill="white"/>
</g>
<defs>
<clipPath id="clip0_650_76747">
<rect width="12" height="12" fill="white" transform="translate(4 4)"/>
</clipPath>
</defs>
</svg>
