<svg width="20" height="20" viewBox="0 0 20 20" fill="none" xmlns="http://www.w3.org/2000/svg">
<rect width="20" height="20" rx="10" fill="#FA9D21"/>
<g clip-path="url(#clip0_650_76751)">
<path d="M15.2174 6.33757H14.3439C14.4591 6.15523 14.5352 5.95055 14.5568 5.73408C14.6261 5.04227 14.2618 4.42212 13.6415 4.14717C13.0713 3.89445 12.4306 3.99776 11.9693 4.41621L10.8663 5.41582C10.6515 5.18088 10.3427 5.03323 10 5.03323C9.65669 5.03323 9.34741 5.18135 9.13255 5.41702L8.02818 4.4161C7.56606 3.99764 6.92561 3.89473 6.35573 4.14731C5.73562 4.42228 5.37121 5.04265 5.44068 5.73443C5.46241 5.95074 5.53839 6.15532 5.65359 6.33757H4.7826C4.35037 6.33757 4 6.68796 4 7.12017V8.29409C4 8.51018 4.1752 8.6854 4.39131 8.6854H15.6087C15.8248 8.6854 16 8.5102 16 8.29409V7.12017C16 6.68796 15.6496 6.33757 15.2174 6.33757ZM8.82609 6.20714V6.33757H6.98523C6.49886 6.33757 6.11608 5.88415 6.23755 5.37776C6.29106 5.15475 6.45203 4.96465 6.66023 4.86842C6.94612 4.73627 7.2628 4.7787 7.50292 4.99603L8.82641 6.19561C8.82634 6.19948 8.82609 6.20327 8.82609 6.20714ZM13.7803 5.63018C13.7512 6.03689 13.3838 6.33762 12.976 6.33762H11.1739V6.20719C11.1739 6.20257 11.1736 6.198 11.1736 6.19338C11.4734 5.9216 12.1238 5.3321 12.4766 5.01235C12.6771 4.83063 12.9576 4.74581 13.2169 4.82316C13.589 4.93416 13.8075 5.25061 13.7803 5.63018Z" fill="white"/>
<path d="M4.78271 9.46777V15.2069C4.78271 15.6391 5.13308 15.9895 5.56532 15.9895H9.21749V9.46777H4.78271Z" fill="white"/>
<path d="M10.7827 9.46777V15.9895H14.4349C14.8671 15.9895 15.2175 15.6391 15.2175 15.2069V9.46777H10.7827Z" fill="white"/>
</g>
<defs>
<clipPath id="clip0_650_76751">
<rect width="12" height="12" fill="white" transform="translate(4 4)"/>
</clipPath>
</defs>
</svg>
