<svg width="20" height="20" viewBox="0 0 20 20" fill="none" xmlns="http://www.w3.org/2000/svg">
<rect width="20" height="20" rx="10" fill="#FA9D21"/>
<path d="M14.9442 7.95626L14.1117 7.12376C14.11 7.12198 14.108 7.12057 14.1057 7.1196C14.1035 7.11863 14.101 7.11814 14.0986 7.11814C14.0961 7.11814 14.0937 7.11863 14.0914 7.1196C14.0892 7.12057 14.0871 7.12198 14.0854 7.12376C13.953 7.24656 13.7782 7.3133 13.5976 7.30998C13.417 7.30666 13.2448 7.23354 13.117 7.10596C12.9891 6.97838 12.9157 6.80625 12.912 6.62569C12.9084 6.44513 12.9748 6.27016 13.0973 6.13751C13.0991 6.13581 13.1005 6.13378 13.1015 6.13152C13.1025 6.12926 13.103 6.12684 13.103 6.12438C13.103 6.12193 13.1025 6.1195 13.1015 6.11724C13.1005 6.11498 13.0991 6.11295 13.0973 6.11126L12.2648 5.27876C12.2284 5.24152 12.1849 5.21188 12.1369 5.19153C12.0889 5.17117 12.0374 5.16051 11.9853 5.16017C11.9332 5.15982 11.8815 5.16978 11.8333 5.18949C11.785 5.2092 11.7412 5.23827 11.7042 5.27501C11.2354 5.74376 10.7329 6.24626 10.2136 6.76563C10.2163 6.79295 10.213 6.82052 10.2039 6.84643C10.1948 6.87234 10.1802 6.89595 10.1611 6.91563C10.1437 6.93316 10.1229 6.94701 10.1 6.95635C10.0772 6.96569 10.0527 6.97034 10.0279 6.97001C10.0223 6.97001 10.0167 6.96813 10.0111 6.96813C9.0642 7.91501 8.06295 8.91625 7.10107 9.87813H12.8967C12.8866 9.83847 12.8898 9.79657 12.9058 9.7589C12.9218 9.72122 12.9497 9.68985 12.9853 9.66961C13.0209 9.64936 13.0621 9.64138 13.1027 9.64687C13.1433 9.65236 13.1809 9.67103 13.2098 9.70001L13.3429 9.83313C13.3562 9.84648 13.3676 9.86163 13.3767 9.87813H13.5886L14.9479 8.51876C15.0218 8.44352 15.0628 8.34213 15.0621 8.23673C15.0614 8.13134 15.019 8.0305 14.9442 7.95626ZM10.6917 7.44626C10.6743 7.46378 10.6535 7.47763 10.6307 7.48697C10.6078 7.49632 10.5833 7.50096 10.5586 7.50063C10.5339 7.50079 10.5094 7.49607 10.4866 7.48674C10.4637 7.4774 10.443 7.46365 10.4254 7.44626L10.2942 7.31313C10.2591 7.27807 10.2394 7.23052 10.2394 7.18094C10.2394 7.13136 10.2591 7.08381 10.2942 7.04876C10.3293 7.0137 10.3768 6.994 10.4264 6.994C10.476 6.994 10.5235 7.0137 10.5586 7.04876L10.6917 7.18188C10.7091 7.19922 10.7229 7.21983 10.7323 7.24251C10.7417 7.26519 10.7465 7.28951 10.7465 7.31407C10.7465 7.33863 10.7417 7.36294 10.7323 7.38562C10.7229 7.40831 10.7091 7.42891 10.6917 7.44626ZM11.2223 7.97688C11.1868 8.01173 11.139 8.03126 11.0892 8.03126C11.0394 8.03126 10.9916 8.01173 10.9561 7.97688L10.8248 7.84376C10.807 7.82664 10.7929 7.80611 10.7832 7.7834C10.7736 7.76068 10.7686 7.73625 10.7686 7.71157C10.7686 7.68688 10.7736 7.66245 10.7832 7.63974C10.7929 7.61703 10.807 7.5965 10.8248 7.57938C10.8422 7.562 10.8628 7.5482 10.8855 7.53879C10.9081 7.52938 10.9325 7.52454 10.957 7.52454C10.9816 7.52454 11.0059 7.52938 11.0286 7.53879C11.0513 7.5482 11.0719 7.562 11.0892 7.57938L11.2223 7.71063C11.2575 7.74603 11.2772 7.79388 11.2772 7.84376C11.2772 7.89363 11.2575 7.94148 11.2223 7.97688ZM11.7529 8.50751C11.7171 8.54189 11.6695 8.56133 11.6198 8.56188C11.5701 8.56168 11.5224 8.54218 11.4867 8.50751L11.3536 8.37438C11.3362 8.35703 11.3224 8.33643 11.313 8.31375C11.3036 8.29107 11.2987 8.26675 11.2987 8.24219C11.2987 8.21764 11.3036 8.19332 11.313 8.17064C11.3224 8.14795 11.3362 8.12735 11.3536 8.11001C11.389 8.07488 11.4368 8.05516 11.4867 8.05516C11.5366 8.05516 11.5844 8.07488 11.6198 8.11001L11.7529 8.24126C11.7881 8.27665 11.8078 8.32451 11.8078 8.37438C11.8078 8.42425 11.7881 8.47211 11.7529 8.50751ZM12.2817 9.03813C12.2468 9.07275 12.1996 9.09228 12.1504 9.0925C12.1007 9.0923 12.053 9.07281 12.0173 9.03813L11.8842 8.905C11.8667 8.88752 11.8528 8.86677 11.8434 8.84393C11.8339 8.82109 11.8291 8.7966 11.8291 8.77188C11.8291 8.74716 11.8339 8.72267 11.8434 8.69983C11.8528 8.67699 11.8667 8.65624 11.8842 8.63876C11.9017 8.62127 11.9224 8.60741 11.9453 8.59794C11.9681 8.58848 11.9926 8.58361 12.0173 8.58361C12.042 8.58361 12.0665 8.58848 12.0894 8.59794C12.1122 8.60741 12.133 8.62127 12.1504 8.63876L12.2817 8.77188C12.3168 8.80728 12.3365 8.85513 12.3365 8.905C12.3365 8.95488 12.3168 9.00273 12.2817 9.03813ZM12.8123 9.56688C12.7952 9.58467 12.7747 9.59882 12.752 9.60849C12.7293 9.61815 12.7048 9.62313 12.6801 9.62313C12.6555 9.62313 12.631 9.61815 12.6083 9.60849C12.5856 9.59882 12.5651 9.58467 12.5479 9.56688L12.4148 9.43563C12.3797 9.40023 12.36 9.35238 12.36 9.30251C12.36 9.25263 12.3797 9.20478 12.4148 9.16938C12.4322 9.15199 12.4528 9.1382 12.4755 9.12879C12.4981 9.11938 12.5225 9.11453 12.547 9.11453C12.5716 9.11453 12.5959 9.11938 12.6186 9.12879C12.6413 9.1382 12.6619 9.15199 12.6792 9.16938L12.8123 9.30251C12.8297 9.31985 12.8435 9.34045 12.8529 9.36314C12.8623 9.38582 12.8672 9.41014 12.8672 9.43469C12.8672 9.45925 12.8623 9.48357 12.8529 9.50625C12.8435 9.52893 12.8297 9.54954 12.8123 9.56688Z" fill="white"/>
<path d="M8.87048 13.1357C8.81681 13.1357 8.76435 13.1517 8.71972 13.1815C8.6751 13.2113 8.64032 13.2537 8.61978 13.3033C8.59924 13.3528 8.59386 13.4074 8.60434 13.46C8.61481 13.5127 8.64065 13.561 8.6786 13.599C8.71655 13.6369 8.76491 13.6628 8.81755 13.6733C8.87018 13.6837 8.92475 13.6784 8.97433 13.6578C9.02392 13.6373 9.0663 13.6025 9.09612 13.5579C9.12593 13.5132 9.14185 13.4608 9.14185 13.4071C9.14178 13.3352 9.11316 13.2662 9.06229 13.2153C9.01141 13.1644 8.94243 13.1358 8.87048 13.1357Z" fill="white"/>
<path d="M14.4456 11.8486C14.4506 11.8485 14.4554 11.8466 14.4589 11.8431C14.4624 11.8395 14.4644 11.8348 14.4644 11.8298V10.6523C14.4648 10.5469 14.4234 10.4456 14.3492 10.3707C14.275 10.2959 14.1742 10.2535 14.0688 10.2529H12.0052V10.3162C12.0052 10.3659 11.9854 10.4136 11.9503 10.4488C11.9151 10.484 11.8674 10.5037 11.8177 10.5037C11.768 10.5037 11.7203 10.484 11.6851 10.4488C11.65 10.4136 11.6302 10.3659 11.6302 10.3162V10.2529H5.33314C5.2809 10.253 5.2292 10.2635 5.18101 10.2836C5.13281 10.3038 5.08908 10.3333 5.05232 10.3704C5.01556 10.4075 4.98649 10.4515 4.96679 10.4999C4.94708 10.5483 4.93713 10.6001 4.93751 10.6523V11.8298C4.93752 11.8348 4.9395 11.8395 4.94301 11.8431C4.94653 11.8466 4.95129 11.8485 4.95626 11.8486C5.13662 11.8555 5.30728 11.932 5.43243 12.062C5.55759 12.1921 5.6275 12.3656 5.6275 12.5461C5.6275 12.7265 5.55759 12.9 5.43243 13.0301C5.30728 13.1601 5.13662 13.2366 4.95626 13.2436C4.9514 13.2439 4.94682 13.246 4.94337 13.2494C4.93992 13.2529 4.93784 13.2574 4.93751 13.2623V14.4417C4.93733 14.4938 4.94742 14.5454 4.96722 14.5936C4.98701 14.6418 5.01611 14.6856 5.05286 14.7225C5.08961 14.7594 5.13328 14.7887 5.18138 14.8088C5.22947 14.8288 5.28104 14.8391 5.33314 14.8392H11.6348C11.6328 14.8316 11.6312 14.824 11.6302 14.8162V14.6287C11.6302 14.579 11.65 14.5313 11.6851 14.4961C11.7203 14.461 11.768 14.4412 11.8177 14.4412C11.8674 14.4412 11.9151 14.461 11.9503 14.4961C11.9854 14.5313 12.0052 14.579 12.0052 14.6287V14.8162C12.0042 14.824 12.0026 14.8316 12.0006 14.8392H14.0688C14.1739 14.8387 14.2745 14.7967 14.3487 14.7221C14.4228 14.6476 14.4644 14.5468 14.4644 14.4417V13.2623C14.4641 13.2574 14.462 13.2529 14.4585 13.2494C14.4551 13.246 14.4505 13.2439 14.4456 13.2436C14.2649 13.2371 14.0938 13.1608 13.9682 13.0307C13.8427 12.9006 13.7725 12.7269 13.7725 12.5461C13.7725 12.3652 13.8427 12.1915 13.9682 12.0614C14.0938 11.9313 14.2649 11.855 14.4456 11.8486ZM7.3795 11.0398C7.50731 11.0399 7.63225 11.0778 7.73851 11.1488C7.84478 11.2198 7.9276 11.3208 7.9765 11.4388C8.0254 11.5569 8.03819 11.6869 8.01325 11.8122C7.98831 11.9376 7.92676 12.0527 7.83639 12.1431C7.74601 12.2335 7.63086 12.295 7.50551 12.32C7.38015 12.3449 7.25022 12.3321 7.13213 12.2832C7.01404 12.2343 6.91311 12.1515 6.84209 12.0452C6.77107 11.939 6.73315 11.814 6.73313 11.6862C6.73334 11.5148 6.8015 11.3506 6.92267 11.2294C7.04384 11.1082 7.20813 11.04 7.3795 11.0398ZM6.92054 14.053C6.8842 14.053 6.84865 14.0424 6.81822 14.0226C6.78778 14.0027 6.76377 13.9744 6.74912 13.9412C6.73446 13.9079 6.72978 13.8711 6.73566 13.8353C6.74153 13.7994 6.75771 13.766 6.78221 13.7392L9.19096 11.101C9.20754 11.0828 9.22755 11.068 9.24984 11.0575C9.27214 11.047 9.29628 11.041 9.3209 11.0399C9.34551 11.0388 9.3701 11.0425 9.39327 11.0508C9.41645 11.0592 9.43774 11.0721 9.45594 11.0887C9.47413 11.1053 9.48888 11.1253 9.49933 11.1476C9.50977 11.17 9.51572 11.1941 9.51682 11.2187C9.51793 11.2433 9.51416 11.2679 9.50576 11.2911C9.49735 11.3142 9.48445 11.3355 9.46781 11.3537L7.05906 13.9919C7.04153 14.0112 7.02015 14.0266 6.99629 14.0371C6.97243 14.0477 6.94662 14.0531 6.92054 14.053ZM8.87052 14.053C8.74269 14.053 8.61772 14.0151 8.51142 13.9441C8.40513 13.8731 8.32228 13.7721 8.27336 13.654C8.22444 13.5359 8.21164 13.4059 8.23658 13.2806C8.26152 13.1552 8.32308 13.04 8.41348 12.9496C8.50387 12.8592 8.61904 12.7977 8.74442 12.7727C8.86981 12.7478 8.99977 12.7606 9.11788 12.8095C9.23598 12.8584 9.33693 12.9413 9.40796 13.0476C9.47898 13.1539 9.51689 13.2788 9.51689 13.4067C9.51669 13.578 9.44852 13.7423 9.32735 13.8635C9.20618 13.9847 9.04189 14.0528 8.87052 14.053ZM12.0052 14.0662C12.0052 14.1159 11.9854 14.1636 11.9503 14.1988C11.9151 14.234 11.8674 14.2537 11.8177 14.2537C11.768 14.2537 11.7203 14.234 11.6851 14.1988C11.65 14.1636 11.6302 14.1159 11.6302 14.0662V13.8787C11.6302 13.829 11.65 13.7813 11.6851 13.7461C11.7203 13.711 11.768 13.6912 11.8177 13.6912C11.8674 13.6912 11.9151 13.711 11.9503 13.7461C11.9854 13.7813 12.0052 13.829 12.0052 13.8787V14.0662ZM12.0052 13.3162C12.0052 13.3659 11.9854 13.4136 11.9503 13.4488C11.9151 13.484 11.8674 13.5037 11.8177 13.5037C11.768 13.5037 11.7203 13.484 11.6851 13.4488C11.65 13.4136 11.6302 13.3659 11.6302 13.3162V13.1287C11.6302 13.079 11.65 13.0313 11.6851 12.9961C11.7203 12.961 11.768 12.9412 11.8177 12.9412C11.8674 12.9412 11.9151 12.961 11.9503 12.9961C11.9854 13.0313 12.0052 13.079 12.0052 13.1287V13.3162ZM12.0052 12.5662C12.0052 12.6159 11.9854 12.6636 11.9503 12.6988C11.9151 12.734 11.8674 12.7537 11.8177 12.7537C11.768 12.7537 11.7203 12.734 11.6851 12.6988C11.65 12.6636 11.6302 12.6159 11.6302 12.5662V12.3787C11.6302 12.329 11.65 12.2813 11.6851 12.2461C11.7203 12.211 11.768 12.1912 11.8177 12.1912C11.8674 12.1912 11.9151 12.211 11.9503 12.2461C11.9854 12.2813 12.0052 12.329 12.0052 12.3787V12.5662ZM12.0052 11.8162C12.0052 11.8659 11.9854 11.9136 11.9503 11.9488C11.9151 11.984 11.8674 12.0037 11.8177 12.0037C11.768 12.0037 11.7203 11.984 11.6851 11.9488C11.65 11.9136 11.6302 11.8659 11.6302 11.8162V11.6287C11.6302 11.579 11.65 11.5313 11.6851 11.4961C11.7203 11.461 11.768 11.4412 11.8177 11.4412C11.8674 11.4412 11.9151 11.461 11.9503 11.4961C11.9854 11.5313 12.0052 11.579 12.0052 11.6287V11.8162ZM12.0052 11.0662C12.0052 11.1159 11.9854 11.1636 11.9503 11.1988C11.9151 11.234 11.8674 11.2537 11.8177 11.2537C11.768 11.2537 11.7203 11.234 11.6851 11.1988C11.65 11.1636 11.6302 11.1159 11.6302 11.0662V10.8787C11.6302 10.829 11.65 10.7813 11.6851 10.7461C11.7203 10.711 11.768 10.6912 11.8177 10.6912C11.8674 10.6912 11.9151 10.711 11.9503 10.7461C11.9854 10.7813 12.0052 10.829 12.0052 10.8787V11.0662Z" fill="white"/>
<path d="M7.37927 11.9576C7.43293 11.9576 7.48537 11.9416 7.52997 11.9118C7.57457 11.882 7.60932 11.8396 7.62984 11.79C7.65035 11.7405 7.65571 11.6859 7.64522 11.6333C7.63474 11.5807 7.60889 11.5324 7.57093 11.4944C7.53298 11.4565 7.48464 11.4307 7.43201 11.4202C7.37939 11.4098 7.32485 11.4152 7.27529 11.4357C7.22572 11.4563 7.18337 11.4911 7.15358 11.5357C7.12378 11.5803 7.10789 11.6328 7.10791 11.6864C7.10799 11.7583 7.13661 11.8273 7.18749 11.8781C7.23837 11.929 7.30734 11.9576 7.37927 11.9576Z" fill="white"/>
</svg>
