<svg width="20" height="20" viewBox="0 0 20 20" fill="none" xmlns="http://www.w3.org/2000/svg">
<path d="M18.1492 14.0942C16.8892 13.0292 16.1667 11.4725 16.1667 9.82333V7.5C16.1667 4.5675 13.9883 2.14 11.1667 1.73333V0.833333C11.1667 0.3725 10.7933 0 10.3333 0C9.87333 0 9.5 0.3725 9.5 0.833333V1.73333C6.6775 2.14 4.5 4.5675 4.5 7.5V9.82333C4.5 11.4725 3.7775 13.0292 2.51 14.1008C2.18583 14.3783 2 14.7817 2 15.2083C2 16.0125 2.65417 16.6667 3.45833 16.6667H17.2083C18.0125 16.6667 18.6667 16.0125 18.6667 15.2083C18.6667 14.7817 18.4808 14.3783 18.1492 14.0942Z" fill="#F0821B"/>
<path d="M10.3332 20C11.8423 20 13.1048 18.9242 13.3948 17.5H7.27148C7.56148 18.9242 8.82398 20 10.3332 20Z" fill="#F0821B"/>
</svg>
