<svg width="21" height="20" viewBox="0 0 21 20" fill="none" xmlns="http://www.w3.org/2000/svg">
<path d="M16.4729 16.9167L11.8062 12.25C11.3896 12.5833 10.9104 12.8472 10.3687 13.0417C9.82707 13.2361 9.25068 13.3333 8.63957 13.3333C7.12568 13.3333 5.84457 12.8089 4.79623 11.76C3.7479 10.7111 3.22346 9.43 3.2229 7.91667C3.2229 6.40278 3.74734 5.12167 4.79623 4.07333C5.84512 3.025 7.12623 2.50056 8.63957 2.5C10.1535 2.5 11.4346 3.02444 12.4829 4.07333C13.5312 5.12222 14.0557 6.40333 14.0562 7.91667C14.0562 8.52778 13.959 9.10417 13.7646 9.64583C13.5701 10.1875 13.3062 10.6667 12.9729 11.0833L17.6604 15.7708C17.8132 15.9236 17.8896 16.1111 17.8896 16.3333C17.8896 16.5556 17.8062 16.75 17.6396 16.9167C17.4868 17.0694 17.2923 17.1458 17.0562 17.1458C16.8201 17.1458 16.6257 17.0694 16.4729 16.9167ZM8.63957 11.6667C9.68123 11.6667 10.5668 11.3019 11.2962 10.5725C12.0257 9.84306 12.3901 8.95778 12.3896 7.91667C12.3896 6.875 12.0248 5.98944 11.2954 5.26C10.566 4.53056 9.68068 4.16611 8.63957 4.16667C7.5979 4.16667 6.71234 4.53139 5.9829 5.26083C5.25346 5.99028 4.88901 6.87556 4.88957 7.91667C4.88957 8.95833 5.25429 9.84389 5.98373 10.5733C6.71318 11.3028 7.59846 11.6672 8.63957 11.6667Z" fill="#F6911E"/>
</svg>
