<svg width="26" height="26" viewBox="0 0 26 26" fill="none" xmlns="http://www.w3.org/2000/svg">
<path d="M24.0938 7.18394L22.8548 13.9785C22.7526 14.5397 22.4567 15.0474 22.0187 15.413C21.5808 15.7786 21.0284 15.979 20.4579 15.9792H8.67666L9.12354 18.4167H20.0415C20.5236 18.4167 20.9949 18.5597 21.3957 18.8275C21.7966 19.0954 22.109 19.4761 22.2935 19.9215C22.4779 20.3669 22.5262 20.857 22.4322 21.3298C22.3381 21.8026 22.106 22.2369 21.7651 22.5778C21.4242 22.9187 20.9899 23.1509 20.517 23.2449C20.0442 23.339 19.5541 23.2907 19.1087 23.1062C18.6633 22.9217 18.2826 22.6093 18.0148 22.2085C17.747 21.8076 17.604 21.3363 17.604 20.8542C17.6041 20.5772 17.6522 20.3023 17.7462 20.0417H11.7743C11.8683 20.3023 11.9164 20.5772 11.9165 20.8542C11.9172 21.2475 11.8228 21.6351 11.6413 21.984C11.4597 22.3329 11.1965 22.6326 10.8739 22.8577C10.5514 23.0827 10.1793 23.2264 9.78919 23.2765C9.39911 23.3265 9.00272 23.2814 8.63384 23.1451C8.26497 23.0087 7.93456 22.7851 7.67083 22.4934C7.4071 22.2017 7.21788 21.8504 7.11931 21.4697C7.02074 21.089 7.01576 20.6901 7.10478 20.307C7.19381 19.9239 7.37421 19.5681 7.63057 19.2699L4.81729 3.79175H2.979C2.76352 3.79175 2.55685 3.70615 2.40448 3.55377C2.25211 3.4014 2.1665 3.19474 2.1665 2.97925C2.1665 2.76376 2.25211 2.5571 2.40448 2.40472C2.55685 2.25235 2.76352 2.16675 2.979 2.16675H4.81729C5.19656 2.16758 5.5636 2.30105 5.85481 2.54404C6.14603 2.78702 6.34307 3.12422 6.41182 3.49722L6.90947 6.22925H23.2915C23.4101 6.22949 23.5272 6.25604 23.6343 6.30697C23.7415 6.3579 23.836 6.43194 23.911 6.52378C23.9896 6.61273 24.0469 6.7184 24.0786 6.83278C24.1102 6.94715 24.1155 7.06724 24.0938 7.18394Z" fill="#F0821B"/>
</svg>
