<svg width="18" height="18" viewBox="0 0 18 18" fill="none" xmlns="http://www.w3.org/2000/svg">
<path d="M16.875 2.8125H6.1875C6.03788 2.8125 5.895 2.87212 5.78925 2.97675L5.0625 3.70463L4.33575 2.97675C4.23 2.87212 4.08712 2.8125 3.9375 2.8125H1.125C0.505125 2.8125 0 3.31762 0 3.9375V14.0625C0 14.6835 0.505125 15.1875 1.125 15.1875H3.9375C4.08712 15.1875 4.23 15.1279 4.33575 15.0233L5.0625 14.2954L5.78925 15.0221C5.895 15.1279 6.03788 15.1875 6.1875 15.1875H16.875C17.496 15.1875 18 14.6835 18 14.0625V3.9375C18 3.31762 17.496 2.8125 16.875 2.8125Z" fill="#4CAF50"/>
<path d="M9.5625 8.4375C8.63212 8.4375 7.875 7.68038 7.875 6.75C7.875 5.81962 8.63212 5.0625 9.5625 5.0625C10.4929 5.0625 11.25 5.81962 11.25 6.75C11.25 7.68038 10.4929 8.4375 9.5625 8.4375ZM9.5625 6.1875C9.252 6.1875 9 6.4395 9 6.75C9 7.0605 9.252 7.3125 9.5625 7.3125C9.873 7.3125 10.125 7.0605 10.125 6.75C10.125 6.4395 9.873 6.1875 9.5625 6.1875Z" fill="#FAFAFA"/>
<path d="M12.9375 12.9375C12.0071 12.9375 11.25 12.1804 11.25 11.25C11.25 10.3196 12.0071 9.5625 12.9375 9.5625C13.8679 9.5625 14.625 10.3196 14.625 11.25C14.625 12.1804 13.8679 12.9375 12.9375 12.9375ZM12.9375 10.6875C12.6281 10.6875 12.375 10.9406 12.375 11.25C12.375 11.5594 12.6281 11.8125 12.9375 11.8125C13.2469 11.8125 13.5 11.5594 13.5 11.25C13.5 10.9406 13.2469 10.6875 12.9375 10.6875Z" fill="#FAFAFA"/>
<path d="M8.43751 12.9376C8.31038 12.9376 8.18326 12.8949 8.07751 12.8071C7.83901 12.608 7.80639 12.2536 8.00551 12.0151L13.6305 5.26512C13.8308 5.02549 14.1851 4.99624 14.4225 5.19312C14.661 5.39224 14.6925 5.74662 14.4934 5.98624L8.86838 12.7362C8.75813 12.8679 8.59838 12.9376 8.43751 12.9376Z" fill="#FAFAFA"/>
<path d="M5.625 5.0625H4.5V6.1875H5.625V5.0625Z" fill="#FAFAFA"/>
<path d="M5.625 11.8125H4.5V12.9375H5.625V11.8125Z" fill="#FAFAFA"/>
<path d="M5.625 9.5625H4.5V10.6875H5.625V9.5625Z" fill="#FAFAFA"/>
<path d="M5.625 7.3125H4.5V8.4375H5.625V7.3125Z" fill="#FAFAFA"/>
</svg>
