<svg width="18" height="18" viewBox="0 0 18 18" fill="none" xmlns="http://www.w3.org/2000/svg">
<path d="M9.03656 1.91514e-06C6.65208 -0.00154988 4.36376 0.939993 2.67084 2.61921C0.977926 4.29843 0.0178218 6.57903 0 8.96344C0.0147528 11.3555 0.971554 13.6455 2.66305 15.337C4.35455 17.0284 6.64447 17.9852 9.03656 18C11.4235 18 13.7127 17.0518 15.4005 15.364C17.0884 13.6761 18.0366 11.387 18.0366 9C18.0366 6.61305 17.0884 4.32387 15.4005 2.63604C13.7127 0.948214 11.4235 1.91514e-06 9.03656 1.91514e-06Z" fill="white"/>
<path d="M9.03656 2.10938C7.21218 2.11001 5.46164 2.83002 4.16478 4.11319C2.86792 5.39636 2.12937 7.13917 2.10938 8.96344C2.12553 10.7956 2.86054 12.5482 4.15615 13.8438C5.45177 15.1395 7.20436 15.8745 9.03656 15.8906C10.8641 15.8906 12.6167 15.1646 13.909 13.8724C15.2012 12.5802 15.9272 10.8275 15.9272 9C15.9272 7.17249 15.2012 5.41984 13.909 4.12759C12.6167 2.83535 10.8641 2.10938 9.03656 2.10938Z" fill="#FA5D3F"/>
<path d="M6.06934 5.15527H11.8406V6.56152H7.77934V8.20965H11.4356V9.6159H7.77934V11.3034H11.9587V12.7096H6.06934V5.15527Z" fill="#FEDB41"/>
</svg>
