<svg width="18" height="18" viewBox="0 0 18 18" fill="none" xmlns="http://www.w3.org/2000/svg">
<path d="M13.5 2.8125H4.5C3.87868 2.8125 3.375 3.31618 3.375 3.9375V15.1875C3.375 15.8088 3.87868 16.3125 4.5 16.3125H13.5C14.1213 16.3125 14.625 15.8088 14.625 15.1875V3.9375C14.625 3.31618 14.1213 2.8125 13.5 2.8125Z" fill="#CCEDFF"/>
<path d="M5.625 2.8125V4.5C5.625 4.64918 5.68426 4.79226 5.78975 4.89775C5.89524 5.00324 6.03832 5.0625 6.1875 5.0625H11.8125C11.9617 5.0625 12.1048 5.00324 12.2102 4.89775C12.3157 4.79226 12.375 4.64918 12.375 4.5V2.8125H5.625Z" fill="#99E0FF"/>
<path d="M7.875 1.6875H10.125C10.4234 1.6875 10.7095 1.80603 10.9205 2.017C11.1315 2.22798 11.25 2.51413 11.25 2.8125V3.9375H6.75V2.8125C6.75 2.51413 6.86853 2.22798 7.07951 2.017C7.29048 1.80603 7.57663 1.6875 7.875 1.6875Z" fill="#CCEDFF"/>
<path d="M13.5 2.25H11.7088C11.5933 1.92192 11.379 1.63765 11.0954 1.43622C10.8118 1.23479 10.4728 1.12608 10.125 1.125H7.875C7.52716 1.12608 7.18818 1.23479 6.9046 1.43622C6.62102 1.63765 6.40673 1.92192 6.29117 2.25H4.5C4.0526 2.25049 3.62366 2.42844 3.3073 2.7448C2.99094 3.06116 2.81299 3.4901 2.8125 3.9375V15.1875C2.81299 15.6349 2.99094 16.0638 3.3073 16.3802C3.62366 16.6966 4.0526 16.8745 4.5 16.875H13.5C13.9474 16.8745 14.3763 16.6966 14.6927 16.3802C15.0091 16.0638 15.187 15.6349 15.1875 15.1875V3.9375C15.187 3.4901 15.0091 3.06116 14.6927 2.7448C14.3763 2.42844 13.9474 2.25049 13.5 2.25ZM7.3125 2.8125C7.31265 2.66336 7.37196 2.52037 7.47742 2.41492C7.58287 2.30946 7.72586 2.25015 7.875 2.25H10.125C10.2741 2.25015 10.4171 2.30946 10.5226 2.41492C10.628 2.52037 10.6874 2.66336 10.6875 2.8125V3.375H7.3125V2.8125ZM14.0625 15.1875C14.0624 15.3366 14.003 15.4796 13.8976 15.5851C13.7921 15.6905 13.6491 15.7499 13.5 15.75H4.5C4.35086 15.7499 4.20787 15.6905 4.10242 15.5851C3.99696 15.4796 3.93765 15.3366 3.9375 15.1875V3.9375C3.93765 3.78836 3.99696 3.64537 4.10242 3.53992C4.20787 3.43446 4.35086 3.37515 4.5 3.375H6.1875V3.9375C6.1875 4.08668 6.24676 4.22976 6.35225 4.33525C6.45774 4.44074 6.60082 4.5 6.75 4.5H11.25C11.3992 4.5 11.5423 4.44074 11.6477 4.33525C11.7532 4.22976 11.8125 4.08668 11.8125 3.9375V3.375H13.5C13.6491 3.37515 13.7921 3.43446 13.8976 3.53992C14.003 3.64537 14.0624 3.78836 14.0625 3.9375V15.1875Z" fill="#1AADFF"/>
<path d="M6.74998 6.51705L6.02267 5.78974L5.22729 6.58517L6.35229 7.71017C6.45778 7.81564 6.60084 7.87489 6.75001 7.87489C6.89918 7.87489 7.04224 7.81564 7.14773 7.71017L8.83523 6.02267L8.03979 5.22729L6.74998 6.51705Z" fill="#1AADFF"/>
<path d="M6.74998 9.89205L6.02267 9.16474L5.22729 9.96017L6.35229 11.0852C6.45778 11.1906 6.60084 11.2499 6.75001 11.2499C6.89918 11.2499 7.04224 11.1906 7.14773 11.0852L8.83523 9.39767L8.03979 8.60229L6.74998 9.89205Z" fill="#1AADFF"/>
<path d="M6.74998 13.2671L6.02267 12.5397L5.22729 13.3352L6.35229 14.4602C6.45778 14.5656 6.60084 14.6249 6.75001 14.6249C6.89918 14.6249 7.04224 14.5656 7.14773 14.4602L8.83523 12.7727L8.03979 11.9773L6.74998 13.2671Z" fill="#1AADFF"/>
<path d="M9.5625 6.1875H12.9375V7.3125H9.5625V6.1875Z" fill="#1AADFF"/>
<path d="M9.5625 9.5625H12.9375V10.6875H9.5625V9.5625Z" fill="#1AADFF"/>
<path d="M9.5625 12.9375H12.9375V14.0625H9.5625V12.9375Z" fill="#1AADFF"/>
</svg>
