<svg width="18" height="14" viewBox="0 0 18 14" fill="none" xmlns="http://www.w3.org/2000/svg">
<path d="M18 3.73047V2.78125C18 1.69394 17.1186 0.8125 16.0312 0.8125H1.96875C0.881438 0.8125 0 1.69394 0 2.78125V3.73047C0 3.82754 0.0787148 3.90625 0.175781 3.90625H17.8242C17.9213 3.90625 18 3.82754 18 3.73047Z" fill="#F58600"/>
<path d="M0 5.20703V11.2188C0 12.3061 0.881438 13.1875 1.96875 13.1875H16.0312C17.1186 13.1875 18 12.3061 18 11.2188V5.20703C18 5.10996 17.9213 5.03125 17.8242 5.03125H0.175781C0.0787148 5.03125 0 5.10996 0 5.20703ZM4.5 9.8125C4.5 10.1231 4.24814 10.375 3.9375 10.375H3.375C3.06436 10.375 2.8125 10.1231 2.8125 9.8125V9.25C2.8125 8.93936 3.06436 8.6875 3.375 8.6875H3.9375C4.24814 8.6875 4.5 8.93936 4.5 9.25V9.8125Z" fill="#F58600"/>
</svg>
