<svg width="18" height="18" viewBox="0 0 18 18" fill="none" xmlns="http://www.w3.org/2000/svg">
<g clip-path="url(#clip0_196_15170)">
<path d="M15.9966 17.9999C16.2867 17.9999 16.5239 17.7646 16.5239 17.4726V15.1757H17.4727C17.7639 15.1757 18 14.9396 18 14.6484V4.4812C18 4.18997 17.7639 3.95386 17.4727 3.95386H8.43518C8.14395 3.95386 7.90784 4.18997 7.90784 4.4812V14.6484C7.90784 14.9396 8.14395 15.1757 8.43518 15.1757H12.9539L15.6236 17.8455C15.7245 17.9464 15.8594 17.9999 15.9966 17.9999Z" fill="#00B6FF"/>
<path d="M15.9966 17.9999C16.2867 17.9999 16.5239 17.7646 16.5239 17.4726V15.1757H17.4727C17.7639 15.1757 18 14.9396 18 14.6484V4.4812C18 4.18997 17.7639 3.95386 17.4727 3.95386H12.9539V15.1757L15.6236 17.8455C15.7245 17.9464 15.8594 17.9999 15.9966 17.9999Z" fill="#4893FF"/>
<path d="M15.1601 11.6963L14.1673 7.72512C14.0279 7.1675 13.5291 6.77808 12.9537 6.77808C12.3788 6.77808 11.8799 7.16754 11.7405 7.72515L10.7478 11.6963C10.6772 11.9788 10.849 12.2651 11.1315 12.3358C11.4141 12.4064 11.7004 12.2346 11.771 11.9521L11.9536 11.2218H13.9544L14.1369 11.9521C14.2075 12.2346 14.4938 12.4064 14.7764 12.3358C15.0589 12.2651 15.2307 11.9788 15.1601 11.6963ZM12.2172 10.1671L12.7637 7.98091C12.7855 7.89369 12.8636 7.83273 12.9542 7.83273C13.0442 7.83273 13.1223 7.89365 13.1441 7.98091L13.6907 10.1671H12.2172Z" fill="#F5FAFF"/>
<path d="M2.00338 14.0461C1.7133 14.0461 1.47614 13.8107 1.47614 13.5187V11.2219H0.527344C0.236109 11.2219 0 10.9858 0 10.6945V0.527344C0 0.236109 0.236109 0 0.527344 0H9.56482C9.85606 0 10.0922 0.236109 10.0922 0.527344V10.6945C10.0922 10.9858 9.85606 11.2219 9.56482 11.2219H5.04608L2.37635 13.8916C2.27549 13.9925 2.14059 14.0461 2.00338 14.0461Z" fill="#FFCB00"/>
<path d="M9.56482 0H5.04608V11.2219H9.56482C9.85605 11.2219 10.0922 10.9858 10.0922 10.6945V0.527344C10.0922 0.236109 9.85609 0 9.56482 0Z" fill="#FF9D22"/>
<path d="M7.45521 7.92942C6.85411 7.75139 6.29682 7.46008 5.8111 7.07674C6.46064 6.33206 6.93237 5.43322 7.17087 4.44368H7.30545C7.59668 4.44368 7.83279 4.20757 7.83279 3.91633C7.83279 3.6251 7.59668 3.38899 7.30545 3.38899H5.57341V2.78662C5.57341 2.49539 5.3373 2.25928 5.04606 2.25928C4.75483 2.25928 4.51872 2.49539 4.51872 2.78662V3.38895H2.78671C2.49548 3.38895 2.25937 3.62506 2.25937 3.9163C2.25937 4.20753 2.49548 4.44364 2.78671 4.44364H6.07899C5.87206 5.14782 5.51083 5.78928 5.0461 6.33519C4.93666 6.20177 4.84458 6.06382 4.74924 5.91852L4.35725 5.32142C4.19739 5.07796 3.87044 5.01015 3.62702 5.17C3.38352 5.32986 3.31574 5.65681 3.4756 5.90023L3.86748 6.49719C3.9982 6.69638 4.14051 6.88647 4.29287 7.06718C3.55769 7.63818 2.88181 7.84761 2.6207 7.93448C2.34427 8.02613 2.1945 8.32457 2.28616 8.60101C2.35956 8.82239 2.56547 8.96248 2.78661 8.96248C2.94783 8.96248 4.03936 8.63244 5.04606 7.8146C6.05213 8.6484 7.14169 8.96248 7.30562 8.96248C7.53319 8.96248 7.74314 8.81402 7.81107 8.58477C7.89379 8.30555 7.73446 8.01211 7.45521 7.92942Z" fill="#F5FAFF"/>
<path d="M7.45523 7.92942C6.85413 7.75139 6.29684 7.46008 5.81112 7.07674C6.46066 6.33206 6.93239 5.43322 7.17089 4.44368H7.30547C7.5967 4.44368 7.83281 4.20757 7.83281 3.91633C7.83281 3.6251 7.5967 3.38899 7.30547 3.38899H5.57343V2.78662C5.57343 2.49539 5.33732 2.25928 5.04608 2.25928V4.44368H6.07897C5.87204 5.14786 5.51081 5.78932 5.04608 6.33522V7.8147C6.05215 8.6485 7.14171 8.96259 7.30564 8.96259C7.53321 8.96259 7.74316 8.81413 7.81109 8.58487C7.89381 8.30555 7.73448 8.01211 7.45523 7.92942Z" fill="#DFE9EE"/>
<path d="M14.1369 11.9521C14.2075 12.2346 14.4938 12.4064 14.7763 12.3358C15.0589 12.2651 15.2307 11.9788 15.1601 11.6963L14.1673 7.72512C14.0279 7.16757 13.5292 6.77818 12.9539 6.77808V7.83276C12.954 7.83276 12.9541 7.83273 12.9542 7.83273C13.0442 7.83273 13.1223 7.89365 13.1441 7.98091L13.6907 10.1671H12.9539V11.2218H13.9543L14.1369 11.9521Z" fill="#DFE9EE"/>
</g>
<defs>
<clipPath id="clip0_196_15170">
<rect width="18" height="18" fill="white"/>
</clipPath>
</defs>
</svg>
