<svg width="18" height="18" viewBox="0 0 18 18" fill="none" xmlns="http://www.w3.org/2000/svg">
<g clip-path="url(#clip0_196_15094)">
<path d="M8.99547 1.59002e-07C7.95994 1.59002e-07 7.12048 0.839461 7.12048 1.87499C7.12224 1.96495 7.13054 2.05471 7.14523 2.14348C7.17227 2.32928 7.33251 2.46642 7.52025 2.46449C7.55603 2.46445 7.59161 2.45939 7.626 2.44948C8.52206 2.18436 9.47571 2.18436 10.3717 2.44948C10.4783 2.47584 10.591 2.45538 10.6815 2.39323C10.7739 2.33002 10.8357 2.23102 10.8518 2.12024C10.8652 2.03889 10.8727 1.95669 10.8743 1.87425C10.8738 0.838723 10.034 -0.000421716 8.9985 1.59002e-07C8.99748 1.59002e-07 8.99649 1.59002e-07 8.99547 1.59002e-07Z" fill="#F57C00"/>
<path d="M11.2455 15H6.7455C6.53839 15 6.37048 15.1679 6.37048 15.375C6.37048 16.8248 7.54572 18 8.9955 18C10.4453 18 11.6205 16.8248 11.6205 15.375C11.6205 15.1679 11.4526 15 11.2455 15Z" fill="#FFA000"/>
<path d="M15.9862 13.6568C15.8677 13.3951 15.7185 13.1026 15.5535 12.7801C14.5386 11.061 13.9608 9.11933 13.8705 7.12509C13.8705 4.15284 12.2955 1.97185 9.85949 1.5691C8.43798 1.34062 6.98901 1.76302 5.91299 2.71959C4.72186 3.75937 4.06103 5.27935 4.11299 6.85959C4.08194 8.94878 3.50485 10.9935 2.43899 12.7906C2.27772 13.1086 2.13074 13.3981 2.01374 13.6561C1.67574 14.4015 2.006 15.2798 2.75145 15.6179C2.94587 15.706 3.15702 15.7511 3.37049 15.7501H14.6325C15.4509 15.7526 16.1165 15.091 16.1189 14.2726C16.1195 14.0603 16.0745 13.8503 15.9869 13.6569L15.9862 13.6568Z" fill="#FFC107"/>
<path d="M3.99522 14.25C3.78811 14.25 3.6202 14.0821 3.62024 13.875C3.62024 13.8166 3.63384 13.7591 3.65997 13.707L3.78073 13.47C4.90088 11.5361 5.53239 9.35815 5.62049 7.12499C5.62049 5.22223 6.50474 3 8.99549 3C9.20259 3 9.3705 3.16791 9.3705 3.37501C9.3705 3.58212 9.20259 3.75002 8.99549 3.75002C6.55948 3.75002 6.37048 6.33302 6.37048 7.12502C6.28677 9.47754 5.62671 11.7735 4.44824 13.8113L4.33124 14.043C4.26754 14.1701 4.13742 14.2502 3.99522 14.25Z" fill="#FFD54F"/>
</g>
<defs>
<clipPath id="clip0_196_15094">
<rect width="18" height="18" fill="white"/>
</clipPath>
</defs>
</svg>
