<svg width="18" height="18" viewBox="0 0 18 18" fill="none" xmlns="http://www.w3.org/2000/svg">
<g clip-path="url(#clip0_196_15035)">
<path d="M17.3325 6.87747L16.5 5.99997C16.8395 5.42684 16.9785 4.75704 16.8952 4.09617C16.8119 3.4353 16.5111 2.82094 16.0401 2.34993C15.5691 1.87893 14.9547 1.57807 14.2938 1.49479C13.633 1.41151 12.9632 1.55054 12.39 1.88997L11.4975 1.04247C11.3582 0.903004 11.1928 0.792366 11.0107 0.716879C10.8286 0.641393 10.6334 0.602539 10.4363 0.602539C10.2392 0.602539 10.044 0.641393 9.86187 0.716879C9.67977 0.792366 9.51434 0.903004 9.37503 1.04247L1.41753 8.99997C1.27807 9.13928 1.16743 9.30471 1.09194 9.48681C1.01645 9.66891 0.9776 9.8641 0.9776 10.0612C0.9776 10.2583 1.01645 10.4535 1.09194 10.6356C1.16743 10.8177 1.27807 10.9832 1.41753 11.1225L2.25003 12C1.9106 12.5731 1.77157 13.2429 1.85485 13.9038C1.93814 14.5646 2.23899 15.179 2.70999 15.65C3.181 16.121 3.79536 16.4219 4.45623 16.5051C5.11711 16.5884 5.7869 16.4494 6.36003 16.11L7.22253 16.9725C7.36184 17.1119 7.52727 17.2226 7.70937 17.2981C7.89147 17.3735 8.08666 17.4124 8.28378 17.4124C8.4809 17.4124 8.67609 17.3735 8.85819 17.2981C9.04029 17.2226 9.20572 17.1119 9.34503 16.9725L17.3325 8.99997C17.472 8.86066 17.5826 8.69523 17.6581 8.51313C17.7336 8.33103 17.7725 8.13584 17.7725 7.93872C17.7725 7.7416 17.7336 7.54641 17.6581 7.36431C17.5826 7.18221 17.472 7.01678 17.3325 6.87747Z" fill="#EFA83C"/>
<path d="M9.11255 12.2625C8.91364 12.2625 8.72287 12.1834 8.58222 12.0428C8.44157 11.9021 8.36255 11.7114 8.36255 11.5125V7.01245C8.36255 6.81354 8.44157 6.62277 8.58222 6.48212C8.72287 6.34147 8.91364 6.26245 9.11255 6.26245C9.31146 6.26245 9.50223 6.34147 9.64288 6.48212C9.78353 6.62277 9.86255 6.81354 9.86255 7.01245V11.5125C9.86255 11.7114 9.78353 11.9021 9.64288 12.0428C9.50223 12.1834 9.31146 12.2625 9.11255 12.2625Z" fill="white"/>
<path d="M7.05005 9.26245C7.56782 9.26245 7.98755 8.84272 7.98755 8.32495C7.98755 7.80718 7.56782 7.38745 7.05005 7.38745C6.53228 7.38745 6.11255 7.80718 6.11255 8.32495C6.11255 8.84272 6.53228 9.26245 7.05005 9.26245Z" fill="white"/>
<path d="M11.175 11.1375C11.6928 11.1375 12.1125 10.7177 12.1125 10.2C12.1125 9.68218 11.6928 9.26245 11.175 9.26245C10.6573 9.26245 10.2375 9.68218 10.2375 10.2C10.2375 10.7177 10.6573 11.1375 11.175 11.1375Z" fill="white"/>
</g>
<defs>
<clipPath id="clip0_196_15035">
<rect width="18" height="18" fill="white"/>
</clipPath>
</defs>
</svg>
