<svg width="18" height="18" viewBox="0 0 18 18" fill="none" xmlns="http://www.w3.org/2000/svg">
<path fill-rule="evenodd" clip-rule="evenodd" d="M10.1353 14.9379C10.1915 14.8817 10.2678 14.85 10.3474 14.85H12.3C13.9569 14.85 15.3 13.5069 15.3 11.85V7.05005C15.3 5.39319 13.9569 4.05005 12.3 4.05005H11.85H4.5C2.84315 4.05005 1.5 5.39319 1.5 7.05005V9.45005V11.85C1.5 13.5069 2.84315 14.85 4.5 14.85H6.26802C6.34758 14.85 6.42389 14.8817 6.48015 14.9379L7.77738 16.2351C8.07029 16.5281 8.54516 16.5281 8.83805 16.2351L10.1353 14.9379Z" fill="#027EF1"/>
<path fill-rule="evenodd" clip-rule="evenodd" d="M4.20001 6.90005C4.20001 6.56868 4.46865 6.30005 4.80001 6.30005H6.90001C7.23138 6.30005 7.50001 6.56868 7.50001 6.90005C7.50001 7.23141 7.23138 7.50005 6.90001 7.50005H4.80001C4.46865 7.50005 4.20001 7.23141 4.20001 6.90005Z" fill="white"/>
<path fill-rule="evenodd" clip-rule="evenodd" d="M4.20001 11.7001C4.20001 11.3687 4.46865 11.1001 4.80001 11.1001H12C12.3314 11.1001 12.6 11.3687 12.6 11.7001C12.6 12.0315 12.3314 12.3001 12 12.3001H4.80001C4.46865 12.3001 4.20001 12.0315 4.20001 11.7001Z" fill="white"/>
<path fill-rule="evenodd" clip-rule="evenodd" d="M4.20001 9.29995C4.20001 8.96859 4.46865 8.69995 4.80001 8.69995H7.95001C8.28138 8.69995 8.55001 8.96859 8.55001 9.29995C8.55001 9.63132 8.28138 9.89995 7.95001 9.89995H4.80001C4.46865 9.89995 4.20001 9.63132 4.20001 9.29995Z" fill="white"/>
<path d="M16.5 5.7C16.5 8.0196 14.6196 9.9 12.3 9.9C9.98038 9.9 8.09998 8.0196 8.09998 5.7C8.09998 3.3804 9.98038 1.5 12.3 1.5C14.6196 1.5 16.5 3.3804 16.5 5.7Z" fill="#FFBA33"/>
<path fill-rule="evenodd" clip-rule="evenodd" d="M11.6624 4.3567C11.8726 3.75219 12.7275 3.7522 12.9376 4.3567L13.0471 4.67166L13.3804 4.67845C14.0203 4.69149 14.2845 5.50456 13.7745 5.8912L13.5088 6.09264L13.6053 6.41179C13.7907 7.02436 13.099 7.52686 12.5737 7.16131L12.3 6.97086L12.0263 7.16131C11.501 7.52686 10.8094 7.02436 10.9947 6.41179L11.0912 6.09264L10.8255 5.8912C10.3155 5.50455 10.5797 4.69149 11.2196 4.67845L11.553 4.67166L11.6624 4.3567Z" fill="white"/>
</svg>
