<svg width="18" height="18" viewBox="0 0 18 18" fill="none" xmlns="http://www.w3.org/2000/svg">
<path fill-rule="evenodd" clip-rule="evenodd" d="M12.6641 10.1775C11.5984 10.3862 10.9135 11.2432 10.8 12.3126C8.35728 11.364 6.63602 9.6391 5.69116 7.2037C6.76054 7.09017 7.62117 6.40533 7.82625 5.33961C8.0643 4.11642 4.84518 0.900957 3.62564 1.139C2.84192 1.29282 1.78353 2.31093 1.45759 3.0214C0.728797 4.61082 1.32941 6.39434 2.13877 7.82995C3.74284 10.6719 7.33551 14.2645 10.1774 15.8686C11.613 16.678 13.3965 17.2786 14.986 16.5498C15.6964 16.2238 16.7146 15.1655 16.8684 14.3817C17.1028 13.1549 13.8836 9.93941 12.6641 10.1775Z" fill="#E8141F"/>
</svg>
