<svg width="18" height="18" viewBox="0 0 18 18" fill="none" xmlns="http://www.w3.org/2000/svg">
<path d="M9.75 15.75C8.825 15.75 7.9595 15.578 7.1535 15.234C6.347 14.8905 5.6375 14.4187 5.025 13.8187L6.09375 12.75C6.56875 13.2125 7.11875 13.578 7.74375 13.8465C8.36875 14.1155 9.0375 14.25 9.75 14.25C11.2 14.25 12.4375 13.7375 13.4625 12.7125C14.4875 11.6875 15 10.45 15 9C15 7.55 14.4875 6.3125 13.4625 5.2875C12.4375 4.2625 11.2 3.75 9.75 3.75C8.3 3.75 7.0625 4.2625 6.0375 5.2875C5.0125 6.3125 4.5 7.55 4.5 9V9.13125L5.86875 7.7625L6.9375 8.8125L3.75 12L0.5625 8.8125L1.63125 7.7625L3 9.15V9C3 8.0625 3.17825 7.18425 3.53475 6.36525C3.89075 5.54675 4.372 4.83425 4.9785 4.22775C5.5845 3.62175 6.297 3.1405 7.116 2.784C7.9345 2.428 8.8125 2.25 9.75 2.25C10.6875 2.25 11.5658 2.428 12.3848 2.784C13.2033 3.1405 13.9158 3.62175 14.5223 4.22775C15.1283 4.83425 15.6095 5.54675 15.966 6.36525C16.322 7.18425 16.5 8.0625 16.5 9C16.5 10.875 15.8438 12.4688 14.5312 13.7812C13.2188 15.0938 11.625 15.75 9.75 15.75ZM8.25 12C8.0375 12 7.8595 11.928 7.716 11.784C7.572 11.6405 7.5 11.4625 7.5 11.25V9C7.5 8.7875 7.572 8.60925 7.716 8.46525C7.8595 8.32175 8.0375 8.25 8.25 8.25V7.5C8.25 7.0875 8.397 6.73425 8.691 6.44025C8.9845 6.14675 9.3375 6 9.75 6C10.1625 6 10.5157 6.14675 10.8097 6.44025C11.1033 6.73425 11.25 7.0875 11.25 7.5V8.25C11.4625 8.25 11.6407 8.32175 11.7847 8.46525C11.9283 8.60925 12 8.7875 12 9V11.25C12 11.4625 11.9283 11.6405 11.7847 11.784C11.6407 11.928 11.4625 12 11.25 12H8.25ZM9 8.25H10.5V7.5C10.5 7.2875 10.4283 7.10925 10.2847 6.96525C10.1407 6.82175 9.9625 6.75 9.75 6.75C9.5375 6.75 9.3595 6.82175 9.216 6.96525C9.072 7.10925 9 7.2875 9 7.5V8.25Z" fill="#00C344"/>
</svg>
