<svg width="18" height="18" viewBox="0 0 18 18" fill="none" xmlns="http://www.w3.org/2000/svg">
<path d="M14.7 3.30008C13.3274 1.93577 11.5095 1.11123 9.57886 0.977324C7.64821 0.843414 5.73388 1.40908 4.18608 2.57084C2.63829 3.7326 1.5605 5.41278 1.14989 7.30401C0.739286 9.19524 1.02331 11.1711 1.95001 12.8701C1.96717 12.9186 1.96717 12.9716 1.95001 13.0201L1.35751 15.0001C1.29198 15.2273 1.28801 15.4679 1.34599 15.6972C1.40398 15.9265 1.52183 16.1363 1.68751 16.3051C1.85567 16.4741 2.06671 16.5942 2.29795 16.6523C2.52919 16.7104 2.7719 16.7045 3.00001 16.6351L4.98751 16.0426C5.01127 16.0327 5.03676 16.0276 5.06251 16.0276C5.08825 16.0276 5.11374 16.0327 5.13751 16.0426C6.31745 16.7052 7.64676 17.0562 9.00001 17.0626C9.58211 17.0614 10.1626 17.001 10.7325 16.8826C12.1463 16.5725 13.4505 15.8875 14.5083 14.8996C15.5661 13.9117 16.3384 12.6572 16.7442 11.2679C17.1501 9.8786 17.1744 8.40565 16.8147 7.00368C16.455 5.60172 15.7246 4.32242 14.7 3.30008Z" fill="#0DB561"/>
<path d="M9 7.3501C9.82843 7.3501 10.5 6.67852 10.5 5.8501C10.5 5.02167 9.82843 4.3501 9 4.3501C8.17157 4.3501 7.5 5.02167 7.5 5.8501C7.5 6.67852 8.17157 7.3501 9 7.3501Z" fill="white"/>
<path d="M9 8.12256C8.60218 8.12256 8.22064 8.28059 7.93934 8.5619C7.65804 8.8432 7.5 9.22473 7.5 9.62256V12.2926C7.5 12.6904 7.65804 13.0719 7.93934 13.3532C8.22064 13.6345 8.60218 13.7926 9 13.7926C9.39782 13.7926 9.77936 13.6345 10.0607 13.3532C10.342 13.0719 10.5 12.6904 10.5 12.2926V9.62256C10.5 9.22473 10.342 8.8432 10.0607 8.5619C9.77936 8.28059 9.39782 8.12256 9 8.12256Z" fill="white"/>
</svg>
