<svg width="14" height="18" viewBox="0 0 14 18" fill="none" xmlns="http://www.w3.org/2000/svg">
<path d="M12.0625 0.9375H1.9375C1.10907 0.9375 0.4375 1.60907 0.4375 2.4375V15.57C0.4375 16.3984 1.10907 17.07 1.9375 17.07H12.0625C12.8909 17.07 13.5625 16.3984 13.5625 15.57V2.4375C13.5625 1.60907 12.8909 0.9375 12.0625 0.9375Z" fill="#36C8F6"/>
<path d="M9.8125 0.9375H4.1875C3.77329 0.9375 3.4375 1.27329 3.4375 1.6875V3.5625C3.4375 3.97671 3.77329 4.3125 4.1875 4.3125H9.8125C10.2267 4.3125 10.5625 3.97671 10.5625 3.5625V1.6875C10.5625 1.27329 10.2267 0.9375 9.8125 0.9375Z" fill="#194FC6"/>
<path d="M10 14.0625H4C3.85082 14.0625 3.70774 14.0032 3.60225 13.8977C3.49676 13.7923 3.4375 13.6492 3.4375 13.5C3.4375 13.3508 3.49676 13.2077 3.60225 13.1023C3.70774 12.9968 3.85082 12.9375 4 12.9375H10C10.1492 12.9375 10.2923 12.9968 10.3977 13.1023C10.5032 13.2077 10.5625 13.3508 10.5625 13.5C10.5625 13.6492 10.5032 13.7923 10.3977 13.8977C10.2923 14.0032 10.1492 14.0625 10 14.0625Z" fill="white"/>
<path d="M10 11.0625H4C3.85082 11.0625 3.70774 11.0032 3.60225 10.8977C3.49676 10.7923 3.4375 10.6492 3.4375 10.5C3.4375 10.3508 3.49676 10.2077 3.60225 10.1023C3.70774 9.99676 3.85082 9.9375 4 9.9375H10C10.1492 9.9375 10.2923 9.99676 10.3977 10.1023C10.5032 10.2077 10.5625 10.3508 10.5625 10.5C10.5625 10.6492 10.5032 10.7923 10.3977 10.8977C10.2923 11.0032 10.1492 11.0625 10 11.0625Z" fill="white"/>
<path d="M10 8.0625H4C3.85082 8.0625 3.70774 8.00324 3.60225 7.89775C3.49676 7.79226 3.4375 7.64918 3.4375 7.5C3.4375 7.35082 3.49676 7.20774 3.60225 7.10225C3.70774 6.99676 3.85082 6.9375 4 6.9375H10C10.1492 6.9375 10.2923 6.99676 10.3977 7.10225C10.5032 7.20774 10.5625 7.35082 10.5625 7.5C10.5625 7.64918 10.5032 7.79226 10.3977 7.89775C10.2923 8.00324 10.1492 8.0625 10 8.0625Z" fill="white"/>
</svg>
