<svg width="18" height="17" viewBox="0 0 18 17" fill="none" xmlns="http://www.w3.org/2000/svg">
<path d="M14.3438 4.90625V13.3438C14.3438 13.6421 14.2252 13.9283 14.0142 14.1392C13.8033 14.3502 13.5171 14.4688 13.2188 14.4688H6.46875L5.0625 16.1562L3.65625 14.4688H1.96875C1.67038 14.4688 1.38423 14.3502 1.17325 14.1392C0.962276 13.9283 0.84375 13.6421 0.84375 13.3438V4.90625C0.84375 4.60788 0.962276 4.32173 1.17325 4.11076C1.38423 3.89978 1.67038 3.78125 1.96875 3.78125H13.2188C13.5171 3.78125 13.8033 3.89978 14.0142 4.11076C14.2252 4.32173 14.3438 4.60788 14.3438 4.90625Z" fill="#57A4FF"/>
<path d="M4.64062 15.65L5.0625 16.1562L6.46875 14.4688H5.625L4.64062 15.65Z" fill="#2488FF"/>
<path d="M13.2188 3.78125H12.375C12.6734 3.78125 12.9595 3.89978 13.1705 4.11076C13.3815 4.32173 13.5 4.60788 13.5 4.90625V13.3438C13.5 13.6421 13.3815 13.9283 13.1705 14.1392C12.9595 14.3502 12.6734 14.4688 12.375 14.4688H13.2188C13.5171 14.4688 13.8033 14.3502 14.0142 14.1392C14.2252 13.9283 14.3438 13.6421 14.3438 13.3438V4.90625C14.3438 4.60788 14.2252 4.32173 14.0142 4.11076C13.8033 3.89978 13.5171 3.78125 13.2188 3.78125Z" fill="#2488FF"/>
<path d="M13.5 8.28125C15.5193 8.28125 17.1562 6.64429 17.1562 4.625C17.1562 2.60571 15.5193 0.96875 13.5 0.96875C11.4807 0.96875 9.84375 2.60571 9.84375 4.625C9.84375 6.64429 11.4807 8.28125 13.5 8.28125Z" fill="#FFCD00"/>
<path d="M13.5 0.96875C13.4049 0.96875 13.3118 0.975781 13.2188 0.983094C14.1372 1.05257 14.9954 1.46644 15.6216 2.14183C16.2479 2.81721 16.5958 3.70425 16.5958 4.62528C16.5958 5.54632 16.2479 6.43335 15.6216 7.10873C14.9954 7.78412 14.1372 8.19799 13.2188 8.26747C13.3118 8.27478 13.4049 8.28181 13.5 8.28181C14.4698 8.28181 15.3998 7.89657 16.0856 7.21084C16.7713 6.52511 17.1565 5.59505 17.1565 4.62528C17.1565 3.65551 16.7713 2.72546 16.0856 2.03972C15.3998 1.35399 14.4698 0.96875 13.5 0.96875Z" fill="#EBBF00"/>
<path d="M13.5 7.15625C13.7238 7.15625 13.9384 7.06736 14.0966 6.90912C14.2549 6.75089 14.3438 6.53628 14.3438 6.3125H12.6562C12.6562 6.53628 12.7451 6.75089 12.9034 6.90912C13.0616 7.06736 13.2762 7.15625 13.5 7.15625Z" fill="#EE8700"/>
<path d="M7.59375 9.6875C7.90441 9.6875 8.15625 9.43566 8.15625 9.125C8.15625 8.81434 7.90441 8.5625 7.59375 8.5625C7.28309 8.5625 7.03125 8.81434 7.03125 9.125C7.03125 9.43566 7.28309 9.6875 7.59375 9.6875Z" fill="#F1F2F2"/>
<path d="M4.78125 9.6875C5.09191 9.6875 5.34375 9.43566 5.34375 9.125C5.34375 8.81434 5.09191 8.5625 4.78125 8.5625C4.47059 8.5625 4.21875 8.81434 4.21875 9.125C4.21875 9.43566 4.47059 9.6875 4.78125 9.6875Z" fill="#F1F2F2"/>
<path d="M10.4062 9.6875C10.7169 9.6875 10.9688 9.43566 10.9688 9.125C10.9688 8.81434 10.7169 8.5625 10.4062 8.5625C10.0956 8.5625 9.84375 8.81434 9.84375 9.125C9.84375 9.43566 10.0956 9.6875 10.4062 9.6875Z" fill="#F1F2F2"/>
<path d="M13.5 3.21875C13.8107 3.21875 14.0625 2.96691 14.0625 2.65625C14.0625 2.34559 13.8107 2.09375 13.5 2.09375C13.1893 2.09375 12.9375 2.34559 12.9375 2.65625C12.9375 2.96691 13.1893 3.21875 13.5 3.21875Z" fill="#FFA733"/>
<path d="M15.4688 5.70219V6.3125H11.5312V5.70219C11.5313 5.62798 11.546 5.5545 11.5744 5.48597C11.6029 5.41744 11.6446 5.3552 11.6972 5.30281L11.9278 5.07219C11.9804 5.0198 12.0221 4.95756 12.0506 4.88903C12.079 4.8205 12.0937 4.74702 12.0938 4.67281V4.41125C12.0916 4.21854 12.1277 4.02731 12.1999 3.84863C12.2722 3.66996 12.3791 3.50739 12.5146 3.37032C12.6501 3.23326 12.8114 3.12444 12.9893 3.05014C13.1671 2.97585 13.3579 2.93756 13.5506 2.9375C13.915 2.94992 14.2602 3.10363 14.5132 3.3661C14.7662 3.62856 14.9072 3.97919 14.9062 4.34375V4.67281C14.9063 4.74702 14.921 4.8205 14.9494 4.88903C14.9779 4.95756 15.0196 5.0198 15.0722 5.07219L15.3028 5.30281C15.3554 5.3552 15.3971 5.41744 15.4256 5.48597C15.454 5.5545 15.4687 5.62798 15.4688 5.70219Z" fill="#FF9811"/>
</svg>
