<svg width="20" height="20" viewBox="0 0 20 20" fill="none" xmlns="http://www.w3.org/2000/svg">
<g clip-path="url(#clip0_524_49447)">
<path d="M10.0406 2.12794e-06C7.39121 -0.00172209 4.84862 1.04444 2.9676 2.91023C1.08658 4.77603 0.019802 7.31003 0 9.95938C0.016392 12.6173 1.0795 15.1616 2.95894 17.0411C4.83839 18.9205 7.38275 19.9836 10.0406 20C12.6928 20 15.2363 18.9464 17.1117 17.0711C18.9871 15.1957 20.0406 12.6522 20.0406 10C20.0406 7.34784 18.9871 4.8043 17.1117 2.92893C15.2363 1.05357 12.6928 2.12794e-06 10.0406 2.12794e-06Z" fill="white"/>
<path d="M10.0406 2.34375C8.01353 2.34445 6.06849 3.14447 4.62753 4.57021C3.18658 5.99596 2.36596 7.93241 2.34375 9.95938C2.36169 11.9952 3.17837 13.9425 4.61795 15.3821C6.05752 16.8216 8.00484 17.6383 10.0406 17.6562C12.0712 17.6562 14.0186 16.8496 15.4544 15.4138C16.8902 13.978 17.6969 12.0306 17.6969 10C17.6969 7.96944 16.8902 6.02204 15.4544 4.58621C14.0186 3.15039 12.0712 2.34375 10.0406 2.34375Z" fill="#FA5D3F"/>
<path d="M6.74365 5.72803H13.1562V7.29053H8.64365V9.12178H12.7062V10.6843H8.64365V12.5593H13.2874V14.1218H6.74365V5.72803Z" fill="#FEDB41"/>
</g>
<defs>
<clipPath id="clip0_524_49447">
<rect width="20" height="20" fill="white"/>
</clipPath>
</defs>
</svg>
