<svg width="21" height="20" viewBox="0 0 21 20" fill="none" xmlns="http://www.w3.org/2000/svg">
<path d="M1.64999 5.625C1.64999 4.7962 1.97923 4.00134 2.56529 3.41529C3.15134 2.82924 3.94619 2.5 4.77499 2.5H16.025C16.8538 2.5 17.6487 2.82924 18.2347 3.41529C18.8208 4.00134 19.15 4.7962 19.15 5.625V11.875C19.15 12.2854 19.0692 12.6917 18.9121 13.0709C18.7551 13.45 18.5249 13.7945 18.2347 14.0847C17.9445 14.3749 17.6 14.6051 17.2209 14.7621C16.8417 14.9192 16.4354 15 16.025 15H11.26L7.43124 18.35C7.25408 18.5049 7.03606 18.6054 6.80325 18.6397C6.57045 18.6739 6.3327 18.6404 6.11845 18.5431C5.90419 18.4458 5.7225 18.2888 5.59509 18.091C5.46768 17.8932 5.39995 17.6628 5.39999 17.4275V15H4.77499C3.94619 15 3.15134 14.6708 2.56529 14.0847C1.97923 13.4987 1.64999 12.7038 1.64999 11.875V5.625ZM4.77499 3.75C4.27771 3.75 3.8008 3.94754 3.44917 4.29917C3.09754 4.65081 2.89999 5.12772 2.89999 5.625V11.875C2.89999 12.3723 3.09754 12.8492 3.44917 13.2008C3.8008 13.5525 4.27771 13.75 4.77499 13.75H6.64999V17.3725L10.79 13.75H16.025C16.5223 13.75 16.9992 13.5525 17.3508 13.2008C17.7024 12.8492 17.9 12.3723 17.9 11.875V5.625C17.9 5.12772 17.7024 4.65081 17.3508 4.29917C16.9992 3.94754 16.5223 3.75 16.025 3.75H4.77499Z" fill="#616161"/>
</svg>
