<svg width="11" height="15" viewBox="0 0 11 15" fill="none" xmlns="http://www.w3.org/2000/svg">
<path fill-rule="evenodd" clip-rule="evenodd" d="M3.7799 8.65654C3.76059 8.35992 3.34417 8.29623 3.23419 8.57304C2.5552 10.2817 2.18337 12.0167 3.00564 13.7374L3.43471 14.6354C3.49046 14.752 3.35629 14.8695 3.24495 14.8015L2.38807 14.2783C1.19186 13.5479 0.30808 12.4978 0.0669762 11.1121C-0.336784 8.79147 1.14813 6.51526 2.8237 5.02436C4.04714 3.93575 4.51169 2.60126 4.1979 1.02096L4.02604 0.155478C4.00175 0.0332568 4.1509 -0.049723 4.24485 0.0337782L4.91002 0.624871C6.63647 2.15902 6.82295 3.68007 6.10331 5.81799C6.09993 5.82806 6.09718 5.83806 6.095 5.84846C5.95311 6.5208 5.95109 7.38205 6.54275 7.85881C6.99445 8.2228 7.63371 8.21381 8.15061 7.99717C8.67038 7.77932 9.07487 7.37365 9.31359 6.87221L9.61614 6.23663C9.66597 6.13195 9.81948 6.13824 9.86033 6.24661L10.1083 6.90464C11.3331 10.1553 10.7959 12.8436 7.6253 14.6468L7.03569 14.9821C6.93568 15.039 6.8149 14.9517 6.84011 14.8408L6.98878 14.187C7.54563 11.7377 5.3693 11.3824 4.39899 10.287C3.98244 9.81673 3.81988 9.27058 3.7799 8.65654Z" fill="#F6911E"/>
</svg>
