<svg width="19" height="17" viewBox="0 0 19 17" fill="none" xmlns="http://www.w3.org/2000/svg">
<path d="M6.71667 0.137729C5.14167 0.129396 3.60833 1.64606 4.30833 3.5294H1.66667C1.22464 3.5294 0.800716 3.70499 0.488155 4.01755C0.175595 4.33011 0 4.75404 0 5.19606V6.86273C0 7.08374 0.0877973 7.2957 0.244078 7.45198C0.400358 7.60826 0.61232 7.69606 0.833333 7.69606H8.33333V5.19606H10V7.69606H17.5C17.721 7.69606 17.933 7.60826 18.0893 7.45198C18.2455 7.2957 18.3333 7.08374 18.3333 6.86273V5.19606C18.3333 4.75404 18.1577 4.33011 17.8452 4.01755C17.5326 3.70499 17.1087 3.5294 16.6667 3.5294H14.025C15 0.804396 11.3333 -1.1206 9.64167 1.2294L9.16667 1.86273L8.69167 1.21273C8.16667 0.471063 7.44167 0.146063 6.71667 0.137729ZM6.66667 1.86273C7.40833 1.86273 7.78333 2.76273 7.25833 3.28773C6.73333 3.81273 5.83333 3.43773 5.83333 2.69606C5.83333 2.47505 5.92113 2.26309 6.07741 2.10681C6.23369 1.95053 6.44565 1.86273 6.66667 1.86273ZM11.6667 1.86273C12.4083 1.86273 12.7833 2.76273 12.2583 3.28773C11.7333 3.81273 10.8333 3.43773 10.8333 2.69606C10.8333 2.47505 10.9211 2.26309 11.0774 2.10681C11.2337 1.95053 11.4457 1.86273 11.6667 1.86273ZM0.833333 8.5294V15.1961C0.833333 15.6381 1.00893 16.062 1.32149 16.3746C1.63405 16.6871 2.05797 16.8627 2.5 16.8627H15.8333C16.2754 16.8627 16.6993 16.6871 17.0118 16.3746C17.3244 16.062 17.5 15.6381 17.5 15.1961V8.5294H10V15.1961H8.33333V8.5294H0.833333Z" fill="#E8141F"/>
</svg>
