<svg width="17" height="16" viewBox="0 0 17 16" fill="none" xmlns="http://www.w3.org/2000/svg">
<path d="M6.24994 1.5C6.24994 1.36739 6.30262 1.24021 6.39639 1.14645C6.49016 1.05268 6.61734 1 6.74994 1C6.88255 1 7.00973 1.05268 7.1035 1.14645C7.19727 1.24021 7.24994 1.36739 7.24994 1.5V13.793C7.24992 13.8918 7.22062 13.9884 7.16574 14.0706C7.11086 14.1528 7.03287 14.2168 6.9416 14.2547C6.85033 14.2926 6.74989 14.3026 6.65295 14.2834C6.55601 14.2642 6.46693 14.2168 6.39694 14.147L1.74894 9.5C1.70238 9.45355 1.66544 9.39838 1.64023 9.33763C1.61503 9.27689 1.60205 9.21177 1.60205 9.146C1.60205 9.08023 1.61503 9.01511 1.64023 8.95437C1.66544 8.89362 1.70238 8.83845 1.74894 8.792H1.75094C1.84467 8.69857 1.97161 8.64611 2.10394 8.64611C2.23628 8.64611 2.36322 8.69857 2.45694 8.792L6.24994 12.588V1.5ZM9.24994 2.207C9.25016 2.10827 9.27961 2.01181 9.33456 1.92979C9.38952 1.84777 9.46752 1.78386 9.55875 1.7461C9.64998 1.70835 9.75034 1.69845 9.84718 1.71765C9.94403 1.73685 10.033 1.7843 10.1029 1.854L14.7509 6.5C14.7975 6.54645 14.8344 6.60162 14.8597 6.66237C14.8849 6.72311 14.8978 6.78823 14.8978 6.854C14.8978 6.91977 14.8849 6.98489 14.8597 7.04563C14.8344 7.10638 14.7975 7.16155 14.7509 7.208H14.7489C14.6552 7.30143 14.5283 7.35389 14.3959 7.35389C14.2636 7.35389 14.1367 7.30143 14.0429 7.208L10.2499 3.414V14.5C10.2499 14.6326 10.1973 14.7598 10.1035 14.8536C10.0097 14.9473 9.88255 15 9.74994 15C9.61734 15 9.49016 14.9473 9.39639 14.8536C9.30262 14.7598 9.24994 14.6326 9.24994 14.5V2.207Z" fill="#F0821B"/>
</svg>
