<svg width="16" height="17" viewBox="0 0 16 17" fill="none" xmlns="http://www.w3.org/2000/svg">
<path d="M11.3333 4.65572C11.3333 6.24322 9.30278 9.07225 8.41111 10.2382C8.19722 10.5173 7.8 10.5173 7.58889 10.2382C6.69722 9.07225 4.66667 6.24322 4.66667 4.65572C4.66667 2.72803 6.15833 1.16669 8 1.16669C9.84167 1.16669 11.3333 2.72803 11.3333 4.65572ZM11.5556 6.99337C11.6528 6.79275 11.7417 6.59213 11.8222 6.39442C11.8361 6.35953 11.85 6.32173 11.8639 6.28684L15.0861 4.93775C15.525 4.75457 16 5.09184 16 5.58612V13.4597C16 13.7446 15.8333 14.0005 15.5806 14.1081L11.5556 15.7915V6.99337ZM3.82222 5.18779C3.88889 5.59775 4.02222 6.01062 4.17778 6.39442C4.25833 6.59213 4.34722 6.79275 4.44444 6.99337V14.3029L0.913889 15.7828C0.475 15.966 0 15.6287 0 15.1344V7.26086C0 6.97592 0.166667 6.72006 0.419444 6.61248L3.825 5.18779H3.82222ZM9.10556 10.8197C9.49167 10.3138 10.0972 9.49093 10.6667 8.58087V15.8293L5.33333 14.2331V8.58087C5.90278 9.49093 6.50833 10.3138 6.89444 10.8197C7.46389 11.564 8.53611 11.564 9.10556 10.8197ZM8 5.58612C8.61389 5.58612 9.11111 5.06568 9.11111 4.42311C9.11111 3.78055 8.61389 3.2601 8 3.2601C7.38611 3.2601 6.88889 3.78055 6.88889 4.42311C6.88889 5.06568 7.38611 5.58612 8 5.58612Z" fill="#E8141F"/>
</svg>
