<svg width="20" height="21" viewBox="0 0 20 21" fill="none" xmlns="http://www.w3.org/2000/svg">
<g clip-path="url(#clip0_2486_64216)">
<path d="M6.44378 13.4298H6.4447C6.44546 13.4298 6.44622 13.4297 6.44699 13.4297H17.0703C17.3318 13.4297 17.5618 13.2562 17.6337 13.0047L19.9774 4.8016C20.0279 4.62475 19.9925 4.43463 19.8819 4.28784C19.7711 4.14105 19.5979 4.05469 19.4141 4.05469H5.09247L4.67361 2.16977C4.61395 1.90167 4.37622 1.71094 4.10156 1.71094H0.585937C0.262298 1.71094 0 1.97324 0 2.29687C0 2.62051 0.262298 2.88281 0.585937 2.88281H3.63159C3.70575 3.21683 5.63598 11.903 5.74707 12.4028C5.12436 12.6735 4.6875 13.2943 4.6875 14.0156C4.6875 14.9849 5.47607 15.7734 6.44531 15.7734H17.0703C17.3939 15.7734 17.6562 15.5111 17.6562 15.1875C17.6562 14.8639 17.3939 14.6016 17.0703 14.6016H6.44531C6.12228 14.6016 5.85937 14.3386 5.85937 14.0156C5.85937 13.693 6.12137 13.4306 6.44378 13.4298ZM18.6372 5.22656L16.6283 12.2578H6.91528L5.35278 5.22656H18.6372Z" fill="#F0821B"/>
<path d="M5.85938 17.5312C5.85938 18.5005 6.64795 19.2891 7.61719 19.2891C8.58642 19.2891 9.375 18.5005 9.375 17.5312C9.375 16.562 8.58642 15.7734 7.61719 15.7734C6.64795 15.7734 5.85938 16.562 5.85938 17.5312ZM7.61719 16.9453C7.94022 16.9453 8.20312 17.2082 8.20312 17.5312C8.20312 17.8543 7.94022 18.1172 7.61719 18.1172C7.29416 18.1172 7.03125 17.8543 7.03125 17.5312C7.03125 17.2082 7.29416 16.9453 7.61719 16.9453Z" fill="#F0821B"/>
<path d="M14.1406 17.5312C14.1406 18.5005 14.9292 19.2891 15.8984 19.2891C16.8677 19.2891 17.6562 18.5005 17.6562 17.5312C17.6562 16.562 16.8677 15.7734 15.8984 15.7734C14.9292 15.7734 14.1406 16.562 14.1406 17.5312ZM15.8984 16.9453C16.2215 16.9453 16.4844 17.2082 16.4844 17.5312C16.4844 17.8543 16.2215 18.1172 15.8984 18.1172C15.5754 18.1172 15.3125 17.8543 15.3125 17.5312C15.3125 17.2082 15.5754 16.9453 15.8984 16.9453Z" fill="#F0821B"/>
</g>
<defs>
<clipPath id="clip0_2486_64216">
<rect width="20" height="20" fill="white" transform="translate(0 0.5)"/>
</clipPath>
</defs>
</svg>
