<svg width="24" height="24" viewBox="0 0 24 24" fill="none" xmlns="http://www.w3.org/2000/svg">
<path d="M21.422 16.883L21.951 17.415L21.421 16.883H21.422ZM8.81599 14.727L9.34399 14.195L8.81499 14.727H8.81599ZM4.68999 4.13502L4.16199 3.60402L4.69099 4.13602L4.68999 4.13502ZM16.628 13.891L17.085 13.438L16.026 12.374L15.572 12.827L16.628 13.891ZM18.614 13.248L20.525 14.287L21.24 12.969L19.33 11.931L18.614 13.248ZM20.892 16.351L19.472 17.764L20.529 18.827L21.949 17.415L20.892 16.351ZM18.606 18.218C17.156 18.354 13.406 18.233 9.34399 14.195L8.28599 15.258C12.718 19.665 16.937 19.881 18.746 19.712L18.605 18.218H18.606ZM9.34399 14.195C5.47299 10.345 4.83099 7.10802 4.75099 5.70302L3.25299 5.78802C3.35299 7.55602 4.14799 11.144 8.28599 15.258L9.34399 14.195ZM10.719 8.01502L11.006 7.72902L9.94999 6.66602L9.66299 6.95102L10.72 8.01402L10.719 8.01502ZM11.234 4.09402L9.97399 2.41002L8.77299 3.31002L10.033 4.99302L11.234 4.09402ZM5.73299 2.04302L4.16299 3.60302L5.22099 4.66702L6.78999 3.10702L5.73299 2.04302ZM10.191 7.48302C9.66099 6.95102 9.66099 6.95102 9.66099 6.95302H9.65899L9.65599 6.95702C9.60878 7.00521 9.56625 7.05778 9.52899 7.11402C9.47499 7.19402 9.41599 7.29902 9.36599 7.43202C9.24422 7.77534 9.21389 8.14443 9.27799 8.50302C9.41199 9.36802 10.008 10.511 11.534 12.029L12.592 10.965C11.163 9.54502 10.823 8.68102 10.76 8.27302C10.73 8.07902 10.761 7.98302 10.77 7.96102C10.775 7.94702 10.777 7.94602 10.77 7.95502C10.7612 7.96889 10.7511 7.98194 10.74 7.99402L10.73 8.00402C10.7268 8.00713 10.7234 8.01013 10.72 8.01302L10.19 7.48302H10.191ZM11.534 12.029C13.061 13.547 14.21 14.139 15.076 14.271C15.519 14.339 15.876 14.285 16.147 14.184C16.2985 14.1279 16.4403 14.0483 16.567 13.948C16.5842 13.9336 16.6009 13.9186 16.617 13.903L16.624 13.897L16.627 13.894L16.628 13.892C16.628 13.892 16.629 13.891 16.1 13.359C15.57 12.827 15.573 12.826 15.573 12.826L15.575 12.824L15.577 12.822L15.583 12.817L15.593 12.807C15.605 12.7962 15.6177 12.7862 15.631 12.777C15.641 12.77 15.638 12.773 15.624 12.779C15.599 12.788 15.501 12.819 15.304 12.789C14.89 12.725 14.02 12.385 12.592 10.965L11.534 12.029ZM9.97399 2.40902C8.95399 1.04902 6.94999 0.833021 5.73299 2.04302L6.78999 3.10702C7.32199 2.57802 8.26599 2.63302 8.77299 3.31002L9.97299 2.40902H9.97399ZM4.75199 5.70402C4.73199 5.35802 4.89099 4.99602 5.22099 4.66802L4.16199 3.60402C3.62499 4.13802 3.20199 4.89402 3.25299 5.78802L4.75199 5.70402ZM19.472 17.764C19.198 18.038 18.902 18.192 18.607 18.219L18.746 19.712C19.481 19.643 20.082 19.273 20.53 18.828L19.472 17.764ZM11.006 7.72902C11.991 6.75002 12.064 5.20302 11.235 4.09502L10.034 4.99402C10.437 5.53302 10.377 6.24002 9.94899 6.66702L11.006 7.72902ZM20.526 14.288C21.343 14.732 21.47 15.778 20.893 16.352L21.951 17.415C23.291 16.082 22.878 13.859 21.241 12.97L20.526 14.288ZM17.085 13.439C17.469 13.057 18.087 12.963 18.615 13.249L19.331 11.932C18.247 11.342 16.903 11.505 16.027 12.375L17.085 13.439Z" fill="black"/>
</svg>
