<svg width="17" height="16" viewBox="0 0 17 16" fill="none" xmlns="http://www.w3.org/2000/svg">
<path d="M7.50012 14.75C7.36751 14.75 7.24033 14.6973 7.14656 14.6036C7.0528 14.5098 7.00012 14.3826 7.00012 14.25V9.4425L2.36512 4.345C2.18266 4.14394 2.06249 3.89424 2.01918 3.62621C1.97587 3.35818 2.01129 3.08334 2.12114 2.83505C2.231 2.58676 2.41055 2.37569 2.63803 2.22746C2.8655 2.07923 3.13111 2.00021 3.40262 2H14.0976C14.3691 2.00021 14.6347 2.07923 14.8622 2.22746C15.0897 2.37569 15.2692 2.58676 15.3791 2.83505C15.4889 3.08334 15.5244 3.35818 15.4811 3.62621C15.4377 3.89424 15.3176 4.14394 15.1351 4.345L10.5001 9.4425V12.25C10.5001 12.3249 10.4832 12.3988 10.4507 12.4663C10.4183 12.5338 10.3711 12.5932 10.3126 12.64L7.81262 14.64C7.72398 14.7111 7.61376 14.7499 7.50012 14.75ZM3.40262 3C3.32481 3.00019 3.24873 3.02293 3.18358 3.06547C3.11843 3.108 3.06701 3.16851 3.03553 3.23966C3.00406 3.31082 2.99388 3.38957 3.00623 3.46639C3.01858 3.54321 3.05292 3.6148 3.10512 3.6725L7.87012 8.9225C7.95175 9.01227 7.99796 9.12868 8.00012 9.25V13.21L9.50012 12V9.25C9.49982 9.12522 9.54619 9.00484 9.63012 8.9125L14.3951 3.6625C14.4442 3.60454 14.4759 3.53387 14.4865 3.45867C14.4971 3.38346 14.4862 3.30679 14.4551 3.2375C14.424 3.16821 14.3739 3.10914 14.3107 3.06712C14.2474 3.02509 14.1735 3.00182 14.0976 3H3.40262Z" fill="#F0821B"/>
</svg>
