<svg width="20" height="20" viewBox="0 0 20 20" fill="none" xmlns="http://www.w3.org/2000/svg">
<path d="M4.16667 19.7502C3.70833 19.7502 3.31583 19.5871 2.98917 19.261C2.6625 18.9349 2.49945 18.5424 2.5 18.0835V6.41683C2.5 5.9585 2.66333 5.566 2.99 5.23933C3.31667 4.91266 3.70889 4.74961 4.16667 4.75016H11.6042L9.9375 6.41683H4.16667V18.0835H15.8333V12.2918L17.5 10.6252V18.0835C17.5 18.5418 17.3367 18.9343 17.01 19.261C16.6833 19.5877 16.2911 19.7507 15.8333 19.7502H4.16667ZM13.4792 5.22933L14.6667 6.396L9.16667 11.896V13.0835H10.3333L15.8542 7.56266L17.0417 8.72933L11.0417 14.7502H7.5V11.2085L13.4792 5.22933ZM17.0417 8.72933L13.4792 5.22933L15.5625 3.146C15.8958 2.81266 16.2953 2.646 16.7608 2.646C17.2264 2.646 17.6186 2.81266 17.9375 3.146L19.1042 4.3335C19.4236 4.65294 19.5833 5.04183 19.5833 5.50016C19.5833 5.9585 19.4236 6.34738 19.1042 6.66683L17.0417 8.72933Z" fill="#BDBDBD"/>
</svg>
