<svg width="20" height="20" viewBox="0 0 20 20" fill="none" xmlns="http://www.w3.org/2000/svg">
<path fill-rule="evenodd" clip-rule="evenodd" d="M14.1497 8.43092C13.9638 8.61696 13.6623 8.61707 13.4763 8.43118L10.4767 5.43383L10.4767 16.6667C10.4767 16.9297 10.2635 17.1429 10.0005 17.1429C9.7375 17.1429 9.5243 16.9297 9.5243 16.6667L9.5243 5.43614L6.52764 8.43204C6.34165 8.61798 6.04015 8.61795 5.85421 8.43196C5.66827 8.24597 5.6683 7.94447 5.85429 7.75852L9.64633 3.96744C9.7335 3.87052 9.85988 3.80957 10.0005 3.80957C10.0007 3.80957 10.0008 3.80957 10.001 3.80957C10.1229 3.80945 10.2449 3.8559 10.338 3.94892L14.1495 7.75749C14.3355 7.94338 14.3356 8.24489 14.1497 8.43092Z" fill="black"/>
</svg>
