<svg width="33" height="33" viewBox="0 0 33 33" fill="none" xmlns="http://www.w3.org/2000/svg">
<path d="M16.3334 13.3C15.9334 13.3 15.5334 13 15.5334 12.5C15.5334 12 15.8334 11.7 16.3334 11.7H17.6334C17.9334 11.7 18.1334 11.5 18.1334 11.2C18.1334 10.9 17.9334 10.7 17.6334 10.7H16.8334V10.1C16.8334 9.80002 16.6334 9.60002 16.3334 9.60002C16.0334 9.60002 15.8334 9.80002 15.8334 10.1V10.6C15.0334 10.8 14.5334 11.5 14.5334 12.3C14.5334 13.3 15.3334 14.1 16.3334 14.1C16.7334 14.1 17.1334 14.5 17.1334 14.9C17.1334 15.4 16.8334 15.7 16.3334 15.7H15.0334C14.7334 15.7 14.5334 15.9 14.5334 16.2C14.5334 16.5 14.7334 16.7 15.0334 16.7H15.8334C15.8334 17.1 15.8334 17.7 16.3334 17.7C16.9334 17.7 16.8334 17.1 16.8334 16.7C17.6334 16.5 18.1334 15.8 18.1334 15C18.1334 14.1 17.3334 13.3 16.3334 13.3ZM26.4334 12.4L26.2334 12.6C25.1334 3.00002 12.0334 0.400023 7.53338 9.10002C5.73338 12.4 6.03338 16.3 8.13338 19.4C8.23338 19.5 8.33338 19.6 8.53338 19.6C8.63338 19.6 8.73338 19.6 8.83338 19.5C9.03338 19.3 9.13338 19 8.93338 18.8C4.83338 13.3 9.33338 4.60002 16.2334 4.80002C20.7334 4.80002 24.5334 8.00002 25.2334 12.5C25.0334 12.3 24.7334 12.3 24.5334 12.5C24.3334 12.7 24.3334 13 24.5334 13.2L25.5334 14.2C25.6334 14.3 25.7334 14.3 25.8334 14.3C25.9334 14.3 26.0334 14.3 26.1334 14.2L27.1334 13.2C27.6334 12.7 26.9334 12 26.4334 12.4ZM16.3334 13.3C15.9334 13.3 15.5334 13 15.5334 12.5C15.5334 12 15.8334 11.7 16.3334 11.7H17.6334C17.9334 11.7 18.1334 11.5 18.1334 11.2C18.1334 10.9 17.9334 10.7 17.6334 10.7H16.8334V10.1C16.8334 9.80002 16.6334 9.60002 16.3334 9.60002C16.0334 9.60002 15.8334 9.80002 15.8334 10.1V10.6C15.0334 10.8 14.5334 11.5 14.5334 12.3C14.5334 13.3 15.3334 14.1 16.3334 14.1C16.7334 14.1 17.1334 14.5 17.1334 14.9C17.1334 15.4 16.8334 15.7 16.3334 15.7H15.0334C14.7334 15.7 14.5334 15.9 14.5334 16.2C14.5334 16.5 14.7334 16.7 15.0334 16.7H15.8334C15.8334 17.1 15.8334 17.7 16.3334 17.7C16.9334 17.7 16.8334 17.1 16.8334 16.7C17.6334 16.5 18.1334 15.8 18.1334 15C18.1334 14.1 17.3334 13.3 16.3334 13.3ZM16.3334 13.3C15.9334 13.3 15.5334 13 15.5334 12.5C15.5334 12 15.8334 11.7 16.3334 11.7H17.6334C17.9334 11.7 18.1334 11.5 18.1334 11.2C18.1334 10.9 17.9334 10.7 17.6334 10.7H16.8334V10.1C16.8334 9.80002 16.6334 9.60002 16.3334 9.60002C16.0334 9.60002 15.8334 9.80002 15.8334 10.1V10.6C15.0334 10.8 14.5334 11.5 14.5334 12.3C14.5334 13.3 15.3334 14.1 16.3334 14.1C16.7334 14.1 17.1334 14.5 17.1334 14.9C17.1334 15.4 16.8334 15.7 16.3334 15.7H15.0334C14.7334 15.7 14.5334 15.9 14.5334 16.2C14.5334 16.5 14.7334 16.7 15.0334 16.7H15.8334C15.8334 17.1 15.8334 17.7 16.3334 17.7C16.9334 17.7 16.8334 17.1 16.8334 16.7C17.6334 16.5 18.1334 15.8 18.1334 15C18.1334 14.1 17.3334 13.3 16.3334 13.3ZM16.3334 13.3C15.9334 13.3 15.5334 13 15.5334 12.5C15.5334 12 15.8334 11.7 16.3334 11.7H17.6334C17.9334 11.7 18.1334 11.5 18.1334 11.2C18.1334 10.9 17.9334 10.7 17.6334 10.7H16.8334V10.1C16.8334 9.80002 16.6334 9.60002 16.3334 9.60002C16.0334 9.60002 15.8334 9.80002 15.8334 10.1V10.6C15.0334 10.8 14.5334 11.5 14.5334 12.3C14.5334 13.3 15.3334 14.1 16.3334 14.1C16.7334 14.1 17.1334 14.5 17.1334 14.9C17.1334 15.4 16.8334 15.7 16.3334 15.7H15.0334C14.7334 15.7 14.5334 15.9 14.5334 16.2C14.5334 16.5 14.7334 16.7 15.0334 16.7H15.8334C15.8334 17.1 15.8334 17.7 16.3334 17.7C16.9334 17.7 16.8334 17.1 16.8334 16.7C17.6334 16.5 18.1334 15.8 18.1334 15C18.1334 14.1 17.3334 13.3 16.3334 13.3ZM29.9334 16.6C29.2334 16.6 23.6334 16.6 23.1334 16.6C23.5334 15.7 23.6334 14.8 23.7334 13.8C23.7334 9.70002 20.5334 6.40002 16.4334 6.30002C9.73338 6.20002 6.53338 15 11.6334 19.2C10.8334 19.7 10.4334 20.7 10.6334 21.6C10.4334 21.6 3.63338 19.5 3.73338 19.7C2.83338 19.7 1.93338 20.3 1.63338 21.2C1.13338 22.4 1.73338 23.8 2.93338 24.3L13.1334 28.5C14.3334 29 15.5334 29.2 16.8334 29.2C20.2334 29.5 23.4334 26.3 26.6334 26.5H30.0334C30.8334 26.5 31.4334 25.9 31.4334 25.1V18C31.3334 17.3 30.7334 16.6 29.9334 16.6ZM16.3334 7.40002C17.3334 7.40002 18.3334 7.70002 19.3334 8.20002C22.4334 9.90002 23.6334 13.7 21.9334 16.8C19.2334 17.4 16.9334 19.1 14.0334 19C13.6334 19 13.1334 19 12.8334 19C7.63338 15.7 10.2334 7.30002 16.3334 7.40002ZM26.0334 25.6C24.2334 25.7 22.5334 26.3 21.0334 27.2C18.7334 28.4 15.9334 28.6 13.5334 27.6L3.13338 23.4C2.63338 23.2 2.33338 22.7 2.33338 22.2C2.33338 21.5 2.93338 20.8 3.63338 20.8C3.73338 20.8 3.93338 20.8 4.03338 20.8L11.6334 23C11.9334 23.2 12.3334 23.3 12.7334 23.3H18.2334C18.5334 23.3 18.7334 23.1 18.7334 22.8C18.7334 22.5 18.5334 22.3 18.2334 22.3H12.7334C12.1334 22.3 11.6334 21.8 11.6334 21.1C11.6334 20.5 12.1334 19.9 12.8334 19.9C13.1334 19.9 13.7334 19.9 14.0334 19.9C17.7334 20.1 20.5334 17.4 24.2334 17.5H26.2334V25.6H26.0334ZM30.3334 25.1C30.3334 25.3 30.1334 25.5 29.9334 25.5H27.0334V17.6H29.9334C30.1334 17.6 30.3334 17.8 30.3334 18V25.1ZM16.3334 15.9H15.0334C14.7334 15.9 14.5334 16.1 14.5334 16.4C14.5334 16.7 14.7334 16.9 15.0334 16.9H15.8334C15.8334 17.3 15.8334 17.9 16.3334 17.9C16.9334 17.9 16.8334 17.3 16.8334 16.9C17.6334 16.7 18.1334 16 18.1334 15.2C18.1334 14.2 17.3334 13.4 16.3334 13.3C15.9334 13.3 15.5334 13 15.5334 12.5C15.5334 12 15.8334 11.7 16.3334 11.7H17.6334C17.9334 11.7 18.1334 11.5 18.1334 11.2C18.1334 10.9 17.9334 10.7 17.6334 10.7H16.8334V10.1C16.8334 9.80002 16.6334 9.60002 16.3334 9.60002C16.0334 9.60002 15.8334 9.80002 15.8334 10.1V10.6C15.0334 10.8 14.5334 11.5 14.5334 12.3C14.5334 13.3 15.3334 14.1 16.3334 14.1C16.7334 14.1 17.1334 14.5 17.1334 14.9C17.1334 15.5 16.8334 15.9 16.3334 15.9ZM16.3334 13.3C15.9334 13.3 15.5334 13 15.5334 12.5C15.5334 12 15.8334 11.7 16.3334 11.7H17.6334C17.9334 11.7 18.1334 11.5 18.1334 11.2C18.1334 10.9 17.9334 10.7 17.6334 10.7H16.8334V10.1C16.8334 9.80002 16.6334 9.60002 16.3334 9.60002C16.0334 9.60002 15.8334 9.80002 15.8334 10.1V10.6C15.0334 10.8 14.5334 11.5 14.5334 12.3C14.5334 13.3 15.3334 14.1 16.3334 14.1C16.7334 14.1 17.1334 14.5 17.1334 14.9C17.1334 15.4 16.8334 15.7 16.3334 15.7H15.0334C14.7334 15.7 14.5334 15.9 14.5334 16.2C14.5334 16.5 14.7334 16.7 15.0334 16.7H15.8334C15.8334 17.1 15.8334 17.7 16.3334 17.7C16.9334 17.7 16.8334 17.1 16.8334 16.7C17.6334 16.5 18.1334 15.8 18.1334 15C18.1334 14.1 17.3334 13.3 16.3334 13.3ZM16.3334 13.3C15.9334 13.3 15.5334 13 15.5334 12.5C15.5334 12 15.8334 11.7 16.3334 11.7H17.6334C17.9334 11.7 18.1334 11.5 18.1334 11.2C18.1334 10.9 17.9334 10.7 17.6334 10.7H16.8334V10.1C16.8334 9.80002 16.6334 9.60002 16.3334 9.60002C16.0334 9.60002 15.8334 9.80002 15.8334 10.1V10.6C15.0334 10.8 14.5334 11.5 14.5334 12.3C14.5334 13.3 15.3334 14.1 16.3334 14.1C16.7334 14.1 17.1334 14.5 17.1334 14.9C17.1334 15.4 16.8334 15.7 16.3334 15.7H15.0334C14.7334 15.7 14.5334 15.9 14.5334 16.2C14.5334 16.5 14.7334 16.7 15.0334 16.7H15.8334C15.8334 17.1 15.8334 17.7 16.3334 17.7C16.9334 17.7 16.8334 17.1 16.8334 16.7C17.6334 16.5 18.1334 15.8 18.1334 15C18.1334 14.1 17.3334 13.3 16.3334 13.3Z" fill="#F6911E"/>
<path opacity="0.2" d="M19.3334 8.19981C18.3334 7.69981 17.3334 7.39981 16.3334 7.39981C10.2334 7.29981 7.63339 15.6998 12.7334 18.9998C13.0334 18.9998 13.5334 18.9998 13.9334 18.9998C16.8334 19.0998 19.1334 17.3998 21.8334 16.7998C23.5334 13.6998 22.4334 9.79981 19.3334 8.19981ZM16.3334 13.2998C17.3334 13.2998 18.1334 14.0998 18.1334 15.1998C18.1334 15.9998 17.6334 16.6998 16.8334 16.8998C16.8334 17.2998 16.9334 17.8998 16.3334 17.8998C15.8334 17.8998 15.8334 17.2998 15.8334 16.8998H15.0334C14.7334 16.8998 14.5334 16.6998 14.5334 16.3998C14.5334 16.0998 14.7334 15.8998 15.0334 15.8998H16.3334C16.8334 15.8998 17.1334 15.4998 17.1334 15.0998C17.1334 14.6998 16.7334 14.2998 16.3334 14.2998C15.3334 14.2998 14.5334 13.4998 14.5334 12.4998C14.5334 11.6998 15.0334 10.9998 15.8334 10.7998V10.0998C15.8334 9.79981 16.0334 9.59981 16.3334 9.59981C16.6334 9.59981 16.8334 9.79981 16.8334 10.0998V10.5998H17.6334C17.9334 10.5998 18.1334 10.7998 18.1334 11.0998C18.1334 11.3998 17.9334 11.5998 17.6334 11.5998H16.3334C15.8334 11.5998 15.5334 11.9998 15.5334 12.3998C15.5334 12.7998 15.9334 13.2998 16.3334 13.2998Z" fill="#F6911E"/>
<path opacity="0.2" d="M30.3333 18.0001V25.1001C30.3333 25.3001 30.1333 25.5001 29.9333 25.5001H27.0333V17.6001H29.9333C30.1333 17.6001 30.3333 17.8001 30.3333 18.0001Z" fill="#F6911E"/>
<path opacity="0.2" d="M26.0334 17.5998V25.5998C24.2334 25.6998 22.5334 26.2998 21.0334 27.1998C18.7334 28.3998 15.9334 28.5998 13.5334 27.5998L3.13337 23.3998C2.63337 23.1998 2.33337 22.6998 2.33337 22.1998C2.33337 21.4998 2.93337 20.7998 3.63337 20.7998C3.73337 20.7998 3.93337 20.7998 4.03337 20.7998L11.6334 22.9998C11.9334 23.1998 12.3334 23.2998 12.7334 23.2998H18.2334C18.5334 23.2998 18.7334 23.0998 18.7334 22.7998C18.7334 22.4998 18.5334 22.2998 18.2334 22.2998H12.7334C12.1334 22.2998 11.6334 21.7998 11.6334 21.0998C11.6334 20.4998 12.1334 19.8998 12.8334 19.8998C13.1334 19.8998 13.7334 19.8998 14.0334 19.8998C17.7334 20.0998 20.5334 17.3998 24.2334 17.4998H26.0334V17.5998Z" fill="#F6911E"/>
</svg>
