<svg width="20" height="20" viewBox="0 0 20 20" fill="none" xmlns="http://www.w3.org/2000/svg">
<path fill-rule="evenodd" clip-rule="evenodd" d="M14.1497 11.5691C13.9638 11.383 13.6623 11.3829 13.4763 11.5688L10.4767 14.5662L10.4767 3.33329C10.4767 3.0703 10.2635 2.8571 10.0005 2.8571C9.7375 2.8571 9.5243 3.0703 9.5243 3.33329L9.5243 14.5639L6.52764 11.568C6.34165 11.382 6.04015 11.3821 5.85421 11.568C5.66827 11.754 5.6683 12.0555 5.85429 12.2415L9.64633 16.0326C9.7335 16.1295 9.85988 16.1904 10.0005 16.1904C10.0007 16.1904 10.0008 16.1904 10.001 16.1904C10.1229 16.1906 10.2449 16.1441 10.338 16.0511L14.1495 12.2425C14.3355 12.0566 14.3356 11.7551 14.1497 11.5691Z" fill="black"/>
</svg>
