<svg width="16" height="16" viewBox="0 0 16 16" fill="none" xmlns="http://www.w3.org/2000/svg">
<g clip-path="url(#clip0_746_65890)">
<path d="M10.162 12.9963V14.4342C10.162 14.8263 9.84419 15.1442 9.45204 15.1442H0.949258C0.557101 15.1442 0.239258 14.8263 0.239258 14.4342V12.9963C0.239258 12.6045 0.557101 12.2866 0.949258 12.2866H9.45204C9.84416 12.2866 10.162 12.6045 10.162 12.9963Z" fill="#DD9F3A"/>
<path d="M10.1614 12.9963V14.4342C10.1614 14.8008 9.88339 15.1027 9.52664 15.1403C9.50177 15.1429 9.47689 15.1442 9.45139 15.1442H2.69602C2.3042 15.1442 1.98633 14.8263 1.98633 14.4342V12.9963C1.98633 12.6045 2.30417 12.2866 2.69602 12.2866H9.45139C9.84352 12.2866 10.1614 12.6045 10.1614 12.9963Z" fill="#F4B74A"/>
<path d="M10.1624 12.9968V14.4346C10.1624 14.8013 9.88443 15.1032 9.52768 15.1408C9.46296 15.1434 9.39824 15.1446 9.33352 15.1446C8.64743 15.1446 7.96133 15.0034 7.32243 14.7203C6.89362 14.5306 6.4868 14.2768 6.11509 13.9596C6.01562 13.8748 5.91934 13.7855 5.82527 13.6918C5.4054 13.2719 5.07671 12.7956 4.83887 12.2871H9.45243C9.84455 12.2871 10.1624 12.605 10.1624 12.9968Z" fill="#DD9F3A"/>
<path d="M10.6406 10.1389V11.5767C10.6406 11.9689 10.3227 12.2867 9.93055 12.2867H1.42777C1.03562 12.2867 0.717773 11.9689 0.717773 11.5767V10.1389C0.717773 9.74707 1.03562 9.4292 1.42777 9.4292H9.93055C10.3227 9.4292 10.6406 9.74704 10.6406 10.1389Z" fill="#DD9F3A"/>
<path d="M10.1614 10.1384V11.5762C10.1614 11.9684 9.84355 12.2862 9.45139 12.2862H2.69602C2.3042 12.2862 1.98633 11.9684 1.98633 11.5762V10.1384C1.98633 9.74659 2.30417 9.42871 2.69602 9.42871H9.45139C9.84352 9.42871 10.1614 9.74655 10.1614 10.1384Z" fill="#F4B74A"/>
<path d="M10.162 10.1389V11.5767C10.162 11.9689 9.84415 12.2867 9.452 12.2867H5.316C4.89612 11.3893 4.75966 10.3917 4.90697 9.4292H9.452C9.84412 9.4292 10.162 9.74704 10.162 10.1389Z" fill="#DD9F3A"/>
<path d="M10.162 1.56564V3.00349C10.162 3.39564 9.84419 3.71349 9.45204 3.71349H0.949258C0.557101 3.71349 0.239258 3.39564 0.239258 3.00349V1.56564C0.239258 1.17383 0.557101 0.855957 0.949258 0.855957H9.45204C9.84416 0.855957 10.162 1.1738 10.162 1.56564Z" fill="#DD9F3A"/>
<path d="M10.1624 1.56564V3.00349C10.1624 3.39564 9.84452 3.71349 9.45237 3.71349H2.69699C2.30518 3.71349 1.9873 3.39564 1.9873 3.00349V1.56564C1.9873 1.17383 2.30515 0.855957 2.69699 0.855957H9.45237C9.84449 0.855957 10.1624 1.1738 10.1624 1.56564Z" fill="#F4B74A"/>
<path d="M8.99548 0.855957H7.9541V3.7138H8.99548V0.855957Z" fill="#F9C662"/>
<path d="M7.18866 0.855957H6.66797V3.7138H7.18866V0.855957Z" fill="#F9C662"/>
<path d="M11.4374 4.42307V5.86091C11.4374 6.25307 11.1196 6.57091 10.7274 6.57091H2.22465C1.83249 6.57091 1.51465 6.25307 1.51465 5.86091V4.42307C1.51465 4.03125 1.83249 3.71338 2.22465 3.71338H10.7274C11.1196 3.71338 11.4374 4.03125 11.4374 4.42307Z" fill="#DD9F3A"/>
<path d="M11.4378 4.42307V5.86091C11.4378 6.25307 11.1199 6.57091 10.7278 6.57091H3.97238C3.58057 6.57091 3.2627 6.25307 3.2627 5.86091V4.42307C3.2627 4.03125 3.58054 3.71338 3.97238 3.71338H10.7278C11.1199 3.71338 11.4378 4.03125 11.4378 4.42307Z" fill="#F4B74A"/>
<path d="M10.2494 3.71387H9.20801V6.57171H10.2494V3.71387Z" fill="#F9C662"/>
<path d="M8.44257 3.71387H7.92188V6.57171H8.44257V3.71387Z" fill="#F9C662"/>
<path d="M11.4377 5.39677V5.86128C11.4377 6.25343 11.1199 6.57128 10.7277 6.57128H6.72949C8.02674 5.34831 9.82168 4.9568 11.4377 5.39677Z" fill="#DD9F3A"/>
<path d="M10.162 7.28098V8.71882C10.162 9.11097 9.84419 9.42882 9.45204 9.42882H0.949258C0.557101 9.42882 0.239258 9.11097 0.239258 8.71882V7.28098C0.239258 6.88916 0.557101 6.57129 0.949258 6.57129H9.45204C9.84416 6.57129 10.162 6.88916 10.162 7.28098Z" fill="#DD9F3A"/>
<path d="M10.1614 7.28098V8.71882C10.1614 9.11097 9.84355 9.42882 9.45139 9.42882H2.69602C2.3042 9.42882 1.98633 9.11097 1.98633 8.71882V7.28098C1.98633 6.88916 2.30417 6.57129 2.69602 6.57129H9.45139C9.84352 6.57132 10.1614 6.88916 10.1614 7.28098Z" fill="#F4B74A"/>
<path d="M10.162 7.28098V8.71882C10.162 9.11097 9.84412 9.42882 9.45196 9.42882H4.42871C4.58271 8.42072 5.04818 7.45123 5.82449 6.67491C5.85987 6.63954 5.89559 6.6051 5.93162 6.57129H9.45196C9.84409 6.57132 10.162 6.88916 10.162 7.28098Z" fill="#DD9F3A"/>
<path d="M14.3075 13.6913C12.8151 15.1834 10.6089 15.5264 8.78832 14.7199C8.35954 14.5301 7.95251 14.2766 7.58097 13.9593C7.48147 13.8745 7.38498 13.7851 7.29094 13.6913C5.35354 11.7536 5.35354 8.61239 7.29094 6.67473C9.2286 4.73733 12.3698 4.73733 14.3075 6.67473C14.4015 6.76877 14.4907 6.86527 14.5755 6.96477C14.8928 7.33605 15.1463 7.7433 15.3361 8.17211C16.1426 9.99249 15.7996 12.1989 14.3075 13.6913Z" fill="#F4B74A"/>
<path d="M15.3361 8.17215L8.7884 14.7199C8.35962 14.5301 7.95259 14.2766 7.58105 13.9593L14.5756 6.96484C14.8928 7.33609 15.1464 7.74337 15.3361 8.17215Z" fill="#F9C662"/>
<path d="M14.3085 10.183C14.3085 12.1206 12.7377 13.6913 10.8002 13.6913C9.70652 13.6913 8.72987 13.191 8.08634 12.4065C7.58974 11.8012 7.29199 11.0269 7.29199 10.1831C7.29199 8.24552 8.86271 6.6748 10.8002 6.6748C11.6443 6.6748 12.4187 6.97302 13.0239 7.46962C13.8081 8.11287 14.3085 9.08955 14.3085 10.183Z" fill="#FFD488"/>
<path d="M13.0239 7.46968L8.0868 12.4067L8.08637 12.4065C7.94143 12.2299 7.81343 12.0388 7.70502 11.8358C7.58143 11.6051 7.48312 11.3592 7.4134 11.1012C7.33424 10.8085 7.29199 10.5006 7.29199 10.1831C7.29199 8.24552 8.86271 6.6748 10.8002 6.6748C11.118 6.6748 11.4259 6.71702 11.7184 6.79621C11.9764 6.86593 12.2223 6.96446 12.453 7.08805C12.656 7.19652 12.8471 7.32474 13.0239 7.46968Z" fill="#F9C662"/>
<path d="M12.4517 7.08826L7.70373 11.836C7.58014 11.6053 7.48183 11.3594 7.41211 11.1014L11.7171 6.79639C11.9751 6.86611 12.221 6.96467 12.4517 7.08826Z" fill="#FFD488"/>
<path d="M8.24031 14.9051H0.949094C0.689437 14.9051 0.47825 14.6939 0.47825 14.4343V12.9965C0.47825 12.7369 0.689469 12.5256 0.949094 12.5256H1.42734H2.69659H5.57297C5.70506 12.5256 5.81209 12.4186 5.81209 12.2865C5.81209 12.1545 5.70506 12.0474 5.57297 12.0474H2.69656H1.42734C1.16769 12.0474 0.9565 11.8362 0.9565 11.5766V10.1387C0.9565 9.87909 1.16772 9.66787 1.42734 9.66787H5.13725C5.26934 9.66787 5.37637 9.56081 5.37637 9.42874C5.37637 9.29668 5.26934 9.18962 5.13725 9.18962H0.949094C0.689437 9.18962 0.47825 8.9784 0.47825 8.71877V7.28093C0.47825 7.0213 0.689469 6.81009 0.949094 6.81009H2.22441H4.13834H6.49222C6.62431 6.81009 6.73134 6.70302 6.73134 6.57096C6.73134 6.4389 6.62431 6.33184 6.49222 6.33184H4.13834H2.22441C1.96475 6.33184 1.75356 6.12062 1.75356 5.86099V4.42315C1.75356 4.16352 1.96478 3.9523 2.22441 3.9523H9.45191H10.7272C10.9869 3.9523 11.1981 4.16352 11.1981 4.42315V4.60149C11.1981 4.73355 11.3051 4.84062 11.4372 4.84062C11.5693 4.84062 11.6763 4.73355 11.6763 4.60149V4.42315C11.6763 3.8998 11.2506 3.47405 10.7272 3.47405H10.2754C10.3551 3.33518 10.401 3.17449 10.401 3.00321V1.5653C10.401 1.04196 9.97522 0.616211 9.45187 0.616211H0.949094C0.42575 0.616398 0 1.04215 0 1.56546V3.0033C0 3.52665 0.42575 3.9524 0.949094 3.9524H1.40087C1.32116 4.09127 1.27531 4.25196 1.27531 4.42324V5.86109C1.27531 6.0324 1.32116 6.19305 1.40087 6.33193H0.949094C0.42575 6.3319 0 6.75765 0 7.28096V8.7188C0 9.13262 0.266344 9.48524 0.6365 9.61474C0.536625 9.76499 0.47825 9.94512 0.47825 10.1387V11.5766C0.47825 11.7701 0.536625 11.9503 0.6365 12.1005C0.266344 12.23 0 12.5826 0 12.9965V14.4343C0 14.9576 0.42575 15.3834 0.949094 15.3834H8.24031C8.37241 15.3834 8.47944 15.2763 8.47944 15.1442C8.47944 15.0122 8.37234 14.9051 8.24031 14.9051ZM0.478219 3.0033V1.56546C0.478219 1.30584 0.689438 1.09462 0.949062 1.09462H9.45187C9.71153 1.09462 9.92272 1.30584 9.92272 1.56546V3.0033C9.92272 3.26293 9.7115 3.47415 9.45187 3.47415H2.22441H0.949094C0.689437 3.47415 0.478219 3.26293 0.478219 3.0033Z" fill="black"/>
<path d="M13.6349 5.82341C13.5244 5.75132 13.3762 5.78254 13.3041 5.89319C13.2319 6.00382 13.2632 6.15197 13.3738 6.22407C14.7186 7.10041 15.5214 8.58053 15.5214 10.1834C15.5214 12.7872 13.403 14.9056 10.7991 14.9056C8.19526 14.9056 6.07685 12.7872 6.07685 10.1834C6.07685 7.57953 8.19526 5.46113 10.7991 5.46113C11.4828 5.46113 12.1422 5.60397 12.7589 5.88563C12.8791 5.94054 13.0209 5.88757 13.0757 5.76747C13.1306 5.64735 13.0777 5.5055 12.9575 5.45063C12.278 5.14025 11.5519 4.98291 10.7991 4.98291C7.9316 4.98291 5.59863 7.31585 5.59863 10.1834C5.59863 13.0509 7.9316 15.3838 10.7991 15.3838C13.6667 15.3838 15.9996 13.0509 15.9996 10.1834C15.9996 8.41825 15.1157 6.78835 13.6349 5.82341Z" fill="black"/>
<path d="M7.9147 11.7231C7.85248 11.6067 7.70767 11.5627 7.59113 11.625C7.47467 11.6872 7.4307 11.8321 7.49298 11.9486C7.66632 12.2729 7.88723 12.5704 8.1496 12.8327C8.88017 13.5633 9.83979 13.9286 10.7994 13.9286C11.759 13.9286 12.7186 13.5633 13.4492 12.8327C14.9103 11.3716 14.9103 8.99423 13.4492 7.53314C12.7414 6.82533 11.8003 6.43555 10.7994 6.43555C9.79845 6.43555 8.85738 6.82536 8.1496 7.53314C7.20345 8.47927 6.83267 9.8703 7.18195 11.1634C7.21639 11.2909 7.34757 11.3664 7.47514 11.3319C7.6026 11.2975 7.67804 11.1662 7.6436 11.0387C7.33885 9.91042 7.66232 8.69673 8.48779 7.8713C9.10523 7.25386 9.9262 6.91377 10.7994 6.91377C11.6726 6.91377 12.4936 7.25383 13.111 7.8713C14.3857 9.14595 14.3857 11.2199 13.111 12.4946C11.8364 13.7692 9.76245 13.7692 8.48779 12.4946C8.25863 12.2655 8.06582 12.0059 7.9147 11.7231Z" fill="black"/>
<path d="M9.95677 11.0849C9.95677 10.9529 9.84973 10.8458 9.71764 10.8458C9.58555 10.8458 9.47852 10.9529 9.47852 11.0849C9.47852 11.6434 9.94586 12.1091 10.5605 12.2066V12.3472C10.5605 12.4793 10.6675 12.5863 10.7996 12.5863C10.9317 12.5863 11.0388 12.4793 11.0388 12.3472V12.2066C11.6534 12.1091 12.1207 11.6434 12.1207 11.0849C12.1207 10.5265 11.6534 10.0607 11.0388 9.96327V8.64646C11.3874 8.72768 11.6425 8.98161 11.6425 9.28168C11.6425 9.41374 11.7495 9.5208 11.8816 9.5208C12.0137 9.5208 12.1208 9.41374 12.1208 9.28168C12.1208 8.72318 11.6535 8.25749 11.0388 8.16002V8.0194C11.0388 7.88734 10.9318 7.78027 10.7997 7.78027C10.6676 7.78027 10.5605 7.88734 10.5605 8.0194V8.16002C9.94589 8.25752 9.47855 8.72321 9.47855 9.28168C9.47855 9.84014 9.94589 10.3059 10.5605 10.4033V11.7201C10.2119 11.6389 9.95677 11.385 9.95677 11.0849ZM11.6425 11.0849C11.6425 11.385 11.3873 11.6389 11.0387 11.7201V10.4497C11.3873 10.531 11.6425 10.7849 11.6425 11.0849ZM9.95677 9.28168C9.95677 8.98165 10.2119 8.72771 10.5605 8.64646V9.91686C10.2119 9.83565 9.95677 9.58171 9.95677 9.28168Z" fill="black"/>
</g>
<defs>
<clipPath id="clip0_746_65890">
<rect width="16" height="16" fill="white"/>
</clipPath>
</defs>
</svg>
