<?xml version="1.0" encoding="utf-8"?>
<svg width="404" height="300" viewBox="0 0 404 300" fill="none" xmlns="http://www.w3.org/2000/svg">
  <g clip-path="url(#clip0_6_12760)">
    <path d="M403.283 263.64H0.717163V263.842H403.283V263.64Z" fill="#EBEBEB"/>
    <path d="M362.946 276.595H345.49V276.796H362.946V276.595Z" fill="#EBEBEB"/>
    <path d="M278.222 272.416H250.759V272.618H278.222V272.416Z" fill="#EBEBEB"/>
    <path d="M355.877 269.123H320.024V269.325H355.877V269.123Z" fill="#EBEBEB"/>
    <path d="M140.021 273.181H131.052V273.382H140.021V273.181Z" fill="#EBEBEB"/>
    <path d="M123.878 273.181H92.9691V273.382H123.878V273.181Z" fill="#EBEBEB"/>
    <path d="M76.4076 269.783H54.1055V269.985H76.4076V269.783Z" fill="#EBEBEB"/>
    <path d="M174.682 117.493L175.044 106.913L168.547 104.788C168.281 101.173 167.677 97.6061 166.816 94.1601L172.323 90.1023L168.587 80.1669L161.776 80.7144C160.149 77.502 158.241 74.4425 156.108 71.5762L159.634 65.6907L152.38 57.9534L146.293 61.0692C143.548 58.7424 140.657 56.6249 137.565 54.765L138.548 48.01L128.886 43.622L124.458 48.8071C121.084 47.7121 117.59 46.8909 113.975 46.3514L112.333 39.7252L101.721 39.3629L99.6276 45.8603C95.9803 46.1582 92.4458 46.7298 88.9999 47.5913L84.9098 42.1164L74.9745 45.8281L75.522 52.6395C72.3095 54.29 69.25 56.1982 66.3837 58.3318L60.5224 54.8053L52.7528 62.0273L55.8687 68.1463C53.5419 70.8596 51.4244 73.7823 49.5887 76.874L42.8336 75.8595L38.4215 85.5211L43.6388 89.9493C42.5438 93.3228 41.6984 96.8412 41.1831 100.432L34.5327 102.107L34.1704 112.686L40.692 114.812C40.9577 118.451 41.5615 121.994 42.423 125.431L36.9159 129.489L40.6517 139.425L47.4631 138.877C49.0895 142.09 50.9977 145.149 53.1313 148.015L49.6048 153.901L56.859 161.638L62.9458 158.522C65.6591 160.849 68.5817 162.967 71.6734 164.835L70.659 171.59L80.3205 175.978L84.7729 170.793C88.1464 171.888 91.6407 172.709 95.2557 173.248L96.8982 179.874L107.51 180.237L109.603 173.739C113.242 173.441 116.785 172.87 120.223 172.008L124.281 177.483L134.216 173.772L133.693 166.96C136.905 165.31 139.932 163.401 142.831 161.26L148.692 164.786L156.462 157.564L153.346 151.445C155.673 148.732 157.79 145.809 159.626 142.718L166.381 143.732L170.793 134.07L165.576 129.642C166.671 126.269 167.516 122.774 168.032 119.159L174.658 117.485L174.682 117.493ZM103.186 151.767C80.0146 150.97 61.875 131.542 62.664 108.371C63.4611 85.1749 82.8889 67.0272 106.061 67.8243C129.232 68.6214 147.372 88.0492 146.583 111.245C145.786 134.417 126.358 152.556 103.186 151.767Z" fill="#EBEBEB"/>
    <path d="M355.748 82.5018L358.413 80.0139L357.35 77.9125C358.163 76.9625 358.888 75.948 359.516 74.9014L361.851 75.2556L363.364 71.9224L361.569 70.3926C361.955 69.2171 362.237 68.0014 362.414 66.7856L364.709 66.214L364.83 62.5587L362.583 61.8341C362.487 60.5942 362.294 59.3784 361.996 58.1707L363.888 56.7617L362.6 53.3399L360.257 53.5251C359.701 52.4382 359.049 51.3835 358.3 50.369L359.516 48.3562L357.02 45.6831L354.927 46.754C353.969 45.9408 352.962 45.2162 351.916 44.5882L352.254 42.2533L348.928 40.7316L347.399 42.527C346.215 42.1486 344.999 41.8668 343.784 41.6897L343.212 39.4031L339.557 39.2743L338.824 41.5287C337.592 41.6253 336.368 41.8185 335.161 42.1245L333.76 40.2324L330.33 41.5126L330.523 43.8635C329.436 44.4191 328.365 45.0712 327.367 45.82L325.338 44.6043L322.673 47.0921L323.744 49.2016C322.923 50.1516 322.206 51.1661 321.578 52.2128L319.243 51.8585L317.73 55.1917L319.525 56.7215C319.139 57.897 318.857 59.1127 318.68 60.3285L316.385 60.9001L316.264 64.5554L318.511 65.28C318.607 66.5119 318.8 67.7357 319.098 68.9434L317.206 70.3443L318.494 73.7661L320.845 73.589C321.401 74.6759 322.053 75.7306 322.802 76.7451L321.586 78.7579L324.082 81.431L326.175 80.3601C327.134 81.1733 328.14 81.8979 329.187 82.526L328.84 84.8528L332.166 86.3745L333.695 84.5871C334.879 84.9655 336.087 85.2392 337.31 85.4244L337.882 87.711L341.537 87.8398L342.27 85.5855C343.502 85.4888 344.726 85.2956 345.933 84.9897L347.334 86.8817L350.764 85.6016L350.571 83.2506C351.658 82.695 352.721 82.0509 353.727 81.2941L355.748 82.5018ZM336.731 67.0996C334.766 64.9982 334.879 61.6972 336.98 59.7407C339.082 57.7762 342.383 57.8889 344.347 59.9903C346.312 62.0917 346.199 65.3928 344.09 67.3573C341.988 69.3218 338.687 69.2091 336.731 67.1077V67.0996Z" fill="#EBEBEB"/>
    <path d="M258.351 191.122L250.026 185.373V185.357C249.205 182.33 248.07 179.424 246.677 176.686L248.81 168.313L236.733 155.382L228.231 156.936C225.598 155.366 222.772 154.03 219.818 153.007C219.818 153.007 219.802 153.007 219.793 153.007L214.625 144.304L196.944 143.7L191.195 152.025C191.195 152.025 191.171 152.025 191.163 152.025C188.144 152.846 185.229 153.981 182.5 155.366L174.134 153.233L161.204 165.31L162.758 173.796C161.156 176.461 159.851 179.287 158.829 182.241L150.125 187.41L149.522 205.099L157.855 210.856C158.676 213.899 159.779 216.806 161.196 219.567L159.07 227.917L171.147 240.847L179.593 239.301C182.258 240.879 185.092 242.208 188.087 243.238L193.248 251.926L210.929 252.529L216.678 244.212C219.737 243.391 222.652 242.256 225.413 240.863L233.746 242.989L246.677 230.912L245.123 222.426C246.725 219.761 248.029 216.935 249.052 213.972L257.755 208.803L258.359 191.114L258.351 191.122ZM203.24 218.005C192.25 217.627 183.659 208.4 184.038 197.434C184.416 186.444 193.611 177.854 204.609 178.232C215.599 178.61 224.189 187.805 223.811 198.803C223.433 209.761 214.238 218.384 203.24 218.005Z" fill="#EBEBEB"/>
    <path d="M277.32 140.898C277.32 140.898 277.28 140.898 277.264 140.898L263.319 140.423C262.739 140.407 262.208 140.093 261.918 139.594L258.166 133.273C256.169 132.549 254.205 131.639 252.305 130.552L246.258 131.655C245.686 131.76 245.107 131.567 244.712 131.14L235.188 120.947C234.793 120.52 234.64 119.924 234.785 119.369L236.307 113.403C235.381 111.511 234.608 109.498 234.004 107.388L227.941 103.202C227.466 102.872 227.185 102.324 227.209 101.744L227.684 87.7996C227.7 87.2199 228.014 86.6885 228.513 86.3986L234.849 82.6387C235.598 80.5856 236.508 78.6211 237.563 76.8015L236.452 70.7388C236.347 70.1672 236.54 69.5875 236.967 69.193L247.168 59.6683C247.595 59.2738 248.19 59.1208 248.746 59.2657L254.728 60.7955C256.668 59.8535 258.673 59.0805 260.726 58.4847L264.913 52.4221C265.243 51.9471 265.783 51.6492 266.37 51.6894L280.315 52.1645C280.895 52.1806 281.426 52.4946 281.716 52.9937L285.476 59.3301C287.473 60.0628 289.429 60.9726 291.297 62.0434L297.376 60.9323C297.948 60.8277 298.527 61.0209 298.922 61.4476L308.446 71.6486C308.841 72.0753 308.994 72.6711 308.849 73.2267L307.319 79.2169C308.261 81.1572 309.034 83.162 309.63 85.2151L315.685 89.4018C316.16 89.7319 316.433 90.2794 316.417 90.8591L315.942 104.804C315.926 105.384 315.612 105.915 315.113 106.205L308.777 109.965C308.028 112.018 307.118 113.974 306.063 115.794L307.174 121.865C307.279 122.436 307.086 123.016 306.659 123.411L296.466 132.927C296.039 133.322 295.452 133.475 294.888 133.33L288.93 131.808C286.966 132.758 284.945 133.531 282.9 134.119L278.721 140.173C278.399 140.632 277.884 140.906 277.32 140.906V140.898ZM264.366 137.049L276.451 137.46L280.452 131.663C280.677 131.333 281.024 131.091 281.41 130.987C283.632 130.391 285.846 129.546 287.972 128.467C287.972 128.467 287.972 128.467 287.98 128.467C288.334 128.29 288.753 128.241 289.156 128.346L294.824 129.787L303.664 121.535L302.609 115.762C302.537 115.351 302.609 114.932 302.827 114.578C303.994 112.646 304.984 110.52 305.765 108.274C305.894 107.871 306.168 107.541 306.522 107.332L312.577 103.733L312.987 91.6481L307.19 87.6466C306.885 87.4373 306.659 87.1313 306.546 86.7851C306.53 86.7448 306.522 86.6965 306.506 86.6482C305.902 84.4261 305.057 82.2442 304.002 80.1669C303.817 79.7966 303.769 79.3779 303.873 78.9753L305.323 73.275L297.07 64.4347L291.281 65.4974C290.879 65.5699 290.46 65.4974 290.106 65.2881C288.093 64.0884 285.967 63.0981 283.785 62.3333C283.665 62.293 283.536 62.2366 283.431 62.1642C283.198 62.0193 283.004 61.818 282.859 61.5845L279.26 55.5218L267.175 55.1112L263.174 60.9082C262.932 61.2544 262.578 61.4959 262.176 61.5925C259.937 62.2044 257.763 63.0418 255.694 64.0965C255.324 64.2817 254.905 64.33 254.503 64.2253L248.802 62.7761L239.962 71.0287L241.017 76.8015C241.081 77.1638 241.033 77.5422 240.864 77.8642C240.84 77.9126 240.815 77.9528 240.783 78.0011C239.616 79.9415 238.625 82.0751 237.844 84.3294C237.716 84.7079 237.45 85.0299 237.104 85.2312L231.041 88.8301L230.631 100.915L236.436 104.925C236.766 105.15 237.007 105.488 237.112 105.883C237.74 108.202 238.577 110.4 239.616 112.42C239.672 112.533 239.72 112.662 239.753 112.783C239.817 113.057 239.817 113.338 239.753 113.612L238.303 119.288L246.556 128.129L252.305 127.074C252.707 127.001 253.126 127.074 253.472 127.283C255.525 128.491 257.659 129.489 259.825 130.238C260.219 130.359 260.557 130.625 260.767 130.987L264.357 137.041L264.366 137.049ZM271.829 121.784C271.531 121.784 271.233 121.784 270.935 121.768C256.886 121.285 245.856 109.466 246.331 95.4242C246.814 81.3746 258.649 70.3443 272.674 70.8193C286.724 71.3024 297.754 83.1218 297.279 97.1632C297.046 103.959 294.18 110.263 289.204 114.908C284.446 119.361 278.302 121.776 271.821 121.776L271.829 121.784ZM271.797 74.2089C259.961 74.2089 250.139 83.629 249.728 95.5449C249.31 107.719 258.875 117.96 271.048 118.378C276.95 118.58 282.57 116.47 286.885 112.437C291.193 108.411 293.68 102.944 293.882 97.0586C294.3 84.885 284.735 74.6437 272.562 74.2251C272.304 74.217 272.046 74.2089 271.797 74.2089Z" fill="#EBEBEB"/>
    <path d="M309.437 40.5545L303.664 39.0006L302.11 33.2278L304.373 30.9654L306.756 35.9089L311.699 38.2921L309.437 40.5545Z" fill="#E0E0E0"/>
    <path d="M309.791 36.6898C310.846 35.6351 310.846 33.9202 309.791 32.8735C308.736 31.8188 307.029 31.8269 305.983 32.8735L308.857 28.5661L312.714 30.5145L313.559 34.5643L309.799 36.6898H309.791Z" fill="#E0E0E0"/>
    <path d="M303.914 31.4243L308.149 27.1893L313.921 28.7432L315.475 34.516L311.24 38.751L305.467 37.1971L303.914 31.4243ZM311.603 34.8864C312.657 33.8316 312.657 32.1167 311.603 31.07C310.548 30.0153 308.841 30.0234 307.794 31.07C306.74 32.1248 306.74 33.8236 307.794 34.8703C308.849 35.925 310.556 35.933 311.603 34.8703V34.8864Z" fill="#F0F0F0"/>
    <path d="M73.3561 194.649L76.4559 193.811L77.2852 190.711L76.0775 189.504L74.7973 192.153L72.1404 193.433L73.3561 194.649Z" fill="#E0E0E0"/>
    <path d="M73.1629 192.571C72.5993 192.008 72.5993 191.09 73.1629 190.518C73.7264 189.947 74.6443 189.955 75.2079 190.518L73.6701 188.208L71.6009 189.254L71.15 191.428L73.1629 192.571Z" fill="#E0E0E0"/>
    <path d="M76.319 189.745L74.0486 187.475L70.9488 188.304L70.1195 191.404L72.39 193.674L75.4897 192.845L76.319 189.745ZM72.1967 191.605C71.6332 191.042 71.6332 190.124 72.1967 189.552C72.7603 188.98 73.6782 188.988 74.2418 189.552C74.8054 190.116 74.8054 191.025 74.2418 191.597C73.6782 192.169 72.7603 192.169 72.1967 191.597V191.605Z" fill="#F0F0F0"/>
    <path d="M62.197 24.7256L64.7654 27.294C65.4336 27.9622 66.5286 27.9622 67.1969 27.294C67.8651 26.6257 67.8651 25.5307 67.1969 24.8625L64.6285 22.2941C63.9602 21.6258 62.8653 21.6258 62.197 22.2941C61.5287 22.9624 61.5287 24.0573 62.197 24.7256Z" fill="#F0F0F0"/>
    <path d="M60.3855 18.3167C62.3661 17.6082 64.5158 18.5341 65.184 20.394C65.8523 22.2538 64.7895 24.3391 62.8089 25.0557C60.8283 25.7642 58.6786 24.8383 58.0103 22.9785C57.3421 21.1186 58.4048 19.0333 60.3855 18.3167Z" fill="#E0E0E0"/>
    <path d="M57.58 22.5454L57.9529 23.5835L65.6059 20.8343L65.233 19.7962L57.58 22.5454Z" fill="#F0F0F0"/>
    <path d="M202 300C288.215 300 358.107 295.92 358.107 290.886C358.107 285.852 288.215 281.772 202 281.772C115.785 281.772 45.8931 285.852 45.8931 290.886C45.8931 295.92 115.785 300 202 300Z" fill="#F5F5F5"/>
    <path d="M70.5381 52.8891C69.733 49.3465 70.0953 46.3595 71.617 43.936C73.1467 41.5126 75.6668 39.9023 79.1933 39.0972C82.8083 38.276 85.8115 38.6141 88.2107 40.1117C90.61 41.6092 92.2042 44.1051 93.0013 47.5994C93.581 50.1356 93.6212 52.3175 93.1382 54.1371C92.6551 55.9566 91.705 57.5025 90.296 58.7746C88.8871 60.0467 86.9789 60.9565 84.5635 61.504C82.1159 62.0595 79.9984 62.132 78.2191 61.7133C76.4397 61.2947 74.8536 60.3607 73.4768 58.8954C72.092 57.43 71.1178 55.4333 70.5381 52.8972V52.8891ZM77.2529 51.3916C77.7521 53.5815 78.517 55.071 79.5475 55.8359C80.5781 56.6088 81.7938 56.8342 83.2028 56.5122C84.644 56.1821 85.6504 55.4655 86.2301 54.3464C86.8098 53.2273 86.8179 51.456 86.2704 49.0245C85.8034 46.9794 85.0546 45.5785 84.016 44.8217C82.9774 44.0649 81.7536 43.8475 80.3366 44.1695C78.9839 44.4755 78.0017 45.2001 77.4059 46.3434C76.802 47.4867 76.7537 49.1694 77.261 51.3755L77.2529 51.3916Z" fill="#263238"/>
    <path d="M96.1976 50.2322C95.6501 47.8329 96.0125 45.6671 97.2765 43.7428C98.5406 41.8185 100.553 40.5464 103.307 39.9184C106.455 39.2019 109.048 39.5722 111.068 41.0376C112.695 42.2131 113.758 43.8797 114.249 46.0374C114.796 48.4609 114.45 50.6267 113.194 52.5348C111.938 54.443 109.893 55.7232 107.059 56.3673C104.531 56.9389 102.341 56.7698 100.489 55.8359C98.2105 54.6845 96.7773 52.8166 96.1896 50.2402L96.1976 50.2322ZM102.236 48.8473C102.558 50.2483 103.073 51.2225 103.798 51.7619C104.515 52.3014 105.312 52.4785 106.165 52.2853C107.035 52.084 107.671 51.5928 108.081 50.8038C108.492 50.0148 108.524 48.8876 108.194 47.4303C107.88 46.0696 107.373 45.1115 106.656 44.5801C105.94 44.0407 105.167 43.8636 104.338 44.0568C103.46 44.2581 102.808 44.7573 102.389 45.5705C101.97 46.3756 101.914 47.4706 102.236 48.8554V48.8473Z" fill="#263238"/>
    <path d="M120.344 59.2657L115.408 37.5433L121.052 36.2631L121.583 38.5899C122.139 37.4386 122.711 36.6093 123.282 36.1182C124.055 35.458 124.973 34.9991 126.044 34.7575C128.145 34.2825 129.957 34.7173 131.47 36.0618C132.984 37.4064 134.015 39.2663 134.554 41.6414C135.15 44.2581 134.973 46.3997 134.039 48.0583C133.097 49.7249 131.672 50.7716 129.756 51.2064C128.83 51.4157 127.944 51.4479 127.107 51.311C126.269 51.1661 125.48 50.8521 124.732 50.369L126.438 57.8809L120.352 59.2657H120.344ZM123.25 44.0809C123.532 45.3289 124.007 46.1904 124.667 46.6735C125.327 47.1565 126.06 47.3095 126.857 47.1243C127.558 46.9633 128.081 46.5446 128.427 45.8603C128.773 45.1759 128.781 44.1373 128.467 42.7605C128.177 41.4884 127.719 40.6108 127.091 40.1197C126.463 39.6366 125.794 39.4756 125.078 39.6366C124.305 39.8137 123.733 40.2566 123.355 40.9812C122.976 41.6978 122.944 42.7364 123.25 44.089V44.0809Z" fill="#263238"/>
    <path d="M137.13 44.564L142.984 42.6398C143.394 43.2919 143.853 43.7267 144.369 43.928C144.884 44.1293 145.512 44.1534 146.253 43.9843C147.066 43.7991 147.654 43.4851 148.016 43.0423C148.306 42.7042 148.402 42.3499 148.314 41.9634C148.217 41.5287 147.911 41.2469 147.404 41.11C147.042 41.0134 146.132 41.0053 144.667 41.0778C142.493 41.1905 140.955 41.1825 140.069 41.0537C139.184 40.9248 138.378 40.5545 137.654 39.9426C136.929 39.3307 136.454 38.5497 136.245 37.5996C136.011 36.561 136.108 35.6029 136.543 34.7173C136.978 33.8316 137.678 33.0829 138.652 32.471C139.626 31.8591 141.003 31.3518 142.774 30.9492C144.65 30.5225 146.067 30.3535 147.026 30.434C147.984 30.5145 148.829 30.7963 149.562 31.2552C150.294 31.7222 150.979 32.4226 151.607 33.3646L146.019 35.2245C145.753 34.7575 145.423 34.4435 145.029 34.2825C144.481 34.0732 143.877 34.049 143.201 34.202C142.517 34.355 142.05 34.5884 141.792 34.9024C141.535 35.2164 141.446 35.5466 141.527 35.8928C141.615 36.2792 141.881 36.5208 142.316 36.6335C142.758 36.7381 143.652 36.722 145.013 36.5771C147.066 36.3517 148.636 36.3275 149.699 36.5047C150.769 36.6898 151.647 37.0924 152.339 37.7285C153.032 38.3645 153.475 39.1294 153.676 40.0231C153.885 40.9329 153.805 41.8749 153.459 42.8571C153.104 43.8394 152.396 44.717 151.333 45.498C150.27 46.2709 148.716 46.8909 146.687 47.3578C143.813 48.01 141.671 48.0663 140.271 47.5269C138.862 46.9875 137.815 45.9972 137.13 44.564Z" fill="#263238"/>
    <path d="M156.792 24.6451L163.402 24.6048L163.434 29.6772L162.218 39.8782L158.128 39.9023L156.824 29.7174L156.792 24.6451ZM157.114 41.4643L163.281 41.4321L163.313 46.8828L157.146 46.915L157.114 41.4643Z" fill="#263238"/>
    <path d="M246.628 70.8838C246.161 66.5924 245.3 62.7761 244.052 59.4348C242.804 56.1016 240.928 52.8247 238.424 49.6203C235.92 46.4158 232.506 43.6301 228.199 41.271C223.883 38.912 218.191 37.2695 211.114 36.3517C196.388 34.4355 184.907 37.0441 176.671 44.1937C168.434 51.3432 163.016 65.0305 160.407 85.2634C159.344 93.4919 159.087 101.1 159.618 108.081C160.149 115.069 161.437 120.681 163.466 124.932C166.244 130.906 170.173 135.673 175.262 139.239C180.342 142.806 187.306 145.165 196.155 146.317C211.935 148.37 223.626 145.342 231.234 137.227C238.843 129.111 243.891 115.399 246.379 96.0844C247.49 87.4695 247.57 79.0639 246.636 70.8677L246.628 70.8838Z" fill="#F0821B"/>
    <path d="M203.425 138.064C201.493 138 199.432 137.822 197.298 137.549C189.931 136.591 184.223 134.723 180.35 132.001C176.526 129.32 173.627 125.786 171.502 121.204L171.461 121.124C169.916 117.887 168.901 113.274 168.458 107.413C167.967 101.06 168.217 93.9911 169.199 86.3987C172.073 64.0804 178.007 54.7651 182.484 50.8843C187.701 46.3595 194.738 44.3144 204.005 44.6284C205.905 44.6929 207.918 44.8619 209.979 45.1357C215.929 45.9086 220.631 47.229 223.964 49.0486C227.193 50.8119 229.713 52.8408 231.46 55.0791C233.392 57.5589 234.841 60.0628 235.767 62.5426C236.75 65.1754 237.45 68.3074 237.836 71.8499C238.698 79.3457 238.609 87.1072 237.603 94.9733C235.373 112.316 231.057 124.497 224.785 131.188C220.132 136.156 213.151 138.402 203.441 138.072L203.425 138.064Z" fill="#263238"/>
    <path d="M219.182 71.1173L219.286 68.0658L217.41 67.4539C217.33 66.4153 217.161 65.3847 216.911 64.3944L218.497 63.227L217.418 60.3607L215.454 60.5217C214.987 59.5958 214.439 58.7182 213.819 57.8889L214.834 56.1901L212.741 53.9599L210.985 54.8616C210.196 54.1934 209.359 53.5815 208.473 53.042L208.755 51.0936L205.969 49.8296L204.697 51.3271C203.723 51.0131 202.717 50.7796 201.678 50.6186L201.203 48.7104L198.144 48.6058L197.54 50.4817C196.493 50.5703 195.47 50.7313 194.48 50.9809L193.305 49.4029L190.438 50.4737L190.599 52.4382C189.674 52.9132 188.796 53.4607 187.967 54.0807L186.276 53.0662L184.038 55.1515L184.939 56.9147C184.271 57.6957 183.659 58.5411 183.128 59.4267L181.179 59.1369L179.907 61.9227L181.413 63.1948C181.099 64.169 180.849 65.1834 180.704 66.214L178.788 66.6971L178.683 69.7485L180.567 70.3604C180.648 71.4071 180.817 72.4296 181.067 73.4199L179.481 74.5874L180.559 77.4536L182.524 77.2926C182.991 78.2185 183.538 79.0961 184.158 79.9254L183.144 81.6242L185.237 83.8544L186.992 82.9527C187.773 83.6209 188.619 84.2328 189.504 84.7723L189.215 86.7207L192 87.9847L193.281 86.4872C194.255 86.8012 195.261 87.0347 196.3 87.1957L196.775 89.1039L199.834 89.2086L200.438 87.3326C201.485 87.244 202.507 87.083 203.498 86.8334L204.665 88.4115L207.531 87.3406L207.378 85.3761C208.304 84.9011 209.182 84.3536 210.011 83.7337L211.702 84.7481L213.94 82.6628L213.038 80.8996C213.707 80.1186 214.319 79.2732 214.85 78.3876L216.798 78.6774L218.07 75.8917L216.565 74.6196C216.879 73.6454 217.12 72.6389 217.273 71.6003L219.182 71.1173ZM198.57 80.9962C191.888 80.7708 186.662 75.1671 186.888 68.4845C187.113 61.7938 192.717 56.5685 199.4 56.794C206.082 57.0194 211.307 62.6231 211.082 69.3138C210.857 75.9963 205.253 81.2216 198.57 80.9962Z" fill="#F0821B"/>
    <path opacity="0.3" d="M231.887 127.138L232.104 125.085L230.872 124.578C230.872 123.869 230.808 123.169 230.687 122.493L231.814 121.776L231.242 119.787H229.906C229.632 119.151 229.318 118.523 228.94 117.936L229.705 116.841L228.408 115.23L227.176 115.746C226.685 115.255 226.154 114.804 225.574 114.401L225.872 113.089L224.061 112.09L223.111 113.049C222.458 112.775 221.79 112.573 221.114 112.412L220.888 111.092L218.835 110.859L218.328 112.09C217.62 112.09 216.927 112.163 216.243 112.284L215.526 111.148L213.538 111.728V113.065C212.91 113.338 212.282 113.652 211.686 114.031L210.591 113.258L208.981 114.554L209.496 115.786C209.021 116.277 208.554 116.808 208.151 117.388L206.855 117.098L205.857 118.91L206.807 119.844C206.541 120.504 206.332 121.164 206.171 121.849L204.85 122.066L204.633 124.119L205.865 124.634C205.865 125.335 205.929 126.027 206.05 126.712L204.915 127.428L205.494 129.417H206.831C207.105 130.053 207.419 130.681 207.797 131.269L207.024 132.364L208.312 133.982L209.552 133.459C210.043 133.95 210.575 134.401 211.154 134.803L210.856 136.116L212.668 137.114L213.618 136.164C214.27 136.43 214.938 136.631 215.615 136.792L215.84 138.112L217.893 138.346L218.401 137.106C219.101 137.106 219.801 137.033 220.486 136.913L221.202 138.048L223.183 137.468V136.132C223.819 135.858 224.447 135.544 225.043 135.165L226.13 135.938L227.748 134.65L227.225 133.418C227.716 132.927 228.167 132.396 228.577 131.816L229.874 132.106L230.872 130.294L229.922 129.36C230.188 128.7 230.389 128.04 230.55 127.364L231.878 127.138H231.887ZM221.524 126.341C220.566 128.08 218.384 128.724 216.645 127.766C214.906 126.808 214.278 124.626 215.228 122.887C216.186 121.148 218.36 120.52 220.099 121.47C221.838 122.428 222.483 124.602 221.524 126.341Z" fill="#F0821B"/>
    <path d="M243.295 92.3486L240.896 90.69C240.663 89.8205 240.332 88.9751 239.93 88.1941L240.542 85.7787L237.064 82.0509L234.616 82.5018C233.859 82.0509 233.046 81.6645 232.193 81.3666L230.703 78.8546L225.607 78.6774L223.948 81.0767C223.948 81.0767 223.948 81.0767 223.94 81.0767C223.07 81.3102 222.233 81.6403 221.444 82.0429L219.029 81.431L215.301 84.9092L215.752 87.3568C215.293 88.1216 214.914 88.9429 214.617 89.7883L212.104 91.2778L211.927 96.3742L214.327 98.0328C214.56 98.9104 214.882 99.7477 215.293 100.545L214.681 102.952L218.159 106.68L220.591 106.237C221.355 106.688 222.177 107.074 223.038 107.372L224.528 109.876L229.624 110.053L231.283 107.654C232.16 107.421 233.006 107.091 233.803 106.688L236.202 107.3L239.93 103.822L239.479 101.374C239.938 100.609 240.316 99.788 240.614 98.9345L243.126 97.4451L243.303 92.3486H243.295ZM227.41 100.094C224.238 99.9893 221.766 97.3243 221.871 94.1682C221.975 90.996 224.632 88.5242 227.797 88.6289C230.969 88.7335 233.441 91.3905 233.336 94.5546C233.231 97.7108 230.574 100.199 227.41 100.094Z" fill="white"/>
    <path d="M260.807 51.6653L261.226 50.6508C261.523 50.4978 261.813 50.3046 262.071 50.1033L263.005 50.1355L264.1 48.5655L263.746 47.704C263.85 47.39 263.931 47.0599 263.971 46.7218L264.776 45.9811L264.438 44.0971L263.424 43.6784C263.271 43.3805 263.085 43.0987 262.876 42.841L262.908 41.9071L261.338 40.8121L260.477 41.1664C260.155 41.0537 259.833 40.9812 259.495 40.9409L258.754 40.1358L256.87 40.474L256.451 41.4884C256.145 41.6414 255.863 41.8266 255.606 42.0359L254.672 42.0037L253.577 43.5737L253.931 44.4352C253.826 44.7492 253.746 45.0793 253.706 45.4255L252.901 46.1662L253.239 48.0502L254.253 48.4689C254.406 48.7749 254.599 49.0567 254.809 49.3143L254.776 50.2402L256.346 51.3352L257.208 50.9809C257.53 51.0936 257.852 51.1661 258.19 51.2064L258.939 52.0115L260.823 51.6733L260.807 51.6653ZM256.709 46.44C256.499 45.2645 257.28 44.1534 258.448 43.9441C259.623 43.7347 260.734 44.5157 260.944 45.6832C261.153 46.8506 260.372 47.9697 259.205 48.1791C258.037 48.3884 256.918 47.6074 256.709 46.44Z" fill="#F0821B"/>
    <path d="M238.722 46.3273L238.11 45.812C239.181 44.5479 240.695 42.9457 242.949 41.7622L243.319 42.4787C240.92 43.7347 239.382 45.5543 238.722 46.3353V46.3273Z" fill="#F0821B"/>
    <path d="M245.147 41.7461L244.833 41.0054C247.876 39.701 251.057 39.1938 254.285 39.4917L254.213 40.2968C251.121 39.9989 248.078 40.4981 245.155 41.7461H245.147Z" fill="#F0821B"/>
    <path d="M243.625 47.3176L242.957 46.8667C244.608 44.4352 247.876 42.3258 250.904 41.7219L251.057 42.511C248.223 43.0745 245.163 45.0471 243.617 47.3176H243.625Z" fill="#F0821B"/>
    <path d="M190.197 124.795C190.092 124.795 189.988 124.755 189.907 124.675L188.216 122.936C187.355 122.855 186.509 122.694 185.68 122.46L183.047 123.62C182.918 123.676 182.774 123.66 182.661 123.588L178.249 120.665C178.136 120.593 178.064 120.464 178.072 120.327L178.112 117.461C177.572 116.792 177.097 116.068 176.687 115.303L174.424 114.425C174.295 114.377 174.199 114.264 174.175 114.127L173.12 108.942C173.096 108.805 173.136 108.669 173.233 108.572L174.972 106.881C175.052 106.028 175.213 105.174 175.439 104.345L174.279 101.72C174.223 101.591 174.239 101.447 174.312 101.334L177.234 96.9217C177.307 96.809 177.419 96.7365 177.572 96.7446L180.439 96.7848C181.115 96.2454 181.84 95.7704 182.596 95.3678L183.474 93.1054C183.522 92.9766 183.635 92.88 183.772 92.8558L188.957 91.8011C189.094 91.7769 189.231 91.8172 189.327 91.9138L191.01 93.6529C191.863 93.7334 192.717 93.8944 193.546 94.1199L196.171 92.9605C196.3 92.9041 196.445 92.9202 196.557 92.9927L200.969 95.9153C201.082 95.9878 201.155 96.1166 201.147 96.2535L201.106 99.1278C201.646 99.796 202.121 100.521 202.523 101.277L204.786 102.155C204.915 102.203 205.011 102.316 205.035 102.453L206.09 107.638C206.114 107.775 206.074 107.912 205.977 108.008L204.238 109.699C204.158 110.545 203.997 111.398 203.763 112.227L204.923 114.86C204.979 114.989 204.963 115.134 204.89 115.247L201.968 119.651C201.895 119.763 201.775 119.82 201.63 119.828L198.763 119.787C198.095 120.319 197.371 120.794 196.606 121.204L195.728 123.467C195.68 123.596 195.567 123.692 195.43 123.716L190.245 124.771C190.245 124.771 190.189 124.771 190.165 124.771L190.197 124.795ZM185.656 121.631C185.656 121.631 185.728 121.631 185.769 121.647C186.63 121.897 187.524 122.066 188.434 122.146C188.53 122.146 188.619 122.195 188.691 122.267L190.334 123.958L195.084 122.992L195.937 120.794C195.97 120.705 196.042 120.625 196.131 120.585C196.936 120.166 197.701 119.667 198.401 119.095C198.474 119.039 198.554 118.998 198.659 119.006L201.453 119.047L204.134 115.005L203.006 112.445C202.966 112.356 202.966 112.259 202.99 112.171C203.248 111.293 203.409 110.392 203.49 109.506C203.49 109.409 203.538 109.321 203.61 109.248L205.301 107.606L204.335 102.856L202.137 102.002C202.04 101.97 201.968 101.897 201.92 101.809C201.501 101.004 201.002 100.247 200.43 99.5464C200.366 99.474 200.333 99.3774 200.341 99.2808L200.382 96.4869L196.34 93.8059L193.78 94.933C193.691 94.9733 193.594 94.9733 193.506 94.9491C192.636 94.6915 191.735 94.5305 190.833 94.45C190.736 94.45 190.648 94.4017 190.575 94.3292L188.941 92.6384L184.191 93.6046L183.337 95.8026C183.305 95.8912 183.232 95.9717 183.144 96.0119C182.339 96.4306 181.582 96.9298 180.873 97.5014C180.801 97.5578 180.704 97.6061 180.608 97.59L177.814 97.5497L175.133 101.591L176.26 104.152C176.308 104.265 176.308 104.385 176.252 104.498C176.027 105.303 175.857 106.197 175.785 107.099C175.785 107.195 175.737 107.284 175.664 107.356L173.973 108.999L174.94 113.749L177.138 114.602C177.234 114.643 177.315 114.715 177.355 114.812C177.774 115.609 178.273 116.366 178.836 117.058C178.901 117.131 178.933 117.227 178.933 117.324L178.893 120.118L182.935 122.799L185.495 121.671C185.543 121.647 185.6 121.639 185.656 121.639V121.631ZM189.617 119.023C187.58 119.023 185.527 118.443 183.707 117.243C181.316 115.657 179.69 113.242 179.118 110.432C178.547 107.622 179.102 104.764 180.688 102.372C183.965 97.4451 190.632 96.0844 195.559 99.3532C200.486 102.622 201.839 109.297 198.57 114.224C196.509 117.332 193.095 119.023 189.617 119.023ZM181.356 102.815C179.891 105.021 179.376 107.67 179.907 110.271C180.439 112.871 181.944 115.102 184.15 116.567C188.715 119.586 194.883 118.338 197.902 113.781C200.921 109.224 199.673 103.049 195.116 100.021C190.559 97.0022 184.384 98.2502 181.356 102.815Z" fill="white"/>
    <path d="M75.1768 179.184C74.5984 179.343 74.0793 179.387 73.6196 179.315C73.1598 179.242 72.7594 179.099 72.4185 178.886C72.0853 178.671 71.8145 178.427 71.606 178.152C71.4031 177.868 71.2655 177.595 71.1932 177.332L72.8474 176.876C72.8474 176.876 72.877 176.938 72.9363 177.063C73.0033 177.186 73.1104 177.318 73.2574 177.46C73.4045 177.602 73.6002 177.71 73.8446 177.784C74.089 177.857 74.3885 177.845 74.7433 177.747C75.098 177.649 75.3709 177.495 75.5618 177.285C75.7507 177.067 75.871 176.826 75.9229 176.563C75.9747 176.3 75.9656 176.041 75.8954 175.786C75.8231 175.524 75.6971 175.293 75.5176 175.094C75.336 174.887 75.1093 174.742 74.8376 174.659C74.5714 174.567 74.2686 174.567 73.9293 174.661C73.6671 174.733 73.4628 174.835 73.3166 174.967C73.1682 175.09 73.0587 175.22 72.9883 175.356C72.9157 175.484 72.8679 175.597 72.845 175.694C72.8278 175.782 72.8191 175.826 72.8191 175.826L71.0608 176.311L70.4471 171.152L75.4907 169.761L75.9183 171.311L72.0893 172.367L72.3277 174.405L72.374 174.393C72.4019 174.343 72.4578 174.245 72.5415 174.097C72.633 173.948 72.7883 173.789 73.0075 173.62C73.2245 173.444 73.5373 173.3 73.9461 173.187C74.563 173.017 75.1257 173.011 75.6342 173.17C76.1426 173.328 76.5655 173.597 76.9026 173.977C77.2454 174.348 77.4838 174.776 77.6178 175.262C77.722 175.639 77.7537 176.025 77.7127 176.418C77.6795 176.809 77.5683 177.188 77.3792 177.556C77.188 177.915 76.9125 178.24 76.5526 178.53C76.1907 178.813 75.7321 179.031 75.1768 179.184Z" fill="#F0821B"/>
    <path d="M258.897 158.7C258.318 158.577 257.827 158.35 257.423 158.019C257.027 157.689 256.715 157.288 256.489 156.814C256.264 156.333 256.126 155.805 256.077 155.23C256.035 154.657 256.078 154.069 256.206 153.467C256.336 152.856 256.536 152.298 256.807 151.791C257.086 151.286 257.425 150.863 257.825 150.523C258.226 150.174 258.674 149.934 259.168 149.802C259.672 149.664 260.213 149.656 260.792 149.779C261.371 149.902 261.859 150.128 262.255 150.458C262.661 150.781 262.976 151.183 263.201 151.664C263.427 152.138 263.562 152.661 263.604 153.234C263.653 153.809 263.613 154.402 263.484 155.012C263.356 155.615 263.152 156.169 262.873 156.674C262.602 157.18 262.266 157.608 261.865 157.956C261.465 158.297 261.014 158.536 260.51 158.674C260.014 158.814 259.477 158.823 258.897 158.7ZM259.239 157.092C259.755 157.201 260.229 157.052 260.659 156.645C261.097 156.239 261.416 155.563 261.617 154.616C261.818 153.669 261.801 152.921 261.566 152.372C261.339 151.825 260.967 151.497 260.451 151.387C259.934 151.277 259.457 151.425 259.019 151.831C258.589 152.239 258.273 152.916 258.072 153.863C257.871 154.81 257.884 155.557 258.112 156.104C258.347 156.653 258.722 156.982 259.239 157.092Z" fill="#F0821B"/>
    <path d="M179.819 201.194C180.938 183.159 178.877 150.366 212.781 154.706C249.124 159.36 238.722 201.855 238.722 201.855L179.811 201.194H179.819Z" fill="#263238"/>
    <path d="M203.216 190.357C211.389 190.357 218.014 183.732 218.014 175.559C218.014 167.386 211.389 160.761 203.216 160.761C195.043 160.761 188.417 167.386 188.417 175.559C188.417 183.732 195.043 190.357 203.216 190.357Z" fill="white"/>
    <path d="M205.164 160.785C198.16 159.585 190.664 164.754 189.923 169.987L217.708 172.54C216.726 166.574 210.728 161.735 205.164 160.785Z" fill="#263238"/>
    <path d="M214.544 175.189C214.343 179.053 212.241 182.089 209.834 181.968C207.427 181.847 205.647 178.61 205.849 174.738C206.05 170.873 208.151 167.838 210.559 167.958C212.966 168.079 214.745 171.316 214.544 175.189Z" fill="#263238"/>
    <path d="M203.216 191.154C194.617 191.154 187.612 184.158 187.612 175.551C187.612 166.944 194.609 159.947 203.216 159.947C211.823 159.947 218.819 166.944 218.819 175.551C218.819 184.158 211.823 191.154 203.216 191.154ZM203.216 161.566C195.503 161.566 189.223 167.838 189.223 175.559C189.223 183.28 195.495 189.552 203.216 189.552C210.937 189.552 217.209 183.28 217.209 175.559C217.209 167.838 210.937 161.566 203.216 161.566Z" fill="#F0821B"/>
    <path opacity="0.3" d="M234.6 200.735C234.6 200.735 234.535 200.735 234.503 200.727C234.286 200.679 234.157 200.462 234.205 200.244C234.229 200.14 236.798 189.222 234.133 178.184C234.084 177.966 234.213 177.749 234.431 177.701C234.64 177.652 234.865 177.781 234.914 177.998C237.627 189.23 235.01 200.325 234.986 200.437C234.938 200.623 234.777 200.743 234.592 200.743L234.6 200.735Z" fill="white"/>
    <path opacity="0.3" d="M232.353 172.145C232.201 172.145 232.056 172.057 231.991 171.912C230.953 169.649 229.672 167.58 228.175 165.744C228.038 165.575 228.062 165.318 228.231 165.181C228.4 165.036 228.658 165.068 228.795 165.237C230.333 167.121 231.661 169.255 232.724 171.573C232.82 171.775 232.724 172.016 232.523 172.105C232.466 172.129 232.41 172.145 232.353 172.145Z" fill="white"/>
    <path d="M104.362 285.797C104.265 285.797 104.16 285.797 104.064 285.797C101.842 285.733 100.086 283.881 100.151 281.659C100.215 279.437 102.043 277.722 104.289 277.746C104.313 277.746 104.338 277.746 104.37 277.746C106.697 277.746 112.292 274.92 123.999 256.467C124.627 255.476 125.657 254.808 126.817 254.639C127.976 254.47 129.16 254.816 130.037 255.589C144.481 268.181 159.787 276.023 159.94 276.104C161.921 277.11 162.71 279.534 161.703 281.514C160.697 283.495 158.273 284.292 156.293 283.285C155.681 282.98 142.308 276.136 128.274 264.647C118.46 279.397 111.181 285.797 104.362 285.797Z" fill="#263238"/>
    <path d="M129.272 254.864C129.16 254.864 129.047 254.864 128.926 254.84C127.606 254.655 126.688 253.431 126.873 252.111C127.445 248.101 126.736 233.086 121.664 221.411C121.205 220.348 121.559 219.108 122.517 218.448C133.548 210.936 157.041 210.035 158.032 210.002C159.36 209.97 160.479 211.001 160.528 212.329C160.576 213.666 159.529 214.777 158.201 214.825C157.983 214.825 137.445 215.622 126.889 221.427C131.382 233.053 132.404 247.546 131.656 252.787C131.487 253.995 130.448 254.864 129.264 254.864H129.272Z" fill="#263238"/>
    <path d="M133.33 251.732C131.72 247.94 124.482 248.375 120.231 251.62C117.96 253.359 114.885 258.576 114.563 260.468C114.241 262.36 115.553 264.075 117.799 263.882C120.577 263.64 124.385 259.607 124.385 259.607C121.849 262.094 125.118 263.85 130.005 260.251C132.71 258.254 135.126 255.975 133.33 251.732Z" fill="#F0821B"/>
    <path d="M271.813 202.257C271.813 202.257 271.74 202.257 271.7 202.241C271.483 202.177 271.362 201.959 271.426 201.742C272.497 198.006 273.673 195.727 275.211 194.455C274.977 193.65 275.001 192.732 275.331 191.831C275.653 190.953 276.281 190.083 277.231 189.415C276.764 188.908 276.595 188.248 276.756 187.499C276.942 186.662 277.545 185.752 278.479 184.955C278.117 184.536 278.029 184.077 278.021 183.739C277.996 181.34 282.457 177.676 287.489 176.992C287.706 176.952 287.916 177.113 287.94 177.338C287.972 177.556 287.819 177.765 287.594 177.789C282.811 178.441 278.801 181.903 278.818 183.731C278.818 184.029 278.93 184.262 279.107 184.456C280.919 183.192 283.592 182.378 286.579 182.958C289.051 183.433 290.057 183.956 289.936 184.705C289.719 186.114 284.453 186.412 280.927 185.985C280.13 185.889 279.542 185.704 279.115 185.462C278.238 186.179 277.674 186.984 277.529 187.66C277.401 188.264 277.594 188.683 277.932 188.98C279.429 188.208 281.531 187.885 284.309 188.505C287.964 189.311 288.101 189.753 288.181 190.019C288.238 190.212 288.189 190.406 288.052 190.55C287.28 191.364 281.684 190.977 278.874 190.293C278.512 190.204 278.182 190.083 277.908 189.93C276.974 190.518 276.378 191.307 276.08 192.112C275.847 192.757 275.79 193.393 275.895 193.964C276.04 193.876 276.185 193.795 276.338 193.731C278.004 192.942 280.017 193.071 282.497 194.133C284.14 194.842 284.937 195.462 284.993 196.098C285.009 196.283 284.977 196.645 284.534 196.935C283.31 197.748 279.003 197.628 276.764 196.436C276.233 196.154 275.822 195.735 275.525 195.236C274.212 196.436 273.149 198.594 272.175 201.967C272.127 202.144 271.966 202.257 271.789 202.257H271.813ZM276.185 194.745C276.41 195.156 276.74 195.494 277.167 195.727C278.987 196.694 282.561 196.919 283.898 196.372C284.172 196.259 284.212 196.17 284.212 196.17C284.212 196.17 284.172 195.719 282.199 194.874C279.945 193.908 278.141 193.771 276.7 194.455C276.523 194.536 276.354 194.632 276.185 194.745ZM278.866 189.455C278.938 189.48 279.003 189.496 279.075 189.512C281.917 190.204 285.758 190.325 287.07 190.108C286.66 189.939 285.83 189.657 284.139 189.286C281.909 188.795 280.162 188.948 278.858 189.447L278.866 189.455ZM279.88 184.931C280.243 185.068 280.653 185.148 281.04 185.188C285.049 185.663 288.592 185.1 289.123 184.601C288.986 184.48 288.447 184.134 286.442 183.747C283.801 183.248 281.491 183.908 279.88 184.923V184.931Z" fill="#263238"/>
    <path d="M167.001 284.453C167.532 284.284 167.355 283.769 166.759 283.769H155.858C135.102 281.571 120.601 284.517 129.74 285.21C138.878 285.902 129.095 285.757 122.421 288.285C115.746 290.813 172.057 291.45 177.186 288.285C181.912 285.371 159.65 286.812 167.001 284.453Z" fill="#263238"/>
    <path d="M245.05 287.665L150.206 284.517L146.269 192.555L258.271 195.059L245.05 287.665Z" fill="#F0821B"/>
    <path d="M179.819 285.902C179.609 285.902 179.432 285.741 179.416 285.532L171.816 193.167C171.8 192.942 171.961 192.748 172.186 192.732C172.411 192.716 172.605 192.877 172.621 193.103L180.221 285.467C180.237 285.693 180.076 285.886 179.851 285.902C179.843 285.902 179.827 285.902 179.819 285.902Z" fill="#263238"/>
    <path d="M245.05 287.665L270.541 283.785L278.568 198.272L258.271 195.059L245.05 287.665Z" fill="#F0821B"/>
    <path opacity="0.2" d="M245.05 287.665L270.541 283.785L278.568 198.272L258.271 195.059L245.05 287.665Z" fill="black"/>
    <path d="M158.305 266.788L155.971 212.152C155.729 206.452 160.351 201.726 166.059 201.855L236.959 203.441C242.876 203.569 247.353 208.851 246.516 214.712L238.658 269.775C237.949 274.767 233.593 278.423 228.553 278.253L167.854 276.241C162.693 276.072 158.531 271.949 158.314 266.788H158.305Z" fill="#263238"/>
    <path d="M165.97 218.625L176.936 218.972L176.848 221.798L169.98 221.58L169.916 223.682L176.284 223.883L176.196 226.588L169.827 226.387L169.746 228.995L176.816 229.221L176.719 232.224L165.552 231.87L165.97 218.625Z" fill="white"/>
    <path d="M178.973 232.297L179.392 219.052L186.211 219.269C187.475 219.31 188.442 219.447 189.102 219.688C189.762 219.93 190.293 220.348 190.68 220.944C191.074 221.548 191.252 222.265 191.227 223.11C191.203 223.843 191.026 224.471 190.696 224.994C190.366 225.517 189.923 225.936 189.359 226.25C189.005 226.451 188.522 226.612 187.902 226.725C188.385 226.902 188.731 227.079 188.949 227.248C189.094 227.361 189.303 227.603 189.585 227.965C189.867 228.327 190.044 228.609 190.132 228.802L191.992 232.707L187.371 232.562L185.31 228.448C185.052 227.917 184.81 227.57 184.601 227.401C184.311 227.184 183.981 227.071 183.611 227.063H183.249L183.079 232.425L178.965 232.297H178.973ZM183.337 224.551L185.06 224.608C185.245 224.608 185.608 224.567 186.147 224.463C186.421 224.414 186.646 224.285 186.823 224.068C187 223.851 187.097 223.601 187.105 223.311C187.121 222.885 186.992 222.554 186.727 222.313C186.461 222.071 185.954 221.943 185.213 221.918L183.418 221.862L183.329 224.551H183.337Z" fill="white"/>
    <path d="M193.369 232.755L193.788 219.511L200.607 219.728C201.871 219.769 202.837 219.906 203.498 220.147C204.158 220.389 204.689 220.807 205.076 221.403C205.47 222.007 205.647 222.723 205.623 223.569C205.599 224.302 205.422 224.93 205.092 225.453C204.762 225.976 204.319 226.395 203.755 226.709C203.401 226.91 202.918 227.071 202.298 227.184C202.781 227.361 203.127 227.538 203.345 227.707C203.49 227.82 203.699 228.062 203.981 228.424C204.254 228.786 204.44 229.068 204.528 229.261L206.388 233.166L201.767 233.021L199.705 228.907C199.448 228.376 199.206 228.029 198.997 227.86C198.707 227.643 198.377 227.53 198.007 227.522H197.644L197.475 232.884L193.361 232.755H193.369ZM197.733 225.01L199.456 225.066C199.641 225.066 200.003 225.026 200.543 224.921C200.816 224.873 201.042 224.744 201.219 224.527C201.396 224.31 201.493 224.06 201.501 223.77C201.517 223.343 201.388 223.013 201.122 222.772C200.857 222.53 200.349 222.401 199.609 222.377L197.813 222.321L197.725 225.01H197.733Z" fill="white"/>
    <path d="M207.088 226.572C207.161 224.406 207.813 222.748 209.053 221.58C210.293 220.413 211.992 219.865 214.141 219.93C216.347 220.002 218.022 220.646 219.182 221.87C220.333 223.094 220.88 224.769 220.816 226.902C220.768 228.448 220.462 229.712 219.914 230.686C219.359 231.66 218.586 232.409 217.579 232.925C216.573 233.448 215.341 233.681 213.868 233.633C212.37 233.585 211.146 233.311 210.18 232.804C209.214 232.297 208.449 231.516 207.869 230.469C207.29 229.422 207.032 228.118 207.08 226.572H207.088ZM211.179 226.717C211.138 228.053 211.356 229.02 211.831 229.623C212.306 230.227 212.974 230.533 213.827 230.565C214.705 230.59 215.397 230.332 215.897 229.768C216.396 229.213 216.67 228.19 216.718 226.709C216.758 225.461 216.533 224.543 216.05 223.955C215.567 223.368 214.89 223.054 214.029 223.029C213.199 223.005 212.531 223.271 212.016 223.843C211.501 224.414 211.219 225.372 211.171 226.717H211.179Z" fill="white"/>
    <path d="M222.861 233.689L223.28 220.445L230.099 220.662C231.363 220.703 232.329 220.839 232.99 221.081C233.65 221.323 234.181 221.741 234.568 222.337C234.962 222.941 235.139 223.657 235.115 224.503C235.091 225.236 234.914 225.864 234.584 226.387C234.254 226.91 233.811 227.329 233.247 227.643C232.893 227.844 232.41 228.005 231.79 228.118C232.273 228.295 232.619 228.472 232.837 228.641C232.981 228.754 233.191 228.995 233.473 229.358C233.746 229.72 233.932 230.002 234.02 230.195L235.88 234.1L231.258 233.955L229.197 229.841C228.94 229.309 228.698 228.963 228.489 228.794C228.199 228.577 227.869 228.464 227.499 228.456H227.136L226.967 233.818L222.853 233.689H222.861ZM227.225 225.944L228.948 226C229.133 226 229.495 225.96 230.035 225.855C230.308 225.807 230.534 225.678 230.711 225.461C230.888 225.244 230.985 224.994 230.993 224.704C231.009 224.277 230.88 223.947 230.614 223.706C230.349 223.464 229.841 223.335 229.101 223.311L227.305 223.255L227.217 225.944H227.225Z" fill="white"/>
    <path d="M229.374 256.201C229.085 256.201 228.803 256.088 228.593 255.855L221.702 248.311L214.262 255.106C213.827 255.5 213.159 255.468 212.773 255.041L205.881 247.497L198.441 254.293C198.007 254.687 197.338 254.655 196.952 254.228L190.06 246.684L182.62 253.48C182.411 253.673 182.137 253.769 181.864 253.753C181.582 253.737 181.316 253.616 181.131 253.407L174.239 245.863L166.8 252.658C166.373 253.053 165.697 253.021 165.31 252.594C164.916 252.159 164.948 251.491 165.375 251.104L173.595 243.592C174.022 243.198 174.698 243.23 175.084 243.657L181.976 251.201L189.416 244.406C189.625 244.212 189.899 244.116 190.173 244.132C190.454 244.148 190.72 244.269 190.905 244.478L197.797 252.022L205.237 245.227C205.663 244.832 206.34 244.865 206.726 245.291L213.618 252.835L221.057 246.04C221.484 245.646 222.152 245.678 222.547 246.105L230.155 254.43C230.55 254.864 230.518 255.533 230.091 255.919C229.89 256.104 229.632 256.193 229.383 256.193L229.374 256.201Z" fill="white"/>
    <path d="M101.962 289.614L96.9223 287.215L92.4297 265.339L94.8692 262.658L101.962 289.614Z" fill="#F0821B"/>
    <path d="M101.962 289.614L108.645 285.709L102.921 267.69L94.8693 262.658L101.962 289.614Z" fill="#F0821B"/>
    <path opacity="0.2" d="M101.962 289.614L108.645 285.709L102.921 267.69L94.8693 262.658L101.962 289.614Z" fill="black"/>
    <path d="M211.621 293.591C211.428 293.591 211.243 293.591 211.066 293.591C208.844 293.527 207.088 291.675 207.153 289.453C207.217 287.231 209.053 285.483 211.291 285.54C217.491 285.741 230.622 281.933 238.118 274.654C238.585 274.204 239.149 273.873 239.769 273.688C252.482 269.872 257.208 277.577 257.409 277.907L250.477 282.005C250.477 282.005 250.501 282.062 250.574 282.15C250.493 282.046 248.698 279.703 242.965 281.152C233.553 289.743 219.109 293.591 211.637 293.591H211.621Z" fill="#263238"/>
    <path d="M211.17 298.945L196.509 298.019L195.358 270.991L215.059 271.724L211.17 298.945Z" fill="#F0821B"/>
    <path d="M211.17 298.945L214.6 295.532L216.726 278.68L215.059 271.724L211.17 298.945Z" fill="#F0821B"/>
    <path opacity="0.2" d="M211.17 298.945L214.6 295.532L216.726 278.68L215.059 271.724L211.17 298.945Z" fill="black"/>
    <path d="M296.128 288.704C295.621 288.704 295.105 288.543 294.671 288.213C286.305 281.852 274.985 270.556 270.646 259.663C270.581 259.502 270.533 259.341 270.509 259.172C268.391 246.588 266.37 220.091 266.282 218.972C266.177 217.643 267.175 216.484 268.504 216.379C269.832 216.282 270.992 217.273 271.096 218.601C271.121 218.875 273.158 245.629 275.227 258.109C279.558 268.705 291.297 279.582 297.593 284.364C298.656 285.169 298.865 286.683 298.052 287.746C297.577 288.374 296.853 288.696 296.128 288.696V288.704Z" fill="#263238"/>
    <path d="M307.295 289.928C305.427 289.928 303.31 289.082 301.007 287.416C299.928 286.635 299.687 285.121 300.468 284.042C301.249 282.963 302.762 282.722 303.841 283.503C305.838 284.944 306.925 285.105 307.303 285.105C308.64 285.105 309.719 286.184 309.719 287.52C309.719 288.857 308.64 289.936 307.303 289.936L307.295 289.928Z" fill="#263238"/>
    <path d="M301.675 287.343C304.26 279.662 314.855 281.184 318.503 282.319C322.15 283.463 325.435 284.896 327.415 286.184C329.388 287.472 329.42 289.638 326.787 290.87C323.535 292.392 315.387 291.039 315.387 291.039C319.606 292.883 315.379 295.846 307.971 292.939C305.564 291.989 300.757 290.153 301.667 287.335L301.675 287.343Z" fill="#F0821B"/>
    <path d="M275.959 222.281C275.001 228.802 269.599 233.617 265.203 232.965C260.807 232.321 260.63 226.492 261.588 219.97C262.546 213.448 264.285 208.698 268.681 209.342C273.077 209.986 276.925 215.751 275.959 222.273V222.281Z" fill="#263238"/>
    <path d="M169.698 196.243C170.063 196.243 170.358 195.947 170.358 195.583C170.358 195.218 170.063 194.922 169.698 194.922C169.334 194.922 169.038 195.218 169.038 195.583C169.038 195.947 169.334 196.243 169.698 196.243Z" fill="#263238"/>
    <path d="M176.405 200.341C176.405 200.703 176.107 201.001 175.745 201.001C175.382 201.001 175.084 200.703 175.084 200.341C175.084 199.979 175.382 199.681 175.745 199.681C176.107 199.681 176.405 199.979 176.405 200.341Z" fill="#263238"/>
    <path d="M177.138 278.358C177.138 278.72 176.84 279.018 176.477 279.018C176.115 279.018 175.817 278.72 175.817 278.358C175.817 277.996 176.115 277.698 176.477 277.698C176.84 277.698 177.138 277.996 177.138 278.358Z" fill="#263238"/>
    <path d="M183.192 283.108C183.192 283.471 182.894 283.769 182.532 283.769C182.17 283.769 181.872 283.471 181.872 283.108C181.872 282.746 182.17 282.448 182.532 282.448C182.894 282.448 183.192 282.746 183.192 283.108Z" fill="#263238"/>
    <path d="M67.1485 291.031C65.2323 291.031 62.6398 289.871 61.2469 287.851C61.1181 287.665 61.1664 287.416 61.3516 287.287C61.5367 287.158 61.7863 287.206 61.9152 287.392C63.4208 289.557 66.7298 290.717 68.2032 290.032C68.3562 289.96 68.485 289.871 68.5816 289.759C67.2693 289.155 66.0696 287.963 65.7395 286.152C65.5543 285.129 65.4094 283.752 66.2548 283.559C67.4061 283.302 68.9198 286.095 69.4995 288.213C69.6042 288.607 69.6444 288.97 69.6042 289.292C70.1114 289.429 70.6106 289.469 71.0453 289.404C71.3915 289.356 71.8907 289.211 72.1484 288.801C71.1742 288.14 70.514 286.973 70.2966 285.427C69.9826 283.229 70.2161 282.843 70.4656 282.657C70.6267 282.537 70.828 282.513 71.0212 282.593C71.8827 282.963 72.9294 286.079 73.1226 287.851C73.1467 288.044 73.1467 288.229 73.1226 288.406C73.4527 288.535 73.815 288.607 74.2095 288.615C74.91 288.656 75.5943 288.43 76.1499 288.108C76.0372 288.036 75.9244 287.955 75.8278 287.867C74.9905 287.15 74.6523 286.015 74.7973 284.38C74.91 283.116 75.1918 282.432 75.699 282.215C75.8761 282.134 76.2384 282.062 76.6732 282.408C77.5427 283.1 78.3559 285.306 78.0661 286.884C78.0017 287.215 77.8648 287.52 77.6635 287.81C79.1369 288.068 81.2222 287.649 83.0096 287.206C83.227 287.15 83.4444 287.287 83.5007 287.504C83.5571 287.722 83.4202 287.939 83.2028 287.996C81.0209 288.535 78.6699 288.97 77.0114 288.495C76.2706 289.082 75.232 289.437 74.1934 289.429C73.7184 289.421 73.2756 289.332 72.873 289.179C72.559 289.718 71.9632 290.081 71.1661 290.202C70.6347 290.282 69.9987 290.234 69.3626 290.049C69.1774 290.355 68.9117 290.596 68.5494 290.765C68.163 290.942 67.6879 291.031 67.1646 291.031H67.1485ZM66.4561 284.364C66.4078 284.485 66.3273 284.896 66.5205 286.007C66.7862 287.488 67.7443 288.471 68.8071 288.994C68.8071 288.825 68.7668 288.632 68.7105 288.422C68.0744 286.12 66.8748 284.533 66.448 284.364H66.4561ZM70.9407 283.664C70.9407 283.97 70.9648 284.477 71.0856 285.322C71.2466 286.474 71.6733 287.351 72.3094 287.915C72.1242 286.297 71.4077 284.429 70.9407 283.664ZM76.005 282.963C76.005 282.963 75.699 283.116 75.5863 284.461C75.4655 285.814 75.7151 286.731 76.3351 287.263C76.48 287.384 76.641 287.488 76.8181 287.569C77.0436 287.319 77.2046 287.037 77.2529 286.74C77.4703 285.572 76.9148 283.865 76.2867 283.173C76.1257 282.996 76.0211 282.955 75.9969 282.955L76.005 282.963Z" fill="#263238"/>
    <path d="M184.988 297.118L187.169 293.334L184.988 289.549H182.653L183.973 293.334L182.653 297.118H184.988Z" fill="#263238"/>
    <path d="M182.806 295.306C181.719 295.306 180.833 294.42 180.833 293.334C180.833 292.247 181.719 291.369 182.806 291.369L179.094 290.628L178.112 293.623L179.77 296.151L182.806 295.306Z" fill="#263238"/>
    <path d="M183.128 289.549H178.756L176.574 293.334L178.756 297.118H183.128L185.31 293.334L183.128 289.549ZM180.946 295.306C179.859 295.306 178.973 294.42 178.973 293.334C178.973 292.247 179.859 291.369 180.946 291.369C182.033 291.369 182.91 292.247 182.91 293.334C182.91 294.42 182.033 295.306 180.946 295.306Z" fill="#F0821B"/>
    <path d="M337.173 289.292L335.555 286.482L337.173 283.672H338.905L337.93 286.482L338.905 289.292H337.173Z" fill="#F0821B"/>
    <path d="M338.792 287.947C339.597 287.947 340.257 287.287 340.257 286.482C340.257 285.677 339.597 285.025 338.792 285.025L341.545 284.477L342.278 286.699L341.046 288.575L338.792 287.947Z" fill="#F0821B"/>
    <path d="M338.558 283.672H341.803L343.421 286.482L341.803 289.292H338.558L336.94 286.482L338.558 283.672ZM340.177 287.947C340.982 287.947 341.642 287.287 341.642 286.482C341.642 285.677 340.982 285.025 340.177 285.025C339.371 285.025 338.719 285.677 338.719 286.482C338.719 287.287 339.371 287.947 340.177 287.947Z" fill="#263238"/>
    <path d="M276.837 293.028H280.476C281.426 293.028 282.199 292.255 282.199 291.305C282.199 290.355 281.426 289.582 280.476 289.582H276.837C275.887 289.582 275.114 290.355 275.114 291.305C275.114 292.255 275.887 293.028 276.837 293.028Z" fill="#263238"/>
    <path d="M271.024 289.775C271.926 287.867 274.1 287.005 275.887 287.851C277.674 288.696 278.399 290.918 277.497 292.826C276.595 294.734 274.422 295.596 272.634 294.751C270.847 293.905 270.122 291.683 271.024 289.775Z" fill="#F0821B"/>
    <path d="M272.013 294.745L273.01 295.215L276.478 287.86L275.48 287.389L272.013 294.745Z" fill="#263238"/>
  </g>
  <defs>
    <clipPath id="clip0_6_12760">
      <rect width="402.566" height="300" fill="white" transform="translate(0.717163)"/>
    </clipPath>
  </defs>
</svg>