<svg width="21" height="20" viewBox="0 0 21 20" fill="none" xmlns="http://www.w3.org/2000/svg">
<path d="M10.1312 10.4688C9.81874 10.2813 9.44374 10.4063 9.28749 10.6875C9.09999 11 9.22499 11.375 9.50624 11.5313L11.0375 12.4063C11.1312 12.4688 11.2562 12.5 11.35 12.5C11.5687 12.5 11.7875 12.375 11.8812 12.1875C12.0687 11.875 11.9437 11.5 11.6625 11.3438L10.1312 10.4688ZM19.4437 6.53125L18.725 5.09375C18.5687 4.78125 18.1937 4.65625 17.8812 4.8125C17.5687 4.96875 17.4437 5.34375 17.6 5.65625L18.35 7.09375C18.8187 7.96875 18.7875 9 18.2875 9.875L14.725 16.0313C14.4125 16.5625 13.8812 16.9688 13.2875 17.1563C12.6625 17.3125 12.0375 17.25 11.475 16.9063L6.97499 14.3125C6.41249 14 6.03749 13.4688 5.84999 12.875C5.69374 12.25 5.75624 11.625 6.09999 11.0625L9.63124 4.9375C10.1312 4.09375 11.0062 3.53125 12.0062 3.5L14.1 3.40625C14.5687 3.375 15.0062 3.46875 15.4437 3.625L14.3812 5.46875C14.1937 5.78125 14.3187 6.15625 14.6 6.3125C14.6937 6.375 14.8187 6.40625 14.9125 6.40625C15.1312 6.40625 15.35 6.28125 15.4437 6.09375L17.9437 1.78125C18.1312 1.46875 18.0062 1.09375 17.725 0.937502C17.4125 0.750002 17.0375 0.875002 16.8812 1.15625L16.1 2.53125C15.4437 2.1875 14.7562 2.0625 14.0375 2.09375L11.9437 2.1875C11.0687 2.21875 10.2562 2.53125 9.59999 3.0625H9.56874L8.78749 3.09375C7.22499 3.15625 5.78749 4.03125 5.00624 5.40625L1.81874 10.9688C0.693736 12.9063 1.38124 15.375 3.28749 16.5L7.06874 18.6875C7.69374 19.0625 8.38124 19.2188 9.09999 19.2188C10.0062 19.2188 10.9125 18.9063 11.6625 18.3125C11.975 18.4063 12.3187 18.4688 12.6625 18.4688C12.975 18.4688 13.2875 18.4375 13.6 18.3438C14.5375 18.0938 15.3187 17.5 15.8187 16.6563L19.35 10.5C20.0687 9.28125 20.1 7.78125 19.4437 6.53125ZM7.72499 17.5938L3.94374 15.4063C2.59999 14.625 2.16249 12.9063 2.91249 11.5938L6.13124 6.03125C6.63124 5.15625 7.50624 4.5625 8.50624 4.40625L5.00624 10.4063C4.50624 11.25 4.38124 12.2188 4.63124 13.1563C4.88124 14.0938 5.47499 14.875 6.31874 15.375L10.3187 17.6875C9.53749 18.0938 8.53749 18.0625 7.72499 17.5938ZM14.3187 10.9688C14.5375 10.9688 14.7562 10.8438 14.85 10.6563C15.0375 10.3438 14.9125 9.96875 14.6312 9.8125L11.5375 8.03125C11.225 7.84375 10.85 7.96875 10.6937 8.25C10.5062 8.5625 10.6312 8.9375 10.9125 9.09375L13.975 10.875C14.1 10.9375 14.1937 10.9688 14.3187 10.9688Z" fill="#616161"/>
</svg>
