<svg width="324" height="300" viewBox="0 0 324 300" fill="none" xmlns="http://www.w3.org/2000/svg">
<g clip-path="url(#clip0_5_11991)">
<path d="M320.1 258.236L269.531 198.725L276.728 174.614C277.21 172.997 276.917 171.303 275.928 169.97C275.413 169.283 274.742 168.732 273.994 168.363C272.36 167.09 269.05 164.82 266.229 164.82C265.326 164.82 264.527 165.043 263.873 165.491L248.163 175.714L184.645 75.5653C181.016 69.8472 174.816 66.4335 168.041 66.4335C161.265 66.4335 155.065 69.8472 151.437 75.5653L89.0358 173.952L77.3845 132.558L77.3157 132.308L77.161 132.11C76.9546 131.852 74.9855 129.548 69.1642 129.548C63.3429 129.548 62.0015 131.99 61.8467 132.265L61.7693 132.394L39.3267 209.688L14.4592 217.203C12.2322 217.874 10.7102 219.817 10.5898 222.139C10.5726 222.465 10.5898 222.775 10.6242 223.085C10.4093 225.836 10.3405 231.976 13.9003 233.472L52.8438 250.411C58.0546 252.604 63.5578 253.713 69.2158 253.713C75.295 253.713 81.1852 252.432 86.7055 249.921L98.1762 244.891H206.649L205.307 252.673C204.766 256.129 209.254 259.165 211.834 260.609C212.814 261.495 214.104 262.002 215.419 262.002C216.597 262.002 217.724 261.607 218.678 260.85L236.538 246.679L311.553 270.635L311.785 270.713L312.034 270.696C312.353 270.67 315.268 270.3 318.372 265.597C321.364 261.056 320.22 258.503 320.083 258.227L320.1 258.236Z" fill="#D0DADB"/>
<path d="M141.703 65.2985L53.4457 204.451C45.8703 216.395 54.4518 232.001 68.5966 232.001H245.111C259.256 232.001 267.837 216.395 260.262 204.451L172.005 65.2985C164.962 54.189 148.754 54.189 141.703 65.2985Z" fill="#E8B231" stroke="#272525" stroke-width="4" stroke-miterlimit="10"/>
<path d="M68.5966 216.464C68.2441 216.464 67.1779 216.464 66.4986 215.217C65.8193 213.979 66.3868 213.076 66.5759 212.775L154.833 73.622C155.306 72.8826 155.985 72.5042 156.862 72.5042C157.739 72.5042 158.419 72.8826 158.892 73.622L247.149 212.775C247.338 213.076 247.905 213.97 247.226 215.217C246.538 216.464 245.472 216.464 245.128 216.464H68.5966Z" fill="#FFF12D" stroke="#272525" stroke-width="7" stroke-miterlimit="10"/>
<path d="M103.757 141.294C103.181 141.294 102.604 141.13 102.08 140.804C100.635 139.875 100.214 137.957 101.143 136.513L145.693 67.0956C146.621 65.651 148.539 65.2297 149.983 66.1584C151.428 67.087 151.849 69.0045 150.921 70.4491L106.371 139.866C105.777 140.795 104.771 141.294 103.748 141.294H103.757Z" fill="#F8EA36"/>
<path d="M4.39017 222.259L43.3165 239.19C53.8499 243.618 65.7591 243.446 76.1635 238.708L111.779 223.093C115.227 221.52 114.952 216.532 111.349 215.346L58.9575 198.191C58.8113 198.14 58.648 198.14 58.5018 198.191L4.79431 214.434C1.06247 215.561 0.787312 220.746 4.38157 222.259H4.39017Z" fill="#D5692E"/>
<path d="M4.39017 222.259L43.3165 239.19C53.8499 243.618 65.7591 243.446 76.1635 238.708L111.779 223.093C115.227 221.52 113.981 212.586 113.981 212.586L58.9575 198.2C58.8113 198.148 58.648 198.148 58.5018 198.2L2.00833 211.975C2.00833 211.975 0.795913 220.746 4.39017 222.259Z" stroke="#272525" stroke-width="3" stroke-miterlimit="10" stroke-linecap="round"/>
<path d="M4.39017 216.231L43.3165 233.162C53.8499 237.591 65.7591 237.419 76.1635 232.681L111.779 217.066C115.227 215.492 114.952 210.505 111.349 209.318L58.9575 192.164C58.8113 192.112 58.648 192.112 58.5018 192.164L4.79431 208.407C1.06247 209.533 0.787312 214.718 4.38157 216.231H4.39017Z" fill="#E39E37"/>
<path d="M78.038 224.263C72.7068 221.864 67.5476 219.155 62.354 216.472C53.6779 212.001 44.9846 207.555 36.2483 203.196L8.24239 211.666C7.31373 211.949 7.23634 213.231 8.1306 213.617L43.1273 228.846C47.5986 230.729 52.3279 231.683 57.1862 231.683C62.4056 231.683 67.4616 230.583 72.2769 228.39L79.8266 225.08C79.2332 224.804 78.6399 224.529 78.038 224.263Z" fill="#F4D83B"/>
<path d="M4.39017 216.231L43.3165 233.162C53.8499 237.591 65.7591 237.419 76.1635 232.681L111.779 217.066C115.227 215.492 114.952 210.505 111.349 209.318L58.9575 192.164C58.8113 192.112 58.648 192.112 58.5018 192.164L4.79431 208.407C1.06247 209.533 0.787312 214.718 4.38157 216.231H4.39017Z" stroke="#272525" stroke-width="3" stroke-miterlimit="10" stroke-linecap="round"/>
<path d="M26.7984 212.869C26.7984 212.869 29.7047 226.49 58.0632 226.713C86.4304 226.937 92.0109 214.873 92.0109 214.873L66.103 122.858C66.103 122.858 64.4865 120.794 59.1209 120.794C54.0992 120.794 52.9212 122.858 52.9212 122.858L26.7898 212.861L26.7984 212.869Z" fill="white"/>
<path d="M92.0109 214.881L66.103 122.867C66.103 122.867 64.4865 120.803 59.1209 120.803C58.304 120.803 57.5989 120.863 56.9712 120.949L81.2453 223.076C89.8182 219.594 92.0023 214.881 92.0023 214.881H92.0109Z" fill="#E7E7E6"/>
<path d="M31.9318 199.025C31.9318 199.025 55.1569 212.869 87.0924 199.025" stroke="#272525" stroke-width="3" stroke-miterlimit="10" stroke-linecap="round"/>
<path d="M36.5751 179.515C44.2881 182.533 60.9954 186.85 82.1138 179.334" stroke="#272525" stroke-width="3" stroke-miterlimit="10" stroke-linecap="round"/>
<path d="M42.0439 159.652C49.9289 161.819 61.9584 163.349 76.4645 159.437" stroke="#272525" stroke-width="3" stroke-miterlimit="10" stroke-linecap="round"/>
<path d="M48.1317 139.325C54.3228 140.357 62.0358 140.675 70.8409 139.05" stroke="#272525" stroke-width="3" stroke-miterlimit="10" stroke-linecap="round"/>
<path d="M26.7984 212.869C26.7984 212.869 29.7047 226.49 58.0632 226.713C86.4304 226.937 92.0109 214.873 92.0109 214.873L66.103 122.858C66.103 122.858 64.4865 120.794 59.1209 120.794C54.0992 120.794 52.9212 122.858 52.9212 122.858L26.7898 212.861L26.7984 212.869Z" stroke="#272525" stroke-width="3" stroke-miterlimit="10" stroke-linecap="round"/>
<path d="M86.6195 200.676C76.1033 205.07 66.5674 206.567 58.4932 206.567C43.9786 206.567 34.1761 201.777 31.7856 200.479L28.1914 212.869C28.8363 214.718 33.5656 225.183 58.0718 225.38H58.8371C82.2944 225.38 89.2851 216.67 90.5663 214.701L86.6195 200.676Z" fill="#D5692E"/>
<path d="M68.975 138.001L64.9164 123.572C64.4607 123.202 62.8269 122.145 59.1295 122.145C55.7244 122.145 54.4604 123.176 54.1508 123.494L49.8687 138.233C56.1199 139.118 62.5346 139.041 68.975 138.009V138.001Z" fill="#D5692E"/>
<path d="M80.3769 178.509L75.467 161.071C69.3533 162.601 63.6782 163.186 58.6135 163.186C52.5171 163.186 47.2891 162.352 43.1617 161.329L38.1315 178.664C46.1368 181.596 61.3307 184.915 80.3855 178.509H80.3769Z" fill="#D5692E"/>
<path d="M90.5663 214.03L86.6195 200.006C83.2144 201.425 79.9211 202.542 76.7396 203.402L80.9358 221.055C87.2816 218.424 89.844 215.139 90.5663 214.03Z" fill="#AA402D"/>
<path d="M64.9078 123.572C64.4521 123.202 62.8183 122.145 59.1209 122.145C58.4244 122.145 57.8139 122.187 57.2894 122.265L61.219 138.783C63.7986 138.68 66.3868 138.422 68.975 138.009L64.9164 123.58L64.9078 123.572Z" fill="#AA402D"/>
<path d="M75.467 161.071C72.5005 161.81 69.6371 162.326 66.8941 162.67L71.2364 180.934C74.1686 180.358 77.2211 179.567 80.3769 178.509L75.467 161.071Z" fill="#AA402D"/>
<path d="M54.1508 139.694L55.8276 124.423L51.511 139.479C52.3881 139.548 53.2738 139.608 54.1508 139.694Z" fill="#E8AE3A"/>
<path d="M45.449 160.624L39.5331 181.243C42.5684 182.688 46.0251 182.714 49.3614 183.144L51.7432 161.492C49.6279 161.346 47.547 160.95 45.4404 160.624H45.449Z" fill="#E8AE3A"/>
<path d="M34.2019 199.86L30.599 212.422C35.7324 220.909 45.1738 221.296 45.1738 221.296L47.0913 203.849C42.7662 202.817 37.8219 202.611 34.2019 199.851V199.86Z" fill="#E8AE3A"/>
<path d="M26.7984 212.869C26.7984 212.869 29.7047 226.49 58.0632 226.713C86.4304 226.937 92.0109 214.873 92.0109 214.873L66.103 122.858C66.103 122.858 64.4865 120.794 59.1209 120.794C54.0992 120.794 52.9212 122.858 52.9212 122.858L26.7898 212.861L26.7984 212.869Z" stroke="#272525" stroke-width="3" stroke-miterlimit="10" stroke-linecap="round"/>
<path d="M31.9318 199.025C31.9318 199.025 55.1569 212.869 87.0924 199.025" stroke="#272525" stroke-width="3" stroke-miterlimit="10" stroke-linecap="round"/>
<path d="M36.5751 179.515C44.2881 182.533 60.9954 186.85 82.1138 179.334" stroke="#272525" stroke-width="3" stroke-miterlimit="10" stroke-linecap="round"/>
<path d="M42.0439 159.652C49.9289 161.819 61.9584 163.349 76.4645 159.437" stroke="#272525" stroke-width="3" stroke-miterlimit="10" stroke-linecap="round"/>
<path d="M48.1317 139.325C54.3228 140.357 62.0358 140.675 70.8409 139.05" stroke="#272525" stroke-width="3" stroke-miterlimit="10" stroke-linecap="round"/>
<path d="M83.9711 205.113L86.4304 214.434" stroke="#702B1F" stroke-width="3" stroke-miterlimit="10" stroke-linecap="round"/>
<path d="M73.1368 164.631L76.1549 176.024" stroke="#702B1F" stroke-width="3" stroke-miterlimit="10" stroke-linecap="round"/>
<path d="M63.0333 126.495L64.9852 134.2" stroke="#702B1F" stroke-width="3" stroke-miterlimit="10" stroke-linecap="round"/>
<path d="M263.039 152.825L227.458 175.981C217.956 182.335 211.541 192.37 209.761 203.66L203.166 241.985C202.573 245.734 206.898 248.253 209.865 245.888L253.047 211.623C253.168 211.528 253.254 211.399 253.305 211.244L269.35 157.477C270.468 153.736 266.289 150.658 263.048 152.825H263.039Z" fill="#D5692E"/>
<path d="M263.039 152.825L227.458 175.981C217.956 182.335 211.541 192.37 209.761 203.66L203.166 241.985C202.573 245.734 210.725 249.612 210.725 249.612L253.047 211.623C253.168 211.528 253.254 211.399 253.305 211.244L272.945 156.505C272.945 156.505 266.289 150.658 263.048 152.825H263.039Z" stroke="#272525" stroke-width="3" stroke-miterlimit="10" stroke-linecap="round"/>
<path d="M268.069 156.152L232.488 179.309C222.986 185.663 216.572 195.698 214.792 206.988L208.197 245.312C207.603 249.061 211.928 251.581 214.895 249.216L258.078 214.95C258.198 214.856 258.284 214.727 258.336 214.572L274.381 160.804C275.499 157.064 271.32 153.985 268.078 156.152H268.069Z" fill="#E39E37"/>
<path d="M220.785 213.188C225.721 210.058 230.837 207.246 235.927 204.391C244.44 199.619 252.944 194.812 261.397 189.919L269.763 161.888C270.038 160.959 269.007 160.185 268.19 160.718L236.194 181.536C232.161 184.236 228.756 187.649 226.082 191.699C223.201 196.059 221.335 200.883 220.51 206.111L219.108 214.237C219.667 213.893 220.217 213.549 220.776 213.196L220.785 213.188Z" fill="#F4D83B"/>
<path d="M268.069 156.152L232.488 179.309C222.986 185.663 216.572 195.698 214.792 206.988L208.197 245.312C207.603 249.061 211.928 251.581 214.895 249.216L258.078 214.95C258.198 214.856 258.284 214.727 258.336 214.572L274.381 160.804C275.499 157.064 271.32 153.985 268.078 156.152H268.069Z" stroke="#272525" stroke-width="3" stroke-miterlimit="10" stroke-linecap="round"/>
<path d="M258.525 176.703C258.525 176.703 245.558 171.621 229.736 195.165C213.923 218.708 220.905 230.015 220.905 230.015L311.966 259.096C311.966 259.096 314.58 258.881 317.538 254.41C320.306 250.214 319.231 248.098 319.231 248.098L258.525 176.695V176.703Z" fill="white"/>
<path d="M220.914 230.015L311.974 259.096C311.974 259.096 314.588 258.881 317.546 254.41C317.993 253.73 318.337 253.111 318.604 252.535L220.003 216.515C218.18 225.587 220.914 230.007 220.914 230.007V230.015Z" fill="#E7E7E6"/>
<path d="M267.252 188.612C267.252 188.612 242.901 200.367 236.856 234.65" stroke="#272525" stroke-width="3" stroke-miterlimit="10" stroke-linecap="round"/>
<path d="M280.976 203.247C274.209 208.02 261.397 219.585 256.04 241.348" stroke="#272525" stroke-width="3" stroke-miterlimit="10" stroke-linecap="round"/>
<path d="M294.536 218.742C288.379 224.134 280.477 233.326 275.756 247.582" stroke="#272525" stroke-width="3" stroke-miterlimit="10" stroke-linecap="round"/>
<path d="M308.139 235.028C303.866 239.62 299.351 245.88 295.86 254.126" stroke="#272525" stroke-width="3" stroke-miterlimit="10" stroke-linecap="round"/>
<path d="M258.525 176.703C258.525 176.703 245.558 171.621 229.736 195.165C213.923 218.708 220.905 230.015 220.905 230.015L311.966 259.096C311.966 259.096 314.58 258.881 317.538 254.41C320.306 250.214 319.231 248.098 319.231 248.098L258.525 176.695V176.703Z" stroke="#272525" stroke-width="3" stroke-miterlimit="10" stroke-linecap="round"/>
<path d="M235.738 233.343C237.862 222.147 241.869 213.368 246.315 206.627C254.311 194.52 263.71 188.974 266.109 187.692L257.751 177.864C255.859 177.383 244.509 175.56 230.845 195.904L230.424 196.54C217.5 216.12 220.914 226.756 221.851 228.906L235.73 233.334L235.738 233.343Z" fill="#D5692E"/>
<path d="M297.769 253.154L312.052 257.712C312.61 257.531 314.39 256.757 316.428 253.67C318.303 250.824 318.148 249.207 318.053 248.769L308.113 237.075C303.926 241.804 300.461 247.195 297.769 253.146V253.154Z" fill="#D5692E"/>
<path d="M257.682 240.351L274.94 245.863C277.038 239.921 279.669 234.856 282.463 230.626C285.826 225.535 289.403 221.631 292.533 218.751L280.838 205.002C273.985 210.066 262.841 220.918 257.691 240.351H257.682Z" fill="#D5692E"/>
<path d="M222.419 229.276L236.297 233.704C236.985 230.084 237.871 226.713 238.902 223.583L221.86 217.358C220.561 224.108 221.886 228.055 222.419 229.267V229.276Z" fill="#AA402D"/>
<path d="M312.043 257.712C312.602 257.531 314.382 256.757 316.42 253.67C316.807 253.085 317.099 252.552 317.331 252.071L301.389 246.25C300.056 248.459 298.844 250.755 297.761 253.146L312.043 257.703V257.712Z" fill="#AA402D"/>
<path d="M274.94 245.863C275.954 242.973 277.098 240.299 278.327 237.831L260.692 231.391C259.557 234.151 258.533 237.135 257.682 240.359L274.94 245.871V245.863Z" fill="#AA402D"/>
<path d="M304.519 239.843L316.334 249.663L306.153 237.763C305.611 238.459 305.078 239.156 304.519 239.843Z" fill="#E8AE3A"/>
<path d="M291.845 221.055L277.898 204.752C275.017 206.489 273.091 209.353 270.898 211.915L287.657 225.836C288.947 224.151 290.426 222.629 291.853 221.055H291.845Z" fill="#E8AE3A"/>
<path d="M265.309 190.048L256.805 180.117C246.891 179.73 241.37 187.383 241.37 187.383L254.87 198.596C258.112 195.552 261.01 191.545 265.309 190.04V190.048Z" fill="#E8AE3A"/>
<path d="M258.525 176.703C258.525 176.703 245.558 171.621 229.736 195.165C213.923 218.708 220.905 230.015 220.905 230.015L311.966 259.096C311.966 259.096 314.58 258.881 317.538 254.41C320.306 250.214 319.231 248.098 319.231 248.098L258.525 176.695V176.703Z" stroke="#272525" stroke-width="3" stroke-miterlimit="10" stroke-linecap="round"/>
<path d="M267.252 188.612C267.252 188.612 242.901 200.367 236.856 234.65" stroke="#272525" stroke-width="3" stroke-miterlimit="10" stroke-linecap="round"/>
<path d="M280.976 203.247C274.209 208.02 261.397 219.585 256.04 241.348" stroke="#272525" stroke-width="3" stroke-miterlimit="10" stroke-linecap="round"/>
<path d="M294.536 218.742C288.379 224.134 280.477 233.326 275.756 247.582" stroke="#272525" stroke-width="3" stroke-miterlimit="10" stroke-linecap="round"/>
<path d="M308.139 235.028C303.866 239.62 299.351 245.88 295.86 254.126" stroke="#272525" stroke-width="3" stroke-miterlimit="10" stroke-linecap="round"/>
<path d="M233.502 228.691L224.362 225.595" stroke="#702B1F" stroke-width="3" stroke-miterlimit="10" stroke-linecap="round"/>
<path d="M273.246 241.95L262.085 238.193" stroke="#702B1F" stroke-width="3" stroke-miterlimit="10" stroke-linecap="round"/>
<path d="M310.641 254.539L303.135 251.916" stroke="#702B1F" stroke-width="3" stroke-miterlimit="10" stroke-linecap="round"/>
<path d="M132.047 169V163.262L118.443 163.224V158.132L130.679 140.88H137.937V158.322H142.269V163.262H137.937V169H132.047ZM124.219 158.322H132.047V147.188L124.219 158.322ZM157.496 169.38C155.622 169.38 153.95 169 152.48 168.24C151.036 167.48 149.808 166.441 148.794 165.124C147.781 163.781 147.008 162.236 146.476 160.488C145.97 158.74 145.716 156.891 145.716 154.94C145.716 152.964 145.97 151.102 146.476 149.354C147.008 147.606 147.781 146.073 148.794 144.756C149.808 143.413 151.036 142.375 152.48 141.64C153.95 140.88 155.622 140.5 157.496 140.5C159.371 140.5 161.03 140.88 162.474 141.64C163.944 142.375 165.185 143.413 166.198 144.756C167.212 146.073 167.972 147.606 168.478 149.354C169.01 151.102 169.276 152.964 169.276 154.94C169.276 156.891 169.01 158.74 168.478 160.488C167.972 162.236 167.212 163.781 166.198 165.124C165.185 166.441 163.944 167.48 162.474 168.24C161.03 169 159.371 169.38 157.496 169.38ZM157.496 164.174C159.168 164.174 160.536 163.401 161.6 161.856C162.69 160.311 163.234 158.005 163.234 154.94C163.234 151.875 162.69 149.569 161.6 148.024C160.536 146.479 159.168 145.706 157.496 145.706C155.824 145.706 154.444 146.479 153.354 148.024C152.29 149.569 151.758 151.875 151.758 154.94C151.758 158.005 152.29 160.311 153.354 161.856C154.444 163.401 155.824 164.174 157.496 164.174ZM186.004 169V163.262L172.4 163.224V158.132L184.636 140.88H191.894V158.322H196.226V163.262H191.894V169H186.004ZM178.176 158.322H186.004V147.188L178.176 158.322Z" fill="#272525"/>
<path d="M195.316 178.199H118.392V201.39H195.316V178.199Z" fill="#272525"/>
<path d="M123.52 199V184.2H133.18V186.24H125.86V190.46H132.26V192.48H125.86V196.96H133.28V199H123.52ZM136.059 199V184.2H141.559C142.612 184.2 143.499 184.407 144.219 184.82C144.952 185.22 145.506 185.753 145.879 186.42C146.252 187.073 146.439 187.787 146.439 188.56C146.439 189.493 146.172 190.34 145.639 191.1C145.119 191.86 144.352 192.393 143.339 192.7L146.899 199H144.279L140.919 192.96H138.399V199H136.059ZM141.519 186.24H138.399V191H141.519C142.359 191 142.992 190.76 143.419 190.28C143.846 189.787 144.059 189.233 144.059 188.62C144.059 188.007 143.846 187.46 143.419 186.98C142.992 186.487 142.359 186.24 141.519 186.24ZM149.711 199V184.2H155.211C156.265 184.2 157.151 184.407 157.871 184.82C158.605 185.22 159.158 185.753 159.531 186.42C159.905 187.073 160.091 187.787 160.091 188.56C160.091 189.493 159.825 190.34 159.291 191.1C158.771 191.86 158.005 192.393 156.991 192.7L160.551 199H157.931L154.571 192.96H152.051V199H149.711ZM155.171 186.24H152.051V191H155.171C156.011 191 156.645 190.76 157.071 190.28C157.498 189.787 157.711 189.233 157.711 188.62C157.711 188.007 157.498 187.46 157.071 186.98C156.645 186.487 156.011 186.24 155.171 186.24ZM169.615 199.2C168.429 199.2 167.382 198.987 166.475 198.56C165.569 198.12 164.809 197.54 164.195 196.82C163.582 196.087 163.122 195.267 162.815 194.36C162.509 193.453 162.355 192.527 162.355 191.58C162.355 190.633 162.509 189.713 162.815 188.82C163.122 187.913 163.582 187.1 164.195 186.38C164.809 185.66 165.569 185.087 166.475 184.66C167.382 184.22 168.429 184 169.615 184C170.815 184 171.869 184.22 172.775 184.66C173.682 185.087 174.442 185.66 175.055 186.38C175.669 187.1 176.129 187.913 176.435 188.82C176.742 189.713 176.895 190.633 176.895 191.58C176.895 192.527 176.742 193.453 176.435 194.36C176.129 195.267 175.669 196.087 175.055 196.82C174.442 197.54 173.682 198.12 172.775 198.56C171.869 198.987 170.815 199.2 169.615 199.2ZM169.615 197.06C170.682 197.06 171.575 196.8 172.295 196.28C173.015 195.747 173.562 195.067 173.935 194.24C174.309 193.4 174.495 192.513 174.495 191.58C174.495 190.887 174.389 190.22 174.175 189.58C173.962 188.927 173.649 188.34 173.235 187.82C172.835 187.3 172.329 186.893 171.715 186.6C171.115 186.293 170.415 186.14 169.615 186.14C168.829 186.14 168.129 186.293 167.515 186.6C166.915 186.893 166.409 187.3 165.995 187.82C165.595 188.34 165.289 188.927 165.075 189.58C164.862 190.22 164.755 190.887 164.755 191.58C164.755 192.513 164.942 193.4 165.315 194.24C165.689 195.067 166.235 195.747 166.955 196.28C167.675 196.8 168.562 197.06 169.615 197.06ZM179.418 199V184.2H184.918C185.972 184.2 186.858 184.407 187.578 184.82C188.312 185.22 188.865 185.753 189.238 186.42C189.612 187.073 189.798 187.787 189.798 188.56C189.798 189.493 189.532 190.34 188.998 191.1C188.478 191.86 187.712 192.393 186.698 192.7L190.258 199H187.638L184.278 192.96H181.758V199H179.418ZM184.878 186.24H181.758V191H184.878C185.718 191 186.352 190.76 186.778 190.28C187.205 189.787 187.418 189.233 187.418 188.62C187.418 188.007 187.205 187.46 186.778 186.98C186.352 186.487 185.718 186.24 184.878 186.24Z" fill="white"/>
<path d="M242.359 19.0203C242.29 19.0203 242.23 19.0203 242.161 19.0203C241.104 13.0872 235.927 8.58148 229.693 8.58148C222.703 8.58148 217.027 14.248 217.027 21.2474C217.027 22.2104 217.139 23.1477 217.346 24.0505C216.744 23.8872 216.116 23.8012 215.462 23.8012C211.455 23.8012 208.205 27.0515 208.205 31.0585C208.205 34.7473 210.957 37.7827 214.517 38.247V38.3072H242.351C247.682 38.3072 251.998 33.9906 251.998 28.6594C251.998 23.3283 247.682 19.0117 242.351 19.0117L242.359 19.0203Z" stroke="#272525" stroke-width="3" stroke-miterlimit="10" stroke-linecap="round"/>
<path d="M234.663 22.8381C236.426 20.5165 239.212 19.0203 242.359 19.0203C247.69 19.0203 252.007 23.3369 252.007 28.6681" stroke="#272525" stroke-width="3" stroke-miterlimit="10" stroke-linecap="round"/>
<path d="M221.929 19.6308C222.591 17.4123 224.139 14.4114 227.75 13.0958" stroke="#272525" stroke-width="3" stroke-miterlimit="10" stroke-linecap="round"/>
<path d="M55.1139 39.898C55.4234 38.5394 55.5868 37.1292 55.5868 35.6846C55.5868 25.177 47.0655 16.6557 36.5579 16.6557C27.1939 16.6557 19.4121 23.4228 17.8299 32.3311C17.7268 32.3311 17.6322 32.3311 17.529 32.3311C9.5236 32.3311 3.03158 38.8231 3.03158 46.8285C3.03158 54.8339 9.5236 61.3259 17.529 61.3259H44.2451" stroke="#272525" stroke-width="3" stroke-miterlimit="10" stroke-linecap="round"/>
<path d="M29.0942 38.0664C26.4458 34.5754 22.2583 32.3225 17.5376 32.3225C9.53219 32.3225 3.04018 38.8145 3.04018 46.8199" stroke="#272525" stroke-width="3" stroke-miterlimit="10" stroke-linecap="round"/>
<path d="M52.0356 47.0607C52.0356 41.9272 56.1973 37.7569 61.3393 37.7569C66.4814 37.7569 70.6431 41.9186 70.6431 47.0607H97.3077" stroke="#272525" stroke-width="3" stroke-miterlimit="10" stroke-linecap="round"/>
<path d="M51.941 61.2485H66.9199" stroke="#272525" stroke-width="3" stroke-miterlimit="10" stroke-linecap="round"/>
<path d="M103.499 46.8285H109.234" stroke="#272525" stroke-width="3" stroke-miterlimit="10" stroke-linecap="round"/>
<path d="M248.198 116.039H281.346C284.88 116.039 287.752 113.176 287.752 109.633C287.752 106.091 284.888 103.227 281.346 103.227C281.303 103.227 281.26 103.227 281.217 103.227C280.52 99.2892 277.081 96.3054 272.945 96.3054C268.301 96.3054 264.544 100.072 264.544 104.706C264.544 105.343 264.621 105.97 264.75 106.564" stroke="#272525" stroke-width="3" stroke-miterlimit="10" stroke-linecap="round"/>
<path d="M276.247 105.764C277.416 104.225 279.265 103.227 281.354 103.227C284.888 103.227 287.76 106.091 287.76 109.633" stroke="#272525" stroke-width="3" stroke-miterlimit="10" stroke-linecap="round"/>
<path d="M309.515 115.386C316.514 115.386 322.189 109.711 322.189 102.711C322.189 95.7121 316.514 90.037 309.515 90.037C309.429 90.037 309.343 90.037 309.257 90.037C307.873 82.2465 301.071 76.3306 292.885 76.3306C283.702 76.3306 276.255 83.7771 276.255 92.9605C276.255 94.2245 276.401 95.4627 276.668 96.6408" stroke="#272525" stroke-width="3" stroke-miterlimit="10" stroke-linecap="round"/>
<path d="M299.411 95.05C301.725 91.9975 305.388 90.0284 309.515 90.0284C316.514 90.0284 322.189 95.7035 322.189 102.703" stroke="#272525" stroke-width="3" stroke-miterlimit="10" stroke-linecap="round"/>
<path d="M281.174 93.4334C281.174 93.4334 281.475 84.2414 289.463 81.3437" stroke="#272525" stroke-width="3" stroke-miterlimit="10" stroke-linecap="round"/>
<path d="M242.695 116.039H238.034" stroke="#272525" stroke-width="3" stroke-miterlimit="10" stroke-linecap="round"/>
<path d="M261.388 79.2542V85.0927" stroke="#272525" stroke-width="3" stroke-miterlimit="10" stroke-linecap="round"/>
<path d="M264.303 82.1692H258.465" stroke="#272525" stroke-width="3" stroke-miterlimit="10" stroke-linecap="round"/>
<path d="M75.1747 15.2541V21.1012" stroke="#272525" stroke-width="3" stroke-miterlimit="10" stroke-linecap="round"/>
<path d="M78.0982 18.1776H72.2511" stroke="#272525" stroke-width="3" stroke-miterlimit="10" stroke-linecap="round"/>
<path d="M90.5577 80.286V86.1332" stroke="#272525" stroke-width="3" stroke-miterlimit="10" stroke-linecap="round"/>
<path d="M93.4813 83.2096H87.6342" stroke="#272525" stroke-width="3" stroke-miterlimit="10" stroke-linecap="round"/>
<path d="M184.567 1.28979V7.13691" stroke="#272525" stroke-width="3" stroke-miterlimit="10" stroke-linecap="round"/>
<path d="M187.491 4.21335H181.652" stroke="#272525" stroke-width="3" stroke-miterlimit="10" stroke-linecap="round"/>
<path d="M55.3031 98.4551H38.9655" stroke="#272525" stroke-width="3" stroke-miterlimit="10" stroke-linecap="round"/>
<path d="M30.9429 98.4551H27.7872" stroke="#272525" stroke-width="3" stroke-miterlimit="10" stroke-linecap="round"/>
<path d="M68.7782 289.275C67.1648 289.275 65.744 288.982 64.5157 288.395C63.2873 287.79 62.2607 286.992 61.4357 286.002C60.6107 284.994 59.9873 283.867 59.5657 282.62C59.144 281.373 58.9332 280.099 58.9332 278.797C58.9332 277.496 59.144 276.231 59.5657 275.002C59.9873 273.756 60.6107 272.637 61.4357 271.647C62.2607 270.657 63.2873 269.869 64.5157 269.282C65.744 268.677 67.1648 268.375 68.7782 268.375C70.3915 268.375 71.8123 268.677 73.0407 269.282C74.269 269.869 75.2957 270.657 76.1207 271.647C76.9457 272.637 77.569 273.756 77.9907 275.002C78.4123 276.231 78.6232 277.496 78.6232 278.797C78.6232 280.099 78.4123 281.373 77.9907 282.62C77.569 283.867 76.9457 284.994 76.1207 286.002C75.2957 286.992 74.269 287.79 73.0407 288.395C71.8123 288.982 70.3915 289.275 68.7782 289.275ZM68.7782 286.772C69.9332 286.772 70.9507 286.552 71.8307 286.112C72.7107 285.672 73.444 285.077 74.0307 284.325C74.6357 283.573 75.094 282.721 75.4057 281.767C75.7173 280.814 75.8732 279.824 75.8732 278.797C75.8732 277.789 75.7173 276.817 75.4057 275.882C75.094 274.929 74.6357 274.077 74.0307 273.325C73.444 272.573 72.7107 271.977 71.8307 271.537C70.9507 271.097 69.9332 270.877 68.7782 270.877C67.6232 270.877 66.6057 271.097 65.7257 271.537C64.8457 271.977 64.1032 272.573 63.4982 273.325C62.9115 274.077 62.4623 274.929 62.1507 275.882C61.839 276.817 61.6832 277.789 61.6832 278.797C61.6832 279.824 61.839 280.814 62.1507 281.767C62.4623 282.721 62.9115 283.573 63.4982 284.325C64.1032 285.077 64.8457 285.672 65.7257 286.112C66.6057 286.552 67.6232 286.772 68.7782 286.772ZM88.9679 289.275C87.4095 289.275 86.0987 288.918 85.0354 288.202C83.972 287.469 83.1654 286.525 82.6154 285.37C82.0654 284.215 81.7904 282.996 81.7904 281.712C81.7904 280.411 82.0654 279.192 82.6154 278.055C83.1654 276.9 83.972 275.965 85.0354 275.25C86.0987 274.517 87.4095 274.15 88.9679 274.15C90.5262 274.15 91.837 274.517 92.9004 275.25C93.9637 275.965 94.7704 276.9 95.3204 278.055C95.8704 279.192 96.1454 280.411 96.1454 281.712C96.1454 282.996 95.8704 284.215 95.3204 285.37C94.7704 286.525 93.9637 287.469 92.9004 288.202C91.837 288.918 90.5262 289.275 88.9679 289.275ZM88.9679 286.992C89.9579 286.992 90.7829 286.745 91.4429 286.25C92.1212 285.737 92.6254 285.077 92.9554 284.27C93.3037 283.463 93.4779 282.611 93.4779 281.712C93.4779 280.796 93.3037 279.943 92.9554 279.155C92.6254 278.348 92.1212 277.697 91.4429 277.202C90.7829 276.689 89.9579 276.432 88.9679 276.432C87.9962 276.432 87.1712 276.689 86.4929 277.202C85.8145 277.697 85.3012 278.348 84.9529 279.155C84.6229 279.943 84.4579 280.796 84.4579 281.712C84.4579 282.611 84.6229 283.463 84.9529 284.27C85.3012 285.077 85.8145 285.737 86.4929 286.25C87.1712 286.745 87.9962 286.992 88.9679 286.992ZM99.9844 294.39V274.425H102.597V276.735H102.762C102.982 276.387 103.275 276.011 103.642 275.607C104.027 275.204 104.531 274.865 105.154 274.59C105.778 274.297 106.548 274.15 107.464 274.15C108.564 274.15 109.527 274.37 110.352 274.81C111.177 275.232 111.864 275.809 112.414 276.542C112.964 277.257 113.377 278.064 113.652 278.962C113.927 279.861 114.064 280.777 114.064 281.712C114.064 282.647 113.927 283.564 113.652 284.462C113.377 285.361 112.964 286.177 112.414 286.91C111.864 287.625 111.177 288.202 110.352 288.642C109.527 289.064 108.564 289.275 107.464 289.275C106.548 289.275 105.778 289.128 105.154 288.835C104.531 288.542 104.027 288.193 103.642 287.79C103.275 287.387 102.982 287.02 102.762 286.69H102.597V294.39H99.9844ZM102.652 281.712C102.652 282.592 102.808 283.445 103.119 284.27C103.449 285.077 103.935 285.746 104.577 286.277C105.237 286.791 106.053 287.047 107.024 287.047C108.014 287.047 108.83 286.791 109.472 286.277C110.132 285.746 110.618 285.077 110.929 284.27C111.259 283.445 111.424 282.592 111.424 281.712C111.424 280.814 111.259 279.962 110.929 279.155C110.618 278.348 110.132 277.688 109.472 277.175C108.83 276.643 108.014 276.377 107.024 276.377C106.053 276.377 105.237 276.643 104.577 277.175C103.935 277.688 103.449 278.348 103.119 279.155C102.808 279.962 102.652 280.814 102.652 281.712ZM122.984 289.275C121.866 289.275 120.94 289.119 120.206 288.807C119.491 288.496 118.923 288.111 118.501 287.652C118.08 287.176 117.768 286.708 117.566 286.25C117.365 285.773 117.236 285.379 117.181 285.067C117.126 284.756 117.099 284.6 117.099 284.6H119.739C119.739 284.6 119.766 284.728 119.821 284.985C119.895 285.223 120.032 285.507 120.234 285.837C120.454 286.149 120.784 286.433 121.224 286.69C121.682 286.928 122.287 287.047 123.039 287.047C123.901 287.047 124.57 286.846 125.046 286.442C125.523 286.021 125.761 285.507 125.761 284.902C125.761 284.371 125.569 283.949 125.184 283.637C124.817 283.326 124.286 283.087 123.589 282.922L121.609 282.455C120.876 282.272 120.188 282.024 119.546 281.712C118.905 281.401 118.382 280.979 117.979 280.447C117.594 279.897 117.401 279.219 117.401 278.412C117.401 277.166 117.869 276.148 118.804 275.36C119.739 274.553 120.958 274.15 122.461 274.15C123.47 274.15 124.304 274.297 124.964 274.59C125.624 274.865 126.146 275.213 126.531 275.635C126.935 276.057 127.228 276.478 127.411 276.9C127.613 277.322 127.741 277.679 127.796 277.972C127.851 278.247 127.879 278.385 127.879 278.385H125.349C125.349 278.385 125.321 278.284 125.266 278.082C125.211 277.862 125.083 277.624 124.881 277.367C124.698 277.092 124.414 276.854 124.029 276.652C123.644 276.432 123.131 276.322 122.489 276.322C121.609 276.322 120.967 276.524 120.564 276.927C120.161 277.331 119.959 277.771 119.959 278.247C119.959 278.706 120.142 279.082 120.509 279.375C120.894 279.65 121.389 279.861 121.994 280.007L124.001 280.475C125.248 280.768 126.275 281.254 127.081 281.933C127.906 282.592 128.319 283.546 128.319 284.792C128.319 285.599 128.108 286.351 127.686 287.047C127.265 287.726 126.66 288.267 125.871 288.67C125.083 289.073 124.121 289.275 122.984 289.275ZM133.621 289.275C133.108 289.275 132.677 289.101 132.329 288.752C131.999 288.386 131.834 287.964 131.834 287.487C131.834 286.992 131.999 286.571 132.329 286.222C132.677 285.874 133.108 285.7 133.621 285.7C134.135 285.7 134.556 285.874 134.886 286.222C135.235 286.571 135.409 286.992 135.409 287.487C135.409 287.982 135.235 288.404 134.886 288.752C134.556 289.101 134.135 289.275 133.621 289.275ZM140.953 289.275C140.439 289.275 140.009 289.101 139.66 288.752C139.33 288.386 139.165 287.964 139.165 287.487C139.165 286.992 139.33 286.571 139.66 286.222C140.009 285.874 140.439 285.7 140.953 285.7C141.466 285.7 141.888 285.874 142.218 286.222C142.566 286.571 142.74 286.992 142.74 287.487C142.74 287.982 142.566 288.404 142.218 288.752C141.888 289.101 141.466 289.275 140.953 289.275ZM152.427 289V277.9H156.387C157.237 277.9 157.942 278.075 158.502 278.425C159.072 278.775 159.497 279.23 159.777 279.79C160.067 280.34 160.212 280.915 160.212 281.515C160.212 282.125 160.067 282.71 159.777 283.27C159.497 283.82 159.072 284.275 158.502 284.635C157.942 284.985 157.237 285.16 156.387 285.16H153.897V289H152.427ZM156.387 279.19H153.897V283.87H156.387C156.917 283.87 157.357 283.755 157.707 283.525C158.057 283.295 158.317 283.005 158.487 282.655C158.667 282.295 158.757 281.92 158.757 281.53C158.757 281.14 158.667 280.765 158.487 280.405C158.317 280.045 158.057 279.755 157.707 279.535C157.357 279.305 156.917 279.19 156.387 279.19ZM165.087 280.9C165.587 280.9 166.007 280.98 166.347 281.14C166.687 281.3 166.962 281.49 167.172 281.71C167.382 281.92 167.542 282.12 167.652 282.31H167.742V281.05H169.167V289H167.742V287.74H167.652C167.542 287.93 167.382 288.135 167.172 288.355C166.962 288.575 166.687 288.765 166.347 288.925C166.007 289.075 165.587 289.15 165.087 289.15C164.487 289.15 163.962 289.035 163.512 288.805C163.062 288.565 162.687 288.25 162.387 287.86C162.087 287.46 161.862 287.015 161.712 286.525C161.562 286.035 161.487 285.535 161.487 285.025C161.487 284.515 161.562 284.015 161.712 283.525C161.862 283.035 162.087 282.595 162.387 282.205C162.687 281.805 163.062 281.49 163.512 281.26C163.962 281.02 164.487 280.9 165.087 280.9ZM165.327 282.115C164.797 282.115 164.352 282.26 163.992 282.55C163.632 282.83 163.362 283.19 163.182 283.63C163.012 284.07 162.927 284.535 162.927 285.025C162.927 285.505 163.012 285.97 163.182 286.42C163.362 286.86 163.632 287.225 163.992 287.515C164.352 287.795 164.797 287.935 165.327 287.935C165.857 287.935 166.297 287.795 166.647 287.515C167.007 287.225 167.272 286.86 167.442 286.42C167.622 285.97 167.712 285.505 167.712 285.025C167.712 284.535 167.622 284.07 167.442 283.63C167.272 283.19 167.007 282.83 166.647 282.55C166.297 282.26 165.857 282.115 165.327 282.115ZM175.086 292.15C174.426 292.15 173.876 292.06 173.436 291.88C172.996 291.71 172.641 291.49 172.371 291.22C172.111 290.96 171.916 290.7 171.786 290.44C171.656 290.18 171.571 289.96 171.531 289.78C171.491 289.61 171.471 289.525 171.471 289.525H172.896C172.896 289.525 172.921 289.595 172.971 289.735C173.021 289.875 173.116 290.035 173.256 290.215C173.406 290.395 173.626 290.555 173.916 290.695C174.206 290.835 174.596 290.905 175.086 290.905C175.666 290.905 176.121 290.79 176.451 290.56C176.781 290.34 177.016 290.05 177.156 289.69C177.306 289.33 177.381 288.95 177.381 288.55V287.635H177.306C177.206 287.805 177.046 288 176.826 288.22C176.616 288.43 176.336 288.615 175.986 288.775C175.636 288.925 175.206 289 174.696 289C174.096 289 173.571 288.885 173.121 288.655C172.671 288.425 172.296 288.115 171.996 287.725C171.706 287.335 171.486 286.9 171.336 286.42C171.186 285.94 171.111 285.45 171.111 284.95C171.111 284.45 171.186 283.96 171.336 283.48C171.486 283 171.706 282.565 171.996 282.175C172.296 281.785 172.671 281.475 173.121 281.245C173.571 281.015 174.096 280.9 174.696 280.9C175.206 280.9 175.636 280.98 175.986 281.14C176.336 281.29 176.616 281.47 176.826 281.68C177.046 281.89 177.206 282.085 177.306 282.265H177.381V281.05H178.806V288.535C178.806 289.645 178.481 290.525 177.831 291.175C177.191 291.825 176.276 292.15 175.086 292.15ZM174.966 287.785C175.496 287.785 175.936 287.65 176.286 287.38C176.646 287.1 176.911 286.745 177.081 286.315C177.261 285.885 177.351 285.43 177.351 284.95C177.351 284.47 177.261 284.015 177.081 283.585C176.911 283.145 176.646 282.79 176.286 282.52C175.936 282.25 175.496 282.115 174.966 282.115C174.436 282.115 173.991 282.25 173.631 282.52C173.271 282.79 173.001 283.145 172.821 283.585C172.651 284.015 172.566 284.47 172.566 284.95C172.566 285.43 172.651 285.885 172.821 286.315C173.001 286.745 173.271 287.1 173.631 287.38C173.991 287.65 174.436 287.785 174.966 287.785ZM184.222 289.15C183.572 289.15 183.007 289.035 182.527 288.805C182.057 288.565 181.667 288.245 181.357 287.845C181.057 287.445 180.832 287.005 180.682 286.525C180.532 286.035 180.457 285.535 180.457 285.025C180.457 284.525 180.527 284.03 180.667 283.54C180.817 283.05 181.042 282.605 181.342 282.205C181.652 281.805 182.037 281.49 182.497 281.26C182.967 281.02 183.522 280.9 184.162 280.9C184.842 280.9 185.442 281.055 185.962 281.365C186.482 281.675 186.892 282.135 187.192 282.745C187.492 283.355 187.642 284.12 187.642 285.04V285.46H181.897C181.927 285.91 182.032 286.325 182.212 286.705C182.402 287.075 182.667 287.375 183.007 287.605C183.347 287.825 183.752 287.935 184.222 287.935C184.632 287.935 184.962 287.87 185.212 287.74C185.472 287.6 185.677 287.44 185.827 287.26C185.977 287.08 186.077 286.925 186.127 286.795C186.187 286.655 186.217 286.585 186.217 286.585H187.552C187.552 286.585 187.527 286.675 187.477 286.855C187.427 287.025 187.337 287.235 187.207 287.485C187.077 287.735 186.887 287.99 186.637 288.25C186.387 288.5 186.067 288.715 185.677 288.895C185.287 289.065 184.802 289.15 184.222 289.15ZM181.912 284.35H186.247C186.227 283.83 186.117 283.41 185.917 283.09C185.717 282.76 185.462 282.515 185.152 282.355C184.842 282.195 184.512 282.115 184.162 282.115C183.532 282.115 183.017 282.32 182.617 282.73C182.217 283.13 181.982 283.67 181.912 284.35ZM193.193 289V277.9H194.513L200.303 286.345V277.9H201.773V289H200.453L194.663 280.57V289H193.193ZM207.795 289.15C206.945 289.15 206.23 288.955 205.65 288.565C205.07 288.165 204.63 287.65 204.33 287.02C204.03 286.39 203.88 285.725 203.88 285.025C203.88 284.315 204.03 283.65 204.33 283.03C204.63 282.4 205.07 281.89 205.65 281.5C206.23 281.1 206.945 280.9 207.795 280.9C208.645 280.9 209.36 281.1 209.94 281.5C210.52 281.89 210.96 282.4 211.26 283.03C211.56 283.65 211.71 284.315 211.71 285.025C211.71 285.725 211.56 286.39 211.26 287.02C210.96 287.65 210.52 288.165 209.94 288.565C209.36 288.955 208.645 289.15 207.795 289.15ZM207.795 287.905C208.335 287.905 208.785 287.77 209.145 287.5C209.515 287.22 209.79 286.86 209.97 286.42C210.16 285.98 210.255 285.515 210.255 285.025C210.255 284.525 210.16 284.06 209.97 283.63C209.79 283.19 209.515 282.835 209.145 282.565C208.785 282.285 208.335 282.145 207.795 282.145C207.265 282.145 206.815 282.285 206.445 282.565C206.075 282.835 205.795 283.19 205.605 283.63C205.425 284.06 205.335 284.525 205.335 285.025C205.335 285.515 205.425 285.98 205.605 286.42C205.795 286.86 206.075 287.22 206.445 287.5C206.815 287.77 207.265 287.905 207.795 287.905ZM216.882 289.15C216.062 289.15 215.442 288.94 215.022 288.52C214.612 288.1 214.407 287.51 214.407 286.75V282.22H212.982V281.05H214.407V279.055H215.832V281.05H217.767V282.22H215.832V286.75C215.832 287.15 215.942 287.445 216.162 287.635C216.382 287.815 216.702 287.905 217.122 287.905C217.342 287.905 217.552 287.89 217.752 287.86C217.952 287.83 218.052 287.815 218.052 287.815V289.03C218.052 289.03 217.937 289.05 217.707 289.09C217.477 289.13 217.202 289.15 216.882 289.15ZM223.53 289V277.9H230.85V279.19H225V282.85H230.16V284.14H225V289H223.53ZM235.89 289.15C235.04 289.15 234.325 288.955 233.745 288.565C233.165 288.165 232.725 287.65 232.425 287.02C232.125 286.39 231.975 285.725 231.975 285.025C231.975 284.315 232.125 283.65 232.425 283.03C232.725 282.4 233.165 281.89 233.745 281.5C234.325 281.1 235.04 280.9 235.89 280.9C236.74 280.9 237.455 281.1 238.035 281.5C238.615 281.89 239.055 282.4 239.355 283.03C239.655 283.65 239.805 284.315 239.805 285.025C239.805 285.725 239.655 286.39 239.355 287.02C239.055 287.65 238.615 288.165 238.035 288.565C237.455 288.955 236.74 289.15 235.89 289.15ZM235.89 287.905C236.43 287.905 236.88 287.77 237.24 287.5C237.61 287.22 237.885 286.86 238.065 286.42C238.255 285.98 238.35 285.515 238.35 285.025C238.35 284.525 238.255 284.06 238.065 283.63C237.885 283.19 237.61 282.835 237.24 282.565C236.88 282.285 236.43 282.145 235.89 282.145C235.36 282.145 234.91 282.285 234.54 282.565C234.17 282.835 233.89 283.19 233.7 283.63C233.52 284.06 233.43 284.525 233.43 285.025C233.43 285.515 233.52 285.98 233.7 286.42C233.89 286.86 234.17 287.22 234.54 287.5C234.91 287.77 235.36 287.905 235.89 287.905ZM244.344 289.15C243.554 289.15 242.924 288.905 242.454 288.415C241.984 287.925 241.749 287.245 241.749 286.375V281.05H243.174V286.3C243.174 286.82 243.314 287.22 243.594 287.5C243.884 287.78 244.264 287.92 244.734 287.92C245.214 287.92 245.599 287.795 245.889 287.545C246.179 287.295 246.389 286.975 246.519 286.585C246.649 286.195 246.714 285.795 246.714 285.385V281.05H248.139V289H246.714V287.86H246.624C246.564 287.98 246.449 288.145 246.279 288.355C246.109 288.555 245.869 288.74 245.559 288.91C245.249 289.07 244.844 289.15 244.344 289.15ZM250.246 289V281.05H251.671V282.205H251.761C251.831 282.085 251.946 281.92 252.106 281.71C252.276 281.5 252.516 281.315 252.826 281.155C253.136 280.985 253.526 280.9 253.996 280.9C254.576 280.9 255.071 281.035 255.481 281.305C255.891 281.565 256.201 281.92 256.411 282.37C256.631 282.82 256.741 283.325 256.741 283.885V289H255.316V283.975C255.316 283.445 255.166 283.005 254.866 282.655C254.576 282.305 254.151 282.13 253.591 282.13C253.141 282.13 252.776 282.245 252.496 282.475C252.216 282.695 252.006 282.99 251.866 283.36C251.736 283.72 251.671 284.105 251.671 284.515V289H250.246ZM262.294 289.15C261.694 289.15 261.169 289.035 260.719 288.805C260.269 288.565 259.894 288.25 259.594 287.86C259.294 287.46 259.069 287.015 258.919 286.525C258.769 286.035 258.694 285.535 258.694 285.025C258.694 284.515 258.769 284.015 258.919 283.525C259.069 283.035 259.294 282.595 259.594 282.205C259.894 281.805 260.269 281.49 260.719 281.26C261.169 281.02 261.694 280.9 262.294 280.9C262.794 280.9 263.214 280.98 263.554 281.14C263.894 281.3 264.169 281.49 264.379 281.71C264.589 281.92 264.749 282.12 264.859 282.31H264.949V277.6H266.374V289H264.949V287.74H264.859C264.749 287.93 264.589 288.135 264.379 288.355C264.169 288.575 263.894 288.765 263.554 288.925C263.214 289.075 262.794 289.15 262.294 289.15ZM262.534 287.935C263.064 287.935 263.504 287.795 263.854 287.515C264.214 287.225 264.479 286.86 264.649 286.42C264.829 285.97 264.919 285.505 264.919 285.025C264.919 284.535 264.829 284.07 264.649 283.63C264.479 283.19 264.214 282.83 263.854 282.55C263.504 282.26 263.064 282.115 262.534 282.115C262.004 282.115 261.559 282.26 261.199 282.55C260.839 282.83 260.569 283.19 260.389 283.63C260.219 284.07 260.134 284.535 260.134 285.025C260.134 285.505 260.219 285.97 260.389 286.42C260.569 286.86 260.839 287.225 261.199 287.515C261.559 287.795 262.004 287.935 262.534 287.935Z" fill="#272525"/>
</g>
<defs>
<clipPath id="clip0_5_11991">
<rect width="322.958" height="300" fill="white" transform="translate(0.520752)"/>
</clipPath>
</defs>
</svg>
