<svg width="14" height="15" viewBox="0 0 14 15" fill="none" xmlns="http://www.w3.org/2000/svg">
<path d="M7.01852 0.5C5.17009 0.500641 3.39646 1.23209 2.0825 2.53562C0.768546 3.83916 0.0202547 5.60963 0 7.46286C0.0163631 9.32415 0.761066 11.1046 2.07376 12.4207C3.38646 13.7369 5.16216 14.4836 7.01852 14.5C8.87013 14.5 10.6459 13.7625 11.9552 12.4497C13.2645 11.137 14 9.35652 14 7.5C14 5.64348 13.2645 3.86301 11.9552 2.55025C10.6459 1.2375 8.87013 0.5 7.01852 0.5Z" fill="#F6911E"/>
<path d="M6.37273 11.5H4.66L4.67091 10.3132H6.37273C6.83455 10.3132 7.22182 10.2106 7.53455 10.0055C7.84727 9.7967 8.08364 9.49817 8.24364 9.10989C8.40364 8.71795 8.48364 8.24908 8.48364 7.7033V7.29121C8.48364 6.86996 8.43818 6.49817 8.34727 6.17582C8.25636 5.85348 8.12182 5.58242 7.94364 5.36264C7.76909 5.14286 7.55273 4.97619 7.29455 4.86264C7.03636 4.74908 6.74 4.69231 6.40545 4.69231H4.62727V3.5H6.40545C6.93636 3.5 7.42 3.58974 7.85636 3.76923C8.29636 3.94872 8.67636 4.20696 8.99636 4.54396C9.32 4.87729 9.56727 5.27656 9.73818 5.74176C9.91273 6.20696 10 6.72711 10 7.3022V7.7033C10 8.27473 9.91273 8.79487 9.73818 9.26374C9.56727 9.72894 9.32 10.1282 8.99636 10.4615C8.67636 10.7949 8.29455 11.0513 7.85091 11.2308C7.40727 11.4103 6.91455 11.5 6.37273 11.5ZM5.5 3.5V11.5H4V3.5H5.5Z" fill="black"/>
</svg>
