<svg width="21" height="20" viewBox="0 0 21 20" fill="none" xmlns="http://www.w3.org/2000/svg">
<g clip-path="url(#clip0_274_12028)">
<path d="M10.4 3.125C16.65 3.125 20.4 10 20.4 10C20.4 10 16.65 16.875 10.4 16.875C4.14999 16.875 0.399994 10 0.399994 10C0.399994 10 4.14999 3.125 10.4 3.125ZM10.4 4.375C5.99999 4.375 2.89749 8.43875 1.86874 10C2.89624 11.56 5.99874 15.625 10.4 15.625C14.8 15.625 17.9025 11.5612 18.9312 10C17.9037 8.44 14.8012 4.375 10.4 4.375ZM10.4 5.625C11.5603 5.625 12.6731 6.08594 13.4936 6.90641C14.3141 7.72688 14.775 8.83968 14.775 10C14.775 11.1603 14.3141 12.2731 13.4936 13.0936C12.6731 13.9141 11.5603 14.375 10.4 14.375C9.23967 14.375 8.12687 13.9141 7.3064 13.0936C6.48593 12.2731 6.02499 11.1603 6.02499 10C6.02499 8.83968 6.48593 7.72688 7.3064 6.90641C8.12687 6.08594 9.23967 5.625 10.4 5.625ZM10.4 6.875C9.5715 6.87599 8.77722 7.20555 8.19138 7.79139C7.60555 8.37722 7.27599 9.1715 7.27499 10C7.27499 11.7225 8.67624 13.125 10.4 13.125C12.1237 13.125 13.525 11.7225 13.525 10C13.525 8.2775 12.1237 6.875 10.4 6.875Z" fill="#616161"/>
</g>
<defs>
<clipPath id="clip0_274_12028">
<rect width="20" height="20" fill="white" transform="translate(0.399994)"/>
</clipPath>
</defs>
</svg>
