<svg width="20" height="21" viewBox="0 0 20 21" fill="none" xmlns="http://www.w3.org/2000/svg">
<path d="M17.3727 12.8797L13.6922 11.2304L13.682 11.2257C13.491 11.144 13.2825 11.1112 13.0756 11.1303C12.8687 11.1494 12.6698 11.2198 12.4969 11.3351C12.4765 11.3486 12.457 11.3632 12.4383 11.3789L10.5367 13C9.33204 12.4148 8.08829 11.1804 7.50313 9.99137L9.12657 8.0609C9.1422 8.04137 9.15704 8.02184 9.1711 8.00075C9.28394 7.82833 9.3524 7.63068 9.37039 7.42541C9.38838 7.22014 9.35535 7.0136 9.27423 6.82418V6.81481L7.62032 3.12809C7.51309 2.88064 7.3287 2.67451 7.09468 2.54046C6.86067 2.40642 6.58958 2.35165 6.32188 2.38434C5.26327 2.52364 4.29155 3.04353 3.58824 3.84691C2.88492 4.65029 2.49809 5.68222 2.50001 6.74996C2.50001 12.9531 7.54688 18 13.75 18C14.8177 18.0019 15.8497 17.6151 16.6531 16.9117C17.4564 16.2084 17.9763 15.2367 18.1156 14.1781C18.1484 13.9105 18.0937 13.6395 17.9598 13.4055C17.8259 13.1715 17.62 12.987 17.3727 12.8797ZM13.75 16.75C11.0987 16.7471 8.55687 15.6926 6.68214 13.8178C4.8074 11.9431 3.7529 9.40124 3.75001 6.74996C3.74707 5.98706 4.02192 5.24918 4.52324 4.67411C5.02456 4.09904 5.71806 3.72611 6.47423 3.62496C6.47392 3.62808 6.47392 3.63122 6.47423 3.63434L8.11485 7.30621L6.50001 9.23903C6.48362 9.25789 6.46873 9.278 6.45548 9.29918C6.33791 9.47959 6.26894 9.6873 6.25525 9.9022C6.24157 10.1171 6.28362 10.3319 6.37735 10.5257C7.08516 11.9734 8.54376 13.4211 10.007 14.1281C10.2023 14.2209 10.4184 14.2615 10.634 14.2459C10.8497 14.2303 11.0576 14.159 11.2375 14.039C11.2576 14.0255 11.2769 14.0109 11.2953 13.9953L13.1945 12.375L16.8664 14.0195H16.875C16.7751 14.7767 16.4027 15.4716 15.8275 15.9742C15.2524 16.4767 14.5138 16.7525 13.75 16.75Z" fill="#39A1FF"/>
</svg>
