<svg width="21" height="21" viewBox="0 0 21 21" fill="none" xmlns="http://www.w3.org/2000/svg">
<path d="M10.955 0.51095C5.38215 0.253687 0.79746 4.56248 0.518637 9.96975C0.227024 15.6251 4.61073 20.2369 10.0238 20.489C15.631 20.7507 20.4119 16.3337 20.4938 10.6268C20.5618 5.32586 16.4503 0.764924 10.955 0.51095ZM7.42783 13.2911C6.50914 13.3043 5.59008 13.3014 4.67102 13.2981C4.44044 13.297 4.20656 13.2893 3.98036 13.2509C3.51699 13.1724 3.31454 12.7927 3.51919 12.3662C3.62845 12.1389 3.78668 11.9321 3.94126 11.73C4.60269 10.8643 5.27215 10.0048 5.93468 9.14022C5.9979 9.05836 6.03481 8.95641 6.10278 8.82778C5.70738 8.82778 5.36205 8.82814 5.01708 8.82741C4.77334 8.82741 4.52887 8.83765 4.28695 8.81828C4.12653 8.80549 3.96172 8.76712 3.81263 8.70609C3.63685 8.6341 3.55061 8.47952 3.54367 8.28511C3.53673 8.07828 3.60579 7.90141 3.79691 7.81773C3.9493 7.75122 4.12215 7.69787 4.28622 7.69641C5.2601 7.68581 6.23397 7.69093 7.20784 7.69348C7.47131 7.69421 7.6818 7.80055 7.80751 8.03955C7.93578 8.28329 7.88498 8.51716 7.72894 8.72509C7.08396 9.58751 6.43313 10.4459 5.78449 11.3058C5.58789 11.5663 5.39055 11.8269 5.16179 12.1294C5.27873 12.1294 5.34816 12.1291 5.41723 12.1294C6.08085 12.1335 6.74447 12.1349 7.40773 12.1433C7.76658 12.1477 7.99023 12.3637 8.00192 12.701C8.01361 13.0489 7.80312 13.2857 7.42783 13.2911ZM11.8148 12.7028C11.8053 12.9984 11.6124 13.1921 11.3328 13.2393C11.1454 13.271 10.9824 13.2228 10.8515 13.0825C10.7598 12.9835 10.6612 12.9604 10.5449 13.0383C9.46254 13.7622 8.22812 12.9878 7.96026 11.8276C7.7527 10.9272 8.06843 10.0238 8.77846 9.55279C9.31637 9.19577 9.88425 9.16763 10.4477 9.49432C10.6239 9.59628 10.7492 9.63209 10.9056 9.46034C11.0657 9.28384 11.2817 9.3127 11.4837 9.3942C11.68 9.47349 11.806 9.62405 11.8101 9.83783C11.8196 10.3242 11.813 10.811 11.813 11.2977H11.8188C11.8188 11.7662 11.8302 12.235 11.8148 12.7028ZM13.3032 12.4919C13.3032 12.5826 13.2959 12.6747 13.2813 12.7642C13.2316 13.0682 13.0343 13.236 12.731 13.2393C12.4361 13.2425 12.2263 13.0668 12.1748 12.7671C12.1616 12.6896 12.1602 12.6096 12.1602 12.5307C12.1591 11.8429 12.1594 11.1556 12.1594 10.4678H12.1605C12.1605 9.77424 12.1591 9.08029 12.162 8.3867C12.1623 8.28438 12.1671 8.17768 12.1956 8.08047C12.2815 7.78521 12.4847 7.65438 12.7861 7.68435C13.0898 7.71468 13.2601 7.87912 13.2966 8.18389C13.305 8.25588 13.3047 8.3297 13.3047 8.40242C13.305 9.76584 13.3047 11.1289 13.3032 12.4919ZM16.5256 13.0843C15.8101 13.4519 15.0807 13.4198 14.4192 12.9476C13.7556 12.4733 13.5568 11.7808 13.6453 10.9981C13.7275 10.2716 14.0962 9.73368 14.7737 9.43695C15.7922 8.99076 16.9747 9.44901 17.3906 10.4448C17.4461 10.5786 17.4819 10.7222 17.5097 10.8647C17.5371 11.0072 17.5429 11.1541 17.5554 11.2729C17.5327 12.0812 17.2371 12.7189 16.5256 13.0843ZM10.542 11.821C10.4043 12.1236 10.1441 12.2365 9.82834 12.2321C9.51626 12.2281 9.29554 12.0655 9.17458 11.7867C9.11063 11.6394 9.08944 11.4735 9.04011 11.2824C9.09638 11.1029 9.13402 10.8965 9.22465 10.7171C9.36315 10.4426 9.6142 10.3235 9.92079 10.3403C10.2336 10.3575 10.4412 10.5332 10.5603 10.811C10.7046 11.1475 10.6933 11.4896 10.542 11.821ZM16.3805 11.2276C16.382 11.7012 16.1806 12.0629 15.8864 12.1802C15.4534 12.3531 14.993 12.1389 14.8508 11.6836C14.7638 11.4048 14.7679 11.119 14.8797 10.8435C15.0164 10.5066 15.2787 10.3268 15.6051 10.3392C15.9467 10.3527 16.2219 10.5676 16.3231 10.9137C16.3586 11.0353 16.3695 11.164 16.3805 11.2276Z" fill="#39A1FF"/>
</svg>
