<svg width="49" height="24" viewBox="0 0 49 24" fill="none" xmlns="http://www.w3.org/2000/svg">
<rect x="0.889648" width="48" height="24" rx="2" fill="#FBFAF8"/>
<path fill-rule="evenodd" clip-rule="evenodd" d="M30.6965 21C35.7739 21 39.89 16.9706 39.89 12C39.89 7.02944 35.7739 3 30.6965 3C25.619 3 21.5029 7.02944 21.5029 12C21.5029 16.9706 25.619 21 30.6965 21Z" fill="#F79E1B"/>
<path fill-rule="evenodd" clip-rule="evenodd" d="M19.0832 21C24.1607 21 28.2767 16.9706 28.2767 12C28.2767 7.02944 24.1607 3 19.0832 3C14.0057 3 9.88965 7.02944 9.88965 12C9.88965 16.9706 14.0057 21 19.0832 21Z" fill="#EB001B"/>
<path fill-rule="evenodd" clip-rule="evenodd" d="M24.8898 5.02197C22.8229 6.67231 21.5029 9.18525 21.5029 12C21.5029 14.8147 22.8229 17.3277 24.8898 18.978C26.9568 17.3277 28.2767 14.8147 28.2767 12C28.2767 9.18525 26.9568 6.67231 24.8898 5.02197Z" fill="#FF5F00"/>
</svg>
