<svg width="49" height="24" viewBox="0 0 49 24" fill="none" xmlns="http://www.w3.org/2000/svg">
<path d="M33.1396 4.17657H16.6396C14.985 4.17657 13.6396 5.52189 13.6396 7.17658V16.8188C13.6396 18.4734 14.985 19.8188 16.6396 19.8188H33.1396C34.7943 19.8188 36.1396 18.4734 36.1396 16.8188V7.17658C36.1396 5.52189 34.7943 4.18126 33.1396 4.17657ZM34.6396 16.8234C34.6396 17.6531 33.9693 18.3234 33.1396 18.3234H16.6396C15.81 18.3234 15.1396 17.6531 15.1396 16.8234V9.75001H34.6396V16.8234ZM34.6396 8.25001H15.1396V7.17658C15.1396 6.34689 15.81 5.67657 16.6396 5.67657H33.1396C33.9693 5.67657 34.6396 6.34689 34.6396 7.17658V8.25001Z" fill="black"/>
<path d="M32.7598 12.1922C33.2646 12.1922 33.6738 11.783 33.6738 11.2781C33.6738 10.7733 33.2646 10.3641 32.7598 10.3641C32.2549 10.3641 31.8457 10.7733 31.8457 11.2781C31.8457 11.783 32.2549 12.1922 32.7598 12.1922Z" fill="black"/>
<path d="M19.4432 16.2422H17.9291L17.6854 16.9594H16.6494L18.1166 12.9H19.265L20.7322 16.9594H19.6869L19.4432 16.2422ZM19.19 15.4781L18.6885 13.9922L18.1869 15.4781H19.19Z" fill="black"/>
<path d="M24.0975 12.8953V13.6875H23.0193V16.9547H22.0303V13.6875H20.9521V12.8953H24.0975Z" fill="black"/>
<path d="M29.198 12.8953V16.9547H28.209V14.5172L27.2996 16.9547H26.5027L25.5887 14.5125V16.9547H24.5996V12.8953H25.7668L26.9059 15.7078L28.0355 12.8953H29.198Z" fill="black"/>
</svg>
