<svg width="16" height="16" viewBox="0 0 16 16" fill="none" xmlns="http://www.w3.org/2000/svg">
<path d="M11.9364 3.62883C11.1295 2.23627 9.69619 1.38549 8.10234 1.35298C8.0343 1.35158 7.96582 1.35158 7.89776 1.35298C6.30393 1.38549 4.87065 2.23627 4.06368 3.62883C3.23885 5.05225 3.21629 6.76205 4.0033 8.20258L7.30042 14.2375C7.3019 14.2401 7.30338 14.2428 7.30491 14.2455C7.44997 14.4976 7.70984 14.6481 8.0001 14.6481C8.29033 14.6481 8.5502 14.4976 8.69524 14.2455C8.69677 14.2428 8.69825 14.2401 8.69973 14.2375L11.9968 8.20258C12.7838 6.76205 12.7612 5.05225 11.9364 3.62883ZM8.00005 7.37677C6.96905 7.37677 6.13028 6.53799 6.13028 5.50699C6.13028 4.476 6.96905 3.63722 8.00005 3.63722C9.03105 3.63722 9.86982 4.476 9.86982 5.50699C9.86982 6.53799 9.03107 7.37677 8.00005 7.37677Z" fill="#9E9E9E"/>
</svg>
