<svg width="20" height="20" viewBox="0 0 20 20" fill="none" xmlns="http://www.w3.org/2000/svg">
<path d="M15.8333 15.8333H6.66666C6.20832 15.8333 5.81582 15.67 5.48916 15.3433C5.16249 15.0167 4.99944 14.6244 4.99999 14.1667V2.5C4.99999 2.04167 5.16332 1.64917 5.48999 1.3225C5.81666 0.995833 6.20888 0.832778 6.66666 0.833333H11.8125C12.0347 0.833333 12.2467 0.875 12.4483 0.958333C12.65 1.04167 12.8269 1.15972 12.9792 1.3125L17.0208 5.35417C17.1736 5.50694 17.2917 5.68417 17.375 5.88583C17.4583 6.0875 17.5 6.29917 17.5 6.52083V14.1667C17.5 14.625 17.3367 15.0175 17.01 15.3442C16.6833 15.6708 16.2911 15.8339 15.8333 15.8333ZM11.6667 2.5H6.66666V14.1667H15.8333V6.66667H12.5C12.2639 6.66667 12.0658 6.58667 11.9058 6.42667C11.7458 6.26667 11.6661 6.06889 11.6667 5.83333V2.5ZM3.33332 19.1667C2.87499 19.1667 2.48249 19.0033 2.15582 18.6767C1.82916 18.35 1.6661 17.9578 1.66666 17.5V6.66667C1.66666 6.43056 1.74666 6.2325 1.90666 6.0725C2.06666 5.9125 2.26444 5.83278 2.49999 5.83333C2.7361 5.83333 2.93416 5.91333 3.09416 6.07333C3.25416 6.23333 3.33388 6.43111 3.33332 6.66667V17.5H11.6667C11.9028 17.5 12.1008 17.58 12.2608 17.74C12.4208 17.9 12.5005 18.0978 12.5 18.3333C12.5 18.5694 12.42 18.7675 12.26 18.9275C12.1 19.0875 11.9022 19.1672 11.6667 19.1667H3.33332Z" fill="#BDBDBD"/>
</svg>
