<?xml version="1.0" standalone="no"?>
<!DOCTYPE svg PUBLIC "-//W3C//DTD SVG 20010904//EN"
 "http://www.w3.org/TR/2001/REC-SVG-20010904/DTD/svg10.dtd">
<svg version="1.0" xmlns="http://www.w3.org/2000/svg"
 width="430.000000pt" height="430.000000pt" viewBox="0 0 430.000000 430.000000"
 preserveAspectRatio="xMidYMid meet">

<g transform="translate(0.000000,430.000000) scale(0.100000,-0.100000)"
fill="#000000" stroke="none">
<path d="M420 3515 l0 -365 365 0 365 0 0 365 0 365 -365 0 -365 0 0 -365z
m628 -3 l2 -262 -262 2 -263 3 -3 250 c-1 137 0 255 3 262 3 11 60 13 262 11
l258 -3 3 -263z"/>
<path d="M630 3515 l0 -155 155 0 155 0 0 155 0 155 -155 0 -155 0 0 -155z"/>
<path d="M1360 3830 l0 -50 -50 0 -50 0 0 -55 0 -55 50 0 50 0 0 -50 0 -50
-50 0 -50 0 0 -105 0 -105 105 0 105 0 0 50 0 50 -55 0 -55 0 0 55 0 55 105 0
105 0 0 -55 0 -55 55 0 55 0 0 105 0 105 -160 0 -160 0 0 55 0 55 55 0 55 0 0
50 0 50 -55 0 -55 0 0 -50z"/>
<path d="M1780 3620 l0 -259 -102 -3 -103 -3 -3 -52 -3 -53 -50 0 -49 0 0 -50
0 -50 50 0 50 0 0 -105 0 -105 105 0 105 0 0 -55 0 -55 -50 0 -50 0 0 -105 0
-105 -105 0 -105 0 0 -105 0 -105 49 0 50 0 3 53 3 52 53 3 52 3 0 -105 0
-106 50 0 50 0 0 50 0 50 55 0 55 0 0 55 0 55 210 0 210 0 0 -55 0 -55 50 0
50 0 0 -50 0 -50 55 0 55 0 0 -105 0 -105 -55 0 -55 0 0 50 0 50 -50 0 -50 0
0 -50 0 -50 -55 0 -55 0 0 50 0 50 -50 0 -50 0 0 105 0 105 -55 0 -55 0 0 -50
0 -50 -50 0 -50 0 0 -55 0 -55 -55 0 -55 0 0 -50 0 -50 -50 0 -50 0 0 -105 0
-105 -55 0 -55 0 0 210 0 211 -102 -3 -103 -3 0 -50 0 -50 53 -3 52 -3 0 -49
0 -49 -52 -3 -53 -3 0 -50 0 -50 53 -3 52 -3 0 -50 0 -49 -105 0 -105 0 0 50
0 50 -160 0 -160 0 0 -50 0 -50 -50 0 -50 0 0 105 0 105 -55 0 -55 0 0 50 0
50 105 0 105 0 0 -50 0 -50 160 0 160 0 0 105 0 105 -55 0 -55 0 0 50 0 49
-102 3 -103 3 -3 158 -3 157 106 0 105 0 0 -55 0 -55 -50 0 -50 0 0 -50 0 -50
105 0 105 0 0 -55 0 -55 50 0 50 0 0 160 0 160 105 0 105 0 0 50 0 50 -105 0
-105 0 0 -50 0 -50 -50 0 -50 0 0 105 0 105 50 0 50 0 0 155 0 155 -50 0 -50
0 0 -155 0 -155 -55 0 -55 0 0 50 0 50 -210 0 -210 0 0 -50 0 -50 -50 0 -50 0
0 50 0 50 -55 0 -55 0 0 -50 0 -50 55 0 55 0 0 -55 0 -55 -105 0 -105 0 0
-155 0 -155 50 0 50 0 0 -55 0 -55 -50 0 -50 0 0 -50 0 -50 50 0 50 0 0 -55 0
-55 -50 0 -50 0 0 -105 0 -105 50 0 50 0 0 105 0 105 55 0 55 0 0 -105 0 -105
50 0 50 0 0 -50 0 -49 -102 -3 -103 -3 -3 -52 -3 -53 -50 0 -49 0 0 -260 0
-260 260 0 260 0 0 50 0 50 55 0 55 0 0 -50 0 -50 50 0 50 0 0 50 0 50 55 0
55 0 0 -105 0 -105 105 0 105 0 0 -50 0 -50 50 0 50 0 0 -105 0 -105 55 0 55
0 0 -55 0 -55 -55 0 -55 0 0 -105 0 -105 -50 0 -50 0 0 105 0 105 -55 0 -55 0
0 55 0 55 55 0 55 0 0 49 0 50 -52 3 -53 3 -3 53 -3 52 -50 0 -49 0 0 -160 0
-160 50 0 50 0 0 -50 0 -50 -50 0 -50 0 0 -55 0 -55 50 0 50 0 0 -50 0 -50
210 0 210 0 0 50 0 50 55 0 55 0 0 -50 0 -50 50 0 50 0 0 50 0 50 -50 0 -50 0
0 55 0 55 -55 0 -55 0 0 -55 0 -55 -50 0 -50 0 0 105 0 105 50 0 50 0 0 55 0
55 -50 0 -50 0 0 50 0 50 50 0 50 0 0 55 0 55 -50 0 -50 0 0 50 0 50 155 0
155 0 0 -50 0 -50 55 0 55 0 0 -55 0 -55 -105 0 -105 0 0 -50 0 -50 49 0 50 0
3 -52 3 -53 53 -3 52 -3 0 -155 0 -154 210 0 210 0 0 50 0 50 50 0 50 0 0 55
0 55 55 0 55 0 0 50 0 50 50 0 50 0 0 55 0 55 105 0 105 0 0 -55 0 -55 -50 0
-50 0 0 -155 0 -155 105 0 105 0 0 50 0 50 50 0 50 0 0 -50 0 -50 105 0 105 0
0 50 0 50 210 0 210 0 0 210 0 210 -105 0 -105 0 0 104 0 105 53 3 52 3 3 53
3 52 50 0 49 0 0 50 0 50 -50 0 -50 0 0 55 0 55 50 0 50 0 0 50 0 50 -105 0
-105 0 0 -50 0 -50 -50 0 -50 0 0 -55 0 -55 50 0 50 0 0 -50 0 -50 -50 0 -50
0 0 -105 0 -105 -55 0 -55 0 0 155 0 155 -50 0 -50 0 0 55 0 55 50 0 50 0 0
49 0 50 53 3 52 3 3 103 3 102 104 0 105 0 0 -50 0 -50 50 0 50 0 0 50 0 50
-50 0 -50 0 0 55 0 55 50 0 50 0 0 105 0 105 -49 0 -50 0 -3 -52 -3 -53 -52
-3 -53 -3 0 55 0 56 -50 0 -50 0 0 50 0 50 50 0 50 0 0 160 0 160 -105 0 -105
0 0 -55 0 -55 -50 0 -50 0 0 160 0 161 103 -3 102 -3 3 -52 3 -53 155 0 154 0
0 105 0 105 -105 0 -105 0 0 55 0 55 55 0 55 0 0 50 0 50 -55 0 -55 0 0 -50 0
-50 -50 0 -50 0 0 50 0 50 -105 0 -105 0 0 -155 0 -155 -105 0 -105 0 0 50 0
50 -105 0 -105 0 0 55 0 55 155 0 155 0 0 50 0 50 -155 0 -155 0 0 55 0 55 50
0 50 0 0 105 0 105 -50 0 -50 0 0 50 0 50 50 0 50 0 0 55 0 55 -50 0 -50 0 0
-55 0 -55 -55 0 -55 0 0 55 0 55 -50 0 -50 0 0 50 0 50 -55 0 -55 0 0 -50 0
-50 -50 0 -50 0 0 105 0 105 155 0 155 0 0 50 0 50 -155 0 -155 0 0 -50 0 -50
-55 0 -55 0 0 50 0 50 -155 0 -155 0 0 -50 0 -49 103 -3 102 -3 3 -52 3 -53
50 0 49 0 0 -50 0 -50 -50 0 -50 0 0 -55 0 -55 155 0 155 0 0 -50 0 -50 160 0
160 0 0 -105 0 -105 -55 0 -55 0 0 50 0 50 -50 0 -50 0 0 -105 0 -105 50 0 50
0 0 -50 0 -50 -105 0 -105 0 0 50 0 50 -50 0 -50 0 0 -50 0 -50 -55 0 -55 0 0
-55 0 -55 55 0 55 0 0 55 0 55 50 0 50 0 0 -55 0 -55 55 0 55 0 0 -50 0 -50
-55 0 -55 0 0 -105 0 -105 -50 0 -50 0 0 50 0 50 -55 0 -55 0 0 55 0 55 -50 0
-50 0 0 -55 0 -55 -55 0 -55 0 0 55 0 55 -50 0 -50 0 0 -55 0 -55 -55 0 -55 0
0 160 0 160 -50 0 -50 0 0 50 0 50 105 0 105 0 0 -50 0 -50 50 0 50 0 0 -55 0
-55 55 0 55 0 0 105 0 105 50 0 50 0 0 105 0 105 55 0 55 0 0 -50 0 -50 50 0
50 0 0 50 0 50 -49 0 -50 0 -3 53 -3 52 -50 0 -50 0 -3 -52 -3 -53 -50 0 -49
0 0 -105 0 -105 -105 0 -105 0 0 55 0 55 50 0 50 0 0 155 0 155 -50 0 -50 0 0
-155 0 -155 -55 0 -55 0 0 105 0 105 -50 0 -50 0 0 50 0 50 50 0 50 0 0 55 0
55 105 0 105 0 0 50 0 50 -105 0 -105 0 0 105 0 105 -105 0 -105 0 0 -260z
m210 0 l0 -50 -50 0 -50 0 0 50 0 50 50 0 50 0 0 -50z m740 -105 l0 -55 -55 0
-55 0 0 55 0 55 55 0 55 0 0 -55z m-840 -260 l0 -105 -55 0 -55 0 0 -55 0 -55
-50 0 -50 0 0 55 0 55 -55 0 -55 0 0 50 0 50 55 0 55 0 0 -50 0 -50 50 0 50 0
0 105 0 105 55 0 55 0 0 -105z m-950 -420 l0 -105 -50 0 -50 0 0 -105 0 -105
-160 0 -161 0 3 103 3 102 53 3 52 3 0 -55 0 -56 49 0 50 0 3 53 3 52 53 3 52
3 0 49 0 49 -52 3 -53 3 -3 53 -3 52 105 0 106 0 0 -105z m210 50 l0 -55 -50
0 -50 0 0 55 0 55 50 0 50 0 0 -55z m740 -210 l0 -155 -105 0 -105 0 0 50 0
50 50 0 50 0 0 105 0 105 55 0 55 0 0 -155z m1150 0 l0 -55 55 0 55 0 0 -50 0
-50 50 0 50 0 0 -55 0 -55 -50 0 -50 0 0 -50 0 -50 50 0 50 0 0 -55 0 -55 -50
0 -50 0 0 55 0 55 -104 0 -105 0 -3 -52 -3 -53 -102 -3 -103 -3 0 -104 0 -105
-55 0 -55 0 0 160 0 160 105 0 105 0 0 50 0 50 -105 0 -105 0 0 55 0 55 55 0
55 0 0 50 0 50 50 0 50 0 0 55 0 55 105 0 105 0 0 -55z m-630 -105 l0 -50 -50
0 -50 0 0 50 0 50 50 0 50 0 0 -50z m-1570 -210 l0 -50 -105 0 -105 0 0 50 0
50 105 0 105 0 0 -50z m2730 0 l0 -50 -55 0 -55 0 0 -55 0 -55 -50 0 -50 0 0
55 0 55 50 0 50 0 0 50 0 50 55 0 55 0 0 -50z m-2420 -105 l0 -55 -105 0 -105
0 0 48 c0 27 3 52 7 55 3 4 51 7 105 7 l98 0 0 -55z m950 -210 l0 -55 -160 0
-160 0 0 55 0 55 160 0 160 0 0 -55z m838 -2 l3 -53 50 0 49 0 0 -49 0 -50 53
-3 52 -3 3 -52 3 -53 50 0 49 0 0 55 0 55 55 0 55 0 0 50 0 50 -55 0 -55 0 0
56 0 55 53 -3 52 -3 3 -52 3 -53 50 0 49 0 0 55 0 55 56 0 55 0 -3 -52 -3 -53
-52 -3 -53 -3 0 -50 0 -49 -50 0 -50 0 0 -55 0 -55 50 0 50 0 0 -50 0 -50 -50
0 -50 0 0 50 0 50 -55 0 -55 0 0 -105 0 -105 -155 0 -155 0 0 -50 0 -50 50 0
50 0 0 -55 0 -55 -50 0 -50 0 0 -50 0 -50 -160 0 -160 0 0 -55 0 -55 105 0
105 0 0 -50 0 -50 -105 0 -105 0 0 -105 0 -105 55 0 55 0 0 -55 0 -55 -55 0
-55 0 0 -50 0 -50 -50 0 -50 0 0 50 0 50 -55 0 -55 0 0 -105 0 -106 -102 3
-103 3 -3 53 -3 52 55 0 56 0 0 49 0 50 -52 3 -53 3 -3 53 -3 52 -50 0 -49 0
0 50 0 50 50 0 50 0 0 55 0 55 55 0 55 0 0 105 0 105 -55 0 -55 0 0 -55 0 -55
-105 0 -105 0 0 55 0 55 -155 0 -155 0 0 -56 0 -55 -52 3 -53 3 -3 53 -3 52
55 0 56 0 0 155 0 155 50 0 50 0 0 -50 0 -50 55 0 55 0 0 155 0 155 -55 0 -55
0 0 55 0 55 105 0 104 0 3 -157 3 -158 53 -3 52 -3 0 -50 0 -49 -56 0 -55 0 3
-52 3 -53 53 -3 52 -3 0 -50 0 -49 50 0 50 0 0 105 0 105 55 0 55 0 0 -105 0
-105 50 0 50 0 0 50 0 50 55 0 55 0 0 -50 0 -50 50 0 50 0 0 105 0 105 55 0
55 0 0 -55 0 -55 50 0 50 0 0 105 0 105 -50 0 -50 0 0 55 0 55 50 0 50 0 0 50
0 50 55 0 55 0 0 105 0 105 -55 0 -55 0 0 56 0 55 53 -3 52 -3 3 -52z m-628
-103 l0 -50 50 0 50 0 0 -55 0 -55 -50 0 -50 0 0 -105 0 -105 -55 0 -55 0 0
105 0 105 -50 0 -50 0 0 55 0 55 50 0 50 0 0 50 0 50 55 0 55 0 0 -50z m-1160
-105 l0 -55 -50 0 -50 0 0 -50 0 -50 155 0 155 0 0 -55 0 -55 -155 0 -155 0 0
55 0 55 -55 0 -55 0 0 105 0 105 105 0 105 0 0 -55z m420 -155 l0 -210 -50 0
-50 0 0 210 0 210 50 0 50 0 0 -210z m1158 158 l-3 -53 -52 -3 -53 -3 0 -105
0 -104 -105 0 -105 0 0 55 0 55 55 0 55 0 0 105 0 105 106 0 105 0 -3 -52z
m-1888 -164 l0 -105 -52 3 -53 3 -3 53 -3 52 -50 0 -49 0 0 -105 0 -105 50 0
50 0 0 -55 0 -56 -102 3 -103 3 0 155 0 155 53 3 52 3 0 50 0 49 105 0 105 0
0 -106z m100 -259 l0 -55 -50 0 -50 0 0 55 0 55 50 0 50 0 0 -55z m210 0 l0
-55 -50 0 -50 0 0 55 0 55 50 0 50 0 0 -55z m210 0 l0 -55 55 0 55 0 0 -50 0
-50 -55 0 -55 0 0 50 0 50 -50 0 -50 0 0 55 0 55 50 0 50 0 0 -55z m1998 -312
l-3 -158 -157 -3 -158 -3 0 161 0 160 160 0 161 0 -3 -157z m312 -213 l0 -50
56 0 55 0 -3 -52 -3 -53 -52 -3 -53 -3 0 -50 0 -49 -105 0 -105 0 0 50 0 50
-50 0 -50 0 0 55 0 55 50 0 50 0 0 50 0 50 105 0 105 0 0 -50z m-420 -155 l0
-105 -50 0 -50 0 0 -56 0 -55 -52 3 -53 3 -3 102 -3 102 53 3 53 3 3 53 3 52
50 0 49 0 0 -105z"/>
<path d="M2940 2465 l0 -55 105 0 105 0 0 55 0 55 -105 0 -105 0 0 -55z"/>
<path d="M2940 1730 l0 -50 50 0 50 0 0 50 0 50 -50 0 -50 0 0 -50z"/>
<path d="M2410 1045 l0 -105 -105 0 -105 0 0 -50 0 -50 160 0 160 0 0 105 0
105 50 0 50 0 0 50 0 50 -105 0 -105 0 0 -105z"/>
<path d="M2200 1835 l0 -55 55 0 55 0 0 55 0 55 -55 0 -55 0 0 -55z"/>
<path d="M3150 1100 l0 -50 50 0 50 0 0 50 0 50 -50 0 -50 0 0 -50z"/>
<path d="M3570 785 l0 -55 50 0 50 0 0 55 0 55 -50 0 -50 0 0 -55z"/>
<path d="M3150 3515 l0 -365 365 0 365 0 0 365 0 365 -365 0 -365 0 0 -365z
m625 0 l0 -260 -262 -3 -263 -2 0 258 c0 142 3 262 7 265 4 4 122 6 262 5
l256 -3 0 -260z"/>
<path d="M3360 3515 l0 -155 155 0 155 0 0 155 0 155 -155 0 -155 0 0 -155z"/>
<path d="M2940 3725 l0 -55 50 0 50 0 0 55 0 55 -50 0 -50 0 0 -55z"/>
<path d="M3780 2255 l0 -55 50 0 50 0 0 55 0 55 -50 0 -50 0 0 -55z"/>
<path d="M420 785 l0 -365 365 0 365 0 0 365 0 365 -365 0 -365 0 0 -365z
m628 3 l-3 -263 -260 0 -260 0 -3 250 c-1 137 0 255 3 262 3 10 64 13 265 13
l260 0 -2 -262z"/>
<path d="M630 785 l0 -155 155 0 155 0 0 155 0 155 -155 0 -155 0 0 -155z"/>
</g>
</svg>
