<svg width="20" height="20" viewBox="0 0 20 20" fill="none" xmlns="http://www.w3.org/2000/svg">
<g clip-path="url(#clip0_3266_25233)">
<path d="M19.8744 7.51877L19.3534 6.61642C19.2456 6.42963 19.0068 6.36561 18.8198 6.47346C18.633 6.5813 18.569 6.8202 18.6769 7.00703L19.1978 7.90939C19.2253 7.95696 19.2192 8.00227 19.2131 8.02505C19.207 8.04782 19.1896 8.09016 19.1421 8.11762L17.7644 8.91299C17.6916 8.95494 17.5982 8.9299 17.5562 8.85717L14.7848 4.05709C14.7427 3.98428 14.7678 3.89084 14.8406 3.84877L16.2182 3.05345C16.291 3.01149 16.3845 3.03642 16.4265 3.10923L16.9191 3.96252C17.027 4.14939 17.2659 4.21341 17.4527 4.10548C17.6395 3.99763 17.7036 3.75874 17.5957 3.57191L17.103 2.71861C16.8456 2.27281 16.2736 2.11941 15.8276 2.37687L14.45 3.17223C14.2407 3.29309 14.0959 3.48328 14.0277 3.69718H10.1224C9.57408 3.69718 9.05859 3.91068 8.67083 4.29841L8.27068 4.69855C7.91983 4.61492 7.56039 4.57191 7.19892 4.57191H5.9863C5.92572 4.3379 5.77521 4.12728 5.54983 3.99713L4.17222 3.20176C3.95621 3.07704 3.7045 3.04395 3.46368 3.10848C3.22279 3.17301 3.02143 3.32754 2.89675 3.54351L0.125389 8.34363C0.000705514 8.5596 -0.0324575 8.81123 0.0320717 9.05216C0.0966009 9.29309 0.251127 9.49442 0.467136 9.6191L1.84475 10.4145C1.99142 10.4992 2.15169 10.5394 2.31001 10.5394C2.3677 10.5394 2.42508 10.5338 2.48149 10.5233L3.60903 11.6509C3.59177 11.7395 3.58282 11.8304 3.58282 11.9228C3.58282 12.2981 3.72899 12.651 3.99441 12.9164C4.24854 13.1705 4.57658 13.3066 4.90997 13.325C4.90485 13.3739 4.90208 13.4234 4.90208 13.4733C4.90208 13.8487 5.04824 14.2016 5.31366 14.467C5.57909 14.7324 5.93197 14.8785 6.30731 14.8785C6.3175 14.8785 6.32758 14.878 6.33773 14.8778C6.3375 14.888 6.33699 14.898 6.33699 14.9082C6.33699 15.2836 6.48316 15.6365 6.74858 15.9019C7.014 16.1673 7.36688 16.3135 7.74222 16.3135C7.75242 16.3135 7.76249 16.313 7.77265 16.3127C7.77242 16.3229 7.77191 16.333 7.77191 16.3431C7.77191 16.7185 7.91808 17.0714 8.1835 17.3368C8.44892 17.6022 8.8018 17.7484 9.17714 17.7484C9.55248 17.7484 9.9054 17.6022 10.1708 17.3368L10.7265 16.7811C10.8894 16.6182 11.0034 16.4248 11.0695 16.2192C11.3164 16.4013 11.6097 16.4925 11.9032 16.4924C12.263 16.4924 12.6229 16.3554 12.8968 16.0815C13.0607 15.9176 13.179 15.7203 13.2456 15.505C13.4717 15.6529 13.7359 15.7324 14.0123 15.7324C14.3877 15.7324 14.7406 15.5863 15.006 15.3208C15.2032 15.1236 15.3344 14.878 15.3889 14.6109C15.53 14.6576 15.6791 14.6822 15.832 14.6822C16.2073 14.6822 16.5603 14.5361 16.8257 14.2706C17.3736 13.7227 17.3736 12.8312 16.8257 12.2833L15.914 11.3716L17.5781 9.70746C17.6151 9.71187 17.6523 9.71437 17.6897 9.71437C17.848 9.71437 18.0083 9.67414 18.1549 9.58949L19.5326 8.79416C19.7485 8.66944 19.9031 8.46812 19.9676 8.22719C20.0322 7.98626 19.9991 7.73474 19.8744 7.51877ZM0.85771 8.94256C0.810133 8.9151 0.79279 8.87279 0.786697 8.84998C0.780603 8.82721 0.77447 8.7819 0.80197 8.73428L3.57333 3.93412C3.60079 3.88654 3.64313 3.8692 3.6659 3.86311C3.67563 3.86053 3.68946 3.85791 3.70579 3.85791C3.72778 3.85791 3.7543 3.86264 3.78156 3.87834L5.15918 4.67371C5.23195 4.71574 5.25703 4.80917 5.215 4.88198L2.44364 9.68211C2.40157 9.75488 2.30821 9.77995 2.23536 9.73792L0.85771 8.94256ZM4.36405 11.9227C4.36405 11.756 4.42897 11.5993 4.54685 11.4815L4.88395 11.1444C5.00559 11.0227 5.16539 10.9619 5.32523 10.9619C5.48499 10.9619 5.64483 11.0227 5.76646 11.1444C5.88435 11.2622 5.94927 11.4189 5.94927 11.5856C5.94927 11.7523 5.88435 11.909 5.76646 12.0268L5.42936 12.3639C5.18605 12.6073 4.79017 12.6072 4.54685 12.3639C4.42897 12.2461 4.36405 12.0894 4.36405 11.9227ZM6.30734 14.0973C6.14063 14.0973 5.98396 14.0324 5.86611 13.9145C5.74822 13.7967 5.6833 13.64 5.6833 13.4733C5.6833 13.3066 5.74822 13.1499 5.86611 13.0321L6.42175 12.4764C6.54339 12.3548 6.70319 12.294 6.86299 12.294C7.02283 12.294 7.18263 12.3548 7.30427 12.4764C7.42215 12.5943 7.48707 12.751 7.48707 12.9177C7.48707 13.0843 7.42215 13.2411 7.30427 13.3589L6.74862 13.9145C6.63073 14.0324 6.47402 14.0973 6.30734 14.0973ZM7.74226 15.5323C7.57555 15.5323 7.41887 15.4674 7.30102 15.3495C7.18314 15.2317 7.11822 15.0749 7.11822 14.9083C7.11822 14.7416 7.18314 14.5849 7.30102 14.467L7.85667 13.9113C7.97831 13.7897 8.13811 13.7289 8.29791 13.7289C8.45771 13.7289 8.61755 13.7897 8.73918 13.9114C8.85707 14.0292 8.92199 14.1859 8.92199 14.3526C8.92199 14.5193 8.85707 14.676 8.73918 14.7939L8.18354 15.3495C8.06569 15.4674 7.90897 15.5323 7.74226 15.5323ZM10.1741 16.2288L9.61841 16.7845C9.50057 16.9023 9.34389 16.9672 9.17718 16.9672C9.01046 16.9672 8.85379 16.9023 8.73594 16.7845C8.61805 16.6666 8.55313 16.5099 8.55313 16.3432C8.55313 16.1765 8.61805 16.0198 8.73594 15.9019L9.29159 15.3463C9.41322 15.2246 9.57302 15.1638 9.73286 15.1638C9.89262 15.1638 10.0525 15.2247 10.1741 15.3463C10.4174 15.5895 10.4174 15.9855 10.1741 16.2288ZM16.2734 13.7183C16.1555 13.8362 15.9988 13.9011 15.8321 13.9011C15.6654 13.9011 15.5087 13.8362 15.3909 13.7183L11.6625 9.98987C11.5099 9.83737 11.2627 9.83733 11.11 9.98987C10.9575 10.1424 10.9575 10.3897 11.11 10.5423L14.4537 13.886C14.5715 14.0038 14.6365 14.1605 14.6365 14.3272C14.6365 14.4939 14.5715 14.6506 14.4537 14.7685C14.3358 14.8863 14.1791 14.9512 14.0124 14.9512C13.8457 14.9512 13.689 14.8863 13.5712 14.7685L9.5533 10.7506C9.40076 10.5981 9.15343 10.5981 9.00085 10.7506C8.84832 10.9031 8.84832 11.1505 9.00085 11.303L12.3445 14.6467C12.4624 14.7645 12.5273 14.9212 12.5273 15.0879C12.5273 15.2546 12.4624 15.4113 12.3445 15.5291C12.1012 15.7725 11.7053 15.7725 11.462 15.5291L10.7266 14.7938C10.7256 14.7928 10.7245 14.7919 10.7235 14.7909C10.4421 14.5113 10.0711 14.3758 9.70247 14.3837C9.70271 14.3734 9.70321 14.3631 9.70321 14.3526C9.70321 13.9773 9.55705 13.6244 9.29163 13.3589C9.00996 13.0773 8.63747 12.9408 8.26752 12.9488C8.26775 12.9384 8.26826 12.9281 8.26826 12.9177C8.26826 12.5423 8.12209 12.1894 7.85667 11.924C7.54863 11.616 7.13197 11.4812 6.72885 11.5195C6.71272 11.169 6.56863 10.8418 6.31887 10.592C5.77096 10.0441 4.87942 10.0442 4.33151 10.592L3.99441 10.9291C3.99402 10.9295 3.99363 10.9299 3.99324 10.9303L3.12584 10.0629L5.84502 5.35314H7.19888C7.33153 5.35314 7.46383 5.36017 7.59539 5.37384L7.14888 5.82035C6.88346 6.08577 6.73729 6.43869 6.73729 6.81403C6.73729 7.18941 6.88346 7.54229 7.14888 7.80771C7.42286 8.08165 7.78273 8.21864 8.14252 8.21864C8.50239 8.21864 8.86226 8.08169 9.1362 7.80771L10.1907 6.75321L16.2733 12.8358C16.5166 13.0791 16.5166 13.475 16.2734 13.7183ZM12.5204 7.97802C13.0889 7.56662 13.4373 6.90274 13.4373 6.18147C13.4373 5.96574 13.2624 5.79086 13.0467 5.79086C12.831 5.79086 12.6561 5.96574 12.6561 6.18147C12.6561 6.69173 12.3865 7.15715 11.9565 7.41413L10.4687 5.92636C10.3162 5.77383 10.0693 5.76985 9.91669 5.92238L8.5838 7.25527C8.34048 7.49858 7.9446 7.49854 7.70129 7.25527C7.5834 7.13742 7.51848 6.98071 7.51848 6.81403C7.51848 6.64736 7.5834 6.49064 7.70129 6.37276L9.22323 4.85081C9.46338 4.61066 9.78271 4.4784 10.1224 4.4784H14.126L16.8796 9.24786C16.8861 9.25915 16.8932 9.26989 16.9001 9.28079L15.3617 10.8193L12.5204 7.97802Z" fill="#F0821B"/>
<path d="M18.1362 5.68066C18.2389 5.68066 18.3393 5.63887 18.4123 5.56621C18.485 5.49316 18.5268 5.39277 18.5268 5.29004C18.5268 5.18691 18.485 5.08652 18.4123 5.01348C18.3393 4.94082 18.2389 4.89941 18.1362 4.89941C18.033 4.89941 17.9327 4.94082 17.86 5.01348C17.787 5.08652 17.7455 5.18691 17.7455 5.29004C17.7455 5.39277 17.787 5.49316 17.86 5.56621C17.9327 5.63891 18.033 5.68066 18.1362 5.68066Z" fill="#F0821B"/>
</g>
<defs>
<clipPath id="clip0_3266_25233">
<rect width="20" height="20" fill="white"/>
</clipPath>
</defs>
</svg>
