<svg width="107" height="40" viewBox="0 0 107 40" fill="none" xmlns="http://www.w3.org/2000/svg">
<rect x="1.23474" y="0.5" width="105.147" height="39" rx="4.5" fill="white"/>
<g clip-path="url(#clip0_3266_25310)">
<path d="M24.8394 23.389C27.4505 21.9553 29.4298 20.8628 29.6004 20.7779C30.1462 20.4877 30.7099 19.7195 29.6004 19.1228C29.2422 18.9351 27.3137 17.8767 24.8394 16.5117L21.4093 19.9758L24.8394 23.3889V23.389Z" fill="#FFD900"/>
<path d="M21.4093 19.9756L10.4875 30.9831C10.7439 31.0171 11.0333 30.9491 11.3745 30.7615C12.0909 30.3694 19.6854 26.222 24.8394 23.3895L21.4093 19.9756Z" fill="#F43249"/>
<path d="M21.4093 19.9755L24.8394 16.5284C24.8394 16.5284 12.1427 9.59926 11.3745 9.19023C11.0851 9.01881 10.7607 8.96789 10.4705 9.01881L21.4093 19.9755Z" fill="#00EE76"/>
<path d="M21.4093 19.9752L10.4705 9.01855C10.0266 9.1212 9.6514 9.51342 9.6514 10.3156V29.6857C9.6514 30.4199 9.9417 30.9487 10.4875 30.9997L21.4093 19.9752Z" fill="#00D3FF"/>
</g>
<path d="M43.2347 13.1537C43.0369 13.4372 42.7601 13.6497 42.4045 13.7914C42.0516 13.9305 41.6398 14 41.1692 14C40.6933 14 40.2708 13.889 39.9019 13.6671C39.5329 13.4425 39.2468 13.1243 39.0436 12.7126C38.843 12.3008 38.7401 11.8235 38.7347 11.2807V10.7714C38.7347 9.89171 38.9393 9.20989 39.3484 8.72594C39.7601 8.24198 40.3377 8 41.081 8C41.6906 8 42.1813 8.15642 42.5529 8.46925C42.9246 8.77941 43.1519 9.22059 43.2347 9.79278H42.4647C42.3203 9.02005 41.8604 8.63369 41.085 8.63369C40.569 8.63369 40.1773 8.81551 39.9099 9.17914C39.6452 9.54011 39.5115 10.0642 39.5088 10.7513V11.2286C39.5088 11.8837 39.6585 12.4051 39.958 12.7928C40.2575 13.1778 40.6625 13.3703 41.1732 13.3703C41.462 13.3703 41.7147 13.3382 41.9313 13.2741C42.1478 13.2099 42.327 13.1016 42.4687 12.9492V11.6377H41.1171V11.012H43.2347V13.1537Z" fill="black"/>
<path d="M46.2067 14C45.6184 14 45.1398 13.8075 44.7708 13.4225C44.4019 13.0348 44.2174 12.5174 44.2174 11.8703V11.734C44.2174 11.3035 44.2989 10.9198 44.462 10.5829C44.6278 10.2433 44.8577 9.97861 45.1519 9.78877C45.4486 9.59626 45.7695 9.5 46.1144 9.5C46.6786 9.5 47.1171 9.68583 47.4299 10.0575C47.7428 10.4291 47.8992 10.9612 47.8992 11.6537V11.9626H44.9593C44.97 12.3904 45.0944 12.7366 45.3323 13.0013C45.573 13.2634 45.8778 13.3944 46.2468 13.3944C46.5088 13.3944 46.7307 13.3409 46.9125 13.234C47.0944 13.127 47.2535 12.9853 47.3898 12.8088L47.843 13.1618C47.4794 13.7206 46.9339 14 46.2067 14ZM46.1144 10.1096C45.815 10.1096 45.5636 10.2193 45.3604 10.4385C45.1572 10.6551 45.0315 10.9599 44.9834 11.3529H47.1572V11.2968C47.1358 10.9198 47.0342 10.6283 46.8524 10.4225C46.6706 10.2139 46.4246 10.1096 46.1144 10.1096Z" fill="black"/>
<path d="M49.7682 8.52941V9.58021H50.5783V10.1537H49.7682V12.8449C49.7682 13.0187 49.8043 13.1497 49.8765 13.238C49.9486 13.3235 50.0716 13.3663 50.2454 13.3663C50.331 13.3663 50.4486 13.3503 50.5984 13.3182V13.9198C50.4032 13.9733 50.2134 14 50.0289 14C49.6973 14 49.4473 13.8997 49.2789 13.6992C49.1104 13.4987 49.0262 13.2139 49.0262 12.8449V10.1537H48.2361V9.58021H49.0262V8.52941H49.7682Z" fill="black"/>
<path d="M54.2922 13.9198H53.5502V9.58021H54.2922V13.9198ZM53.4901 8.42914C53.4901 8.30882 53.5262 8.20722 53.5984 8.12433C53.6732 8.04144 53.7829 8 53.9273 8C54.0716 8 54.1813 8.04144 54.2561 8.12433C54.331 8.20722 54.3684 8.30882 54.3684 8.42914C54.3684 8.54947 54.331 8.64973 54.2561 8.72995C54.1813 8.81016 54.0716 8.85027 53.9273 8.85027C53.7829 8.85027 53.6732 8.81016 53.5984 8.72995C53.5262 8.64973 53.4901 8.54947 53.4901 8.42914Z" fill="black"/>
<path d="M56.1853 9.58021L56.2093 10.1257C56.5409 9.70856 56.974 9.5 57.5088 9.5C58.4259 9.5 58.8885 10.0174 58.8965 11.0521V13.9198H58.1545V11.0481C58.1519 10.7353 58.0797 10.504 57.938 10.3543C57.7989 10.2045 57.581 10.1297 57.2842 10.1297C57.0436 10.1297 56.8323 10.1939 56.6505 10.3222C56.4687 10.4505 56.327 10.619 56.2254 10.8275V13.9198H55.4834V9.58021H56.1853Z" fill="black"/>
<path d="M61.8564 11.7099C61.8564 11.2848 61.9393 10.9024 62.1051 10.5628C62.2735 10.2233 62.5061 9.96123 62.8029 9.77674C63.1024 9.59225 63.4433 9.5 63.8257 9.5C64.4166 9.5 64.8938 9.70455 65.2575 10.1136C65.6238 10.5227 65.8069 11.0668 65.8069 11.746V11.7981C65.8069 12.2206 65.7254 12.6003 65.5623 12.9372C65.4019 13.2714 65.1706 13.5321 64.8684 13.7193C64.569 13.9064 64.224 14 63.8337 14C63.2454 14 62.7682 13.7955 62.4019 13.3864C62.0382 12.9773 61.8564 12.4358 61.8564 11.762V11.7099ZM62.6024 11.7981C62.6024 12.2794 62.7134 12.6658 62.9353 12.9572C63.1599 13.2487 63.4593 13.3944 63.8337 13.3944C64.2107 13.3944 64.5101 13.2473 64.7321 12.9532C64.954 12.6564 65.065 12.242 65.065 11.7099C65.065 11.234 64.9513 10.8489 64.724 10.5548C64.4994 10.258 64.2 10.1096 63.8257 10.1096C63.4593 10.1096 63.1639 10.2553 62.9393 10.5468C62.7147 10.8382 62.6024 11.2553 62.6024 11.7981Z" fill="black"/>
<path d="M67.4393 9.58021L67.4634 10.1257C67.7949 9.70856 68.2281 9.5 68.7628 9.5C69.6799 9.5 70.1425 10.0174 70.1505 11.0521V13.9198H69.4085V11.0481C69.4059 10.7353 69.3337 10.504 69.192 10.3543C69.0529 10.2045 68.835 10.1297 68.5382 10.1297C68.2976 10.1297 68.0863 10.1939 67.9045 10.3222C67.7227 10.4505 67.581 10.619 67.4794 10.8275V13.9198H66.7374V9.58021H67.4393Z" fill="black"/>
<path d="M58.6908 23.3227C57.0578 23.3227 55.7085 24.5865 55.7085 26.3192C55.7085 28.0378 57.0436 29.3157 58.691 29.3157C60.3382 29.3157 61.6732 28.052 61.6732 26.3192C61.6732 24.5865 60.3382 23.3227 58.6908 23.3227ZM58.6908 28.1234C57.7959 28.1234 57.0153 27.3704 57.0153 26.3059C57.0153 25.2265 57.7965 24.4884 58.6908 24.4884C59.5851 24.4884 60.3663 25.2265 60.3663 26.3059C60.3663 27.3704 59.5851 28.1234 58.6908 28.1234ZM52.2007 23.3227C50.5533 23.3227 49.2182 24.5865 49.2182 26.3192C49.2182 28.0378 50.5533 29.3157 52.2007 29.3157C53.8479 29.3157 55.183 28.052 55.183 26.3192C55.183 24.5865 53.8479 23.3227 52.2005 23.3227H52.2007ZM52.2007 28.1234C51.3056 28.1234 50.5252 27.3704 50.5252 26.3059C50.5252 25.2265 51.3064 24.4884 52.2007 24.4884C53.0956 24.4884 53.8762 25.2265 53.8762 26.3059C53.8762 27.3704 53.109 28.1234 52.2007 28.1234ZM44.4891 24.246V25.5097H47.4996C47.4141 26.2197 47.1733 26.7452 46.818 27.1005C46.378 27.5405 45.6962 28.0237 44.4891 28.0237C42.6284 28.0237 41.1945 26.5184 41.1945 24.6579C41.1945 22.7973 42.6291 21.2636 44.4891 21.2636C45.497 21.2636 46.2218 21.6614 46.7614 22.1728L47.6557 21.2778C46.9028 20.5537 45.8948 20 44.4891 20C41.9466 20 39.8163 22.0873 39.8163 24.6296C39.8163 27.172 41.9466 29.2593 44.4891 29.2593C45.8665 29.2593 46.8894 28.8051 47.7129 27.9525C48.5508 27.1146 48.8064 25.9356 48.8064 24.9843C48.8064 24.6862 48.7783 24.4162 48.7352 24.1889L44.4891 24.246ZM76.0453 25.2258C75.8037 24.5582 75.0372 23.3227 73.5029 23.3227C71.9687 23.3227 70.705 24.5301 70.705 26.3192C70.705 27.9948 71.9687 29.3157 73.645 29.3157C75.0083 29.3157 75.7895 28.4779 76.1159 27.9948L75.108 27.3132C74.7668 27.8105 74.3126 28.1367 73.645 28.1367C72.9775 28.1367 72.5091 27.8386 72.2104 27.2277L76.1725 25.5663L76.0453 25.2258ZM72.0118 26.2345C71.9837 25.0838 72.9069 24.4876 73.5595 24.4876C74.0851 24.4876 74.5112 24.7432 74.6671 25.1269L72.0118 26.2345ZM68.788 29.1172H70.0948V20.3404H68.788V29.1172ZM66.6582 23.9903H66.6158C66.3177 23.635 65.7639 23.3227 65.0533 23.3227C63.562 23.3227 62.2129 24.6437 62.2129 26.3192C62.2129 27.9948 63.5762 29.3017 65.0533 29.3017C65.7632 29.3017 66.317 28.9893 66.6158 28.6199H66.6582V29.0459C66.6582 30.1967 66.0471 30.8068 65.0674 30.8068C64.2721 30.8068 63.7748 30.2248 63.5762 29.7417L62.4404 30.2248C62.7667 31.0202 63.6334 32 65.0674 32C66.601 32 67.8937 31.0909 67.8937 28.8898V23.5072H66.6582V23.9903ZM65.167 28.1234C64.2721 28.1234 63.5197 27.3704 63.5197 26.32C63.5197 25.2696 64.2727 24.5024 65.167 24.5024C66.0479 24.5024 66.7577 25.2696 66.7577 26.32C66.7571 27.3563 66.0471 28.1234 65.167 28.1234ZM82.1379 20.3405H79.0135V29.1172H80.3204V25.7936H82.1379C83.5867 25.7936 85.0065 24.7425 85.0065 23.0671C85.0065 21.3916 83.5867 20.3404 82.1379 20.3404V20.3405ZM82.1802 24.5731H80.3337V21.5617H82.1802C83.1458 21.5617 83.7139 22.3712 83.7139 23.0669C83.7003 23.7487 83.1466 24.5731 82.1802 24.5731ZM90.2189 23.3086C89.2816 23.3086 88.3016 23.7205 87.904 24.6579L89.0547 25.141C89.3105 24.6579 89.7647 24.5017 90.2479 24.5017C90.9296 24.5017 91.6111 24.9135 91.6253 25.6375V25.7231C91.3836 25.5811 90.8871 25.3819 90.262 25.3819C89.0124 25.3819 87.7479 26.0778 87.7479 27.3563C87.7479 28.5351 88.7707 29.2876 89.9067 29.2876C90.7874 29.2876 91.27 28.8898 91.5681 28.4215H91.6105V29.1032H92.8741V25.737C92.8601 24.1893 91.71 23.3084 90.2189 23.3084V23.3086ZM90.0628 28.1092C89.6367 28.1092 89.0399 27.8959 89.0399 27.3711C89.0399 26.6893 89.7781 26.4337 90.4173 26.4337C90.9852 26.4337 91.2552 26.5615 91.6105 26.7318C91.511 27.5413 90.8151 28.1092 90.0628 28.1092ZM97.4332 23.5079L95.942 27.2997H95.8995L94.352 23.5078H92.9463L95.275 28.8191L93.9541 31.7874H95.3173L98.8817 23.5078H97.4331L97.4332 23.5079ZM85.7312 29.1172H87.038V20.3404H85.7312V29.1172Z" fill="black"/>
<rect x="1.23474" y="0.5" width="105.147" height="39" rx="4.5" stroke="#EEEEEE"/>
<defs>
<clipPath id="clip0_3266_25310">
<rect width="22" height="22" fill="white" transform="translate(8.73474 9)"/>
</clipPath>
</defs>
</svg>
