<svg width="104" height="38" viewBox="0 0 104 38" fill="none" xmlns="http://www.w3.org/2000/svg">
<rect x="1.38171" y="0.5" width="102.118" height="37" rx="4.5" fill="white"/>
<path d="M26.2342 19.6262C26.2236 17.8229 27.0442 16.4639 28.7013 15.4617C27.7745 14.1397 26.3723 13.4125 24.524 13.2724C22.774 13.1349 20.8593 14.2877 20.1583 14.2877C19.4174 14.2877 17.7231 13.32 16.39 13.32C13.6388 13.3623 10.715 15.504 10.715 19.8616C10.715 21.1492 10.9514 22.4792 11.4241 23.8489C12.0561 25.6522 14.3346 30.0705 16.7113 29.9991C17.9541 29.9701 18.8331 29.1213 20.4504 29.1213C22.0198 29.1213 22.8324 29.9991 24.2186 29.9991C26.6166 29.9648 28.6774 25.9483 29.2775 24.1398C26.0616 22.63 26.2342 19.7188 26.2342 19.6262ZM23.4432 11.5616C24.7896 9.96988 24.6674 8.52089 24.6276 8C23.4379 8.06875 22.0623 8.80646 21.2789 9.7134C20.4159 10.6864 19.9086 11.8895 20.0175 13.246C21.3028 13.3438 22.4766 12.6854 23.4432 11.5616Z" fill="black"/>
<path d="M37.8817 13.9229V8.30848H39.4665C39.955 8.30848 40.3869 8.41645 40.7622 8.63239C41.1375 8.84833 41.4267 9.15553 41.6298 9.55398C41.8354 9.95244 41.9396 10.41 41.9421 10.9267V11.2853C41.9421 11.8149 41.8393 12.2789 41.6336 12.6774C41.4306 13.0758 41.1388 13.3817 40.7583 13.5951C40.3804 13.8085 39.9396 13.9177 39.4357 13.9229H37.8817ZM38.6221 8.91774V13.3175H39.401C39.9717 13.3175 40.4151 13.1401 40.7313 12.7853C41.0501 12.4306 41.2095 11.9255 41.2095 11.2699V10.9422C41.2095 10.3046 41.0591 9.80977 40.7583 9.45758C40.4601 9.10283 40.036 8.92288 39.4858 8.91774H38.6221Z" fill="black"/>
<path d="M42.7635 11.7982C42.7635 11.3895 42.8432 11.0219 43.0025 10.6954C43.1645 10.3689 43.3881 10.117 43.6735 9.93959C43.9614 9.76221 44.2892 9.67352 44.6568 9.67352C45.2249 9.67352 45.6838 9.87018 46.0334 10.2635C46.3856 10.6568 46.5617 11.1799 46.5617 11.8329V11.883C46.5617 12.2892 46.4833 12.6542 46.3264 12.9781C46.1722 13.2995 45.9498 13.5501 45.6593 13.7301C45.3714 13.91 45.0398 14 44.6645 14C44.0989 14 43.6401 13.8033 43.2879 13.41C42.9383 13.0167 42.7635 12.4961 42.7635 11.8483V11.7982ZM43.4807 11.883C43.4807 12.3458 43.5874 12.7172 43.8007 12.9974C44.0167 13.2776 44.3046 13.4177 44.6645 13.4177C45.027 13.4177 45.3149 13.2764 45.5282 12.9936C45.7416 12.7082 45.8483 12.3098 45.8483 11.7982C45.8483 11.3406 45.739 10.9704 45.5205 10.6877C45.3046 10.4023 45.0167 10.2596 44.6568 10.2596C44.3046 10.2596 44.0205 10.3997 43.8046 10.6799C43.5887 10.9602 43.4807 11.3612 43.4807 11.883Z" fill="black"/>
<path d="M51.1504 12.9396L51.9524 9.75064H52.6658L51.4511 13.9229H50.8727L49.8586 10.7609L48.8714 13.9229H48.293L47.0822 9.75064H47.7917L48.6131 12.874L49.5848 9.75064H50.1593L51.1504 12.9396Z" fill="black"/>
<path d="M54.0694 9.75064L54.0925 10.2751C54.4113 9.87404 54.8277 9.67352 55.3419 9.67352C56.2236 9.67352 56.6683 10.171 56.6761 11.1658V13.9229H55.9627V11.162C55.9601 10.8612 55.8907 10.6388 55.7545 10.4949C55.6208 10.3509 55.4113 10.2789 55.1259 10.2789C54.8946 10.2789 54.6915 10.3406 54.5167 10.464C54.3419 10.5874 54.2056 10.7494 54.1079 10.9499V13.9229H53.3946V9.75064H54.0694Z" fill="black"/>
<path d="M58.527 13.9229H57.8136V8H58.527V13.9229Z" fill="black"/>
<path d="M59.4833 11.7982C59.4833 11.3895 59.5629 11.0219 59.7223 10.6954C59.8843 10.3689 60.1079 10.117 60.3933 9.93959C60.6812 9.76221 61.009 9.67352 61.3766 9.67352C61.9447 9.67352 62.4036 9.87018 62.7532 10.2635C63.1054 10.6568 63.2815 11.1799 63.2815 11.8329V11.883C63.2815 12.2892 63.2031 12.6542 63.0462 12.9781C62.892 13.2995 62.6696 13.5501 62.3791 13.7301C62.0912 13.91 61.7596 14 61.3843 14C60.8187 14 60.3599 13.8033 60.0077 13.41C59.6581 13.0167 59.4833 12.4961 59.4833 11.8483V11.7982ZM60.2005 11.883C60.2005 12.3458 60.3072 12.7172 60.5205 12.9974C60.7365 13.2776 61.0244 13.4177 61.3843 13.4177C61.7468 13.4177 62.0347 13.2764 62.248 12.9936C62.4614 12.7082 62.5681 12.3098 62.5681 11.7982C62.5681 11.3406 62.4588 10.9704 62.2403 10.6877C62.0244 10.4023 61.7365 10.2596 61.3766 10.2596C61.0244 10.2596 60.7403 10.3997 60.5244 10.6799C60.3085 10.9602 60.2005 11.3612 60.2005 11.883Z" fill="black"/>
<path d="M66.7519 13.9229C66.7108 13.8406 66.6773 13.6941 66.6516 13.4833C66.32 13.8278 65.9241 14 65.464 14C65.0527 14 64.7146 13.8843 64.4498 13.653C64.1876 13.419 64.0565 13.1234 64.0565 12.7661C64.0565 12.3316 64.221 11.9949 64.5501 11.7558C64.8817 11.5141 65.347 11.3933 65.946 11.3933H66.6401V11.0656C66.6401 10.8162 66.5655 10.6183 66.4164 10.4717C66.2673 10.3226 66.0475 10.2481 65.757 10.2481C65.5025 10.2481 65.2892 10.3123 65.1169 10.4409C64.9447 10.5694 64.8586 10.7249 64.8586 10.9075H64.1414C64.1414 10.6992 64.2146 10.4987 64.3611 10.3059C64.5103 10.1105 64.7108 9.9563 64.9627 9.84319C65.2172 9.73008 65.4961 9.67352 65.7995 9.67352C66.2802 9.67352 66.6568 9.79434 66.9293 10.036C67.2018 10.2751 67.3432 10.6054 67.3534 11.027V12.9473C67.3534 13.3303 67.4023 13.635 67.5 13.8612V13.9229H66.7519ZM65.5681 13.3792C65.7917 13.3792 66.0038 13.3213 66.2043 13.2057C66.4049 13.09 66.5501 12.9396 66.6401 12.7545V11.8985H66.0809C65.2069 11.8985 64.7699 12.1542 64.7699 12.6658C64.7699 12.8895 64.8444 13.0643 64.9935 13.1902C65.1426 13.3162 65.3342 13.3792 65.5681 13.3792Z" fill="black"/>
<path d="M68.2982 11.8021C68.2982 11.162 68.4498 10.6478 68.7532 10.2596C69.0565 9.86889 69.4537 9.67352 69.9447 9.67352C70.4331 9.67352 70.82 9.84062 71.1054 10.1748V8H71.8187V13.9229H71.1632L71.1285 13.4756C70.8432 13.8252 70.446 14 69.937 14C69.4537 14 69.0591 13.8021 68.7532 13.4062C68.4498 13.0103 68.2982 12.4936 68.2982 11.856V11.8021ZM69.0115 11.883C69.0115 12.356 69.1092 12.7262 69.3046 12.9936C69.5 13.2609 69.7699 13.3946 70.1144 13.3946C70.5668 13.3946 70.8971 13.1915 71.1054 12.7853V10.8689C70.892 10.4756 70.5642 10.2789 70.1221 10.2789C69.7725 10.2789 69.5 10.4139 69.3046 10.6838C69.1092 10.9537 69.0115 11.3535 69.0115 11.883Z" fill="black"/>
<path d="M74.6992 11.7982C74.6992 11.3895 74.7789 11.0219 74.9383 10.6954C75.1002 10.3689 75.3239 10.117 75.6092 9.93959C75.8971 9.76221 76.2249 9.67352 76.5925 9.67352C77.1606 9.67352 77.6195 9.87018 77.9691 10.2635C78.3213 10.6568 78.4974 11.1799 78.4974 11.8329V11.883C78.4974 12.2892 78.419 12.6542 78.2622 12.9781C78.1079 13.2995 77.8856 13.5501 77.5951 13.7301C77.3072 13.91 76.9755 14 76.6002 14C76.0347 14 75.5758 13.8033 75.2236 13.41C74.874 13.0167 74.6992 12.4961 74.6992 11.8483V11.7982ZM75.4164 11.883C75.4164 12.3458 75.5231 12.7172 75.7365 12.9974C75.9524 13.2776 76.2403 13.4177 76.6002 13.4177C76.9627 13.4177 77.2506 13.2764 77.464 12.9936C77.6773 12.7082 77.784 12.3098 77.784 11.7982C77.784 11.3406 77.6748 10.9704 77.4563 10.6877C77.2403 10.4023 76.9524 10.2596 76.5925 10.2596C76.2403 10.2596 75.9563 10.3997 75.7403 10.6799C75.5244 10.9602 75.4164 11.3612 75.4164 11.883Z" fill="black"/>
<path d="M80.0668 9.75064L80.0899 10.2751C80.4087 9.87404 80.8252 9.67352 81.3393 9.67352C82.221 9.67352 82.6658 10.171 82.6735 11.1658V13.9229H81.9601V11.162C81.9576 10.8612 81.8881 10.6388 81.7519 10.4949C81.6182 10.3509 81.4087 10.2789 81.1234 10.2789C80.892 10.2789 80.6889 10.3406 80.5141 10.464C80.3393 10.5874 80.2031 10.7494 80.1054 10.9499V13.9229H79.392V9.75064H80.0668Z" fill="black"/>
<path d="M86.6761 8.74036V9.75064H87.455V10.3021H86.6761V12.8895C86.6761 13.0566 86.7108 13.1825 86.7802 13.2674C86.8496 13.3496 86.9678 13.3907 87.1349 13.3907C87.2172 13.3907 87.3303 13.3753 87.4743 13.3445V13.9229C87.2866 13.9743 87.1041 14 86.9267 14C86.6079 14 86.3676 13.9036 86.2056 13.7108C86.0437 13.518 85.9627 13.2442 85.9627 12.8895V10.3021H85.2031V9.75064H85.9627V8.74036H86.6761Z" fill="black"/>
<path d="M89.0051 10.2558C89.3213 9.86761 89.7326 9.67352 90.239 9.67352C91.1208 9.67352 91.5655 10.171 91.5732 11.1658V13.9229H90.8599V11.162C90.8573 10.8612 90.7879 10.6388 90.6516 10.4949C90.518 10.3509 90.3085 10.2789 90.0231 10.2789C89.7917 10.2789 89.5887 10.3406 89.4138 10.464C89.239 10.5874 89.1028 10.7494 89.0051 10.9499V13.9229H88.2917V8H89.0051V10.2558Z" fill="black"/>
<path d="M94.3727 14C93.8072 14 93.347 13.8149 92.9923 13.4447C92.6375 13.072 92.4601 12.5746 92.4601 11.9524V11.8213C92.4601 11.4075 92.5385 11.0386 92.6953 10.7147C92.8547 10.3882 93.0758 10.1337 93.3586 9.95116C93.6439 9.76607 93.9524 9.67352 94.284 9.67352C94.8264 9.67352 95.248 9.85219 95.5488 10.2095C95.8496 10.5668 96 11.0784 96 11.7442V12.0411H93.1735C93.1838 12.4524 93.3033 12.7853 93.5321 13.0398C93.7635 13.2918 94.0565 13.4177 94.4113 13.4177C94.6632 13.4177 94.8766 13.3663 95.0514 13.2635C95.2262 13.1607 95.3791 13.0244 95.5103 12.8548L95.946 13.1941C95.5964 13.7314 95.0719 14 94.3727 14ZM94.284 10.2596C93.9961 10.2596 93.7545 10.365 93.5591 10.5758C93.3637 10.7841 93.2429 11.0771 93.1966 11.455H95.2866V11.401C95.266 11.0386 95.1683 10.7584 94.9935 10.5604C94.8187 10.3599 94.5822 10.2596 94.284 10.2596Z" fill="black"/>
<path d="M44.8119 27.6992H46.3806L42.9321 18.1587H41.3303L37.8817 27.6992H39.424L40.2977 25.1207H43.9382L44.8119 27.6992ZM42.0981 19.7455H42.1378L43.5609 23.9306H40.675L42.0981 19.7455Z" fill="black"/>
<path d="M50.8883 20.6314C49.8821 20.6314 49.0812 21.1405 48.6709 21.9405H48.6444V20.7438H47.261V30H48.6907V26.5554H48.7238C49.121 27.3289 49.9152 27.8182 50.9147 27.8182C52.6622 27.8182 53.8205 26.4231 53.8205 24.2215C53.8205 22.0198 52.6556 20.6314 50.8883 20.6314ZM50.511 26.6083C49.4122 26.6083 48.6841 25.6694 48.6841 24.2215C48.6841 22.7868 49.4188 21.8347 50.511 21.8347C51.6428 21.8347 52.3511 22.7669 52.3511 24.2215C52.3511 25.6826 51.6428 26.6083 50.511 26.6083Z" fill="black"/>
<path d="M58.5532 20.6314C57.5471 20.6314 56.7462 21.1405 56.3358 21.9405H56.3093V20.7438H54.9259V30H56.3556V26.5554H56.3887C56.7859 27.3289 57.5802 27.8182 58.5797 27.8182C60.3271 27.8182 61.4854 26.4231 61.4854 24.2215C61.4854 22.0198 60.3205 20.6314 58.5532 20.6314ZM58.1759 26.6083C57.0771 26.6083 56.349 25.6694 56.349 24.2215C56.349 22.7868 57.0837 21.8347 58.1759 21.8347C59.3078 21.8347 60.016 22.7669 60.016 24.2215C60.016 25.6826 59.3078 26.6083 58.1759 26.6083Z" fill="black"/>
<path d="M65.0929 25.0413C65.1855 26.7669 66.6152 27.8579 68.7334 27.8579C70.9971 27.8579 72.4202 26.7405 72.4202 24.9554C72.4202 23.5603 71.606 22.7736 69.6468 22.3107L68.5944 22.0529C67.3632 21.7488 66.8602 21.3521 66.8602 20.6777C66.8602 19.8314 67.6478 19.2496 68.7995 19.2496C69.9513 19.2496 70.7389 19.8248 70.825 20.7769H72.268C72.2216 19.1306 70.8382 18 68.8194 18C66.7807 18 65.3444 19.1306 65.3444 20.7769C65.3444 22.1058 66.1585 22.9256 67.9126 23.3488L69.1504 23.6463C70.3881 23.9504 70.911 24.3934 70.911 25.1339C70.911 25.9868 70.0439 26.6083 68.8393 26.6083C67.5816 26.6083 66.6616 25.9868 66.5557 25.0413H65.0929Z" fill="black"/>
<path d="M73.9955 19.0975V20.7438H72.9828V21.8744H73.9955V25.8678C73.9955 27.2099 74.5449 27.7455 75.9548 27.7455C76.2725 27.7455 76.5902 27.719 76.7491 27.6793V26.5488C76.6564 26.5686 76.4248 26.5818 76.2791 26.5818C75.6967 26.5818 75.4319 26.3107 75.4319 25.7091V21.8744H76.7557V20.7438H75.4319V19.0975H73.9955Z" fill="black"/>
<path d="M80.7537 27.8314C82.746 27.8314 84.0566 26.4628 84.0566 24.2215C84.0566 21.9868 82.7394 20.6182 80.7537 20.6182C78.7679 20.6182 77.4507 21.9868 77.4507 24.2215C77.4507 26.4628 78.7613 27.8314 80.7537 27.8314ZM80.7537 26.6545C79.635 26.6545 78.9069 25.7686 78.9069 24.2215C78.9069 22.681 79.635 21.795 80.7537 21.795C81.8723 21.795 82.6004 22.681 82.6004 24.2215C82.6004 25.7686 81.8789 26.6545 80.7537 26.6545Z" fill="black"/>
<path d="M85.162 27.6992H86.5917V23.5339C86.5917 22.5488 87.1609 21.9339 88.081 21.9339C88.359 21.9339 88.6105 21.9669 88.7231 22.0132V20.6843C88.6171 20.6645 88.4384 20.6314 88.2332 20.6314C87.4125 20.6314 86.7903 21.114 86.5586 21.9273H86.5255V20.7438H85.162V27.6992Z" fill="black"/>
<path d="M92.2179 21.7686C93.2174 21.7686 93.8926 22.5157 93.9257 23.5802H90.444C90.5168 22.5289 91.2185 21.7686 92.2179 21.7686ZM93.919 25.6562C93.7271 26.2645 93.1248 26.6744 92.3106 26.6744C91.1655 26.6744 90.4374 25.8744 90.4374 24.6645V24.5785H95.3554V24.0893C95.3554 21.9802 94.1507 20.6182 92.2179 20.6182C90.2521 20.6182 88.9944 22.0727 88.9944 24.2545C88.9944 26.4496 90.2322 27.8314 92.2775 27.8314C93.8727 27.8314 95.0774 26.9256 95.276 25.6562H93.919Z" fill="black"/>
<rect x="1.38171" y="0.5" width="102.118" height="37" rx="4.5" stroke="#EEEEEE"/>
</svg>
