<svg width="32" height="32" viewBox="0 0 32 32" fill="none" xmlns="http://www.w3.org/2000/svg">
<g clip-path="url(#clip0_136_65739)">
<path d="M8.5 28.5C9.325 28.5 10 27.825 10 27V21C10 20.1687 9.33125 19.5 8.5 19.5C7.66875 19.5 7 20.1687 7 21V27C7 27.825 7.675 28.5 8.5 28.5ZM8 21C8 20.725 8.225 20.5 8.5 20.5C8.775 20.5 9 20.725 9 21V27C9 27.275 8.775 27.5 8.5 27.5C8.225 27.5 8 27.275 8 27V21Z" fill="black"/>
<path d="M13.5 28.5C14.325 28.5 15 27.825 15 27V21C15 20.1687 14.3312 19.5 13.5 19.5C12.6687 19.5 12 20.1687 12 21V27C12 27.825 12.675 28.5 13.5 28.5ZM13 21C13 20.725 13.225 20.5 13.5 20.5C13.775 20.5 14 20.725 14 21V27C14 27.275 13.775 27.5 13.5 27.5C13.225 27.5 13 27.275 13 27V21Z" fill="black"/>
<path d="M18.5 28.5C19.325 28.5 20 27.825 20 27V21C20 20.1687 19.3312 19.5 18.5 19.5C17.6687 19.5 17 20.1687 17 21V27C17 27.825 17.675 28.5 18.5 28.5ZM18 21C18 20.725 18.225 20.5 18.5 20.5C18.775 20.5 19 20.725 19 21V27C19 27.275 18.775 27.5 18.5 27.5C18.225 27.5 18 27.275 18 27V21Z" fill="black"/>
<path d="M23.5 28.5C24.325 28.5 25 27.825 25 27V21C25 20.1687 24.3312 19.5 23.5 19.5C22.6687 19.5 22 20.1687 22 21V27C22 27.825 22.675 28.5 23.5 28.5ZM23 21C23 20.725 23.225 20.5 23.5 20.5C23.775 20.5 24 20.725 24 21V27C24 27.275 23.775 27.5 23.5 27.5C23.225 27.5 23 27.275 23 27V21Z" fill="black"/>
<path d="M29.8437 13.3375C29.8437 11.8687 29.2687 10.45 28.2499 9.39375V7.48125C28.2499 7.1875 28.0124 6.95 27.7187 6.95H27.4062L28.0937 6.2625C28.8874 5.46875 28.8874 4.175 28.0937 3.38125C27.2999 2.5875 26.0062 2.5875 25.2124 3.38125L21.6437 6.95H20.7999V5.35625C20.7999 5.24375 20.7624 5.13125 20.6937 5.0375L19.1999 3.05V1.09375C19.1999 0.8 18.9624 0.5625 18.6687 0.5625H11.7437C11.4499 0.5625 11.2124 0.8 11.2124 1.09375V3.04375L9.7249 5.03125C9.65615 5.125 9.61865 5.2375 9.61865 5.35V7.25625C9.2999 7.0625 8.93115 6.95625 8.55615 6.94375V4.81875C8.55615 4.525 8.31865 4.2875 8.0249 4.2875H4.81865C4.5249 4.2875 4.2874 4.525 4.2874 4.81875V6.95C3.0999 6.98125 2.1624 7.95 2.15615 9.1375V13.3375C0.981152 13.3375 0.0249023 14.2937 0.0249023 15.4688C0.0249023 16.6437 0.981152 17.6 2.15615 17.6H2.23115L3.9624 28.8563C4.1874 30.35 5.46865 31.45 6.9749 31.4438H25.0124C26.5187 31.45 27.8062 30.35 28.0249 28.8563L29.7562 17.6H29.8312C31.0062 17.6 31.9624 16.65 31.9624 15.4688C31.9687 14.2937 31.0187 13.3375 29.8437 13.3375ZM27.7312 10.425C28.4062 11.25 28.7749 12.275 28.7749 13.3375H26.6499C26.6687 12.2687 27.0499 11.2438 27.7312 10.425ZM25.2687 9.08125L26.3312 8.01875H27.1749V9.08125H25.2687ZM26.6062 10.1438C25.9562 11.0813 25.5999 12.1937 25.5812 13.3375H21.0062L24.1999 10.1438H26.6062ZM25.9562 4.13125C26.3312 3.75 26.9499 3.74375 27.3312 4.11875C27.7124 4.49375 27.7187 5.1125 27.3437 5.49375C27.3374 5.5 27.3374 5.5 27.3312 5.50625L16.6874 16.1562C16.3124 16.5375 15.6937 16.5438 15.3124 16.1688C14.9312 15.7938 14.9249 15.175 15.2999 14.7937C15.2999 14.7875 15.3062 14.7875 15.3124 14.7812L25.9562 4.13125ZM19.7249 8.8625V8.01875H20.5687L19.7249 8.8625ZM19.7249 5.53125V6.95H19.1937C18.8999 6.95 18.6624 7.1875 18.6624 7.48125V9.6125C18.6624 9.7 18.6812 9.7875 18.7249 9.8625L17.5999 10.9875V5.53125L18.6624 4.1125L19.7249 5.53125ZM12.2749 1.625H18.1312V2.6875H12.2749V1.625ZM12.0062 3.75625H17.5937L16.7937 4.81875H11.2062L12.0062 3.75625ZM10.6749 5.8875H16.5312V12.0562L15.2499 13.3375H10.6812V5.8875H10.6749ZM5.35615 5.35625H7.4874V6.95625H5.35615V5.35625ZM3.2249 12.275H8.5499V11.2125H3.2249V9.14375C3.2249 8.525 3.7249 8.01875 4.34365 8.01875H8.4874C9.10615 8.01875 9.60615 8.51875 9.60615 9.14375V13.3438H3.2249V12.275ZM2.15615 16.5312C1.56865 16.5312 1.09365 16.0562 1.09365 15.4688C1.09365 14.8813 1.56865 14.4062 2.15615 14.4062H14.2562C13.8562 15.0625 13.8562 15.8813 14.2562 16.5375H2.15615V16.5312ZM26.9812 28.6875C26.8374 29.6562 25.9999 30.375 25.0187 30.3687H6.98115C5.9999 30.375 5.1624 29.6625 5.01865 28.6875L3.3124 17.5938H28.6874L26.9812 28.6875ZM29.8437 16.5312H17.8187L19.9499 14.4H29.8437C30.4312 14.4 30.9062 14.875 30.9062 15.4625C30.9062 16.0562 30.4312 16.5312 29.8437 16.5312Z" fill="black"/>
<path d="M19.7251 5.5313V6.95005H19.1938C18.9001 6.95005 18.6626 7.18755 18.6626 7.4813V9.61255C18.6626 9.70005 18.6813 9.78755 18.7251 9.86255L17.6001 10.9875V5.5313L18.6626 4.11255L19.7251 5.5313Z" fill="#F6911E"/>
<path d="M18.1312 1.625H12.2749V2.6875H18.1312V1.625Z" fill="#F6911E"/>
<path d="M17.5936 3.75623L16.7998 4.81873H11.2061L12.0061 3.75623H17.5936Z" fill="#F6911E"/>
<path d="M16.5311 5.88745V12.05L15.2498 13.3375H10.6748V5.88745H16.5311Z" fill="#F6911E"/>
</g>
<defs>
<clipPath id="clip0_136_65739">
<rect width="32" height="32" fill="white"/>
</clipPath>
</defs>
</svg>
