<svg width="64" height="64" viewBox="0 0 64 64" fill="none" xmlns="http://www.w3.org/2000/svg">
<rect width="64" height="64" rx="32" fill="#FAFAFA"/>
<g clip-path="url(#clip0_136_65730)">
<path d="M47.5313 43.25C46.9688 42.5625 46.2313 42.0437 45.3938 41.75C44.2688 41.2562 40.6813 40.225 40.8751 38.9312C41.0001 38.1437 43.5438 38.4 43.5876 36.7312C43.6251 35.3312 41.7876 35.1312 41.1876 35.0875C35.8188 34.5562 30.3501 34.3875 25.0626 35.6562V27.125C29.2063 23.5375 33.7563 31.6313 38.5688 27.45C38.8063 27.2375 38.9438 26.9313 38.9313 26.6125V18.8813C38.9313 18.4938 38.7188 18.1313 38.3751 17.9438C38.0313 17.7563 37.6188 17.7688 37.2876 17.9813C33.3001 20.4688 28.8251 13.0125 24.1626 17.4C23.9001 17.6438 23.9938 16.9438 23.9938 35.9062C20.9813 36.7562 16.1563 38.6375 16.0001 41.75C15.8313 45.3687 21.0563 46.525 23.0251 46.9312C29.7876 48.4187 35.9938 48.1625 42.2001 47.1187C43.8376 46.8437 47.2501 46.3062 47.8063 44.7875C47.9751 44.2625 47.8751 43.6875 47.5313 43.25ZM25.0688 18.025C29.0126 14.6063 33.2438 21.7625 37.8688 18.8813V26.6187C33.9063 30.0625 29.6876 22.8875 25.0688 25.7625V18.025ZM24.5313 41.6C24.8251 41.6 25.0626 41.3625 25.0626 41.0687V40.5875C25.6938 40.7125 26.1313 41.0375 26.1313 41.3312C26.1313 41.6312 25.4501 42.1312 24.5313 42.1312C23.6126 42.1312 22.9313 41.7125 22.9313 41.3312C22.9313 40.95 23.3626 40.7062 24.0001 40.5875V41.0687C24.0001 41.3625 24.2376 41.6 24.5313 41.6ZM46.8063 44.45C46.4688 45.3562 42.9438 45.9312 42.0063 46.0937C35.9688 47.1125 29.9126 47.3812 23.2376 45.9125C18.9688 44.9812 16.9688 43.6375 17.0563 41.8062C17.1751 39.3812 21.6501 37.7125 23.9876 37.0062V39.4875C22.7563 39.6562 21.8563 40.4 21.8563 41.3187C21.8563 42.3875 23.0313 43.1875 24.5251 43.1875C26.0188 43.1875 27.1938 42.3687 27.1938 41.3187C27.1938 40.4 26.2938 39.6562 25.0626 39.4875V36.7125C30.2751 35.4062 35.7313 35.575 41.0626 36.1062C42.2626 36.225 42.5063 36.475 42.5001 36.6375C42.5001 37.3062 40.0438 37.0937 39.7938 38.7062C39.4688 41.0687 43.4688 42.0875 44.9751 42.7312C45.6251 42.9625 46.2001 43.3562 46.6501 43.875C46.8876 44.225 46.8188 44.3875 46.8063 44.45Z" fill="black"/>
<path d="M37.8688 18.8813V26.6188C33.9063 30.0626 29.6876 22.8876 25.0688 25.7626V18.0251C29.0063 14.6063 33.2438 21.7626 37.8688 18.8813Z" fill="#F6911E"/>
<path d="M37.869 40.5312C36.6878 40.5312 35.7378 41.4875 35.7378 42.6625C35.7378 43.8375 36.694 44.7938 37.869 44.7938C39.0503 44.7938 40.0003 43.8375 40.0003 42.6625C40.0003 41.4875 39.044 40.5312 37.869 40.5312ZM37.869 43.7313C37.2815 43.7313 36.8003 43.2563 36.8003 42.6625C36.8003 42.0688 37.2753 41.5938 37.869 41.5938C38.4565 41.5938 38.9378 42.0688 38.9378 42.6625C38.9378 43.2563 38.4565 43.7313 37.869 43.7313Z" fill="black"/>
</g>
<defs>
<clipPath id="clip0_136_65730">
<rect width="32" height="32" fill="white" transform="translate(16 16)"/>
</clipPath>
</defs>
</svg>
