<svg width="32" height="32" viewBox="0 0 32 32" fill="none" xmlns="http://www.w3.org/2000/svg">
<path d="M12.7189 27.5938H6.3252C5.21895 27.5938 4.3252 26.7 4.3252 25.5938V11.775C4.3252 10.6688 5.21895 9.77502 6.3252 9.77502H16.2564C17.3627 9.77502 18.2564 10.6688 18.2564 11.775V17.1C18.2564 17.375 18.0314 17.6 17.7564 17.6C17.4814 17.6 17.2564 17.375 17.2564 17.1V11.775C17.2564 11.225 16.8064 10.775 16.2564 10.775H6.3252C5.7752 10.775 5.3252 11.225 5.3252 11.775V25.5938C5.3252 26.1438 5.7752 26.5938 6.3252 26.5938H12.7189C12.9939 26.5938 13.2189 26.8188 13.2189 27.0938C13.2189 27.3688 12.9939 27.5938 12.7189 27.5938Z" fill="black"/>
<path d="M12.7189 23.5H4.8252C4.5502 23.5 4.3252 23.275 4.3252 23V20.1687C4.3252 19.8937 4.5502 19.6687 4.8252 19.6687H13.1377C13.4127 19.6687 13.6377 19.8937 13.6377 20.1687C13.6377 20.4437 13.4127 20.6687 13.1377 20.6687H5.3252V22.5H12.7189C12.9939 22.5 13.2189 22.725 13.2189 23C13.2189 23.275 12.9939 23.5 12.7189 23.5Z" fill="black"/>
<path d="M14.5628 10.775H8.00029C7.74404 10.775 7.53154 10.5875 7.50029 10.3313C7.49404 10.2188 7.49404 10.1125 7.50029 10V3.525C7.51904 2.40625 8.43154 1.5 9.55029 1.5H13.0503C14.1815 1.5 15.094 2.41875 15.094 3.55V10C15.094 10.125 15.094 10.2375 15.094 10.3562C15.0565 10.6125 14.8253 10.7937 14.5628 10.775ZM8.50029 9.775H14.0815V3.525C14.069 2.95625 13.6065 2.5 13.0378 2.5H9.53779C8.97529 2.5125 8.51904 2.9625 8.50029 3.525V9.775Z" fill="black"/>
<path d="M8.03125 30.5H7.96875C7.15 30.4813 6.5 29.8187 6.5 29V27.0938C6.5 26.8187 6.725 26.5938 7 26.5938H9C9.275 26.5938 9.5 26.8187 9.5 27.0938V29C9.5 29.8187 8.84375 30.4813 8.03125 30.5ZM7.5 27.5938V29C7.5125 29.2562 7.71875 29.4562 7.975 29.4688H8.0375C8.29375 29.4688 8.5 29.2562 8.5 29V27.5938H7.5Z" fill="black"/>
<path d="M13.1502 20.6688H4.8252C4.5502 20.6688 4.3252 20.4438 4.3252 20.1688V17.3313C4.3252 17.0563 4.5502 16.8313 4.8252 16.8313H17.1752C17.4502 16.8313 17.6752 17.0563 17.6752 17.3313C17.6752 17.6063 17.4502 17.8313 17.1752 17.8313H5.3252V19.6688H13.1377C13.4127 19.6688 13.6377 19.8938 13.6377 20.1688C13.6377 20.4376 13.4189 20.6626 13.1502 20.6688Z" fill="black"/>
<path d="M17.0002 17.8312H4.8252C4.5502 17.8312 4.3252 17.6062 4.3252 17.3312V14.5C4.3252 14.225 4.5502 14 4.8252 14H17.7564C18.0314 14 18.2564 14.225 18.2564 14.5V17.05C18.2564 17.325 18.0314 17.55 17.7564 17.55C17.6564 17.55 17.5564 17.5187 17.4689 17.4625C17.4127 17.675 17.2189 17.825 17.0002 17.8312ZM5.3377 16.8312H17.0002C17.0939 16.8312 17.1877 16.8625 17.2627 16.9125V15H5.3252L5.3377 16.8312Z" fill="black"/>
<path d="M13.4376 20.5687C13.4251 20.5812 13.4126 20.5875 13.4001 20.5937C13.3938 20.6 13.3876 20.6 13.3813 20.6062C13.3751 20.6125 13.3688 20.6125 13.3626 20.6187C13.3563 20.625 13.3501 20.625 13.3438 20.6312C13.3313 20.6375 13.3126 20.6437 13.3001 20.65C13.2876 20.6562 13.2688 20.6625 13.2501 20.6625C13.2438 20.6625 13.2313 20.6625 13.2251 20.6687C13.2188 20.675 13.2063 20.6687 13.2001 20.6687C13.1938 20.6687 13.1813 20.6687 13.1751 20.6687C13.1688 20.6687 13.1563 20.6687 13.1501 20.6687H12.3188C12.2626 20.85 12.2376 21.05 12.2376 21.25V22.5H12.7376C13.0126 22.5 13.2376 22.725 13.2376 23V21.2C13.2376 20.95 13.3251 20.7249 13.4751 20.5499C13.4501 20.5562 13.4438 20.5625 13.4376 20.5687ZM25.6751 19.2H14.2188C13.7251 19.2 13.2751 19.375 12.9313 19.6687C12.6251 19.925 12.4001 20.275 12.2938 20.6687C12.2501 20.8375 12.2251 21.0125 12.2251 21.2V28.525C12.2251 29.6312 13.1188 30.525 14.2251 30.525H25.6813C26.7876 30.525 27.6813 29.6312 27.6813 28.525V21.2C27.6751 20.0937 26.7813 19.2 25.6751 19.2ZM26.6751 28.525C26.6751 29.075 26.2251 29.525 25.6751 29.525H14.2188C13.6688 29.525 13.2188 29.075 13.2188 28.525V21.2C13.2188 20.95 13.3063 20.7249 13.4563 20.5499C13.4813 20.5249 13.5001 20.5 13.5251 20.475C13.7063 20.3062 13.9438 20.2062 14.2126 20.2062H25.6688C26.2188 20.2062 26.6688 20.6562 26.6688 21.2062V28.525H26.6751ZM13.4376 20.5687C13.4251 20.5812 13.4126 20.5875 13.4001 20.5937C13.3938 20.6 13.3876 20.6 13.3813 20.6062C13.3751 20.6125 13.3688 20.6125 13.3626 20.6187C13.3563 20.625 13.3501 20.625 13.3438 20.6312C13.3313 20.6375 13.3126 20.6437 13.3001 20.65C13.2876 20.6562 13.2688 20.6625 13.2501 20.6625C13.2438 20.6625 13.2313 20.6625 13.2251 20.6687C13.2188 20.675 13.2063 20.6687 13.2001 20.6687C13.1938 20.6687 13.1813 20.6687 13.1751 20.6687C13.1688 20.6687 13.1563 20.6687 13.1501 20.6687H12.3188C12.2626 20.85 12.2376 21.05 12.2376 21.25V22.5H12.7376C13.0126 22.5 13.2376 22.725 13.2376 23V21.2C13.2376 20.95 13.3251 20.7249 13.4751 20.5499C13.4501 20.5562 13.4438 20.5625 13.4376 20.5687Z" fill="black"/>
<path d="M26.675 25.0687V28.525C26.675 29.075 26.225 29.525 25.675 29.525H14.2188C13.6687 29.525 13.2188 29.075 13.2188 28.525V25.0687C13.525 25.25 13.8875 25.3562 14.2688 25.3562H14.5V25.9625C14.5063 26.725 15.125 27.3312 15.8875 27.325H15.95C16.7062 27.3187 17.3125 26.7062 17.3125 25.95V25.3562H22.575V25.95C22.575 26.7062 23.1875 27.325 23.95 27.325H24.0063C24.7563 27.3125 25.3563 26.7 25.3563 25.95V25.3562H25.6313C26.0063 25.3625 26.3687 25.2562 26.675 25.0687Z" fill="#F6911E"/>
<path d="M26.675 21.25V23.3125C26.675 23.8875 26.2063 24.3562 25.625 24.3562H25.35V22.8875C25.35 22.6125 25.125 22.3875 24.85 22.3875H23.0688C22.7938 22.3875 22.5688 22.6125 22.5688 22.8875V24.3562H17.3125V22.8875C17.3125 22.6125 17.0875 22.3875 16.8125 22.3875H15C14.725 22.3875 14.5 22.6125 14.5 22.8875V24.3562H14.2688C13.6938 24.3562 13.2188 23.8875 13.2188 23.3125V21.25C13.2188 20.6687 13.6875 20.2 14.2688 20.2H25.625C26.2063 20.2 26.675 20.6687 26.675 21.25Z" fill="#F6911E"/>
<path d="M27.675 21.25V23.3125C27.675 24.0562 27.275 24.7125 26.675 25.0687C26.3687 25.25 26.0063 25.3562 25.625 25.3562H24.9C24.625 25.3562 24.4 25.1312 24.4 24.8562C24.4 24.5812 24.625 24.3562 24.9 24.3562H25.625C26.2 24.3562 26.675 23.8875 26.675 23.3125V21.25C26.675 20.6687 26.2063 20.2 25.625 20.2H14.2688C13.6875 20.2 13.2188 20.6687 13.2188 21.25V23.3125C13.2188 23.8875 13.6875 24.3562 14.2688 24.3562H15C15.275 24.3562 15.5 24.5812 15.5 24.8562C15.5 25.1312 15.275 25.3562 15 25.3562H14.2688C13.8875 25.3562 13.525 25.25 13.2188 25.0687C12.6687 24.7437 12.2875 24.1625 12.225 23.5C12.2188 23.4375 12.2188 23.375 12.2188 23.3125V21.25C12.2188 21.05 12.25 20.8562 12.3 20.6687C12.4188 20.275 12.65 19.925 12.9625 19.6687C13.3187 19.375 13.7688 19.2 14.2688 19.2H25.625C26.7563 19.2 27.675 20.1187 27.675 21.25Z" fill="black"/>
<path d="M23.5438 24.8625C23.5438 25.1375 23.3188 25.3625 23.0438 25.3625H16.8188C16.5438 25.3625 16.3188 25.1375 16.3188 24.8625C16.3188 24.5875 16.5438 24.3625 16.8188 24.3625H23.0438C23.3188 24.3625 23.5438 24.5813 23.5438 24.8625Z" fill="black"/>
<path d="M22.0751 16.6H17.8188C17.6251 16.6 17.4376 16.6375 17.2626 16.7062C17.2626 16.7062 17.2563 16.7062 17.2501 16.7125C17.1688 16.7437 17.0938 16.7875 17.0188 16.8312C16.6688 17.05 16.4188 17.4062 16.3438 17.8312C16.3251 17.9187 16.3188 18.0062 16.3188 18.1V19.7C16.3188 19.975 16.5438 20.2 16.8188 20.2H23.0751C23.3501 20.2 23.5751 19.975 23.5751 19.7V18.1C23.5751 17.2687 22.9063 16.6 22.0751 16.6ZM17.3188 19.2V18.1C17.3188 17.825 17.5438 17.6 17.8188 17.6H22.0751C22.3501 17.6 22.5751 17.825 22.5751 18.1V19.2H17.3188Z" fill="black"/>
<path d="M24.8501 22.3875H23.0688C22.7938 22.3875 22.5688 22.6125 22.5688 22.8875V25.95C22.5688 26.7062 23.1813 27.325 23.9438 27.325H24.0001C24.7501 27.3125 25.3501 26.7 25.3501 25.95V22.8875C25.3501 22.6125 25.1251 22.3875 24.8501 22.3875ZM24.3751 25.9625C24.3751 26.1687 24.2063 26.3312 24.0001 26.325H23.9438C23.7376 26.325 23.5688 26.1562 23.5688 25.95V23.3875H24.3751V25.9625Z" fill="black"/>
<path d="M16.8125 22.3875H15C14.725 22.3875 14.5 22.6125 14.5 22.8875V25.9625C14.5063 26.7249 15.125 27.3312 15.8875 27.325H15.95C16.7062 27.3187 17.3125 26.7062 17.3125 25.95V22.8875C17.3125 22.6125 17.0875 22.3875 16.8125 22.3875ZM16.3125 25.9562C16.3125 26.1624 16.1437 26.3312 15.9375 26.3312H15.875C15.6688 26.3312 15.5 26.1624 15.5 25.9562V23.3937H16.3125V25.9562Z" fill="black"/>
</svg>
