<svg width="64" height="64" viewBox="0 0 64 64" fill="none" xmlns="http://www.w3.org/2000/svg">
<rect width="64" height="64" rx="32" fill="#FAFAFA"/>
<path d="M44.0725 28.4668C43.9646 28.5747 43.8989 28.7249 43.8989 28.8797C43.8989 29.0346 43.9599 29.1847 44.0725 29.2926C44.1805 29.4005 44.3306 29.4662 44.4854 29.4662C44.6403 29.4662 44.7904 29.4052 44.8983 29.2926C45.0063 29.1847 45.0673 29.0346 45.0673 28.8797C45.0673 28.7249 45.0063 28.5747 44.8983 28.4668C44.7904 28.3589 44.6403 28.2932 44.4854 28.2932C44.3353 28.2932 44.1805 28.3542 44.0725 28.4668Z" fill="black"/>
<path d="M44.0025 38.3202C44.8753 37.5883 45.4336 36.4903 45.4336 35.2657C45.4336 33.0698 43.6459 31.2821 41.45 31.2821H39.5075V25.4733L43.904 23.6434V26.5337C43.904 26.8575 44.1668 27.1202 44.4905 27.1202C44.8143 27.1202 45.077 26.8575 45.077 26.5337V22.7613C45.077 22.5267 44.9363 22.3108 44.7157 22.2217L32.2489 17.0276C32.1034 16.9666 31.9439 16.9666 31.7984 17.0276L19.3316 22.2217C19.111 22.3108 18.9703 22.5267 18.9703 22.7613C18.9703 22.9959 19.111 23.2117 19.3316 23.3009L24.5398 25.4686V31.2774H19.1814C18.8577 31.2774 18.5949 31.5402 18.5949 31.8639V38.0762H17.6002C17.2764 38.0762 17.0137 38.339 17.0137 38.6628V46.3953C17.0137 46.7191 17.2764 46.9818 17.6002 46.9818H42.5621C45.016 46.9818 47.0148 44.983 47.0148 42.529C47.0148 40.5818 45.7527 38.9208 44.0025 38.3202ZM41.45 32.4551C42.9984 32.4551 44.2606 33.7173 44.2606 35.2657C44.2606 36.8188 42.9984 38.0762 41.45 38.0762H36.1245C36.8424 37.3537 37.2882 36.3589 37.2882 35.2657C37.2882 34.4915 37.0676 33.7501 36.6594 33.1167L39.0008 32.4551H41.45ZM32.0893 33.1918L25.7128 31.4229V25.9613L31.7984 28.4997C31.8688 28.5279 31.9486 28.5466 32.0236 28.5466C32.0987 28.5466 32.1785 28.5325 32.2489 28.4997L38.3345 25.9613V31.4229L32.0893 33.1918ZM21.0817 22.766L32.0236 18.2053L41.558 22.1795H32.0236C31.6999 22.1795 31.4371 22.4422 31.4371 22.766C31.4371 23.0897 31.6999 23.3525 32.0236 23.3525H41.558L32.0236 27.3267L21.0817 22.766ZM19.7679 35.8522H27.7961C28.1198 35.8522 28.3826 35.5894 28.3826 35.2657C28.3826 34.9419 28.1198 34.6792 27.7961 34.6792H19.7679V32.4504H25.0418L31.9298 34.3648C31.9814 34.3789 32.033 34.3883 32.0893 34.3883C32.1409 34.3883 32.1972 34.3789 32.2489 34.3648L35.4582 33.4545C35.8852 33.9613 36.1151 34.5947 36.1151 35.2657C36.1151 36.8188 34.853 38.0762 33.3046 38.0762H19.7679V35.8522ZM31.3104 45.8135H18.1867V44.4059H31.0758C31.3996 44.4059 31.6624 44.1431 31.6624 43.8193C31.6624 43.4956 31.3996 43.2328 31.0758 43.2328H18.1867V41.8252H25.2764C25.6002 41.8252 25.8629 41.5625 25.8629 41.2387C25.8629 40.915 25.6002 40.6522 25.2764 40.6522H18.1867V39.2446H31.3104C33.1216 39.2446 34.5902 40.7179 34.5902 42.5243C34.5902 44.3308 33.1216 45.8135 31.3104 45.8135ZM42.5621 45.8135H34.3181C35.2049 44.9971 35.7632 43.8287 35.7632 42.5337C35.7632 41.234 35.2049 40.0657 34.3181 39.254H42.5621C44.3732 39.254 45.8418 40.7273 45.8418 42.5337C45.8418 44.3402 44.3732 45.8135 42.5621 45.8135Z" fill="black"/>
<path d="M32.0235 23.3525H41.5578L32.0235 27.3267L21.0815 22.766L32.0235 18.2053L41.5578 22.1795H32.0235C31.6997 22.1795 31.437 22.4423 31.437 22.766C31.437 23.0898 31.6997 23.3525 32.0235 23.3525Z" fill="#F6911E"/>
<path d="M28.0118 40.6569C27.857 40.6569 27.7068 40.7179 27.5989 40.8305C27.491 40.9384 27.4253 41.0885 27.4253 41.2434C27.4253 41.3982 27.4863 41.5484 27.5989 41.6563C27.7068 41.7642 27.857 41.8299 28.0118 41.8299C28.1666 41.8299 28.3168 41.7689 28.4247 41.6563C28.5326 41.5484 28.5983 41.3982 28.5983 41.2434C28.5983 41.0885 28.5373 40.9384 28.4247 40.8305C28.3168 40.7179 28.1666 40.6569 28.0118 40.6569Z" fill="black"/>
</svg>
