<svg width="32" height="32" viewBox="0 0 32 32" fill="none" xmlns="http://www.w3.org/2000/svg">
<path d="M19.8875 3.53745C17.8062 2.7187 15.6312 2.4687 13.5937 2.8187C11.7562 3.1312 10.5062 3.8312 9.86246 4.88745C9.59371 5.3312 9.43746 5.8312 9.39996 6.3812C8.33746 6.52495 7.36246 7.0312 6.62496 7.82495C4.09996 10.5375 2.87496 14.2312 3.26871 17.95C3.78746 22.7937 7.06871 26.8562 11.4875 28.5187C11.5 28.525 11.5125 28.5312 11.5312 28.5312C12.4812 28.8875 13.4875 29.1375 14.5312 29.25C15.025 29.3062 15.5187 29.3312 16.0062 29.3312C19.1625 29.3312 22.1375 28.2 24.5187 26.0687C27.225 23.6437 28.7812 20.1687 28.775 16.5875C28.7875 16.5 29.5812 7.36245 19.8875 3.53745ZM15.9062 24.0437C15.7937 23.8562 15.5812 23.7562 15.3625 23.7937L11.2375 24.4625C10.7625 24.5687 10.4062 24.55 10.2625 24.4125C10.1812 24.3312 10.0562 24.1 10.1625 23.4125C10.2687 22.7375 10.0875 22.0687 9.66871 21.575L10.0437 21.15C10.1625 21.0125 10.2062 20.8312 10.1562 20.6562C10.1062 20.4812 9.97496 20.3437 9.80621 20.2875L9.09996 20.0625L9.46246 19.325C9.54371 19.1625 9.53746 18.975 9.44371 18.825C9.35621 18.6687 9.19371 18.5687 9.01871 18.5625C8.53746 18.5312 8.13121 18.1562 7.90621 17.9062L9.93121 15.375C10.0437 15.2375 10.075 15.0562 10.025 14.8875C9.36246 12.6687 10.2 10.9687 10.7437 10.1687C11.525 11.0875 12.8375 12.1375 15.0375 12.8C16.1062 13.125 16.9875 13.6187 17.65 14.275C19.2312 15.8375 20.5312 18.6812 17.7562 23.4187C17.7437 23.4437 16.675 25.4687 14.0125 26.8375C14.9437 25.8687 15.7375 24.8312 15.8812 24.6375C16.0062 24.4625 16.0187 24.225 15.9062 24.0437ZM11.6562 27.4375C7.71246 25.8625 4.79996 22.1937 4.33746 17.8375C3.97496 14.425 5.09371 11.0437 7.41246 8.5562C7.96246 7.9687 8.68121 7.5812 9.46871 7.4562C9.51871 7.73745 9.58746 8.0187 9.68121 8.3187C9.69371 8.36245 9.79371 8.7312 10.0937 9.24995C9.49996 10.0187 8.20621 12.1 8.93121 14.9187L6.97496 17.3687C6.72496 17.6812 6.72496 18.1187 6.96871 18.4312C7.20621 18.7312 7.63746 19.1875 8.22496 19.4437L7.87496 20.15C7.80621 20.2875 7.79996 20.45 7.86246 20.5937C7.92496 20.7375 8.04371 20.8437 8.19371 20.8937L8.70621 21.0562L8.52496 21.2625C8.42496 21.375 8.39371 21.5437 8.41246 21.6937C8.43121 21.8437 8.53121 21.9937 8.66246 22.0812C9.01871 22.3375 9.18746 22.7812 9.11246 23.2437C9.06246 23.575 8.89996 24.5875 9.53121 25.1875C9.95621 25.5875 10.6062 25.6937 11.4375 25.5125L14.1687 25.0687C13.4 25.975 12.375 27.05 11.6562 27.4375ZM27.7187 16.5375C27.7187 19.8687 26.2937 23.05 23.8125 25.275C21.2937 27.5312 18.0437 28.5687 14.6562 28.1875C14.4 28.1562 14.1437 28.125 13.8937 28.075C17.3062 26.5812 18.6437 24.025 18.6937 23.925C21.9687 18.35 19.9187 15.0062 18.4 13.5125C17.6125 12.7312 16.5812 12.15 15.3437 11.7687C11.4375 10.5812 10.7375 8.1437 10.7 8.0062C10.3562 6.94995 10.3812 6.0812 10.775 5.4312C11.3625 4.4562 12.7312 4.03745 13.775 3.86245C15.6187 3.5437 17.6 3.77495 19.4937 4.52495C28.425 8.0562 27.75 16.1437 27.7187 16.5375Z" fill="black"/>
<path d="M27.7186 16.5375C27.7186 19.8687 26.2936 23.05 23.8123 25.275C21.2936 27.5312 18.0436 28.5687 14.6561 28.1875C14.3998 28.1562 14.1436 28.125 13.8936 28.075C17.3061 26.5812 18.6436 24.025 18.6936 23.925C21.9686 18.35 19.9186 15.0062 18.3998 13.5125C17.6123 12.7312 16.5811 12.15 15.3436 11.7687C11.4373 10.5812 10.7373 8.14371 10.6998 8.00621C10.3561 6.94996 10.3811 6.08121 10.7748 5.43121C11.3623 4.45621 12.7311 4.03746 13.7748 3.86246C15.6186 3.54371 17.5998 3.77496 19.4936 4.52496C28.4248 8.05621 27.7498 16.1437 27.7186 16.5375Z" fill="#F6911E"/>
</svg>
