<svg width="32" height="32" viewBox="0 0 32 32" fill="none" xmlns="http://www.w3.org/2000/svg">
<path d="M30.9437 16.275C30.4999 15.2625 29.6874 14.4625 28.6749 14.0313C28.2499 13.8813 27.7999 13.8 27.3437 13.7813C27.2562 13.775 27.1437 13.7688 27.0562 13.7563C27.0999 13.6938 27.1499 13.6313 27.1937 13.575C27.5687 13.1563 27.8374 12.6563 27.9812 12.1125C28.2687 10.8438 28.3374 8.46254 26.7374 7.56254C26.0312 7.18129 25.1937 7.11254 24.4374 7.36879C23.4249 7.66879 22.5749 8.35004 22.0499 9.26879C21.4812 10.3688 21.7874 11.4875 22.0312 12.3875C22.1812 12.9438 22.3249 13.4688 22.1499 13.6375C21.9437 13.8375 21.3187 13.6688 20.7187 13.5063C20.5312 13.4563 20.3374 13.4063 20.1437 13.3563C19.4999 11.9188 18.0687 11 16.4999 11H16.4562C16.4062 10.6188 16.3124 10.25 16.1749 9.88754C15.1749 7.35629 12.3812 6.07504 10.5437 6.61879C10.0187 6.78129 9.5499 7.08754 9.18115 7.50004C8.7749 6.91254 8.24365 6.42504 7.6249 6.05629C6.2124 5.30629 4.55615 5.18129 3.04365 5.70629C2.1999 5.93754 1.4999 6.51879 1.11865 7.30629C0.649902 8.48754 1.51865 9.82504 3.09365 12.2625C3.2624 12.525 3.4374 12.775 3.6124 13.0313C3.1999 13.1875 2.79365 13.3688 2.40615 13.5813C1.86865 13.8375 1.4374 14.2688 1.18115 14.8063C1.0249 15.3563 0.962402 15.925 0.993652 16.4938C1.00615 24.5 7.4874 30.9813 15.4937 30.9938H16.4937C24.4999 30.9813 30.9812 24.5 30.9937 16.4938C30.9937 16.425 30.9749 16.3438 30.9437 16.275ZM20.4624 14.475C21.3312 14.7125 22.2312 14.9563 22.8499 14.3625C23.4562 13.7813 23.2249 12.9375 23.0062 12.125C22.7812 11.3125 22.5562 10.4813 22.9499 9.73129C23.3499 9.05629 23.9812 8.55629 24.7312 8.33129C25.2312 8.15629 25.7874 8.20004 26.2562 8.43754C27.2624 9.00629 27.2624 10.8125 27.0124 11.8875C26.8999 12.2813 26.6937 12.6438 26.4187 12.9438C26.1437 13.2875 25.8062 13.7125 26.0562 14.2188C26.2999 14.7 26.8187 14.7375 27.2749 14.775C27.6312 14.7875 27.9874 14.85 28.3249 14.9625C28.8437 15.175 29.2937 15.5313 29.6062 15.9938H24.5999C24.7124 15.3625 24.8437 14.7313 24.9874 14.1063C25.2624 12.9438 25.5937 11.7813 25.9749 10.65L25.0249 10.3313C24.6312 11.4938 24.2937 12.6875 24.0124 13.875C23.8499 14.575 23.7062 15.2813 23.5812 15.9875H20.3687C20.5062 15.5 20.5374 14.9813 20.4624 14.475ZM16.9999 13V12.0438C18.1374 12.2375 19.0624 13.0688 19.3812 14.175L18.3374 14.525L18.6562 15.475L19.4874 15.2C19.4687 15.475 19.4187 15.7438 19.3249 16H13.6687C13.5562 15.6813 13.4937 15.3438 13.4937 15C13.4937 14.9 13.4999 14.8 13.5062 14.7L14.3312 14.975L14.6499 14.025L13.7749 13.7313C14.1937 12.8375 15.0187 12.2063 15.9937 12.0438V13H16.9999ZM10.8249 7.58129C12.1874 7.17504 14.4624 8.28129 15.2437 10.2563C15.3562 10.5375 15.4312 10.8375 15.4687 11.1375C13.3499 11.6938 12.0812 13.8563 12.6249 15.9813L12.5812 16H10.2749C10.4874 15.775 10.6999 15.55 10.8874 15.3125C12.0687 13.7938 12.7999 11.9688 12.9937 10.0563L11.9999 9.95004C11.8249 11.675 11.1687 13.3188 10.1062 14.6938C10.0812 14.7313 10.0437 14.7625 10.0187 14.7938C10.7562 12.7125 10.6499 10.425 9.7249 8.41879C9.99365 8.02504 10.3812 7.73754 10.8249 7.58129ZM2.05615 7.68129C2.3374 7.17504 2.8124 6.80629 3.38115 6.66254C4.61865 6.23754 5.96865 6.33754 7.13115 6.93129C9.5249 8.31254 10.0687 12.2938 8.94365 14.7938C8.90615 14.8813 8.85615 14.9625 8.8124 15.0438C8.71865 14.6375 8.60615 14.2313 8.4749 13.8375C7.65615 11.4438 6.23115 9.30004 4.3374 7.62504L3.66865 8.36879C5.4374 9.93129 6.76865 11.925 7.53115 14.1563C7.73115 14.7563 7.8874 15.375 7.99365 16H7.1249C5.96865 14.65 4.90615 13.2188 3.9374 11.7313C2.51865 9.53129 1.7874 8.35629 2.05615 7.68129ZM2.0999 15.2188C2.26865 14.8813 2.54365 14.6188 2.8874 14.4688C3.3124 14.2375 3.7499 14.0438 4.20615 13.8938C4.7249 14.6188 5.2624 15.3188 5.8249 16H2.0249C1.9749 15.7375 1.9999 15.4688 2.0999 15.2188ZM16.4999 30H15.4999C8.24365 29.9938 2.2874 24.25 2.00615 17H29.9874C29.7124 24.25 23.7562 29.9938 16.4999 30Z" fill="black"/>
<path d="M12.6251 15.9812L12.5813 16H10.2751C10.4876 15.775 10.7001 15.55 10.8876 15.3125C12.0688 13.7937 12.8001 11.9687 12.9938 10.0562L12.0001 9.95C11.8251 11.675 11.1688 13.3187 10.1063 14.6937C10.0813 14.7312 10.0438 14.7625 10.0188 14.7937C10.7563 12.7125 10.6501 10.425 9.7251 8.41875C9.99385 8.03125 10.3813 7.7375 10.8251 7.5875C12.1876 7.18125 14.4626 8.2875 15.2438 10.2625C15.3563 10.5437 15.4313 10.8437 15.4688 11.1437C13.3501 11.6937 12.0813 13.8625 12.6251 15.9812Z" fill="#F6911E"/>
<path d="M8.94343 14.7938C8.90593 14.8813 8.85593 14.9626 8.81218 15.0438C8.71843 14.6376 8.60593 14.2313 8.47468 13.8376C7.65593 11.4438 6.23093 9.30009 4.33718 7.62509L3.66843 8.36884C5.43718 9.93134 6.76843 11.9251 7.53093 14.1563C7.73093 14.7563 7.88718 15.3751 7.99343 16.0001H7.12468C5.96843 14.6501 4.90593 13.2188 3.93718 11.7313C2.51843 9.53759 1.78718 8.35634 2.05593 7.68759C2.33718 7.18134 2.81218 6.81259 3.38093 6.66884C4.61843 6.24384 5.96843 6.34384 7.13093 6.93759C9.51843 8.31259 10.0684 12.2938 8.94343 14.7938Z" fill="#F6911E"/>
<path d="M17 14H16V15H17V14Z" fill="black"/>
</svg>
