<svg width="64" height="64" viewBox="0 0 64 64" fill="none" xmlns="http://www.w3.org/2000/svg">
<rect width="64" height="64" rx="32" fill="#FAFAFA"/>
<path d="M35.8875 19.5375C33.8062 18.7187 31.6312 18.4687 29.5937 18.8187C27.7562 19.1312 26.5062 19.8312 25.8625 20.8875C25.5937 21.3312 25.4375 21.8312 25.4 22.3812C24.3375 22.525 23.3625 23.0312 22.625 23.825C20.1 26.5375 18.875 30.2312 19.2687 33.95C19.7875 38.7937 23.0687 42.8562 27.4875 44.5187C27.5 44.525 27.5125 44.5312 27.5312 44.5312C28.4812 44.8875 29.4875 45.1375 30.5312 45.25C31.025 45.3062 31.5187 45.3312 32.0062 45.3312C35.1625 45.3312 38.1375 44.2 40.5187 42.0687C43.225 39.6437 44.7812 36.1687 44.775 32.5875C44.7875 32.5 45.5812 23.3625 35.8875 19.5375ZM31.9062 40.0437C31.7937 39.8562 31.5812 39.7562 31.3625 39.7937L27.2375 40.4625C26.7625 40.5687 26.4062 40.55 26.2625 40.4125C26.1812 40.3312 26.0562 40.1 26.1625 39.4125C26.2687 38.7375 26.0875 38.0687 25.6687 37.575L26.0437 37.15C26.1625 37.0125 26.2062 36.8312 26.1562 36.6562C26.1062 36.4812 25.975 36.3437 25.8062 36.2875L25.1 36.0625L25.4625 35.325C25.5437 35.1625 25.5375 34.975 25.4437 34.825C25.3562 34.6687 25.1937 34.5687 25.0187 34.5625C24.5375 34.5312 24.1312 34.1562 23.9062 33.9062L25.9312 31.375C26.0437 31.2375 26.075 31.0562 26.025 30.8875C25.3625 28.6687 26.2 26.9687 26.7437 26.1687C27.525 27.0875 28.8375 28.1375 31.0375 28.8C32.1062 29.125 32.9875 29.6187 33.65 30.275C35.2312 31.8375 36.5312 34.6812 33.7562 39.4187C33.7437 39.4437 32.675 41.4687 30.0125 42.8375C30.9437 41.8687 31.7375 40.8312 31.8812 40.6375C32.0062 40.4625 32.0187 40.225 31.9062 40.0437ZM27.6562 43.4375C23.7125 41.8625 20.8 38.1937 20.3375 33.8375C19.975 30.425 21.0937 27.0437 23.4125 24.5562C23.9625 23.9687 24.6812 23.5812 25.4687 23.4562C25.5187 23.7375 25.5875 24.0187 25.6812 24.3187C25.6937 24.3625 25.7937 24.7312 26.0937 25.25C25.5 26.0187 24.2062 28.1 24.9312 30.9187L22.975 33.3687C22.725 33.6812 22.725 34.1187 22.9687 34.4312C23.2062 34.7312 23.6375 35.1875 24.225 35.4437L23.875 36.15C23.8062 36.2875 23.8 36.45 23.8625 36.5937C23.925 36.7375 24.0437 36.8437 24.1937 36.8937L24.7062 37.0562L24.525 37.2625C24.425 37.375 24.3937 37.5437 24.4125 37.6937C24.4312 37.8437 24.5312 37.9937 24.6625 38.0812C25.0187 38.3375 25.1875 38.7812 25.1125 39.2437C25.0625 39.575 24.9 40.5875 25.5312 41.1875C25.9562 41.5875 26.6062 41.6937 27.4375 41.5125L30.1687 41.0687C29.4 41.975 28.375 43.05 27.6562 43.4375ZM43.7187 32.5375C43.7187 35.8687 42.2937 39.05 39.8125 41.275C37.2937 43.5312 34.0437 44.5687 30.6562 44.1875C30.4 44.1562 30.1437 44.125 29.8937 44.075C33.3062 42.5812 34.6437 40.025 34.6937 39.925C37.9687 34.35 35.9187 31.0062 34.4 29.5125C33.6125 28.7312 32.5812 28.15 31.3437 27.7687C27.4375 26.5812 26.7375 24.1437 26.7 24.0062C26.3562 22.95 26.3812 22.0812 26.775 21.4312C27.3625 20.4562 28.7312 20.0375 29.775 19.8625C31.6187 19.5437 33.6 19.775 35.4937 20.525C44.425 24.0562 43.75 32.1437 43.7187 32.5375Z" fill="black"/>
<path d="M43.7186 32.5375C43.7186 35.8687 42.2936 39.05 39.8123 41.275C37.2936 43.5312 34.0436 44.5687 30.6561 44.1875C30.3998 44.1562 30.1436 44.125 29.8936 44.075C33.3061 42.5812 34.6436 40.025 34.6936 39.925C37.9686 34.35 35.9186 31.0062 34.3998 29.5125C33.6123 28.7312 32.5811 28.15 31.3436 27.7687C27.4373 26.5812 26.7373 24.1437 26.6998 24.0062C26.3561 22.95 26.3811 22.0812 26.7748 21.4312C27.3623 20.4562 28.7311 20.0375 29.7748 19.8625C31.6186 19.5437 33.5998 19.775 35.4936 20.525C44.4248 24.0562 43.7498 32.1437 43.7186 32.5375Z" fill="#F6911E"/>
</svg>
