<svg width="24" height="24" viewBox="0 0 24 24" fill="none" xmlns="http://www.w3.org/2000/svg">
<path d="M9.57187 1.07812H2.89687C1.86094 1.07812 1.07812 1.93125 1.07812 2.89687V9.57187C1.08281 10.6031 1.93125 11.3906 2.89687 11.3906H9.57187C10.6125 11.3906 11.3906 10.5375 11.3906 9.57187V2.89687C11.3906 1.86562 10.5422 1.07812 9.57187 1.07812ZM10.1812 9.57187C10.1812 9.93281 9.88594 10.1812 9.57187 10.1812H2.89687C2.53594 10.1812 2.29219 9.88594 2.29219 9.57187V2.89687C2.29219 2.54531 2.5875 2.29219 2.89687 2.29219H9.57187C9.94219 2.29219 10.1812 2.5875 10.1812 2.89687V9.57187ZM21.1031 1.07812H14.4281C13.3875 1.07812 12.6094 1.93125 12.6094 2.89687V9.57187C12.6141 10.6031 13.4625 11.3906 14.4281 11.3906H21.1031C22.1438 11.3906 22.9219 10.5375 22.9219 9.57187V2.89687C22.9172 1.86562 22.0688 1.07812 21.1031 1.07812ZM21.7078 9.57187C21.7078 9.93281 21.4125 10.1812 21.1031 10.1812H14.4281C14.0672 10.1812 13.8187 9.88594 13.8187 9.57187V2.89687C13.8187 2.54531 14.1141 2.29219 14.4281 2.29219H21.1031C21.4734 2.29219 21.7078 2.5875 21.7078 2.89687V9.57187ZM9.57187 12.6047H2.89687C1.85625 12.6047 1.07812 13.4578 1.07812 14.4234V21.0984C1.08281 22.1297 1.93125 22.9172 2.89687 22.9172H9.57187C10.6125 22.9172 11.3906 22.0641 11.3906 21.0984V14.4281C11.3906 13.3969 10.5422 12.6047 9.57187 12.6047ZM10.1812 21.1031C10.1812 21.4641 9.88594 21.7078 9.57187 21.7078H2.89687C2.53594 21.7078 2.29219 21.4125 2.29219 21.1031V14.4281C2.29219 14.0719 2.5875 13.8187 2.89687 13.8187H9.57187C9.94219 13.8187 10.1812 14.1141 10.1812 14.4281V21.1031ZM21.1031 12.6047H14.4281C13.3875 12.6047 12.6094 13.4578 12.6094 14.4234V21.0984C12.6141 22.1297 13.4625 22.9172 14.4281 22.9172H21.1031C22.1438 22.9172 22.9219 22.0641 22.9219 21.0984V14.4281C22.9172 13.3969 22.0688 12.6047 21.1031 12.6047ZM21.7078 21.1031C21.7078 21.4641 21.4125 21.7078 21.1031 21.7078H14.4281C14.0672 21.7078 13.8187 21.4125 13.8187 21.1031V14.4281C13.8187 14.0719 14.1141 13.8187 14.4281 13.8187H21.1031C21.4734 13.8187 21.7078 14.1141 21.7078 14.4281V21.1031Z" fill="black"/>
<path d="M21.7079 2.89692V9.57192C21.7079 9.93286 21.4126 10.1813 21.1032 10.1813H14.4282C14.0673 10.1813 13.8188 9.88599 13.8188 9.57192V2.89692C13.8188 2.54536 14.1142 2.29224 14.4282 2.29224H21.1032C21.4688 2.29224 21.7079 2.58755 21.7079 2.89692Z" fill="#F6911E"/>
</svg>
