<svg width="32" height="32" viewBox="0 0 32 32" fill="none" xmlns="http://www.w3.org/2000/svg">
<g clip-path="url(#clip0_136_65735)">
<path fill-rule="evenodd" clip-rule="evenodd" d="M26.2876 23.3687C25.0501 23.3687 24.0376 24.375 24.0376 25.6187C24.0376 26.8562 25.0501 27.8625 26.2876 27.8625C27.5251 27.8625 28.5376 26.8562 28.5376 25.6187C28.5376 24.375 27.5251 23.3687 26.2876 23.3687ZM26.2876 26.7812C24.7501 26.7812 24.7501 24.4562 26.2876 24.4562C27.8126 24.4562 27.8126 26.7812 26.2876 26.7812ZM26.2876 23.3687C25.0501 23.3687 24.0376 24.375 24.0376 25.6187C24.0376 26.8562 25.0501 27.8625 26.2876 27.8625C27.5251 27.8625 28.5376 26.8562 28.5376 25.6187C28.5376 24.375 27.5251 23.3687 26.2876 23.3687ZM26.2876 26.7812C24.7501 26.7812 24.7501 24.4562 26.2876 24.4562C27.8126 24.4562 27.8126 26.7812 26.2876 26.7812ZM20.0688 23.4062H4.00635C3.70635 23.4062 3.4626 23.65 3.4626 23.95V27.2812C3.4626 27.5812 3.70635 27.825 4.00635 27.825H20.0688C20.3688 27.825 20.6126 27.5812 20.6126 27.2812V23.95C20.6188 23.65 20.3751 23.4062 20.0688 23.4062ZM19.5251 26.7437H4.55635V24.4937H19.5251V26.7437ZM15.9938 6.60623C13.5626 6.60623 11.5813 8.58123 11.5813 11.0187C11.5813 13.4562 13.5688 15.4312 15.9938 15.4312C18.4313 15.4312 20.4188 13.45 20.4188 11.0187C20.4188 8.58747 18.4313 6.60623 15.9938 6.60623ZM15.9938 14.35C14.1626 14.35 12.6626 12.8562 12.6626 11.0187C12.6626 9.18123 14.1626 7.68748 15.9938 7.68748C17.8313 7.68748 19.3313 9.18123 19.3313 11.0187C19.3313 12.8562 17.8313 14.35 15.9938 14.35ZM15.9938 6.60623C13.5626 6.60623 11.5813 8.58123 11.5813 11.0187C11.5813 13.4562 13.5688 15.4312 15.9938 15.4312C18.4313 15.4312 20.4188 13.45 20.4188 11.0187C20.4188 8.58747 18.4313 6.60623 15.9938 6.60623ZM15.9938 14.35C14.1626 14.35 12.6626 12.8562 12.6626 11.0187C12.6626 9.18123 14.1626 7.68748 15.9938 7.68748C17.8313 7.68748 19.3313 9.18123 19.3313 11.0187C19.3313 12.8562 17.8313 14.35 15.9938 14.35ZM20.0688 23.4062H4.00635C3.70635 23.4062 3.4626 23.65 3.4626 23.95V27.2812C3.4626 27.5812 3.70635 27.825 4.00635 27.825H20.0688C20.3688 27.825 20.6126 27.5812 20.6126 27.2812V23.95C20.6188 23.65 20.3751 23.4062 20.0688 23.4062ZM19.5251 26.7437H4.55635V24.4937H19.5251V26.7437ZM26.2876 23.3687C25.0501 23.3687 24.0376 24.375 24.0376 25.6187C24.0376 26.8562 25.0501 27.8625 26.2876 27.8625C27.5251 27.8625 28.5376 26.8562 28.5376 25.6187C28.5376 24.375 27.5251 23.3687 26.2876 23.3687ZM26.2876 26.7812C24.7501 26.7812 24.7501 24.4562 26.2876 24.4562C27.8126 24.4562 27.8126 26.7812 26.2876 26.7812ZM26.2876 23.3687C25.0501 23.3687 24.0376 24.375 24.0376 25.6187C24.0376 26.8562 25.0501 27.8625 26.2876 27.8625C27.5251 27.8625 28.5376 26.8562 28.5376 25.6187C28.5376 24.375 27.5251 23.3687 26.2876 23.3687ZM26.2876 26.7812C24.7501 26.7812 24.7501 24.4562 26.2876 24.4562C27.8126 24.4562 27.8126 26.7812 26.2876 26.7812ZM20.0688 23.4062H4.00635C3.70635 23.4062 3.4626 23.65 3.4626 23.95V27.2812C3.4626 27.5812 3.70635 27.825 4.00635 27.825H20.0688C20.3688 27.825 20.6126 27.5812 20.6126 27.2812V23.95C20.6188 23.65 20.3751 23.4062 20.0688 23.4062ZM19.5251 26.7437H4.55635V24.4937H19.5251V26.7437ZM15.9938 6.60623C13.5626 6.60623 11.5813 8.58123 11.5813 11.0187C11.5813 13.4562 13.5688 15.4312 15.9938 15.4312C18.4313 15.4312 20.4188 13.45 20.4188 11.0187C20.4188 8.58747 18.4313 6.60623 15.9938 6.60623ZM15.9938 14.35C14.1626 14.35 12.6626 12.8562 12.6626 11.0187C12.6626 9.18123 14.1626 7.68748 15.9938 7.68748C17.8313 7.68748 19.3313 9.18123 19.3313 11.0187C19.3313 12.8562 17.8313 14.35 15.9938 14.35ZM31.4438 19.7437H21.8751C24.7438 17.825 26.5126 14.5937 26.5126 11.0187C26.5126 5.22498 21.8001 0.506226 16.0001 0.506226C10.2063 0.506226 5.49385 5.22498 5.49385 11.0187C5.49385 14.5937 7.25635 17.825 10.1313 19.7437H0.543848C0.250098 19.7437 0.00634766 19.9875 0.00634766 20.2875V30.9375C0.00634766 31.2375 0.250098 31.4812 0.543848 31.4812H31.4438C31.7438 31.4812 31.9876 31.2375 31.9876 30.9375V20.2937C31.9938 19.9875 31.7501 19.7437 31.4438 19.7437ZM6.5751 11.0187C6.5751 5.81873 10.8001 1.59373 15.9938 1.59373C21.1876 1.59373 25.4188 5.82498 25.4188 11.0187C25.4188 14.8687 23.1251 18.2875 19.5626 19.7437H12.4313C8.8751 18.2937 6.5751 14.875 6.5751 11.0187ZM30.9063 30.4062H1.09385V20.8312H30.9063V30.4062ZM26.2876 27.8687C27.5251 27.8687 28.5376 26.8625 28.5376 25.625C28.5376 24.375 27.5251 23.375 26.2876 23.375C25.0501 23.375 24.0376 24.3812 24.0376 25.625C24.0376 26.8625 25.0438 27.8687 26.2876 27.8687ZM26.2876 24.4562C27.8188 24.4562 27.8188 26.7812 26.2876 26.7812C24.7501 26.7812 24.7501 24.4562 26.2876 24.4562ZM4.00635 27.8312H20.0688C20.3688 27.8312 20.6126 27.5875 20.6126 27.2875V23.9562C20.6126 23.6562 20.3688 23.4125 20.0688 23.4125H4.00635C3.70635 23.4125 3.4626 23.6562 3.4626 23.9562V27.2875C3.4626 27.5875 3.70635 27.8312 4.00635 27.8312ZM4.55635 24.4937H19.5251V26.7437H4.55635V24.4937ZM15.9938 15.4375C18.4313 15.4375 20.4188 13.4562 20.4188 11.025C20.4188 8.58747 18.4313 6.61248 15.9938 6.61248C13.5626 6.61248 11.5813 8.58747 11.5813 11.025C11.5813 13.4562 13.5688 15.4375 15.9938 15.4375ZM15.9938 7.69373C17.8313 7.69373 19.3313 9.18748 19.3313 11.025C19.3313 12.8625 17.8313 14.3562 15.9938 14.3562C14.1626 14.3562 12.6626 12.8625 12.6626 11.025C12.6688 9.18122 14.1688 7.69373 15.9938 7.69373ZM15.9938 6.60623C13.5626 6.60623 11.5813 8.58123 11.5813 11.0187C11.5813 13.4562 13.5688 15.4312 15.9938 15.4312C18.4313 15.4312 20.4188 13.45 20.4188 11.0187C20.4188 8.58747 18.4313 6.60623 15.9938 6.60623ZM15.9938 14.35C14.1626 14.35 12.6626 12.8562 12.6626 11.0187C12.6626 9.18123 14.1626 7.68748 15.9938 7.68748C17.8313 7.68748 19.3313 9.18123 19.3313 11.0187C19.3313 12.8562 17.8313 14.35 15.9938 14.35ZM20.0688 23.4062H4.00635C3.70635 23.4062 3.4626 23.65 3.4626 23.95V27.2812C3.4626 27.5812 3.70635 27.825 4.00635 27.825H20.0688C20.3688 27.825 20.6126 27.5812 20.6126 27.2812V23.95C20.6188 23.65 20.3751 23.4062 20.0688 23.4062ZM19.5251 26.7437H4.55635V24.4937H19.5251V26.7437ZM26.2876 23.3687C25.0501 23.3687 24.0376 24.375 24.0376 25.6187C24.0376 26.8562 25.0501 27.8625 26.2876 27.8625C27.5251 27.8625 28.5376 26.8562 28.5376 25.6187C28.5376 24.375 27.5251 23.3687 26.2876 23.3687ZM26.2876 26.7812C24.7501 26.7812 24.7501 24.4562 26.2876 24.4562C27.8126 24.4562 27.8126 26.7812 26.2876 26.7812ZM26.2876 23.3687C25.0501 23.3687 24.0376 24.375 24.0376 25.6187C24.0376 26.8562 25.0501 27.8625 26.2876 27.8625C27.5251 27.8625 28.5376 26.8562 28.5376 25.6187C28.5376 24.375 27.5251 23.3687 26.2876 23.3687ZM26.2876 26.7812C24.7501 26.7812 24.7501 24.4562 26.2876 24.4562C27.8126 24.4562 27.8126 26.7812 26.2876 26.7812ZM20.0688 23.4062H4.00635C3.70635 23.4062 3.4626 23.65 3.4626 23.95V27.2812C3.4626 27.5812 3.70635 27.825 4.00635 27.825H20.0688C20.3688 27.825 20.6126 27.5812 20.6126 27.2812V23.95C20.6188 23.65 20.3751 23.4062 20.0688 23.4062ZM19.5251 26.7437H4.55635V24.4937H19.5251V26.7437ZM15.9938 6.60623C13.5626 6.60623 11.5813 8.58123 11.5813 11.0187C11.5813 13.4562 13.5688 15.4312 15.9938 15.4312C18.4313 15.4312 20.4188 13.45 20.4188 11.0187C20.4188 8.58747 18.4313 6.60623 15.9938 6.60623ZM15.9938 14.35C14.1626 14.35 12.6626 12.8562 12.6626 11.0187C12.6626 9.18123 14.1626 7.68748 15.9938 7.68748C17.8313 7.68748 19.3313 9.18123 19.3313 11.0187C19.3313 12.8562 17.8313 14.35 15.9938 14.35ZM15.9938 6.60623C13.5626 6.60623 11.5813 8.58123 11.5813 11.0187C11.5813 13.4562 13.5688 15.4312 15.9938 15.4312C18.4313 15.4312 20.4188 13.45 20.4188 11.0187C20.4188 8.58747 18.4313 6.60623 15.9938 6.60623ZM15.9938 14.35C14.1626 14.35 12.6626 12.8562 12.6626 11.0187C12.6626 9.18123 14.1626 7.68748 15.9938 7.68748C17.8313 7.68748 19.3313 9.18123 19.3313 11.0187C19.3313 12.8562 17.8313 14.35 15.9938 14.35ZM20.0688 23.4062H4.00635C3.70635 23.4062 3.4626 23.65 3.4626 23.95V27.2812C3.4626 27.5812 3.70635 27.825 4.00635 27.825H20.0688C20.3688 27.825 20.6126 27.5812 20.6126 27.2812V23.95C20.6188 23.65 20.3751 23.4062 20.0688 23.4062ZM19.5251 26.7437H4.55635V24.4937H19.5251V26.7437Z" fill="black"/>
<path fill-rule="evenodd" clip-rule="evenodd" d="M15.9939 1.59375C10.7939 1.59375 6.5752 5.825 6.5752 11.0188C6.5752 14.8687 8.86895 18.2875 12.4314 19.7437H19.5689C23.1252 18.2875 25.4252 14.8687 25.4252 11.0188C25.4252 5.825 21.1939 1.59375 15.9939 1.59375ZM15.9939 15.4375C13.5627 15.4375 11.5814 13.4562 11.5814 11.025C11.5814 8.5875 13.5689 6.6125 15.9939 6.6125C18.4314 6.6125 20.4189 8.5875 20.4189 11.025C20.4189 13.4562 18.4314 15.4375 15.9939 15.4375Z" fill="#F6911E"/>
</g>
<defs>
<clipPath id="clip0_136_65735">
<rect width="32" height="32" fill="white"/>
</clipPath>
</defs>
</svg>
