<svg width="64" height="64" viewBox="0 0 64 64" fill="none" xmlns="http://www.w3.org/2000/svg">
<rect width="64" height="64" rx="32" fill="#FAFAFA"/>
<path d="M46.9437 32.275C46.4999 31.2625 45.6874 30.4625 44.6749 30.0313C44.2499 29.8813 43.7999 29.8 43.3437 29.7813C43.2562 29.775 43.1437 29.7688 43.0562 29.7563C43.0999 29.6938 43.1499 29.6313 43.1937 29.575C43.5687 29.1563 43.8374 28.6563 43.9812 28.1125C44.2687 26.8438 44.3374 24.4625 42.7374 23.5625C42.0312 23.1813 41.1937 23.1125 40.4374 23.3688C39.4249 23.6688 38.5749 24.35 38.0499 25.2688C37.4812 26.3688 37.7874 27.4875 38.0312 28.3875C38.1812 28.9438 38.3249 29.4688 38.1499 29.6375C37.9437 29.8375 37.3187 29.6688 36.7187 29.5063C36.5312 29.4563 36.3374 29.4063 36.1437 29.3563C35.4999 27.9188 34.0687 27 32.4999 27H32.4562C32.4062 26.6188 32.3124 26.25 32.1749 25.8875C31.1749 23.3563 28.3812 22.075 26.5437 22.6188C26.0187 22.7813 25.5499 23.0875 25.1812 23.5C24.7749 22.9125 24.2437 22.425 23.6249 22.0563C22.2124 21.3063 20.5562 21.1813 19.0437 21.7063C18.1999 21.9375 17.4999 22.5188 17.1187 23.3063C16.6499 24.4875 17.5187 25.825 19.0937 28.2625C19.2624 28.525 19.4374 28.775 19.6124 29.0313C19.1999 29.1875 18.7937 29.3688 18.4062 29.5813C17.8687 29.8375 17.4374 30.2688 17.1812 30.8063C17.0249 31.3563 16.9624 31.925 16.9937 32.4938C17.0062 40.5 23.4874 46.9813 31.4937 46.9938H32.4937C40.4999 46.9813 46.9812 40.5 46.9937 32.4938C46.9937 32.425 46.9749 32.3438 46.9437 32.275ZM36.4624 30.475C37.3312 30.7125 38.2312 30.9563 38.8499 30.3625C39.4562 29.7813 39.2249 28.9375 39.0062 28.125C38.7812 27.3125 38.5562 26.4813 38.9499 25.7313C39.3499 25.0563 39.9812 24.5563 40.7312 24.3313C41.2312 24.1563 41.7874 24.2 42.2562 24.4375C43.2624 25.0063 43.2624 26.8125 43.0124 27.8875C42.8999 28.2813 42.6937 28.6438 42.4187 28.9438C42.1437 29.2875 41.8062 29.7125 42.0562 30.2188C42.2999 30.7 42.8187 30.7375 43.2749 30.775C43.6312 30.7875 43.9874 30.85 44.3249 30.9625C44.8437 31.175 45.2937 31.5313 45.6062 31.9938H40.5999C40.7124 31.3625 40.8437 30.7313 40.9874 30.1063C41.2624 28.9438 41.5937 27.7813 41.9749 26.65L41.0249 26.3313C40.6312 27.4938 40.2937 28.6875 40.0124 29.875C39.8499 30.575 39.7062 31.2813 39.5812 31.9875H36.3687C36.5062 31.5 36.5374 30.9813 36.4624 30.475ZM32.9999 29V28.0438C34.1374 28.2375 35.0624 29.0688 35.3812 30.175L34.3374 30.525L34.6562 31.475L35.4874 31.2C35.4687 31.475 35.4187 31.7438 35.3249 32H29.6687C29.5562 31.6813 29.4937 31.3438 29.4937 31C29.4937 30.9 29.4999 30.8 29.5062 30.7L30.3312 30.975L30.6499 30.025L29.7749 29.7313C30.1937 28.8375 31.0187 28.2063 31.9937 28.0438V29H32.9999ZM26.8249 23.5813C28.1874 23.175 30.4624 24.2813 31.2437 26.2563C31.3562 26.5375 31.4312 26.8375 31.4687 27.1375C29.3499 27.6938 28.0812 29.8563 28.6249 31.9813L28.5812 32H26.2749C26.4874 31.775 26.6999 31.55 26.8874 31.3125C28.0687 29.7938 28.7999 27.9688 28.9937 26.0563L27.9999 25.95C27.8249 27.675 27.1687 29.3188 26.1062 30.6938C26.0812 30.7313 26.0437 30.7625 26.0187 30.7938C26.7562 28.7125 26.6499 26.425 25.7249 24.4188C25.9937 24.025 26.3812 23.7375 26.8249 23.5813ZM18.0562 23.6813C18.3374 23.175 18.8124 22.8063 19.3812 22.6625C20.6187 22.2375 21.9687 22.3375 23.1312 22.9313C25.5249 24.3125 26.0687 28.2938 24.9437 30.7938C24.9062 30.8813 24.8562 30.9625 24.8124 31.0438C24.7187 30.6375 24.6062 30.2313 24.4749 29.8375C23.6562 27.4438 22.2312 25.3 20.3374 23.625L19.6687 24.3688C21.4374 25.9313 22.7687 27.925 23.5312 30.1563C23.7312 30.7563 23.8874 31.375 23.9937 32H23.1249C21.9687 30.65 20.9062 29.2188 19.9374 27.7313C18.5187 25.5313 17.7874 24.3563 18.0562 23.6813ZM18.0999 31.2188C18.2687 30.8813 18.5437 30.6188 18.8874 30.4688C19.3124 30.2375 19.7499 30.0438 20.2062 29.8938C20.7249 30.6188 21.2624 31.3188 21.8249 32H18.0249C17.9749 31.7375 17.9999 31.4688 18.0999 31.2188ZM32.4999 46H31.4999C24.2437 45.9938 18.2874 40.25 18.0062 33H45.9874C45.7124 40.25 39.7562 45.9938 32.4999 46Z" fill="black"/>
<path d="M28.6251 31.9812L28.5813 32H26.2751C26.4876 31.775 26.7001 31.55 26.8876 31.3125C28.0688 29.7937 28.8001 27.9687 28.9938 26.0562L28.0001 25.95C27.8251 27.675 27.1688 29.3187 26.1063 30.6937C26.0813 30.7312 26.0438 30.7625 26.0188 30.7937C26.7563 28.7125 26.6501 26.425 25.7251 24.4187C25.9938 24.0312 26.3813 23.7375 26.8251 23.5875C28.1876 23.1812 30.4626 24.2875 31.2438 26.2625C31.3563 26.5437 31.4313 26.8437 31.4688 27.1437C29.3501 27.6937 28.0813 29.8625 28.6251 31.9812Z" fill="#F6911E"/>
<path d="M24.9434 30.7938C24.9059 30.8813 24.8559 30.9626 24.8122 31.0438C24.7184 30.6376 24.6059 30.2313 24.4747 29.8376C23.6559 27.4438 22.2309 25.3001 20.3372 23.6251L19.6684 24.3688C21.4372 25.9313 22.7684 27.9251 23.5309 30.1563C23.7309 30.7563 23.8872 31.3751 23.9934 32.0001H23.1247C21.9684 30.6501 20.9059 29.2188 19.9372 27.7313C18.5184 25.5376 17.7872 24.3563 18.0559 23.6876C18.3372 23.1813 18.8122 22.8126 19.3809 22.6688C20.6184 22.2438 21.9684 22.3438 23.1309 22.9376C25.5184 24.3126 26.0684 28.2938 24.9434 30.7938Z" fill="#F6911E"/>
<path d="M33 30H32V31H33V30Z" fill="black"/>
</svg>
