<svg width="64" height="64" viewBox="0 0 64 64" fill="none" xmlns="http://www.w3.org/2000/svg">
<rect width="64" height="64" rx="32" fill="#FAFAFA"/>
<g clip-path="url(#clip0_136_65738)">
<path d="M24.5 44.5C25.325 44.5 26 43.825 26 43V37C26 36.1687 25.3312 35.5 24.5 35.5C23.6687 35.5 23 36.1687 23 37V43C23 43.825 23.675 44.5 24.5 44.5ZM24 37C24 36.725 24.225 36.5 24.5 36.5C24.775 36.5 25 36.725 25 37V43C25 43.275 24.775 43.5 24.5 43.5C24.225 43.5 24 43.275 24 43V37Z" fill="black"/>
<path d="M29.5 44.5C30.325 44.5 31 43.825 31 43V37C31 36.1687 30.3312 35.5 29.5 35.5C28.6687 35.5 28 36.1687 28 37V43C28 43.825 28.675 44.5 29.5 44.5ZM29 37C29 36.725 29.225 36.5 29.5 36.5C29.775 36.5 30 36.725 30 37V43C30 43.275 29.775 43.5 29.5 43.5C29.225 43.5 29 43.275 29 43V37Z" fill="black"/>
<path d="M34.5 44.5C35.325 44.5 36 43.825 36 43V37C36 36.1687 35.3312 35.5 34.5 35.5C33.6687 35.5 33 36.1687 33 37V43C33 43.825 33.675 44.5 34.5 44.5ZM34 37C34 36.725 34.225 36.5 34.5 36.5C34.775 36.5 35 36.725 35 37V43C35 43.275 34.775 43.5 34.5 43.5C34.225 43.5 34 43.275 34 43V37Z" fill="black"/>
<path d="M39.5 44.5C40.325 44.5 41 43.825 41 43V37C41 36.1687 40.3312 35.5 39.5 35.5C38.6687 35.5 38 36.1687 38 37V43C38 43.825 38.675 44.5 39.5 44.5ZM39 37C39 36.725 39.225 36.5 39.5 36.5C39.775 36.5 40 36.725 40 37V43C40 43.275 39.775 43.5 39.5 43.5C39.225 43.5 39 43.275 39 43V37Z" fill="black"/>
<path d="M45.8437 29.3375C45.8437 27.8687 45.2687 26.45 44.2499 25.3938V23.4812C44.2499 23.1875 44.0124 22.95 43.7187 22.95H43.4062L44.0937 22.2625C44.8874 21.4688 44.8874 20.175 44.0937 19.3812C43.2999 18.5875 42.0062 18.5875 41.2124 19.3812L37.6437 22.95H36.7999V21.3562C36.7999 21.2437 36.7624 21.1312 36.6937 21.0375L35.1999 19.05V17.0938C35.1999 16.8 34.9624 16.5625 34.6687 16.5625H27.7437C27.4499 16.5625 27.2124 16.8 27.2124 17.0938V19.0438L25.7249 21.0312C25.6562 21.125 25.6187 21.2375 25.6187 21.35V23.2562C25.2999 23.0625 24.9312 22.9562 24.5562 22.9437V20.8187C24.5562 20.525 24.3187 20.2875 24.0249 20.2875H20.8187C20.5249 20.2875 20.2874 20.525 20.2874 20.8187V22.95C19.0999 22.9812 18.1624 23.95 18.1562 25.1375V29.3375C16.9812 29.3375 16.0249 30.2937 16.0249 31.4688C16.0249 32.6437 16.9812 33.6 18.1562 33.6H18.2312L19.9624 44.8563C20.1874 46.35 21.4687 47.45 22.9749 47.4438H41.0124C42.5187 47.45 43.8062 46.35 44.0249 44.8563L45.7562 33.6H45.8312C47.0062 33.6 47.9624 32.65 47.9624 31.4688C47.9687 30.2937 47.0187 29.3375 45.8437 29.3375ZM43.7312 26.425C44.4062 27.25 44.7749 28.275 44.7749 29.3375H42.6499C42.6687 28.2687 43.0499 27.2438 43.7312 26.425ZM41.2687 25.0813L42.3312 24.0188H43.1749V25.0813H41.2687ZM42.6062 26.1438C41.9562 27.0813 41.5999 28.1937 41.5812 29.3375H37.0062L40.1999 26.1438H42.6062ZM41.9562 20.1312C42.3312 19.75 42.9499 19.7438 43.3312 20.1188C43.7124 20.4938 43.7187 21.1125 43.3437 21.4938C43.3374 21.5 43.3374 21.5 43.3312 21.5062L32.6874 32.1562C32.3124 32.5375 31.6937 32.5438 31.3124 32.1688C30.9312 31.7938 30.9249 31.175 31.2999 30.7937C31.2999 30.7875 31.3062 30.7875 31.3124 30.7812L41.9562 20.1312ZM35.7249 24.8625V24.0188H36.5687L35.7249 24.8625ZM35.7249 21.5312V22.95H35.1937C34.8999 22.95 34.6624 23.1875 34.6624 23.4812V25.6125C34.6624 25.7 34.6812 25.7875 34.7249 25.8625L33.5999 26.9875V21.5312L34.6624 20.1125L35.7249 21.5312ZM28.2749 17.625H34.1312V18.6875H28.2749V17.625ZM28.0062 19.7562H33.5937L32.7937 20.8187H27.2062L28.0062 19.7562ZM26.6749 21.8875H32.5312V28.0562L31.2499 29.3375H26.6812V21.8875H26.6749ZM21.3562 21.3562H23.4874V22.9563H21.3562V21.3562ZM19.2249 28.275H24.5499V27.2125H19.2249V25.1438C19.2249 24.525 19.7249 24.0188 20.3437 24.0188H24.4874C25.1062 24.0188 25.6062 24.5188 25.6062 25.1438V29.3438H19.2249V28.275ZM18.1562 32.5312C17.5687 32.5312 17.0937 32.0562 17.0937 31.4688C17.0937 30.8813 17.5687 30.4062 18.1562 30.4062H30.2562C29.8562 31.0625 29.8562 31.8813 30.2562 32.5375H18.1562V32.5312ZM42.9812 44.6875C42.8374 45.6562 41.9999 46.375 41.0187 46.3687H22.9812C21.9999 46.375 21.1624 45.6625 21.0187 44.6875L19.3124 33.5938H44.6874L42.9812 44.6875ZM45.8437 32.5312H33.8187L35.9499 30.4H45.8437C46.4312 30.4 46.9062 30.875 46.9062 31.4625C46.9062 32.0562 46.4312 32.5312 45.8437 32.5312Z" fill="black"/>
<path d="M35.7251 21.5313V22.95H35.1938C34.9001 22.95 34.6626 23.1875 34.6626 23.4813V25.6125C34.6626 25.7 34.6813 25.7875 34.7251 25.8625L33.6001 26.9875V21.5313L34.6626 20.1125L35.7251 21.5313Z" fill="#F6911E"/>
<path d="M34.1312 17.625H28.2749V18.6875H34.1312V17.625Z" fill="#F6911E"/>
<path d="M33.5936 19.7562L32.7998 20.8187H27.2061L28.0061 19.7562H33.5936Z" fill="#F6911E"/>
<path d="M32.5311 21.8875V28.05L31.2498 29.3375H26.6748V21.8875H32.5311Z" fill="#F6911E"/>
</g>
<defs>
<clipPath id="clip0_136_65738">
<rect width="32" height="32" fill="white" transform="translate(16 16)"/>
</clipPath>
</defs>
</svg>
