<svg width="32" height="32" viewBox="0 0 32 32" fill="none" xmlns="http://www.w3.org/2000/svg">
<g clip-path="url(#clip0_136_65731)">
<path d="M31.5313 27.25C30.9688 26.5625 30.2313 26.0437 29.3938 25.75C28.2688 25.2562 24.6813 24.225 24.8751 22.9312C25.0001 22.1437 27.5438 22.4 27.5876 20.7312C27.6251 19.3312 25.7876 19.1312 25.1876 19.0875C19.8188 18.5562 14.3501 18.3875 9.06259 19.6562V11.125C13.2063 7.5375 17.7563 15.6313 22.5688 11.45C22.8063 11.2375 22.9438 10.9313 22.9313 10.6125V2.88125C22.9313 2.49375 22.7188 2.13125 22.3751 1.94375C22.0313 1.75625 21.6188 1.76875 21.2876 1.98125C17.3001 4.46875 12.8251 -2.9875 8.16259 1.4C7.90009 1.64375 7.99384 0.94375 7.99384 19.9062C4.98134 20.7562 0.156337 22.6375 8.7162e-05 25.75C-0.168663 29.3687 5.05634 30.525 7.02509 30.9312C13.7876 32.4187 19.9938 32.1625 26.2001 31.1187C27.8376 30.8437 31.2501 30.3062 31.8063 28.7875C31.9751 28.2625 31.8751 27.6875 31.5313 27.25ZM9.06884 2.025C13.0126 -1.39375 17.2438 5.7625 21.8688 2.88125V10.6187C17.9063 14.0625 13.6876 6.8875 9.06884 9.7625V2.025ZM8.53134 25.6C8.82509 25.6 9.06259 25.3625 9.06259 25.0687V24.5875C9.69384 24.7125 10.1313 25.0375 10.1313 25.3312C10.1313 25.6312 9.45009 26.1312 8.53134 26.1312C7.61259 26.1312 6.93134 25.7125 6.93134 25.3312C6.93134 24.95 7.36259 24.7062 8.00009 24.5875V25.0687C8.00009 25.3625 8.23759 25.6 8.53134 25.6ZM30.8063 28.45C30.4688 29.3562 26.9438 29.9312 26.0063 30.0937C19.9688 31.1125 13.9126 31.3812 7.23759 29.9125C2.96884 28.9812 0.968837 27.6375 1.05634 25.8062C1.17509 23.3812 5.65009 21.7125 7.98759 21.0062V23.4875C6.75634 23.6562 5.85634 24.4 5.85634 25.3187C5.85634 26.3875 7.03134 27.1875 8.52509 27.1875C10.0188 27.1875 11.1938 26.3687 11.1938 25.3187C11.1938 24.4 10.2938 23.6562 9.06259 23.4875V20.7125C14.2751 19.4062 19.7313 19.575 25.0626 20.1062C26.2626 20.225 26.5063 20.475 26.5001 20.6375C26.5001 21.3062 24.0438 21.0937 23.7938 22.7062C23.4688 25.0687 27.4688 26.0875 28.9751 26.7312C29.6251 26.9625 30.2001 27.3562 30.6501 27.875C30.8876 28.225 30.8188 28.3875 30.8063 28.45Z" fill="black"/>
<path d="M21.8688 2.8813V10.6188C17.9063 14.0626 13.6876 6.88755 9.06885 9.76255V2.02505C13.0063 -1.3937 17.2438 5.76255 21.8688 2.8813Z" fill="#F6911E"/>
<path d="M21.869 24.5312C20.6878 24.5312 19.7378 25.4875 19.7378 26.6625C19.7378 27.8375 20.694 28.7938 21.869 28.7938C23.0503 28.7938 24.0003 27.8375 24.0003 26.6625C24.0003 25.4875 23.044 24.5312 21.869 24.5312ZM21.869 27.7313C21.2815 27.7313 20.8003 27.2563 20.8003 26.6625C20.8003 26.0688 21.2753 25.5938 21.869 25.5938C22.4565 25.5938 22.9378 26.0688 22.9378 26.6625C22.9378 27.2563 22.4565 27.7313 21.869 27.7313Z" fill="black"/>
</g>
<defs>
<clipPath id="clip0_136_65731">
<rect width="32" height="32" fill="white"/>
</clipPath>
</defs>
</svg>
