<svg width="64" height="64" viewBox="0 0 64 64" fill="none" xmlns="http://www.w3.org/2000/svg">
<rect width="64" height="64" rx="32" fill="#FAFAFA"/>
<g clip-path="url(#clip0_136_65714)">
<path fill-rule="evenodd" clip-rule="evenodd" d="M20.6498 36.1626H33.0686C33.3311 36.1626 33.5373 35.9501 33.5373 35.6876C33.5373 35.4313 33.3311 35.2188 33.0686 35.2188H20.6498C20.3873 35.2188 20.1811 35.4313 20.1811 35.6876C20.1811 35.9501 20.3873 36.1626 20.6498 36.1626ZM33.0686 37.9876H20.6498C20.3873 37.9876 20.1811 38.1938 20.1811 38.4563C20.1811 38.7188 20.3873 38.9251 20.6498 38.9251H33.0686C33.3311 38.9251 33.5373 38.7188 33.5373 38.4563C33.5373 38.1938 33.3311 37.9876 33.0686 37.9876ZM33.0686 40.7438H20.6498C20.3873 40.7438 20.1811 40.9501 20.1811 41.2126C20.1811 41.4751 20.3873 41.6813 20.6498 41.6813H33.0686C33.3311 41.6813 33.5373 41.4751 33.5373 41.2126C33.5373 40.9501 33.3311 40.7438 33.0686 40.7438ZM20.6498 33.3751H29.5748C29.8373 33.3751 30.0498 33.1688 30.0498 32.9063C30.0498 32.6438 29.8373 32.4376 29.5748 32.4376H20.6498C20.3873 32.4376 20.1811 32.6438 20.1811 32.9063C20.1811 33.1688 20.3873 33.3751 20.6498 33.3751ZM20.6498 30.5876H27.1061C27.3373 30.5876 27.5748 30.3813 27.5748 30.1188C27.5748 29.8563 27.3686 29.6501 27.1061 29.6501H20.6498C20.3873 29.6501 20.1811 29.8563 20.1811 30.1188C20.1811 30.3813 20.3873 30.5876 20.6498 30.5876ZM27.1061 29.6563H20.6498C20.3873 29.6563 20.1811 29.8626 20.1811 30.1251C20.1811 30.3876 20.3873 30.5938 20.6498 30.5938H27.1061C27.3373 30.5938 27.5748 30.3876 27.5748 30.1251C27.5748 29.8626 27.3686 29.6563 27.1061 29.6563ZM29.5748 32.4376H20.6498C20.3873 32.4376 20.1811 32.6438 20.1811 32.9063C20.1811 33.1688 20.3873 33.3751 20.6498 33.3751H29.5748C29.8373 33.3751 30.0498 33.1688 30.0498 32.9063C30.0498 32.6438 29.8373 32.4376 29.5748 32.4376ZM33.0686 35.2251H20.6498C20.3873 35.2251 20.1811 35.4376 20.1811 35.6938C20.1811 35.9563 20.3873 36.1688 20.6498 36.1688H33.0686C33.3311 36.1688 33.5373 35.9563 33.5373 35.6938C33.5373 35.4376 33.3311 35.2251 33.0686 35.2251ZM33.0686 37.9876H20.6498C20.3873 37.9876 20.1811 38.1938 20.1811 38.4563C20.1811 38.7188 20.3873 38.9251 20.6498 38.9251H33.0686C33.3311 38.9251 33.5373 38.7188 33.5373 38.4563C33.5373 38.1938 33.3311 37.9876 33.0686 37.9876ZM33.0686 40.7438H20.6498C20.3873 40.7438 20.1811 40.9501 20.1811 41.2126C20.1811 41.4751 20.3873 41.6813 20.6498 41.6813H33.0686C33.3311 41.6813 33.5373 41.4751 33.5373 41.2126C33.5373 40.9501 33.3311 40.7438 33.0686 40.7438ZM47.5436 29.9126C47.8061 29.9126 48.0123 29.7063 48.0123 29.4438V29.0813C48.0123 27.9626 47.0998 27.0251 45.9561 27.0251H43.0998C43.3561 26.7438 43.6748 26.5313 44.0061 26.4251C44.1873 26.3438 44.3186 26.1876 44.3186 25.9813V25.2251C44.3186 25.0938 44.2686 24.9438 44.1373 24.8626C44.0061 24.7876 43.8498 24.7563 43.7186 24.8126C43.3561 24.9188 43.0436 24.8876 42.8123 24.7313C42.5998 24.6001 42.4998 24.3188 42.4998 24.0001C42.4998 23.1938 43.1811 22.2876 44.0123 22.0251C44.1936 21.9438 44.3248 21.7938 44.3248 21.5813V21.2188C44.3248 20.6751 44.0936 20.2063 43.7061 19.9188C43.2623 19.6063 42.6873 19.5251 42.1186 19.7126L17.9373 26.4751C16.8748 26.7626 15.9873 27.9626 15.9873 29.0563C15.9873 29.1126 15.9936 29.1626 16.0123 29.2063V29.4438C16.0123 29.7063 16.2186 29.9126 16.4811 29.9126C17.2373 29.9126 17.8623 30.5376 17.8623 31.2938C17.8623 32.0438 17.2373 32.6438 16.4811 32.6438C16.2186 32.6438 16.0123 32.8563 16.0123 33.1188V33.8501C16.0123 34.1063 16.2186 34.3188 16.4811 34.3188C17.2373 34.3188 17.8623 34.9438 17.8623 35.6938C17.8623 36.4501 17.2373 37.0751 16.4811 37.0751C16.2186 37.0751 16.0123 37.2813 16.0123 37.5438V38.2751C16.0123 38.5376 16.2186 38.7438 16.4811 38.7438C17.2373 38.7438 17.8623 39.3688 17.8623 40.1251C17.8623 40.8813 17.2373 41.5063 16.4811 41.5063C16.2186 41.5063 16.0123 41.7126 16.0123 41.9751V42.3376C16.0123 43.4563 16.9186 44.3938 18.0686 44.3938H45.9561C47.0998 44.3938 48.0123 43.4563 48.0123 42.3626V42.0001C48.0123 41.7376 47.8061 41.5251 47.5436 41.5251C46.7873 41.5251 46.1623 40.9063 46.1623 40.1501C46.1623 39.3938 46.7873 38.7688 47.5436 38.7688C47.8061 38.7688 48.0123 38.5626 48.0123 38.3001V37.5688C48.0123 37.3063 47.8061 37.1001 47.5436 37.1001C46.7873 37.1001 46.1623 36.4751 46.1623 35.7188C46.1623 34.9626 46.7873 34.3376 47.5436 34.3376C47.8061 34.3376 48.0123 34.1313 48.0123 33.8688V33.1188C48.0123 32.8563 47.8061 32.6438 47.5436 32.6438C46.7873 32.6438 46.1623 32.0438 46.1623 31.2938C46.1623 30.5376 46.7873 29.9126 47.5436 29.9126ZM36.8936 43.4563H18.0436C17.4436 43.4563 16.9248 42.9313 16.8998 42.3376C17.9686 42.1313 18.7436 41.2188 18.7686 40.0938C18.7686 39.0563 18.0686 38.1688 17.1061 37.8813C18.0686 37.6001 18.7686 36.7126 18.7686 35.6688C18.7686 34.6001 18.0373 33.7188 17.0748 33.4563C18.0623 33.1938 18.7686 32.3063 18.7686 31.2688C18.7686 30.1751 17.9623 29.2376 16.9186 29.0251C16.9186 28.4251 17.4373 27.9063 18.0686 27.9063H36.8936V43.4563ZM37.3623 27.0001C37.3061 27.0001 37.2561 27.0063 37.2123 27.0251H19.4686L42.3623 20.5876C42.6748 20.5126 42.9623 20.5376 43.1436 20.6688C43.2998 20.8001 43.3748 20.9813 43.3748 21.2376V21.2938C42.3061 21.7876 41.5248 22.9063 41.5248 24.0251C41.5248 24.6501 41.7873 25.1751 42.2561 25.4813C42.5436 25.6626 42.8561 25.7688 43.1936 25.7938C42.6998 26.0813 42.2686 26.5063 41.9748 27.0188H37.5186C37.4686 27.0063 37.4186 27.0001 37.3623 27.0001ZM46.9498 33.4563C45.9623 33.7188 45.2561 34.6001 45.2561 35.6688C45.2561 36.7063 45.9561 37.5938 46.9186 37.8813C45.9561 38.1688 45.2561 39.0563 45.2561 40.0938C45.2561 41.1876 46.0623 42.1251 47.0998 42.3376C47.0998 42.9376 46.5811 43.4563 45.9561 43.4563H37.8311V27.9063H42.1498C42.2248 27.9313 42.2998 27.9251 42.3748 27.9063H45.9561C46.5561 27.9063 47.0748 28.4313 47.0998 29.0251C46.0311 29.2313 45.2561 30.1438 45.2561 31.2688C45.2561 32.3063 45.9811 33.1938 46.9498 33.4563ZM20.6498 36.1626H33.0686C33.3311 36.1626 33.5373 35.9501 33.5373 35.6876C33.5373 35.4313 33.3311 35.2188 33.0686 35.2188H20.6498C20.3873 35.2188 20.1811 35.4313 20.1811 35.6876C20.1811 35.9501 20.3873 36.1626 20.6498 36.1626ZM20.6498 38.9251H33.0686C33.3311 38.9251 33.5373 38.7188 33.5373 38.4563C33.5373 38.1938 33.3311 37.9876 33.0686 37.9876H20.6498C20.3873 37.9876 20.1811 38.1938 20.1811 38.4563C20.1811 38.7188 20.3873 38.9251 20.6498 38.9251ZM20.6498 41.6813H33.0686C33.3311 41.6813 33.5373 41.4751 33.5373 41.2126C33.5373 40.9501 33.3311 40.7438 33.0686 40.7438H20.6498C20.3873 40.7438 20.1811 40.9501 20.1811 41.2126C20.1811 41.4751 20.3873 41.6813 20.6498 41.6813ZM20.6498 33.3751H29.5748C29.8373 33.3751 30.0498 33.1688 30.0498 32.9063C30.0498 32.6438 29.8373 32.4376 29.5748 32.4376H20.6498C20.3873 32.4376 20.1811 32.6438 20.1811 32.9063C20.1811 33.1688 20.3873 33.3751 20.6498 33.3751ZM20.6498 30.5876H27.1061C27.3373 30.5876 27.5748 30.3813 27.5748 30.1188C27.5748 29.8563 27.3686 29.6501 27.1061 29.6501H20.6498C20.3873 29.6501 20.1811 29.8563 20.1811 30.1188C20.1811 30.3813 20.3873 30.5876 20.6498 30.5876Z" fill="black"/>
<path fill-rule="evenodd" clip-rule="evenodd" d="M47.0998 42.3312C47.0998 42.9312 46.5811 43.45 45.9561 43.45H37.8311V27.9062H42.1498C42.2248 27.9313 42.2998 27.925 42.3748 27.9062H45.9561C46.5561 27.9062 47.0748 28.4312 47.0998 29.025C46.0311 29.2312 45.2561 30.1438 45.2561 31.2688C45.2561 32.3063 45.9873 33.1937 46.9498 33.4562C45.9623 33.7187 45.2561 34.6 45.2561 35.6688C45.2561 36.7063 45.9561 37.5938 46.9186 37.8813C45.9561 38.1688 45.2561 39.0562 45.2561 40.0938C45.2561 41.1875 46.0623 42.125 47.0998 42.3312Z" fill="#F6911E"/>
</g>
<defs>
<clipPath id="clip0_136_65714">
<rect width="32" height="32" fill="white" transform="translate(16 16)"/>
</clipPath>
</defs>
</svg>
