<svg width="64" height="64" viewBox="0 0 64 64" fill="none" xmlns="http://www.w3.org/2000/svg">
<rect width="64" height="64" rx="32" fill="#FAFAFA"/>
<path d="M29.5719 21.0781H22.8969C21.8609 21.0781 21.0781 21.9312 21.0781 22.8969V29.5719C21.0828 30.6031 21.9312 31.3906 22.8969 31.3906H29.5719C30.6125 31.3906 31.3906 30.5375 31.3906 29.5719V22.8969C31.3906 21.8656 30.5422 21.0781 29.5719 21.0781ZM30.1812 29.5719C30.1812 29.9328 29.8859 30.1812 29.5719 30.1812H22.8969C22.5359 30.1812 22.2922 29.8859 22.2922 29.5719V22.8969C22.2922 22.5453 22.5875 22.2922 22.8969 22.2922H29.5719C29.9422 22.2922 30.1812 22.5875 30.1812 22.8969V29.5719ZM41.1031 21.0781H34.4281C33.3875 21.0781 32.6094 21.9312 32.6094 22.8969V29.5719C32.6141 30.6031 33.4625 31.3906 34.4281 31.3906H41.1031C42.1438 31.3906 42.9219 30.5375 42.9219 29.5719V22.8969C42.9172 21.8656 42.0688 21.0781 41.1031 21.0781ZM41.7078 29.5719C41.7078 29.9328 41.4125 30.1812 41.1031 30.1812H34.4281C34.0672 30.1812 33.8187 29.8859 33.8187 29.5719V22.8969C33.8187 22.5453 34.1141 22.2922 34.4281 22.2922H41.1031C41.4734 22.2922 41.7078 22.5875 41.7078 22.8969V29.5719ZM29.5719 32.6047H22.8969C21.8562 32.6047 21.0781 33.4578 21.0781 34.4234V41.0984C21.0828 42.1297 21.9312 42.9172 22.8969 42.9172H29.5719C30.6125 42.9172 31.3906 42.0641 31.3906 41.0984V34.4281C31.3906 33.3969 30.5422 32.6047 29.5719 32.6047ZM30.1812 41.1031C30.1812 41.4641 29.8859 41.7078 29.5719 41.7078H22.8969C22.5359 41.7078 22.2922 41.4125 22.2922 41.1031V34.4281C22.2922 34.0719 22.5875 33.8187 22.8969 33.8187H29.5719C29.9422 33.8187 30.1812 34.1141 30.1812 34.4281V41.1031ZM41.1031 32.6047H34.4281C33.3875 32.6047 32.6094 33.4578 32.6094 34.4234V41.0984C32.6141 42.1297 33.4625 42.9172 34.4281 42.9172H41.1031C42.1438 42.9172 42.9219 42.0641 42.9219 41.0984V34.4281C42.9172 33.3969 42.0688 32.6047 41.1031 32.6047ZM41.7078 41.1031C41.7078 41.4641 41.4125 41.7078 41.1031 41.7078H34.4281C34.0672 41.7078 33.8187 41.4125 33.8187 41.1031V34.4281C33.8187 34.0719 34.1141 33.8187 34.4281 33.8187H41.1031C41.4734 33.8187 41.7078 34.1141 41.7078 34.4281V41.1031Z" fill="black"/>
<path d="M41.7079 22.8969V29.5719C41.7079 29.9329 41.4126 30.1813 41.1032 30.1813H34.4282C34.0673 30.1813 33.8188 29.886 33.8188 29.5719V22.8969C33.8188 22.5454 34.1142 22.2922 34.4282 22.2922H41.1032C41.4688 22.2922 41.7079 22.5875 41.7079 22.8969Z" fill="#F6911E"/>
</svg>
