<svg width="64" height="64" viewBox="0 0 64 64" fill="none" xmlns="http://www.w3.org/2000/svg">
<rect width="64" height="64" rx="32" fill="#FAFAFA"/>
<g clip-path="url(#clip0_136_65734)">
<path fill-rule="evenodd" clip-rule="evenodd" d="M42.2876 39.3687C41.0501 39.3687 40.0376 40.375 40.0376 41.6187C40.0376 42.8562 41.0501 43.8625 42.2876 43.8625C43.5251 43.8625 44.5376 42.8562 44.5376 41.6187C44.5376 40.375 43.5251 39.3687 42.2876 39.3687ZM42.2876 42.7812C40.7501 42.7812 40.7501 40.4562 42.2876 40.4562C43.8126 40.4562 43.8126 42.7812 42.2876 42.7812ZM42.2876 39.3687C41.0501 39.3687 40.0376 40.375 40.0376 41.6187C40.0376 42.8562 41.0501 43.8625 42.2876 43.8625C43.5251 43.8625 44.5376 42.8562 44.5376 41.6187C44.5376 40.375 43.5251 39.3687 42.2876 39.3687ZM42.2876 42.7812C40.7501 42.7812 40.7501 40.4562 42.2876 40.4562C43.8126 40.4562 43.8126 42.7812 42.2876 42.7812ZM36.0688 39.4062H20.0063C19.7063 39.4062 19.4626 39.65 19.4626 39.95V43.2812C19.4626 43.5812 19.7063 43.825 20.0063 43.825H36.0688C36.3688 43.825 36.6126 43.5812 36.6126 43.2812V39.95C36.6188 39.65 36.3751 39.4062 36.0688 39.4062ZM35.5251 42.7437H20.5563V40.4937H35.5251V42.7437ZM31.9938 22.6062C29.5626 22.6062 27.5813 24.5812 27.5813 27.0187C27.5813 29.4562 29.5688 31.4312 31.9938 31.4312C34.4313 31.4312 36.4188 29.45 36.4188 27.0187C36.4188 24.5875 34.4313 22.6062 31.9938 22.6062ZM31.9938 30.35C30.1626 30.35 28.6626 28.8562 28.6626 27.0187C28.6626 25.1812 30.1626 23.6875 31.9938 23.6875C33.8313 23.6875 35.3313 25.1812 35.3313 27.0187C35.3313 28.8562 33.8313 30.35 31.9938 30.35ZM31.9938 22.6062C29.5626 22.6062 27.5813 24.5812 27.5813 27.0187C27.5813 29.4562 29.5688 31.4312 31.9938 31.4312C34.4313 31.4312 36.4188 29.45 36.4188 27.0187C36.4188 24.5875 34.4313 22.6062 31.9938 22.6062ZM31.9938 30.35C30.1626 30.35 28.6626 28.8562 28.6626 27.0187C28.6626 25.1812 30.1626 23.6875 31.9938 23.6875C33.8313 23.6875 35.3313 25.1812 35.3313 27.0187C35.3313 28.8562 33.8313 30.35 31.9938 30.35ZM36.0688 39.4062H20.0063C19.7063 39.4062 19.4626 39.65 19.4626 39.95V43.2812C19.4626 43.5812 19.7063 43.825 20.0063 43.825H36.0688C36.3688 43.825 36.6126 43.5812 36.6126 43.2812V39.95C36.6188 39.65 36.3751 39.4062 36.0688 39.4062ZM35.5251 42.7437H20.5563V40.4937H35.5251V42.7437ZM42.2876 39.3687C41.0501 39.3687 40.0376 40.375 40.0376 41.6187C40.0376 42.8562 41.0501 43.8625 42.2876 43.8625C43.5251 43.8625 44.5376 42.8562 44.5376 41.6187C44.5376 40.375 43.5251 39.3687 42.2876 39.3687ZM42.2876 42.7812C40.7501 42.7812 40.7501 40.4562 42.2876 40.4562C43.8126 40.4562 43.8126 42.7812 42.2876 42.7812ZM42.2876 39.3687C41.0501 39.3687 40.0376 40.375 40.0376 41.6187C40.0376 42.8562 41.0501 43.8625 42.2876 43.8625C43.5251 43.8625 44.5376 42.8562 44.5376 41.6187C44.5376 40.375 43.5251 39.3687 42.2876 39.3687ZM42.2876 42.7812C40.7501 42.7812 40.7501 40.4562 42.2876 40.4562C43.8126 40.4562 43.8126 42.7812 42.2876 42.7812ZM36.0688 39.4062H20.0063C19.7063 39.4062 19.4626 39.65 19.4626 39.95V43.2812C19.4626 43.5812 19.7063 43.825 20.0063 43.825H36.0688C36.3688 43.825 36.6126 43.5812 36.6126 43.2812V39.95C36.6188 39.65 36.3751 39.4062 36.0688 39.4062ZM35.5251 42.7437H20.5563V40.4937H35.5251V42.7437ZM31.9938 22.6062C29.5626 22.6062 27.5813 24.5812 27.5813 27.0187C27.5813 29.4562 29.5688 31.4312 31.9938 31.4312C34.4313 31.4312 36.4188 29.45 36.4188 27.0187C36.4188 24.5875 34.4313 22.6062 31.9938 22.6062ZM31.9938 30.35C30.1626 30.35 28.6626 28.8562 28.6626 27.0187C28.6626 25.1812 30.1626 23.6875 31.9938 23.6875C33.8313 23.6875 35.3313 25.1812 35.3313 27.0187C35.3313 28.8562 33.8313 30.35 31.9938 30.35ZM47.4438 35.7437H37.8751C40.7438 33.825 42.5126 30.5937 42.5126 27.0187C42.5126 21.225 37.8001 16.5062 32.0001 16.5062C26.2063 16.5062 21.4938 21.225 21.4938 27.0187C21.4938 30.5937 23.2563 33.825 26.1313 35.7437H16.5438C16.2501 35.7437 16.0063 35.9875 16.0063 36.2875V46.9375C16.0063 47.2375 16.2501 47.4812 16.5438 47.4812H47.4438C47.7438 47.4812 47.9876 47.2375 47.9876 46.9375V36.2937C47.9938 35.9875 47.7501 35.7437 47.4438 35.7437ZM22.5751 27.0187C22.5751 21.8187 26.8001 17.5937 31.9938 17.5937C37.1876 17.5937 41.4188 21.825 41.4188 27.0187C41.4188 30.8687 39.1251 34.2875 35.5626 35.7437H28.4313C24.8751 34.2937 22.5751 30.875 22.5751 27.0187ZM46.9063 46.4062H17.0938V36.8312H46.9063V46.4062ZM42.2876 43.8687C43.5251 43.8687 44.5376 42.8625 44.5376 41.625C44.5376 40.375 43.5251 39.375 42.2876 39.375C41.0501 39.375 40.0376 40.3812 40.0376 41.625C40.0376 42.8625 41.0438 43.8687 42.2876 43.8687ZM42.2876 40.4562C43.8188 40.4562 43.8188 42.7812 42.2876 42.7812C40.7501 42.7812 40.7501 40.4562 42.2876 40.4562ZM20.0063 43.8312H36.0688C36.3688 43.8312 36.6126 43.5875 36.6126 43.2875V39.9562C36.6126 39.6562 36.3688 39.4125 36.0688 39.4125H20.0063C19.7063 39.4125 19.4626 39.6562 19.4626 39.9562V43.2875C19.4626 43.5875 19.7063 43.8312 20.0063 43.8312ZM20.5563 40.4937H35.5251V42.7437H20.5563V40.4937ZM31.9938 31.4375C34.4313 31.4375 36.4188 29.4562 36.4188 27.025C36.4188 24.5875 34.4313 22.6125 31.9938 22.6125C29.5626 22.6125 27.5813 24.5875 27.5813 27.025C27.5813 29.4562 29.5688 31.4375 31.9938 31.4375ZM31.9938 23.6937C33.8313 23.6937 35.3313 25.1875 35.3313 27.025C35.3313 28.8625 33.8313 30.3562 31.9938 30.3562C30.1626 30.3562 28.6626 28.8625 28.6626 27.025C28.6688 25.1812 30.1688 23.6937 31.9938 23.6937ZM31.9938 22.6062C29.5626 22.6062 27.5813 24.5812 27.5813 27.0187C27.5813 29.4562 29.5688 31.4312 31.9938 31.4312C34.4313 31.4312 36.4188 29.45 36.4188 27.0187C36.4188 24.5875 34.4313 22.6062 31.9938 22.6062ZM31.9938 30.35C30.1626 30.35 28.6626 28.8562 28.6626 27.0187C28.6626 25.1812 30.1626 23.6875 31.9938 23.6875C33.8313 23.6875 35.3313 25.1812 35.3313 27.0187C35.3313 28.8562 33.8313 30.35 31.9938 30.35ZM36.0688 39.4062H20.0063C19.7063 39.4062 19.4626 39.65 19.4626 39.95V43.2812C19.4626 43.5812 19.7063 43.825 20.0063 43.825H36.0688C36.3688 43.825 36.6126 43.5812 36.6126 43.2812V39.95C36.6188 39.65 36.3751 39.4062 36.0688 39.4062ZM35.5251 42.7437H20.5563V40.4937H35.5251V42.7437ZM42.2876 39.3687C41.0501 39.3687 40.0376 40.375 40.0376 41.6187C40.0376 42.8562 41.0501 43.8625 42.2876 43.8625C43.5251 43.8625 44.5376 42.8562 44.5376 41.6187C44.5376 40.375 43.5251 39.3687 42.2876 39.3687ZM42.2876 42.7812C40.7501 42.7812 40.7501 40.4562 42.2876 40.4562C43.8126 40.4562 43.8126 42.7812 42.2876 42.7812ZM42.2876 39.3687C41.0501 39.3687 40.0376 40.375 40.0376 41.6187C40.0376 42.8562 41.0501 43.8625 42.2876 43.8625C43.5251 43.8625 44.5376 42.8562 44.5376 41.6187C44.5376 40.375 43.5251 39.3687 42.2876 39.3687ZM42.2876 42.7812C40.7501 42.7812 40.7501 40.4562 42.2876 40.4562C43.8126 40.4562 43.8126 42.7812 42.2876 42.7812ZM36.0688 39.4062H20.0063C19.7063 39.4062 19.4626 39.65 19.4626 39.95V43.2812C19.4626 43.5812 19.7063 43.825 20.0063 43.825H36.0688C36.3688 43.825 36.6126 43.5812 36.6126 43.2812V39.95C36.6188 39.65 36.3751 39.4062 36.0688 39.4062ZM35.5251 42.7437H20.5563V40.4937H35.5251V42.7437ZM31.9938 22.6062C29.5626 22.6062 27.5813 24.5812 27.5813 27.0187C27.5813 29.4562 29.5688 31.4312 31.9938 31.4312C34.4313 31.4312 36.4188 29.45 36.4188 27.0187C36.4188 24.5875 34.4313 22.6062 31.9938 22.6062ZM31.9938 30.35C30.1626 30.35 28.6626 28.8562 28.6626 27.0187C28.6626 25.1812 30.1626 23.6875 31.9938 23.6875C33.8313 23.6875 35.3313 25.1812 35.3313 27.0187C35.3313 28.8562 33.8313 30.35 31.9938 30.35ZM31.9938 22.6062C29.5626 22.6062 27.5813 24.5812 27.5813 27.0187C27.5813 29.4562 29.5688 31.4312 31.9938 31.4312C34.4313 31.4312 36.4188 29.45 36.4188 27.0187C36.4188 24.5875 34.4313 22.6062 31.9938 22.6062ZM31.9938 30.35C30.1626 30.35 28.6626 28.8562 28.6626 27.0187C28.6626 25.1812 30.1626 23.6875 31.9938 23.6875C33.8313 23.6875 35.3313 25.1812 35.3313 27.0187C35.3313 28.8562 33.8313 30.35 31.9938 30.35ZM36.0688 39.4062H20.0063C19.7063 39.4062 19.4626 39.65 19.4626 39.95V43.2812C19.4626 43.5812 19.7063 43.825 20.0063 43.825H36.0688C36.3688 43.825 36.6126 43.5812 36.6126 43.2812V39.95C36.6188 39.65 36.3751 39.4062 36.0688 39.4062ZM35.5251 42.7437H20.5563V40.4937H35.5251V42.7437Z" fill="black"/>
<path fill-rule="evenodd" clip-rule="evenodd" d="M31.9939 17.5938C26.7939 17.5938 22.5752 21.825 22.5752 27.0188C22.5752 30.8687 24.8689 34.2875 28.4314 35.7437H35.5689C39.1252 34.2875 41.4252 30.8687 41.4252 27.0188C41.4252 21.825 37.1939 17.5938 31.9939 17.5938ZM31.9939 31.4375C29.5627 31.4375 27.5814 29.4562 27.5814 27.025C27.5814 24.5875 29.5689 22.6125 31.9939 22.6125C34.4314 22.6125 36.4189 24.5875 36.4189 27.025C36.4189 29.4562 34.4314 31.4375 31.9939 31.4375Z" fill="#F6911E"/>
</g>
<defs>
<clipPath id="clip0_136_65734">
<rect width="32" height="32" fill="white" transform="translate(16 16)"/>
</clipPath>
</defs>
</svg>
