<svg width="64" height="64" viewBox="0 0 64 64" fill="none" xmlns="http://www.w3.org/2000/svg">
<rect width="64" height="64" rx="32" fill="#FAFAFA"/>
<path d="M28.7189 43.5938H22.3252C21.2189 43.5938 20.3252 42.7 20.3252 41.5938V27.775C20.3252 26.6688 21.2189 25.775 22.3252 25.775H32.2564C33.3627 25.775 34.2564 26.6688 34.2564 27.775V33.1C34.2564 33.375 34.0314 33.6 33.7564 33.6C33.4814 33.6 33.2564 33.375 33.2564 33.1V27.775C33.2564 27.225 32.8064 26.775 32.2564 26.775H22.3252C21.7752 26.775 21.3252 27.225 21.3252 27.775V41.5938C21.3252 42.1438 21.7752 42.5938 22.3252 42.5938H28.7189C28.9939 42.5938 29.2189 42.8188 29.2189 43.0938C29.2189 43.3688 28.9939 43.5938 28.7189 43.5938Z" fill="black"/>
<path d="M28.7189 39.5H20.8252C20.5502 39.5 20.3252 39.275 20.3252 39V36.1687C20.3252 35.8937 20.5502 35.6687 20.8252 35.6687H29.1377C29.4127 35.6687 29.6377 35.8937 29.6377 36.1687C29.6377 36.4437 29.4127 36.6687 29.1377 36.6687H21.3252V38.5H28.7189C28.9939 38.5 29.2189 38.725 29.2189 39C29.2189 39.275 28.9939 39.5 28.7189 39.5Z" fill="black"/>
<path d="M30.5628 26.775H24.0003C23.744 26.775 23.5315 26.5875 23.5003 26.3313C23.494 26.2188 23.494 26.1125 23.5003 26V19.525C23.519 18.4063 24.4315 17.5 25.5503 17.5H29.0503C30.1815 17.5 31.094 18.4187 31.094 19.55V26C31.094 26.125 31.094 26.2375 31.094 26.3562C31.0565 26.6125 30.8253 26.7937 30.5628 26.775ZM24.5003 25.775H30.0815V19.525C30.069 18.9563 29.6065 18.5 29.0378 18.5H25.5378C24.9753 18.5125 24.519 18.9625 24.5003 19.525V25.775Z" fill="black"/>
<path d="M24.0312 46.5H23.9688C23.15 46.4813 22.5 45.8187 22.5 45V43.0938C22.5 42.8187 22.725 42.5938 23 42.5938H25C25.275 42.5938 25.5 42.8187 25.5 43.0938V45C25.5 45.8187 24.8438 46.4813 24.0312 46.5ZM23.5 43.5938V45C23.5125 45.2562 23.7187 45.4562 23.975 45.4688H24.0375C24.2938 45.4688 24.5 45.2562 24.5 45V43.5938H23.5Z" fill="black"/>
<path d="M29.1502 36.6688H20.8252C20.5502 36.6688 20.3252 36.4438 20.3252 36.1688V33.3313C20.3252 33.0563 20.5502 32.8313 20.8252 32.8313H33.1752C33.4502 32.8313 33.6752 33.0563 33.6752 33.3313C33.6752 33.6063 33.4502 33.8313 33.1752 33.8313H21.3252V35.6688H29.1377C29.4127 35.6688 29.6377 35.8938 29.6377 36.1688C29.6377 36.4376 29.4189 36.6626 29.1502 36.6688Z" fill="black"/>
<path d="M33.0002 33.8312H20.8252C20.5502 33.8312 20.3252 33.6062 20.3252 33.3312V30.5C20.3252 30.225 20.5502 30 20.8252 30H33.7564C34.0314 30 34.2564 30.225 34.2564 30.5V33.05C34.2564 33.325 34.0314 33.55 33.7564 33.55C33.6564 33.55 33.5564 33.5187 33.4689 33.4625C33.4127 33.675 33.2189 33.825 33.0002 33.8312ZM21.3377 32.8312H33.0002C33.0939 32.8312 33.1877 32.8625 33.2627 32.9125V31H21.3252L21.3377 32.8312Z" fill="black"/>
<path d="M29.4376 36.5687C29.4251 36.5812 29.4126 36.5875 29.4001 36.5937C29.3938 36.6 29.3876 36.6 29.3813 36.6062C29.3751 36.6125 29.3688 36.6125 29.3626 36.6187C29.3563 36.625 29.3501 36.625 29.3438 36.6312C29.3313 36.6375 29.3126 36.6437 29.3001 36.65C29.2876 36.6562 29.2688 36.6625 29.2501 36.6625C29.2438 36.6625 29.2313 36.6625 29.2251 36.6687C29.2188 36.675 29.2063 36.6687 29.2001 36.6687C29.1938 36.6687 29.1813 36.6687 29.1751 36.6687C29.1688 36.6687 29.1563 36.6687 29.1501 36.6687H28.3188C28.2626 36.85 28.2376 37.05 28.2376 37.25V38.5H28.7376C29.0126 38.5 29.2376 38.725 29.2376 39V37.2C29.2376 36.95 29.3251 36.7249 29.4751 36.5499C29.4501 36.5562 29.4438 36.5625 29.4376 36.5687ZM41.6751 35.2H30.2188C29.7251 35.2 29.2751 35.375 28.9313 35.6687C28.6251 35.925 28.4001 36.275 28.2938 36.6687C28.2501 36.8375 28.2251 37.0125 28.2251 37.2V44.525C28.2251 45.6312 29.1188 46.525 30.2251 46.525H41.6813C42.7876 46.525 43.6813 45.6312 43.6813 44.525V37.2C43.6751 36.0937 42.7813 35.2 41.6751 35.2ZM42.6751 44.525C42.6751 45.075 42.2251 45.525 41.6751 45.525H30.2188C29.6688 45.525 29.2188 45.075 29.2188 44.525V37.2C29.2188 36.95 29.3063 36.7249 29.4563 36.5499C29.4813 36.5249 29.5001 36.5 29.5251 36.475C29.7063 36.3062 29.9438 36.2062 30.2126 36.2062H41.6688C42.2188 36.2062 42.6688 36.6562 42.6688 37.2062V44.525H42.6751ZM29.4376 36.5687C29.4251 36.5812 29.4126 36.5875 29.4001 36.5937C29.3938 36.6 29.3876 36.6 29.3813 36.6062C29.3751 36.6125 29.3688 36.6125 29.3626 36.6187C29.3563 36.625 29.3501 36.625 29.3438 36.6312C29.3313 36.6375 29.3126 36.6437 29.3001 36.65C29.2876 36.6562 29.2688 36.6625 29.2501 36.6625C29.2438 36.6625 29.2313 36.6625 29.2251 36.6687C29.2188 36.675 29.2063 36.6687 29.2001 36.6687C29.1938 36.6687 29.1813 36.6687 29.1751 36.6687C29.1688 36.6687 29.1563 36.6687 29.1501 36.6687H28.3188C28.2626 36.85 28.2376 37.05 28.2376 37.25V38.5H28.7376C29.0126 38.5 29.2376 38.725 29.2376 39V37.2C29.2376 36.95 29.3251 36.7249 29.4751 36.5499C29.4501 36.5562 29.4438 36.5625 29.4376 36.5687Z" fill="black"/>
<path d="M42.675 41.0687V44.525C42.675 45.075 42.225 45.525 41.675 45.525H30.2188C29.6687 45.525 29.2188 45.075 29.2188 44.525V41.0687C29.525 41.25 29.8875 41.3562 30.2688 41.3562H30.5V41.9625C30.5063 42.725 31.125 43.3312 31.8875 43.325H31.95C32.7062 43.3187 33.3125 42.7062 33.3125 41.95V41.3562H38.575V41.95C38.575 42.7062 39.1875 43.325 39.95 43.325H40.0063C40.7563 43.3125 41.3563 42.7 41.3563 41.95V41.3562H41.6313C42.0063 41.3625 42.3687 41.2562 42.675 41.0687Z" fill="#F6911E"/>
<path d="M42.675 37.25V39.3125C42.675 39.8875 42.2063 40.3562 41.625 40.3562H41.35V38.8875C41.35 38.6125 41.125 38.3875 40.85 38.3875H39.0688C38.7938 38.3875 38.5688 38.6125 38.5688 38.8875V40.3562H33.3125V38.8875C33.3125 38.6125 33.0875 38.3875 32.8125 38.3875H31C30.725 38.3875 30.5 38.6125 30.5 38.8875V40.3562H30.2688C29.6938 40.3562 29.2188 39.8875 29.2188 39.3125V37.25C29.2188 36.6687 29.6875 36.2 30.2688 36.2H41.625C42.2063 36.2 42.675 36.6687 42.675 37.25Z" fill="#F6911E"/>
<path d="M43.675 37.25V39.3125C43.675 40.0562 43.275 40.7125 42.675 41.0687C42.3687 41.25 42.0063 41.3562 41.625 41.3562H40.9C40.625 41.3562 40.4 41.1312 40.4 40.8562C40.4 40.5812 40.625 40.3562 40.9 40.3562H41.625C42.2 40.3562 42.675 39.8875 42.675 39.3125V37.25C42.675 36.6687 42.2063 36.2 41.625 36.2H30.2688C29.6875 36.2 29.2188 36.6687 29.2188 37.25V39.3125C29.2188 39.8875 29.6875 40.3562 30.2688 40.3562H31C31.275 40.3562 31.5 40.5812 31.5 40.8562C31.5 41.1312 31.275 41.3562 31 41.3562H30.2688C29.8875 41.3562 29.525 41.25 29.2188 41.0687C28.6687 40.7437 28.2875 40.1625 28.225 39.5C28.2188 39.4375 28.2188 39.375 28.2188 39.3125V37.25C28.2188 37.05 28.25 36.8562 28.3 36.6687C28.4188 36.275 28.65 35.925 28.9625 35.6687C29.3187 35.375 29.7688 35.2 30.2688 35.2H41.625C42.7563 35.2 43.675 36.1187 43.675 37.25Z" fill="black"/>
<path d="M39.5438 40.8625C39.5438 41.1375 39.3188 41.3625 39.0438 41.3625H32.8188C32.5438 41.3625 32.3188 41.1375 32.3188 40.8625C32.3188 40.5875 32.5438 40.3625 32.8188 40.3625H39.0438C39.3188 40.3625 39.5438 40.5813 39.5438 40.8625Z" fill="black"/>
<path d="M38.0751 32.6H33.8188C33.6251 32.6 33.4376 32.6375 33.2626 32.7062C33.2626 32.7062 33.2563 32.7062 33.2501 32.7125C33.1688 32.7437 33.0938 32.7875 33.0188 32.8312C32.6688 33.05 32.4188 33.4062 32.3438 33.8312C32.3251 33.9187 32.3188 34.0062 32.3188 34.1V35.7C32.3188 35.975 32.5438 36.2 32.8188 36.2H39.0751C39.3501 36.2 39.5751 35.975 39.5751 35.7V34.1C39.5751 33.2687 38.9063 32.6 38.0751 32.6ZM33.3188 35.2V34.1C33.3188 33.825 33.5438 33.6 33.8188 33.6H38.0751C38.3501 33.6 38.5751 33.825 38.5751 34.1V35.2H33.3188Z" fill="black"/>
<path d="M40.8501 38.3875H39.0688C38.7938 38.3875 38.5688 38.6125 38.5688 38.8875V41.95C38.5688 42.7062 39.1813 43.325 39.9438 43.325H40.0001C40.7501 43.3125 41.3501 42.7 41.3501 41.95V38.8875C41.3501 38.6125 41.1251 38.3875 40.8501 38.3875ZM40.3751 41.9625C40.3751 42.1687 40.2063 42.3312 40.0001 42.325H39.9438C39.7376 42.325 39.5688 42.1562 39.5688 41.95V39.3875H40.3751V41.9625Z" fill="black"/>
<path d="M32.8125 38.3875H31C30.725 38.3875 30.5 38.6125 30.5 38.8875V41.9625C30.5063 42.7249 31.125 43.3312 31.8875 43.325H31.95C32.7062 43.3187 33.3125 42.7062 33.3125 41.95V38.8875C33.3125 38.6125 33.0875 38.3875 32.8125 38.3875ZM32.3125 41.9562C32.3125 42.1624 32.1437 42.3312 31.9375 42.3312H31.875C31.6688 42.3312 31.5 42.1624 31.5 41.9562V39.3937H32.3125V41.9562Z" fill="black"/>
</svg>
