<svg width="32" height="32" viewBox="0 0 32 32" fill="none" xmlns="http://www.w3.org/2000/svg">
<path d="M28.0725 12.4668C27.9646 12.5747 27.8989 12.7249 27.8989 12.8797C27.8989 13.0346 27.9599 13.1847 28.0725 13.2926C28.1805 13.4005 28.3306 13.4662 28.4854 13.4662C28.6403 13.4662 28.7904 13.4052 28.8983 13.2926C29.0063 13.1847 29.0673 13.0346 29.0673 12.8797C29.0673 12.7249 29.0063 12.5747 28.8983 12.4668C28.7904 12.3589 28.6403 12.2932 28.4854 12.2932C28.3353 12.2932 28.1805 12.3542 28.0725 12.4668Z" fill="black"/>
<path d="M28.0025 22.3202C28.8753 21.5883 29.4336 20.4903 29.4336 19.2657C29.4336 17.0698 27.6459 15.2821 25.45 15.2821H23.5075V9.47331L27.904 7.64339V10.5337C27.904 10.8575 28.1668 11.1202 28.4905 11.1202C28.8143 11.1202 29.077 10.8575 29.077 10.5337V6.76128C29.077 6.52668 28.9363 6.31084 28.7157 6.22169L16.2489 1.02756C16.1034 0.966562 15.9439 0.966562 15.7984 1.02756L3.33156 6.22169C3.11103 6.31084 2.97027 6.52668 2.97027 6.76128C2.97027 6.99589 3.11103 7.21172 3.33156 7.30087L8.53977 9.46861V15.2774H3.18141C2.85766 15.2774 2.5949 15.5402 2.5949 15.8639V22.0762H1.60018C1.27643 22.0762 1.01367 22.339 1.01367 22.6628V30.3953C1.01367 30.7191 1.27643 30.9818 1.60018 30.9818H26.5621C29.016 30.9818 31.0148 28.983 31.0148 26.529C31.0148 24.5818 29.7527 22.9208 28.0025 22.3202ZM25.45 16.4551C26.9984 16.4551 28.2606 17.7173 28.2606 19.2657C28.2606 20.8188 26.9984 22.0762 25.45 22.0762H20.1245C20.8424 21.3537 21.2882 20.3589 21.2882 19.2657C21.2882 18.4915 21.0676 17.7501 20.6594 17.1167L23.0008 16.4551H25.45ZM16.0893 17.1918L9.71279 15.4229V9.96128L15.7984 12.4997C15.8688 12.5279 15.9486 12.5466 16.0236 12.5466C16.0987 12.5466 16.1785 12.5325 16.2489 12.4997L22.3345 9.96128V15.4229L16.0893 17.1918ZM5.08171 6.76598L16.0236 2.20527L25.558 6.17947H16.0236C15.6999 6.17947 15.4371 6.44222 15.4371 6.76598C15.4371 7.08973 15.6999 7.35249 16.0236 7.35249H25.558L16.0236 11.3267L5.08171 6.76598ZM3.76792 19.8522H11.7961C12.1198 19.8522 12.3826 19.5894 12.3826 19.2657C12.3826 18.9419 12.1198 18.6792 11.7961 18.6792H3.76792V16.4504H9.04182L15.9298 18.3648C15.9814 18.3789 16.033 18.3883 16.0893 18.3883C16.1409 18.3883 16.1972 18.3789 16.2489 18.3648L19.4582 17.4545C19.8852 17.9613 20.1151 18.5947 20.1151 19.2657C20.1151 20.8188 18.853 22.0762 17.3046 22.0762H3.76792V19.8522ZM15.3104 29.8135H2.18669V28.4059H15.0758C15.3996 28.4059 15.6624 28.1431 15.6624 27.8193C15.6624 27.4956 15.3996 27.2328 15.0758 27.2328H2.18669V25.8252H9.27643C9.60018 25.8252 9.86294 25.5625 9.86294 25.2387C9.86294 24.915 9.60018 24.6522 9.27643 24.6522H2.18669V23.2446H15.3104C17.1216 23.2446 18.5902 24.7179 18.5902 26.5243C18.5902 28.3308 17.1216 29.8135 15.3104 29.8135ZM26.5621 29.8135H18.3181C19.2049 28.9971 19.7632 27.8287 19.7632 26.5337C19.7632 25.234 19.2049 24.0657 18.3181 23.254H26.5621C28.3732 23.254 29.8418 24.7273 29.8418 26.5337C29.8418 28.3402 28.3732 29.8135 26.5621 29.8135Z" fill="black"/>
<path d="M16.0235 7.35254H25.5578L16.0235 11.3267L5.08154 6.76603L16.0235 2.20532L25.5578 6.17952H16.0235C15.6997 6.17952 15.437 6.44227 15.437 6.76603C15.437 7.08978 15.6997 7.35254 16.0235 7.35254Z" fill="#F6911E"/>
<path d="M12.0118 24.6569C11.857 24.6569 11.7068 24.7179 11.5989 24.8305C11.491 24.9384 11.4253 25.0885 11.4253 25.2434C11.4253 25.3982 11.4863 25.5484 11.5989 25.6563C11.7068 25.7642 11.857 25.8299 12.0118 25.8299C12.1666 25.8299 12.3168 25.7689 12.4247 25.6563C12.5326 25.5484 12.5983 25.3982 12.5983 25.2434C12.5983 25.0885 12.5373 24.9384 12.4247 24.8305C12.3168 24.7179 12.1666 24.6569 12.0118 24.6569Z" fill="black"/>
</svg>
