<svg width="512" height="512" viewBox="0 0 512 512" fill="none" xmlns="http://www.w3.org/2000/svg">
<path d="M312.475 372.17V405.6C312.475 414.718 304.171 422.108 293.926 422.108H71.7912C61.5461 422.108 53.2424 414.718 53.2424 405.6V372.17C53.2424 363.061 61.5461 355.67 71.7912 355.67H293.926C304.171 355.67 312.475 363.061 312.475 372.17Z" fill="#DD9F3A"/>
<path d="M312.479 372.17V405.6C312.479 414.124 305.217 421.144 295.897 422.019C295.247 422.078 294.597 422.108 293.931 422.108H117.447C107.21 422.108 98.906 414.718 98.906 405.6V372.17C98.906 363.061 107.21 355.67 117.447 355.67H293.931C304.175 355.67 312.479 363.061 312.479 372.17Z" fill="#F4B74A"/>
<path d="M312.491 372.169V405.599C312.491 414.123 305.228 421.143 295.908 422.018C294.217 422.077 292.526 422.107 290.836 422.107C272.911 422.107 254.987 418.822 238.296 412.241C227.093 407.83 216.465 401.93 206.754 394.555C204.155 392.583 201.64 390.508 199.183 388.328C188.213 378.566 179.627 367.492 173.413 355.669H293.942C304.186 355.669 312.491 363.06 312.491 372.169Z" fill="#DD9F3A"/>
<path d="M324.98 305.724V339.154C324.98 348.271 316.677 355.661 306.432 355.661H84.2966C74.0515 355.661 65.7478 348.271 65.7478 339.154V305.724C65.7478 296.614 74.0515 289.224 84.2966 289.224H306.432C316.676 289.224 324.98 296.613 324.98 305.724Z" fill="#DD9F3A"/>
<path d="M312.479 305.724V339.154C312.479 348.271 304.176 355.661 293.931 355.661H117.447C107.21 355.661 98.906 348.271 98.906 339.154V305.724C98.906 296.614 107.21 289.224 117.447 289.224H293.931C304.175 289.224 312.479 296.614 312.479 305.724Z" fill="#F4B74A"/>
<path d="M312.475 305.725V339.155C312.475 348.272 304.171 355.662 293.926 355.662H185.873C174.904 334.796 171.339 311.603 175.187 289.225H293.926C304.17 289.225 312.475 296.614 312.475 305.725Z" fill="#DD9F3A"/>
<path d="M312.475 106.389V139.819C312.475 148.936 304.171 156.326 293.926 156.326H71.7912C61.5461 156.326 53.2424 148.936 53.2424 139.819V106.389C53.2424 97.2793 61.5461 89.8887 71.7912 89.8887H293.926C304.171 89.8887 312.475 97.2785 312.475 106.389Z" fill="#DD9F3A"/>
<path d="M312.48 106.389V139.819C312.48 148.936 304.176 156.326 293.931 156.326H117.447C107.211 156.326 98.9065 148.936 98.9065 139.819V106.389C98.9065 97.2793 107.21 89.8887 117.447 89.8887H293.931C304.176 89.8887 312.48 97.2785 312.48 106.389Z" fill="#F4B74A"/>
<path d="M281.99 89.8887H254.784V156.334H281.99V89.8887Z" fill="#F9C662"/>
<path d="M234.795 89.8887H221.192V156.334H234.795V89.8887Z" fill="#F9C662"/>
<path d="M345.793 172.834V206.264C345.793 215.382 337.489 222.772 327.244 222.772H105.109C94.8635 222.772 86.5598 215.382 86.5598 206.264V172.834C86.5598 163.725 94.8635 156.334 105.109 156.334H327.244C337.49 156.334 345.793 163.725 345.793 172.834Z" fill="#DD9F3A"/>
<path d="M345.805 172.834V206.264C345.805 215.382 337.501 222.772 327.256 222.772H150.772C140.536 222.772 132.231 215.382 132.231 206.264V172.834C132.231 163.725 140.535 156.334 150.772 156.334H327.256C337.501 156.334 345.805 163.725 345.805 172.834Z" fill="#F4B74A"/>
<path d="M314.751 156.334H287.545V222.779H314.751V156.334Z" fill="#F9C662"/>
<path d="M267.548 156.334H253.945V222.779H267.548V156.334Z" fill="#F9C662"/>
<path d="M345.796 195.463V206.263C345.796 215.38 337.492 222.77 327.247 222.77H222.792C256.683 194.336 303.576 185.234 345.796 195.463Z" fill="#DD9F3A"/>
<path d="M312.475 239.279V272.708C312.475 281.826 304.171 289.216 293.926 289.216H71.7912C61.5461 289.216 53.2424 281.826 53.2424 272.708V239.279C53.2424 230.169 61.5461 222.778 71.7912 222.778H293.926C304.171 222.778 312.475 230.169 312.475 239.279Z" fill="#DD9F3A"/>
<path d="M312.479 239.28V272.709C312.479 281.827 304.176 289.217 293.931 289.217H117.447C107.21 289.217 98.906 281.827 98.906 272.709V239.28C98.906 230.17 107.21 222.779 117.447 222.779H293.931C304.175 222.78 312.479 230.17 312.479 239.28Z" fill="#F4B74A"/>
<path d="M312.484 239.28V272.709C312.484 281.827 304.181 289.217 293.936 289.217H162.703C166.726 265.779 178.887 243.238 199.168 225.189C200.092 224.366 201.025 223.565 201.967 222.779H293.936C304.18 222.78 312.484 230.17 312.484 239.28Z" fill="#DD9F3A"/>
<path d="M420.786 388.321C381.798 423.013 324.162 430.988 276.598 412.236C265.397 407.824 254.763 401.93 245.057 394.553C242.457 392.583 239.936 390.502 237.48 388.321C186.865 343.271 186.865 270.237 237.48 225.187C288.101 180.142 370.165 180.142 420.786 225.187C423.243 227.373 425.574 229.617 427.789 231.93C436.078 240.562 442.701 250.031 447.658 260.001C468.73 302.325 459.768 353.624 420.786 388.321Z" fill="#F4B74A"/>
<path d="M447.66 259.999L276.601 412.234C265.399 407.822 254.765 401.927 245.059 394.551L427.791 231.929C436.08 240.56 442.703 250.03 447.66 259.999Z" fill="#F9C662"/>
<path d="M420.797 306.768C420.797 351.816 379.762 388.335 329.144 388.335C300.572 388.335 275.056 376.703 258.244 358.464C245.271 344.391 237.492 326.388 237.492 306.769C237.492 261.721 278.527 225.202 329.145 225.202C351.196 225.202 371.427 232.136 387.237 243.682C407.726 258.637 420.797 281.345 420.797 306.768Z" fill="#FFD488"/>
<path d="M387.237 243.683L258.256 358.47L258.245 358.465C254.459 354.359 251.114 349.915 248.282 345.195C245.053 339.832 242.485 334.115 240.664 328.117C238.596 321.311 237.492 314.152 237.492 306.769C237.492 261.721 278.527 225.202 329.145 225.202C337.447 225.202 345.491 226.184 353.133 228.025C359.873 229.646 366.296 231.937 372.323 234.81C377.626 237.332 382.618 240.313 387.237 243.683Z" fill="#F9C662"/>
<path d="M372.308 234.79L248.268 345.174C245.039 339.81 242.471 334.094 240.649 328.095L353.118 228.004C359.857 229.625 366.281 231.916 372.308 234.79Z" fill="#FFD488"/>
<path d="M262.278 416.535H71.7951C65.0116 416.535 59.4943 411.624 59.4943 405.589V372.159C59.4943 366.123 65.0124 361.212 71.7951 361.212H84.2894H117.449H192.594C196.045 361.212 198.841 358.723 198.841 355.652C198.841 352.582 196.045 350.092 192.594 350.092H117.448H84.2894C77.5058 350.092 71.9886 345.182 71.9886 339.145V305.716C71.9886 299.679 77.5066 294.768 84.2894 294.768H181.211C184.662 294.768 187.458 292.279 187.458 289.209C187.458 286.138 184.662 283.649 181.211 283.649H71.7951C65.0116 283.649 59.4943 278.738 59.4943 272.702V239.272C59.4943 233.236 65.0124 228.325 71.7951 228.325H105.113H155.114H216.609C220.06 228.325 222.856 225.836 222.856 222.765C222.856 219.695 220.06 217.206 216.609 217.206H155.114H105.113C98.3291 217.206 92.8118 212.295 92.8118 206.259V172.829C92.8118 166.792 98.3299 161.882 105.113 161.882H293.931H327.249C334.033 161.882 339.55 166.792 339.55 172.829V176.975C339.55 180.046 342.346 182.535 345.797 182.535C349.248 182.535 352.044 180.046 352.044 176.975V172.829C352.044 160.661 340.922 150.762 327.249 150.762H315.445C317.528 147.533 318.725 143.797 318.725 139.815V106.384C318.725 94.2161 307.603 84.3174 293.93 84.3174H71.7951C58.1227 84.3217 47 94.2204 47 106.387V139.817C47 151.985 58.1227 161.884 71.7951 161.884H83.5979C81.5152 165.113 80.3175 168.849 80.3175 172.831V206.261C80.3175 210.244 81.5152 213.979 83.5979 217.208H71.7951C58.1227 217.207 47 227.106 47 239.273V272.703C47 282.324 53.9582 290.522 63.6286 293.533C61.0193 297.027 59.4943 301.214 59.4943 305.716V339.145C59.4943 343.646 61.0193 347.834 63.6286 351.328C53.9582 354.339 47 362.537 47 372.158V405.588C47 417.755 58.1227 427.654 71.7951 427.654H262.278C265.729 427.654 268.525 425.165 268.525 422.094C268.525 419.024 265.727 416.535 262.278 416.535ZM59.4935 139.817V106.387C59.4935 100.351 65.0116 95.4403 71.7943 95.4403H293.93C300.714 95.4403 306.231 100.351 306.231 106.387V139.817C306.231 145.854 300.713 150.764 293.93 150.764H105.113H71.7951C65.0116 150.764 59.4935 145.854 59.4935 139.817Z" fill="black"/>
<path d="M403.218 205.402C400.328 203.726 396.457 204.452 394.574 207.024C392.689 209.596 393.506 213.041 396.396 214.717C431.527 235.092 452.501 269.505 452.501 306.771C452.501 367.311 397.158 416.564 329.132 416.564C261.106 416.564 205.763 367.311 205.763 306.771C205.763 246.232 261.106 196.979 329.132 196.979C346.993 196.979 364.219 200.3 380.33 206.849C383.47 208.125 387.175 206.894 388.607 204.101C390.041 201.309 388.659 198.011 385.52 196.735C367.769 189.519 348.797 185.86 329.132 185.86C254.218 185.86 193.269 240.101 193.269 306.771C193.269 373.441 254.218 427.682 329.132 427.682C404.046 427.682 464.995 373.442 464.995 306.772C464.995 265.732 441.901 227.837 403.218 205.402Z" fill="black"/>
<path d="M253.783 342.568C252.158 339.861 248.374 338.838 245.33 340.286C242.287 341.733 241.139 345.102 242.766 347.81C247.294 355.35 253.066 362.266 259.92 368.366C279.006 385.352 304.076 393.845 329.146 393.845C354.215 393.845 379.285 385.352 398.371 368.366C436.542 334.396 436.542 279.121 398.371 245.151C379.88 228.694 355.295 219.632 329.146 219.632C302.996 219.632 278.411 228.695 259.92 245.151C235.202 267.148 225.515 299.49 234.64 329.555C235.54 332.519 238.967 334.273 242.3 333.473C245.63 332.672 247.601 329.62 246.701 326.656C238.739 300.423 247.19 272.204 268.755 253.013C284.886 238.658 306.334 230.75 329.146 230.75C351.959 230.75 373.407 238.657 389.538 253.013C422.838 282.649 422.838 330.869 389.538 360.504C356.238 390.139 302.056 390.139 268.755 360.504C262.769 355.178 257.731 349.143 253.783 342.568Z" fill="black"/>
<path d="M307.121 327.726C307.121 324.655 304.325 322.166 300.874 322.166C297.423 322.166 294.626 324.655 294.626 327.726C294.626 340.711 306.836 351.538 322.894 353.804V357.074C322.894 360.144 325.69 362.633 329.141 362.633C332.592 362.633 335.388 360.144 335.388 357.074V353.804C351.446 351.538 363.654 340.71 363.654 327.726C363.654 314.741 351.446 303.913 335.388 301.647V271.031C344.496 272.92 351.161 278.824 351.161 285.8C351.161 288.871 353.957 291.36 357.408 291.36C360.859 291.36 363.655 288.871 363.655 285.8C363.655 272.815 351.447 261.988 335.389 259.722V256.452C335.389 253.382 332.593 250.893 329.142 250.893C325.691 250.893 322.895 253.382 322.895 256.452V259.722C306.837 261.989 294.627 272.816 294.627 285.8C294.627 298.785 306.837 309.612 322.895 311.879V342.494C313.785 340.605 307.121 334.701 307.121 327.726ZM351.159 327.726C351.159 334.701 344.494 340.605 335.386 342.494V312.958C344.494 314.846 351.159 320.751 351.159 327.726ZM307.121 285.8C307.121 278.824 313.786 272.92 322.895 271.031V300.568C313.785 298.68 307.121 292.776 307.121 285.8Z" fill="black"/>
</svg>
