<svg width="512" height="512" viewBox="0 0 512 512" fill="none" xmlns="http://www.w3.org/2000/svg">
<g clip-path="url(#clip0)">
<path d="M256 69.333C205.257 69.333 164.125 110.465 164.125 161.208C164.125 202.231 224.172 277 247.177 304.139C251.836 309.637 260.171 309.637 264.823 304.139C287.828 277 347.875 202.231 347.875 161.208C347.875 110.465 306.743 69.333 256 69.333ZM256 191.833C239.083 191.833 225.375 178.125 225.375 161.208C225.375 144.291 239.083 130.583 256 130.583C272.917 130.583 286.625 144.291 286.625 161.208C286.625 178.125 272.917 191.833 256 191.833ZM60.6708 226.797C56.3409 228.528 52.6291 231.518 50.0141 235.379C47.3992 239.24 46.001 243.797 46 248.46V430.985C46 439.239 54.3344 444.883 61.9979 441.821L162.667 396V226.046C156.221 214.393 150.949 203.048 147.172 192.198L60.6708 226.797ZM256 331.592C245.741 331.592 236.035 327.086 229.378 319.226C215.043 302.309 199.796 283.044 186 263.284V395.992L326 442.659V263.291C312.204 283.044 296.965 302.316 282.622 319.233C275.965 327.086 266.259 331.592 256 331.592ZM450.002 186.846L349.333 232.666V442.666L451.329 401.869C455.66 400.138 459.372 397.149 461.987 393.288C464.602 389.426 466 384.87 466 380.206V197.681C466 189.427 457.666 183.783 450.002 186.846Z" fill="#FF3F3F"/>
</g>
<defs>
<clipPath id="clip0">
<rect width="420" height="373.333" fill="white" transform="translate(46 69.333)"/>
</clipPath>
</defs>
</svg>
