<svg width="20" height="20" viewBox="0 0 20 20" fill="none" xmlns="http://www.w3.org/2000/svg">
<path d="M3.13789 14.1001C3.04589 14.3218 2.99364 14.5641 2.99364 14.8186V15.8436C2.99364 16.8879 3.84326 17.7376 4.88757 17.7376H11.7186C11.9742 17.7376 12.2262 17.6844 12.4605 17.5843C12.8241 17.6775 13.2008 17.7376 13.5936 17.7376C16.1544 17.7376 18.2375 15.6544 18.2375 13.0937C18.2375 10.9912 16.8068 9.1677 14.8436 8.62695V7.71251C14.8436 7.03951 14.4882 6.45126 13.9579 6.11526C14.1181 5.83764 14.2168 5.52008 14.2168 5.17714V4.15364C14.2168 3.11083 13.3684 2.26245 12.3253 2.26245H5.48995C4.44689 2.26245 3.59845 3.11083 3.59845 4.15364V5.1772C3.59845 5.8497 3.95364 6.43733 4.4837 6.77276C4.32357 7.05089 4.22495 7.36901 4.22495 7.71258V8.73126C4.22495 8.9582 4.27145 9.17301 4.34476 9.37489H3.6562C2.6122 9.37489 1.76257 10.2245 1.76257 11.2688V12.2875C1.76257 13.1508 2.34676 13.873 3.13789 14.1001ZM4.88757 16.4876C4.53264 16.4876 4.24364 16.1986 4.24364 15.8436V14.8186C4.24364 14.4673 4.53264 14.1814 4.88757 14.1814H9.0767C9.30351 15.0598 9.7672 15.8603 10.4225 16.4876H4.88757ZM16.9874 13.0938C16.9874 14.9651 15.4649 16.4876 13.5936 16.4876C13.235 16.4876 12.8926 16.4348 12.5691 16.329C12.4097 16.2787 12.2558 16.2173 12.1083 16.1457C11.0759 15.6448 10.3539 14.645 10.2203 13.4793C10.2044 13.354 10.1999 13.2238 10.2 13.0938C10.2 12.1157 10.6187 11.1895 11.3484 10.5523L11.4326 10.479C12.0323 9.9767 12.7998 9.69989 13.5936 9.69989C13.7638 9.69989 13.9119 9.71126 14.0669 9.7377L14.0779 9.73964C15.7371 9.97151 16.9874 11.4121 16.9874 13.0938ZM4.84851 4.15364C4.84851 3.80026 5.13626 3.51245 5.49001 3.51245H12.3253C12.679 3.51245 12.9668 3.8002 12.9668 4.15364V5.1772C12.9668 5.53089 12.6791 5.8187 12.3253 5.8187H6.11251H5.48995C5.13626 5.8187 4.84845 5.53095 4.84845 5.1772L4.84851 4.15364ZM5.47501 8.73126V7.71258C5.47501 7.35764 5.76095 7.06864 6.11251 7.06864H12.3253H12.95C13.3049 7.06864 13.5936 7.35764 13.5936 7.71258V8.44989C13.3555 8.44989 13.1197 8.47133 12.887 8.50701C12.8673 8.51001 12.8475 8.51151 12.8279 8.51476C12.6043 8.55201 12.3854 8.6077 12.1711 8.67645C12.1461 8.68451 12.1209 8.69145 12.0959 8.69989C11.8842 8.77183 11.6793 8.85983 11.481 8.9612C11.4576 8.9732 11.4343 8.98483 11.4111 8.9972C11.2156 9.10151 11.0284 9.21983 10.8504 9.35176C10.8387 9.36039 10.8254 9.3662 10.8138 9.37489H10.4937H6.11251C5.76095 9.37489 5.47501 9.08614 5.47501 8.73126ZM3.01257 11.2688C3.01257 10.9138 3.30126 10.6248 3.6562 10.6248H6.11251H9.65989C9.22551 11.3172 8.99532 12.117 8.95282 12.9313H4.88757H3.6562C3.30126 12.9313 3.01257 12.6423 3.01257 12.2874V11.2688Z" fill="#F6911E"/>
</svg>
