<svg width="20" height="20" viewBox="0 0 20 20" fill="none" xmlns="http://www.w3.org/2000/svg">
<path fill-rule="evenodd" clip-rule="evenodd" d="M7.68628 3.14668C7.96582 2.20785 8.78566 1.25 10 1.25C11.2147 1.25 12.0337 2.20789 12.3154 3.14495C12.3168 3.1467 12.3187 3.1489 12.3211 3.15143C12.3269 3.15746 12.3334 3.16299 12.3396 3.16729C12.3443 3.17056 12.3472 3.17196 12.3475 3.17213C13.0544 3.46318 13.8864 3.92809 14.5372 4.77928C15.1932 5.63732 15.6199 6.82844 15.6199 8.49023C15.6199 10.1471 15.7947 11.0557 16.0522 11.6794C16.2779 12.2263 16.5747 12.5858 16.997 13.0974C17.0587 13.1721 17.1231 13.25 17.1903 13.3323L17.1904 13.3325C17.9688 14.2859 17.2338 15.625 16.0348 15.625H13.125C13.125 16.4538 12.7958 17.2487 12.2097 17.8347C11.6237 18.4208 10.8288 18.75 10 18.75C9.17122 18.75 8.37637 18.4208 7.79032 17.8347C7.20427 17.2487 6.87503 16.4538 6.87503 15.625H3.96917C2.77236 15.625 2.02497 14.2927 2.80978 13.3323C2.87704 13.25 2.94145 13.172 3.00318 13.0972C3.42545 12.5857 3.72229 12.2262 3.94819 11.6793C4.20585 11.0555 4.38108 10.1469 4.38206 8.49023M8.12503 15.625C8.12503 16.1223 8.32257 16.5992 8.6742 16.9508C9.02583 17.3025 9.50274 17.5 10 17.5C10.4973 17.5 10.9742 17.3025 11.3258 16.9508C11.6775 16.5992 11.875 16.1223 11.875 15.625H8.12503ZM3.96917 14.375C3.84071 14.375 3.78288 14.3159 3.75965 14.2704C3.74627 14.2442 3.74226 14.2187 3.74419 14.1974C3.74589 14.1786 3.75285 14.1537 3.77773 14.1232L3.77777 14.1232C3.83813 14.0493 3.89895 13.976 3.95983 13.9026C4.37878 13.3977 4.80103 12.8888 5.10352 12.1565C5.45121 11.3147 5.63106 10.2185 5.63206 8.4906V8.49023C5.63206 7.05058 5.99648 6.14008 6.45717 5.53769C6.92302 4.92857 7.5334 4.57386 8.13045 4.32797C8.1305 4.32796 8.13054 4.32794 8.13059 4.32792C8.4488 4.19702 8.76631 3.9054 8.88098 3.51467L8.88144 3.51312C9.05928 2.90126 9.51883 2.5 10 2.5C10.4812 2.5 10.9409 2.90097 11.1211 3.51408L11.1215 3.51567C11.2355 3.89988 11.5497 4.19559 11.8715 4.32794C12.4673 4.57322 13.0779 4.92862 13.5442 5.53849C14.0053 6.14159 14.3699 7.05242 14.3699 8.49023C14.3699 10.2181 14.5492 11.3144 14.8967 12.1563C15.199 12.8888 15.6213 13.3978 16.0403 13.9027C16.1012 13.9761 16.162 14.0493 16.2223 14.1232C16.2614 14.1712 16.2646 14.221 16.2392 14.2711C16.2155 14.3179 16.1586 14.375 16.0348 14.375H3.96917ZM7.68628 3.14668C7.6852 3.14796 7.68385 3.14947 7.6822 3.15118C7.67688 3.1567 7.67059 3.16202 7.66431 3.16634C7.65849 3.17035 7.65499 3.17192 7.65499 3.17193L7.65462 3.17208C6.94742 3.46331 6.11508 3.92734 5.46426 4.77833C4.80831 5.63603 4.38212 6.82698 4.38206 8.48987" fill="#F6911E"/>
</svg>
