<svg width="14" height="15" viewBox="0 0 14 15" fill="none" xmlns="http://www.w3.org/2000/svg">
<path d="M7.74026 2.74025C7.91529 2.56527 8.15264 2.46698 8.40013 2.46698C8.64762 2.46698 8.88497 2.56527 9.06 2.74025L13.26 6.94025C13.435 7.11527 13.5333 7.35263 13.5333 7.60011C13.5333 7.8476 13.435 8.08495 13.26 8.25998L9.06 12.46C8.88397 12.63 8.64821 12.7241 8.40349 12.7219C8.15877 12.7198 7.92468 12.6217 7.75163 12.4486C7.57859 12.2756 7.48043 12.0415 7.4783 11.7968C7.47617 11.552 7.57025 11.3163 7.74026 11.1402L10.2668 8.53345H1.40013C1.15259 8.53345 0.915198 8.43511 0.740164 8.26008C0.56513 8.08505 0.466797 7.84765 0.466797 7.60011C0.466797 7.35258 0.56513 7.11518 0.740164 6.94015C0.915198 6.76511 1.15259 6.66678 1.40013 6.66678H10.2668L7.74026 4.05998C7.56529 3.88495 7.467 3.6476 7.467 3.40011C7.467 3.15263 7.56529 2.91527 7.74026 2.74025Z" fill="black"/>
</svg>
