<svg width="112" height="64" viewBox="0 0 112 64" fill="none" xmlns="http://www.w3.org/2000/svg">
<g clip-path="url(#clip0_746_70433)">
<path d="M91.68 64H20.32C14.8225 64.0275 10.2025 59.87 9.65252 54.4L5.33252 10.6675H106.665L102.293 54.4C101.745 59.85 97.1575 64 91.68 64Z" fill="#F0F0F0"/>
<path d="M56 56C54.5275 56 53.3325 54.805 53.3325 53.3325V21.3325C53.3325 19.86 54.5275 18.665 56 18.665C57.4725 18.665 58.6675 19.86 58.6675 21.3325V53.3325C58.6675 54.805 57.4725 56 56 56Z" fill="#DBDBDB"/>
<path d="M40 56C38.5275 56 37.3325 54.805 37.3325 53.3325V21.3325C37.3325 19.86 38.5275 18.665 40 18.665C41.4725 18.665 42.6675 19.86 42.6675 21.3325V53.3325C42.6675 54.805 41.4725 56 40 56Z" fill="#DBDBDB"/>
<path d="M24 56C22.5275 56 21.3325 54.805 21.3325 53.3325V21.3325C21.3325 19.86 22.5275 18.665 24 18.665C25.4725 18.665 26.6675 19.86 26.6675 21.3325V53.3325C26.6675 54.805 25.4725 56 24 56Z" fill="#DBDBDB"/>
<path d="M72 56C70.5275 56 69.3325 54.805 69.3325 53.3325V21.3325C69.3325 19.86 70.5275 18.665 72 18.665C73.4725 18.665 74.6675 19.86 74.6675 21.3325V53.3325C74.6675 54.805 73.4725 56 72 56Z" fill="#DBDBDB"/>
<path d="M88 56C86.5275 56 85.3325 54.805 85.3325 53.3325V21.3325C85.3325 19.86 86.5275 18.665 88 18.665C89.4725 18.665 90.6675 19.86 90.6675 21.3325V53.3325C90.6675 54.805 89.4725 56 88 56Z" fill="#DBDBDB"/>
<path d="M109.332 0H2.6675C1.19428 0 0 1.19428 0 2.6675V8C0 9.47322 1.19428 10.6675 2.6675 10.6675H109.332C110.806 10.6675 112 9.47322 112 8V2.6675C112 1.19428 110.806 0 109.332 0Z" fill="url(#paint0_linear_746_70433)"/>
<path d="M5.33247 42.6675C3.85997 42.675 2.65997 41.49 2.64997 40.0175C2.64497 39.3 2.92997 38.6125 3.43997 38.1075L38.1075 3.44C39.1525 2.395 40.8475 2.395 41.895 3.44C42.9425 4.485 42.94 6.18 41.895 7.2275L7.22747 41.8925C6.72497 42.3925 6.04247 42.67 5.33497 42.665L5.33247 42.6675Z" fill="#F6921E"/>
<path d="M106.667 42.6675C108.14 42.675 109.34 41.49 109.35 40.0175C109.355 39.3 109.07 38.6125 108.56 38.1075L73.8925 3.44C72.8475 2.395 71.1525 2.395 70.105 3.44C69.0575 4.485 69.06 6.18 70.105 7.2275L104.772 41.895C105.275 42.395 105.957 42.6725 106.665 42.6675H106.667Z" fill="#F6921E"/>
</g>
<defs>
<linearGradient id="paint0_linear_746_70433" x1="56" y1="10.6675" x2="56" y2="0" gradientUnits="userSpaceOnUse">
<stop stop-color="#DDDDDD"/>
<stop offset="1" stop-color="#F0F7FC"/>
</linearGradient>
<clipPath id="clip0_746_70433">
<rect width="112" height="64" fill="white"/>
</clipPath>
</defs>
</svg>
