<svg width="147" height="50" viewBox="0 0 147 50" fill="none" xmlns="http://www.w3.org/2000/svg">
<rect width="147" height="50" rx="5" fill="#333333"/>
<path d="M43.9077 16V8.17969H46.1152C46.7956 8.17969 47.3971 8.33008 47.9199 8.63086C48.4427 8.93164 48.8455 9.35954 49.1284 9.91455C49.4149 10.4696 49.5599 11.1069 49.5635 11.8267V12.3262C49.5635 13.0638 49.4202 13.7101 49.1338 14.2651C48.8509 14.8201 48.4445 15.2463 47.9146 15.5435C47.3882 15.8407 46.7741 15.9928 46.0723 16H43.9077ZM44.939 9.02832V15.1567H46.0239C46.8188 15.1567 47.4365 14.9097 47.877 14.4155C48.321 13.9214 48.543 13.2178 48.543 12.3047V11.8481C48.543 10.9601 48.3335 10.2708 47.9146 9.78027C47.4992 9.28613 46.9084 9.03548 46.1421 9.02832H44.939ZM50.7075 13.0405C50.7075 12.4712 50.8185 11.9591 51.0405 11.5044C51.2661 11.0496 51.5776 10.6987 51.9751 10.4517C52.3761 10.2046 52.8327 10.0811 53.3447 10.0811C54.1361 10.0811 54.7752 10.355 55.2622 10.9028C55.7528 11.4507 55.998 12.1794 55.998 13.0889V13.1587C55.998 13.7244 55.8888 14.2329 55.6704 14.6841C55.4556 15.1317 55.1458 15.4808 54.7412 15.7314C54.3402 15.9821 53.8783 16.1074 53.3555 16.1074C52.5677 16.1074 51.9285 15.8335 51.438 15.2856C50.951 14.7378 50.7075 14.0127 50.7075 13.1104V13.0405ZM51.7065 13.1587C51.7065 13.8032 51.8551 14.3206 52.1523 14.7109C52.4531 15.1012 52.8542 15.2964 53.3555 15.2964C53.8604 15.2964 54.2614 15.0994 54.5586 14.7056C54.8558 14.3081 55.0044 13.7531 55.0044 13.0405C55.0044 12.4032 54.8522 11.8875 54.5479 11.4937C54.2471 11.0962 53.846 10.8975 53.3447 10.8975C52.8542 10.8975 52.4585 11.0926 52.1577 11.4829C51.8569 11.8732 51.7065 12.4318 51.7065 13.1587ZM62.3896 14.6304L63.5068 10.1885H64.5005L62.8086 16H62.0029L60.5903 11.5957L59.2153 16H58.4097L56.7231 10.1885H57.7114L58.8555 14.5391L60.209 10.1885H61.0093L62.3896 14.6304ZM66.4556 10.1885L66.4878 10.9189C66.9318 10.3604 67.5119 10.0811 68.228 10.0811C69.4562 10.0811 70.0757 10.7739 70.0864 12.1597V16H69.0928V12.1543C69.0892 11.7354 68.9925 11.4256 68.8027 11.2251C68.6165 11.0246 68.3247 10.9243 67.9272 10.9243C67.605 10.9243 67.3221 11.0103 67.0786 11.1821C66.8351 11.354 66.6453 11.5796 66.5093 11.8589V16H65.5156V10.1885H66.4556ZM72.6646 16H71.6709V7.75H72.6646V16ZM73.9966 13.0405C73.9966 12.4712 74.1076 11.9591 74.3296 11.5044C74.5552 11.0496 74.8667 10.6987 75.2642 10.4517C75.6652 10.2046 76.1217 10.0811 76.6338 10.0811C77.4251 10.0811 78.0643 10.355 78.5513 10.9028C79.0418 11.4507 79.2871 12.1794 79.2871 13.0889V13.1587C79.2871 13.7244 79.1779 14.2329 78.9595 14.6841C78.7446 15.1317 78.4349 15.4808 78.0303 15.7314C77.6292 15.9821 77.1673 16.1074 76.6445 16.1074C75.8568 16.1074 75.2176 15.8335 74.7271 15.2856C74.2401 14.7378 73.9966 14.0127 73.9966 13.1104V13.0405ZM74.9956 13.1587C74.9956 13.8032 75.1442 14.3206 75.4414 14.7109C75.7422 15.1012 76.1432 15.2964 76.6445 15.2964C77.1494 15.2964 77.5505 15.0994 77.8477 14.7056C78.1449 14.3081 78.2935 13.7531 78.2935 13.0405C78.2935 12.4032 78.1413 11.8875 77.8369 11.4937C77.5361 11.0962 77.1351 10.8975 76.6338 10.8975C76.1432 10.8975 75.7476 11.0926 75.4468 11.4829C75.146 11.8732 74.9956 12.4318 74.9956 13.1587ZM84.1211 16C84.0638 15.8854 84.0173 15.6813 83.9814 15.3877C83.5195 15.8675 82.9681 16.1074 82.3271 16.1074C81.7542 16.1074 81.2834 15.9463 80.9146 15.624C80.5493 15.2982 80.3667 14.8864 80.3667 14.3887C80.3667 13.7835 80.5959 13.3145 81.0542 12.9814C81.5161 12.6449 82.1642 12.4766 82.9985 12.4766H83.9653V12.02C83.9653 11.6727 83.8615 11.397 83.6538 11.1929C83.4461 10.9852 83.14 10.8813 82.7354 10.8813C82.3809 10.8813 82.0837 10.9709 81.8438 11.1499C81.6038 11.3289 81.4839 11.5456 81.4839 11.7998H80.4849C80.4849 11.5098 80.5869 11.2305 80.791 10.9619C80.9987 10.6898 81.278 10.4749 81.6289 10.3174C81.9834 10.1598 82.3719 10.0811 82.7944 10.0811C83.464 10.0811 83.9886 10.2493 84.3682 10.5859C84.7477 10.9189 84.9447 11.3791 84.959 11.9663V14.6411C84.959 15.1746 85.027 15.599 85.1631 15.9141V16H84.1211ZM82.4722 15.2427C82.7837 15.2427 83.0791 15.1621 83.3584 15.001C83.6377 14.8398 83.84 14.6304 83.9653 14.3726V13.1802H83.1865C81.9691 13.1802 81.3604 13.5365 81.3604 14.249C81.3604 14.5605 81.4642 14.804 81.6719 14.9795C81.8796 15.1549 82.1463 15.2427 82.4722 15.2427ZM86.2749 13.0459C86.2749 12.1543 86.4862 11.4382 86.9087 10.8975C87.3312 10.3532 87.8844 10.0811 88.5684 10.0811C89.2487 10.0811 89.7876 10.3138 90.1851 10.7793V7.75H91.1787V16H90.2656L90.2173 15.377C89.8198 15.8639 89.2666 16.1074 88.5576 16.1074C87.8844 16.1074 87.3348 15.8317 86.9087 15.2803C86.4862 14.7288 86.2749 14.0091 86.2749 13.1211V13.0459ZM87.2686 13.1587C87.2686 13.8175 87.4046 14.3332 87.6768 14.7056C87.9489 15.078 88.3249 15.2642 88.8047 15.2642C89.4349 15.2642 89.895 14.9813 90.1851 14.4155V11.7461C89.8879 11.1982 89.4313 10.9243 88.8154 10.9243C88.3285 10.9243 87.9489 11.1123 87.6768 11.4883C87.4046 11.8643 87.2686 12.4211 87.2686 13.1587ZM95.1909 13.0405C95.1909 12.4712 95.3019 11.9591 95.5239 11.5044C95.7495 11.0496 96.061 10.6987 96.4585 10.4517C96.8595 10.2046 97.3161 10.0811 97.8281 10.0811C98.6195 10.0811 99.2586 10.355 99.7456 10.9028C100.236 11.4507 100.481 12.1794 100.481 13.0889V13.1587C100.481 13.7244 100.372 14.2329 100.154 14.6841C99.939 15.1317 99.6292 15.4808 99.2246 15.7314C98.8236 15.9821 98.3617 16.1074 97.8389 16.1074C97.0511 16.1074 96.4119 15.8335 95.9214 15.2856C95.4344 14.7378 95.1909 14.0127 95.1909 13.1104V13.0405ZM96.1899 13.1587C96.1899 13.8032 96.3385 14.3206 96.6357 14.7109C96.9365 15.1012 97.3376 15.2964 97.8389 15.2964C98.3438 15.2964 98.7448 15.0994 99.042 14.7056C99.3392 14.3081 99.4878 13.7531 99.4878 13.0405C99.4878 12.4032 99.3356 11.8875 99.0312 11.4937C98.7305 11.0962 98.3294 10.8975 97.8281 10.8975C97.3376 10.8975 96.9419 11.0926 96.6411 11.4829C96.3403 11.8732 96.1899 12.4318 96.1899 13.1587ZM102.667 10.1885L102.7 10.9189C103.144 10.3604 103.724 10.0811 104.44 10.0811C105.668 10.0811 106.288 10.7739 106.298 12.1597V16H105.305V12.1543C105.301 11.7354 105.204 11.4256 105.015 11.2251C104.828 11.0246 104.537 10.9243 104.139 10.9243C103.817 10.9243 103.534 11.0103 103.291 11.1821C103.047 11.354 102.857 11.5796 102.721 11.8589V16H101.728V10.1885H102.667ZM111.874 8.78125V10.1885H112.958V10.9565H111.874V14.5605C111.874 14.7933 111.922 14.9688 112.019 15.0869C112.115 15.2015 112.28 15.2588 112.513 15.2588C112.627 15.2588 112.785 15.2373 112.985 15.1943V16C112.724 16.0716 112.47 16.1074 112.223 16.1074C111.779 16.1074 111.444 15.9731 111.218 15.7046C110.993 15.436 110.88 15.0547 110.88 14.5605V10.9565H109.822V10.1885H110.88V8.78125H111.874ZM115.118 10.8921C115.558 10.3514 116.131 10.0811 116.836 10.0811C118.065 10.0811 118.684 10.7739 118.695 12.1597V16H117.701V12.1543C117.698 11.7354 117.601 11.4256 117.411 11.2251C117.225 11.0246 116.933 10.9243 116.536 10.9243C116.213 10.9243 115.931 11.0103 115.687 11.1821C115.444 11.354 115.254 11.5796 115.118 11.8589V16H114.124V7.75H115.118V10.8921ZM122.594 16.1074C121.806 16.1074 121.166 15.8496 120.671 15.334C120.177 14.8148 119.93 14.1219 119.93 13.2554V13.0728C119.93 12.4963 120.039 11.9824 120.258 11.5312C120.48 11.0765 120.788 10.722 121.182 10.4678C121.579 10.21 122.009 10.0811 122.471 10.0811C123.226 10.0811 123.813 10.3299 124.232 10.8276C124.651 11.3254 124.861 12.0379 124.861 12.9653V13.3789H120.924C120.938 13.9518 121.105 14.4155 121.423 14.77C121.746 15.1209 122.154 15.2964 122.648 15.2964C122.999 15.2964 123.296 15.2248 123.54 15.0815C123.783 14.9383 123.996 14.7485 124.179 14.5122L124.786 14.9849C124.299 15.7332 123.568 16.1074 122.594 16.1074ZM122.471 10.8975C122.07 10.8975 121.733 11.0443 121.461 11.3379C121.189 11.6279 121.021 12.0361 120.956 12.5625H123.867V12.4873C123.839 11.9824 123.702 11.5921 123.459 11.3164C123.215 11.0371 122.886 10.8975 122.471 10.8975Z" fill="white"/>
<path d="M53.9728 39.357H56.4566L50.9964 24.2512H48.4602L43 39.357H45.4419L46.8253 35.2744H52.5894L53.9728 39.357ZM49.6759 26.7636H49.7388L51.9921 33.3901H47.4227L49.6759 26.7636Z" fill="white"/>
<path d="M63.5937 28.1664C62.0007 28.1664 60.7326 28.9725 60.0828 30.2391H60.0409V28.3444H57.8505V43H60.1142V37.546H60.1666C60.7955 38.7708 62.0531 39.5455 63.6356 39.5455C66.4024 39.5455 68.2364 37.3366 68.2364 33.8507C68.2364 30.3647 66.3919 28.1664 63.5937 28.1664ZM62.9963 37.6298C61.2566 37.6298 60.1038 36.1433 60.1038 33.8507C60.1038 31.5791 61.2671 30.0716 62.9963 30.0716C64.7884 30.0716 65.9098 31.5477 65.9098 33.8507C65.9098 36.1642 64.7884 37.6298 62.9963 37.6298Z" fill="white"/>
<path d="M75.7298 28.1664C74.1368 28.1664 72.8687 28.9725 72.2189 30.2391H72.177V28.3444H69.9866V43H72.2504V37.546H72.3028C72.9316 38.7708 74.1892 39.5455 75.7717 39.5455C78.5385 39.5455 80.3726 37.3366 80.3726 33.8507C80.3726 30.3647 78.528 28.1664 75.7298 28.1664ZM75.1324 37.6298C73.3927 37.6298 72.2399 36.1433 72.2399 33.8507C72.2399 31.5791 73.4032 30.0716 75.1324 30.0716C76.9246 30.0716 78.046 31.5477 78.046 33.8507C78.046 36.1642 76.9246 37.6298 75.1324 37.6298Z" fill="white"/>
<path d="M86.0843 35.1488C86.231 37.881 88.4948 39.6083 91.8484 39.6083C95.4327 39.6083 97.6859 37.8391 97.6859 35.0127C97.6859 32.8039 96.3969 31.5581 93.2947 30.8253L91.6284 30.4171C89.679 29.9355 88.8825 29.3074 88.8825 28.2397C88.8825 26.8997 90.1297 25.9785 91.9532 25.9785C93.7768 25.9785 95.024 26.8893 95.1602 28.3967H97.4449C97.3715 25.7901 95.1812 24 91.9847 24C88.7568 24 86.4826 25.7901 86.4826 28.3967C86.4826 30.5008 87.7716 31.7989 90.5489 32.4689L92.5087 32.9399C94.4685 33.4215 95.2964 34.1229 95.2964 35.2953C95.2964 36.6457 93.9235 37.6298 92.0161 37.6298C90.0249 37.6298 88.5681 36.6457 88.4004 35.1488H86.0843Z" fill="white"/>
<path d="M100.18 25.7377V28.3444H98.5768V30.1344H100.18V36.4573C100.18 38.5824 101.05 39.4303 103.282 39.4303C103.785 39.4303 104.288 39.3884 104.54 39.3256V37.5355C104.393 37.5669 104.026 37.5879 103.796 37.5879C102.874 37.5879 102.454 37.1587 102.454 36.2061V30.1344H104.55V28.3444H102.454V25.7377H100.18Z" fill="white"/>
<path d="M110.881 39.5664C114.035 39.5664 116.11 37.3994 116.11 33.8507C116.11 30.3124 114.025 28.1455 110.881 28.1455C107.736 28.1455 105.651 30.3124 105.651 33.8507C105.651 37.3994 107.726 39.5664 110.881 39.5664ZM110.881 37.703C109.109 37.703 107.957 36.3003 107.957 33.8507C107.957 31.4116 109.109 30.0088 110.881 30.0088C112.652 30.0088 113.805 31.4116 113.805 33.8507C113.805 36.3003 112.662 37.703 110.881 37.703Z" fill="white"/>
<path d="M117.86 39.357H120.124V32.762C120.124 31.2022 121.025 30.2287 122.482 30.2287C122.922 30.2287 123.321 30.281 123.499 30.3543V28.2501C123.331 28.2187 123.048 28.1664 122.723 28.1664C121.424 28.1664 120.439 28.9306 120.072 30.2182H120.019V28.3444H117.86V39.357Z" fill="white"/>
<path d="M129.032 29.9669C130.615 29.9669 131.684 31.1499 131.736 32.8353H126.224C126.339 31.1708 127.45 29.9669 129.032 29.9669ZM131.726 36.1223C131.422 37.0854 130.468 37.7344 129.179 37.7344C127.366 37.7344 126.213 36.4678 126.213 34.5521V34.416H134V33.6413C134 30.3019 132.093 28.1455 129.032 28.1455C125.92 28.1455 123.928 30.4485 123.928 33.903C123.928 37.3785 125.888 39.5664 129.127 39.5664C131.652 39.5664 133.56 38.1322 133.874 36.1223H131.726Z" fill="white"/>
<path d="M31.5734 25.9109C31.5579 23.2879 32.7515 21.3111 35.1618 19.8534C33.8137 17.9304 31.7743 16.8728 29.0858 16.6689C26.5403 16.4689 23.7554 18.1458 22.7356 18.1458C21.6579 18.1458 19.1936 16.7382 17.2545 16.7382C13.2528 16.7997 9 19.915 9 26.2532C9 28.1262 9.34378 30.0607 10.0313 32.0529C10.9506 34.6759 14.2648 41.1026 17.7219 40.9988C19.5296 40.9564 20.8082 39.7219 23.1605 39.7219C25.4433 39.7219 26.6253 40.9988 28.6416 40.9988C32.1296 40.9488 35.127 35.1067 36 32.476C31.3223 30.2799 31.5734 26.0455 31.5734 25.9109ZM27.5137 14.1806C29.4721 11.8653 29.2944 9.75766 29.2365 9C27.506 9.1 25.5051 10.173 24.3657 11.4922C23.1103 12.9075 22.3725 14.6575 22.5309 16.6305C24.4004 16.7728 26.1077 15.8151 27.5137 14.1806Z" fill="white"/>
</svg>
