<svg width="147" height="50" viewBox="0 0 147 50" fill="none" xmlns="http://www.w3.org/2000/svg">
<rect width="147" height="50" rx="5" fill="#333333"/>
<path d="M29.0918 29.929C32.8897 27.8437 35.7688 26.2547 36.0169 26.1311C36.8108 25.709 37.6306 24.5916 36.0169 23.7237C35.4959 23.4507 32.6908 21.9112 29.0918 19.9258L24.1025 24.9645L29.0918 29.9289V29.929Z" fill="#FFD900"/>
<path d="M24.1021 24.9644L8.21582 40.9753C8.58871 41.0247 9.00968 40.9259 9.50601 40.653C10.548 40.0826 21.5945 34.0501 29.0913 29.9301L24.1021 24.9644Z" fill="#F43249"/>
<path d="M24.1024 24.9643L29.0916 19.9504C29.0916 19.9504 10.6237 9.87165 9.50628 9.2767C9.08531 9.02736 8.61355 8.9533 8.19141 9.02736L24.1024 24.9643Z" fill="#00EE76"/>
<path d="M24.1024 24.9643L8.19144 9.02734C7.5457 9.17664 7 9.74714 7 10.9139V39.0887C7 40.1566 7.42226 40.9258 8.21613 40.9999L24.1024 24.9643Z" fill="#00D3FF"/>
<path d="M47.9448 14.9741C47.6799 15.3537 47.3092 15.6383 46.833 15.8281C46.3604 16.0143 45.8089 16.1074 45.1787 16.1074C44.5413 16.1074 43.9756 15.9588 43.4814 15.6616C42.9873 15.3608 42.6042 14.9347 42.332 14.3833C42.0635 13.8319 41.9256 13.1927 41.9185 12.4658V11.7837C41.9185 10.6056 42.1924 9.69255 42.7402 9.04443C43.2917 8.39632 44.0651 8.07227 45.0605 8.07227C45.877 8.07227 46.534 8.28174 47.0317 8.70068C47.5295 9.11605 47.8338 9.70687 47.9448 10.4731H46.9136C46.7202 9.43831 46.1043 8.9209 45.0659 8.9209C44.3748 8.9209 43.8503 9.16439 43.4922 9.65137C43.1377 10.1348 42.9587 10.8366 42.9551 11.7568V12.396C42.9551 13.2733 43.1556 13.9715 43.5566 14.4907C43.9577 15.0063 44.5002 15.2642 45.1841 15.2642C45.5708 15.2642 45.9092 15.2212 46.1992 15.1353C46.4893 15.0493 46.7292 14.9043 46.9189 14.7002V12.9438H45.1089V12.106H47.9448V14.9741ZM51.9248 16.1074C51.137 16.1074 50.4961 15.8496 50.002 15.334C49.5078 14.8148 49.2607 14.1219 49.2607 13.2554V13.0728C49.2607 12.4963 49.37 11.9824 49.5884 11.5312C49.8104 11.0765 50.1183 10.722 50.5122 10.4678C50.9097 10.21 51.3394 10.0811 51.8013 10.0811C52.5568 10.0811 53.144 10.3299 53.563 10.8276C53.9819 11.3254 54.1914 12.0379 54.1914 12.9653V13.3789H50.2544C50.2687 13.9518 50.4352 14.4155 50.7539 14.77C51.0762 15.1209 51.4844 15.2964 51.9785 15.2964C52.3294 15.2964 52.6266 15.2248 52.8701 15.0815C53.1136 14.9383 53.3267 14.7485 53.5093 14.5122L54.1162 14.9849C53.6292 15.7332 52.8988 16.1074 51.9248 16.1074ZM51.8013 10.8975C51.4002 10.8975 51.0636 11.0443 50.7915 11.3379C50.5194 11.6279 50.3511 12.0361 50.2866 12.5625H53.1978V12.4873C53.1691 11.9824 53.033 11.5921 52.7896 11.3164C52.5461 11.0371 52.2166 10.8975 51.8013 10.8975ZM56.6943 8.78125V10.1885H57.7793V10.9565H56.6943V14.5605C56.6943 14.7933 56.7427 14.9688 56.8394 15.0869C56.936 15.2015 57.1007 15.2588 57.3335 15.2588C57.4481 15.2588 57.6056 15.2373 57.8062 15.1943V16C57.5448 16.0716 57.2905 16.1074 57.0435 16.1074C56.5994 16.1074 56.2646 15.9731 56.0391 15.7046C55.8135 15.436 55.7007 15.0547 55.7007 14.5605V10.9565H54.6426V10.1885H55.7007V8.78125H56.6943ZM62.7529 16H61.7593V10.1885H62.7529V16ZM61.6787 8.64697C61.6787 8.48584 61.7271 8.34977 61.8237 8.23877C61.924 8.12777 62.0708 8.07227 62.2642 8.07227C62.4575 8.07227 62.6043 8.12777 62.7046 8.23877C62.8049 8.34977 62.855 8.48584 62.855 8.64697C62.855 8.80811 62.8049 8.94238 62.7046 9.0498C62.6043 9.15723 62.4575 9.21094 62.2642 9.21094C62.0708 9.21094 61.924 9.15723 61.8237 9.0498C61.7271 8.94238 61.6787 8.80811 61.6787 8.64697ZM65.2881 10.1885L65.3203 10.9189C65.7643 10.3604 66.3444 10.0811 67.0605 10.0811C68.2887 10.0811 68.9082 10.7739 68.9189 12.1597V16H67.9253V12.1543C67.9217 11.7354 67.825 11.4256 67.6353 11.2251C67.4491 11.0246 67.1572 10.9243 66.7598 10.9243C66.4375 10.9243 66.1546 11.0103 65.9111 11.1821C65.6676 11.354 65.4779 11.5796 65.3418 11.8589V16H64.3481V10.1885H65.2881ZM72.8828 13.0405C72.8828 12.4712 72.9938 11.9591 73.2158 11.5044C73.4414 11.0496 73.7529 10.6987 74.1504 10.4517C74.5514 10.2046 75.008 10.0811 75.52 10.0811C76.3114 10.0811 76.9505 10.355 77.4375 10.9028C77.9281 11.4507 78.1733 12.1794 78.1733 13.0889V13.1587C78.1733 13.7244 78.0641 14.2329 77.8457 14.6841C77.6309 15.1317 77.3211 15.4808 76.9165 15.7314C76.5155 15.9821 76.0535 16.1074 75.5308 16.1074C74.743 16.1074 74.1038 15.8335 73.6133 15.2856C73.1263 14.7378 72.8828 14.0127 72.8828 13.1104V13.0405ZM73.8818 13.1587C73.8818 13.8032 74.0304 14.3206 74.3276 14.7109C74.6284 15.1012 75.0295 15.2964 75.5308 15.2964C76.0356 15.2964 76.4367 15.0994 76.7339 14.7056C77.0311 14.3081 77.1797 13.7531 77.1797 13.0405C77.1797 12.4032 77.0275 11.8875 76.7231 11.4937C76.4224 11.0962 76.0213 10.8975 75.52 10.8975C75.0295 10.8975 74.6338 11.0926 74.333 11.4829C74.0322 11.8732 73.8818 12.4318 73.8818 13.1587ZM80.3594 10.1885L80.3916 10.9189C80.8356 10.3604 81.4157 10.0811 82.1318 10.0811C83.36 10.0811 83.9795 10.7739 83.9902 12.1597V16H82.9966V12.1543C82.993 11.7354 82.8963 11.4256 82.7065 11.2251C82.5203 11.0246 82.2285 10.9243 81.8311 10.9243C81.5088 10.9243 81.2259 11.0103 80.9824 11.1821C80.7389 11.354 80.5492 11.5796 80.4131 11.8589V16H79.4194V10.1885H80.3594Z" fill="white"/>
<path d="M73.8591 28.4325C71.1891 28.4325 68.9831 30.4987 68.9831 33.3317C68.9831 36.1415 71.1659 38.2308 73.8593 38.2308C76.5525 38.2308 78.7351 36.1647 78.7351 33.3317C78.7351 30.4987 76.5525 28.4325 73.8591 28.4325ZM73.8591 36.2814C72.3959 36.2814 71.1197 35.0503 71.1197 33.3098C71.1197 31.5452 72.3969 30.3383 73.8591 30.3383C75.3212 30.3383 76.5985 31.5452 76.5985 33.3098C76.5985 35.0503 75.3212 36.2814 73.8591 36.2814ZM63.248 28.4325C60.5546 28.4325 58.3717 30.4987 58.3717 33.3317C58.3717 36.1415 60.5546 38.2308 63.248 38.2308C65.9411 38.2308 68.124 36.1647 68.124 33.3317C68.124 30.4987 65.9411 28.4325 63.2477 28.4325H63.248ZM63.248 36.2814C61.7846 36.2814 60.5086 35.0503 60.5086 33.3098C60.5086 31.5452 61.7858 30.3383 63.248 30.3383C64.7111 30.3383 65.9874 31.5452 65.9874 33.3098C65.9874 35.0503 64.733 36.2814 63.248 36.2814ZM50.6398 29.9419V32.0081H55.5619C55.422 33.169 55.0285 34.028 54.4475 34.609C53.728 35.3285 52.6135 36.1184 50.6398 36.1184C47.5976 36.1184 45.2533 33.6574 45.2533 30.6154C45.2533 27.5735 47.5989 25.0659 50.6398 25.0659C52.2878 25.0659 53.4728 25.7163 54.355 26.5525L55.8171 25.0891C54.5861 23.9053 52.9381 23 50.6398 23C46.483 23 43 26.4126 43 30.5692C43 34.7259 46.483 38.1386 50.6398 38.1386C52.8919 38.1386 54.5642 37.3959 55.9107 36.0019C57.2805 34.6321 57.6985 32.7045 57.6985 31.1491C57.6985 30.6617 57.6525 30.2203 57.582 29.8486L50.6398 29.9419ZM102.233 31.5439C101.838 30.4525 100.585 28.4325 98.0762 28.4325C95.5679 28.4325 93.5017 30.4064 93.5017 33.3317C93.5017 36.0711 95.5679 38.2308 98.3086 38.2308C100.537 38.2308 101.815 36.861 102.348 36.0711L100.7 34.9568C100.143 35.7698 99.4 36.3032 98.3086 36.3032C97.2171 36.3032 96.4514 35.8158 95.963 34.8169L102.441 32.1007L102.233 31.5439ZM95.6383 33.1931C95.5923 31.3118 97.1017 30.337 98.1687 30.337C99.028 30.337 99.7247 30.755 99.9797 31.3822L95.6383 33.1931ZM90.3675 37.9062H92.5041V23.5565H90.3675V37.9062ZM86.8854 29.524H86.816C86.3286 28.9431 85.4233 28.4325 84.2614 28.4325C81.8233 28.4325 79.6175 30.5923 79.6175 33.3317C79.6175 36.0711 81.8464 38.208 84.2614 38.208C85.422 38.208 86.3276 37.6972 86.816 37.0931H86.8854V37.7897C86.8854 39.6711 85.8863 40.6687 84.2846 40.6687C82.9842 40.6687 82.1711 39.7171 81.8464 38.9272L79.9895 39.7171C80.5229 41.0175 81.94 42.6195 84.2846 42.6195C86.7919 42.6195 88.9053 41.1332 88.9053 37.5345V28.7341H86.8854V29.524ZM84.4473 36.2814C82.9841 36.2814 81.7542 35.0503 81.7542 33.333C81.7542 31.6156 82.9852 30.3612 84.4473 30.3612C85.8875 30.3612 87.0481 31.6156 87.0481 33.333C87.0471 35.0272 85.8863 36.2814 84.4473 36.2814ZM112.194 23.5568H107.086V37.9062H109.222V32.4724H112.194C114.563 32.4724 116.884 30.7537 116.884 28.0146C116.884 25.2752 114.563 23.5565 112.194 23.5565V23.5568ZM112.263 30.4769H109.244V25.5533H112.263C113.842 25.5533 114.771 26.8769 114.771 28.0143C114.749 29.1289 113.843 30.4769 112.263 30.4769ZM125.406 28.4094C123.874 28.4094 122.271 29.0829 121.621 30.6154L123.503 31.4053C123.921 30.6154 124.664 30.3602 125.453 30.3602C126.568 30.3602 127.682 31.0334 127.706 32.2171V32.3569C127.31 32.1248 126.499 31.7992 125.477 31.7992C123.434 31.7992 121.366 32.9369 121.366 35.0272C121.366 36.9546 123.038 38.1848 124.896 38.1848C126.336 38.1848 127.125 37.5345 127.612 36.7687H127.681V37.8833H129.747V32.3798C129.724 29.8494 127.844 28.4092 125.406 28.4092V28.4094ZM125.151 36.2582C124.454 36.2582 123.479 35.9094 123.479 35.0514C123.479 33.9368 124.685 33.5188 125.731 33.5188C126.659 33.5188 127.1 33.7278 127.681 34.0062C127.519 35.3297 126.381 36.2582 125.151 36.2582ZM137.201 28.7353L134.763 34.9347H134.694L132.164 28.7351H129.865L133.673 37.4188L131.513 42.2719H133.742L139.569 28.7351H137.201L137.201 28.7353ZM118.069 37.9062H120.206V23.5565H118.069V37.9062Z" fill="white"/>
</svg>
