<svg width="24" height="24" viewBox="0 0 24 24" fill="none" xmlns="http://www.w3.org/2000/svg">
<g clip-path="url(#clip0_3019_89089)">
<path d="M22.1348 9.45525C22.5693 9.03164 22.7228 8.40993 22.5353 7.83276C22.3477 7.25559 21.8581 6.84285 21.2576 6.75562L16.0062 5.99254C15.9031 5.97759 15.814 5.91285 15.7679 5.81939L13.4194 1.06087C13.1508 0.516651 12.607 0.178589 12.0001 0.178589C11.3932 0.178589 10.8494 0.516651 10.5808 1.06087L8.23233 5.81943C8.18616 5.91285 8.0971 5.97759 7.99397 5.99259L2.74266 6.75562C2.1421 6.84285 1.65258 7.25559 1.46499 7.83276C1.27739 8.40993 1.43086 9.03164 1.86549 9.45525L5.66541 13.1593C5.73999 13.232 5.77406 13.3368 5.75644 13.4395L4.85939 18.6696C4.75683 19.2678 4.99805 19.8609 5.48902 20.2176C5.97999 20.5744 6.6188 20.6205 7.15589 20.3382L11.8528 17.8688C11.9451 17.8203 12.0552 17.8203 12.1475 17.8688L16.8444 20.3382C17.0781 20.461 17.3309 20.5217 17.5824 20.5216C17.9092 20.5216 18.2338 20.4193 18.5112 20.2176C19.0021 19.8608 19.2434 19.2676 19.1408 18.6696L18.2438 13.4394C18.2262 13.3367 18.2602 13.232 18.3348 13.1592L22.1348 9.45525ZM16.9959 13.6536L17.8929 18.8838C17.9229 19.0588 17.8149 19.1586 17.767 19.1933C17.7191 19.228 17.5908 19.3001 17.4337 19.2174L12.7367 16.7481C12.5061 16.6269 12.2532 16.5662 12.0002 16.5662C11.7472 16.5662 11.4942 16.6269 11.2637 16.748L6.56677 19.2173C6.40955 19.2999 6.28125 19.228 6.23339 19.1932C6.18553 19.1585 6.07744 19.0587 6.10749 18.8837L7.00453 13.6536C7.09261 13.14 6.9225 12.6164 6.54933 12.2527L2.74941 8.54864C2.62224 8.4246 2.65102 8.28037 2.66935 8.22412C2.68758 8.16782 2.74913 8.03418 2.92486 8.00868L8.17613 7.2456C8.69171 7.1707 9.13725 6.84707 9.36788 6.37978L11.7164 1.62121C11.795 1.46198 11.941 1.44478 12.0002 1.44478C12.0593 1.44478 12.2054 1.46193 12.2841 1.62121V1.62126L14.6325 6.37982C14.8631 6.84712 15.3086 7.17075 15.8242 7.24565L21.0756 8.00873C21.2513 8.03423 21.3128 8.16787 21.3311 8.22417C21.3494 8.28046 21.3782 8.42474 21.251 8.54868L17.451 12.2527C17.0779 12.6164 16.9078 13.14 16.9959 13.6536Z" fill="#F6911E"/>
<path d="M19.3961 1.06054C19.1131 0.855044 18.7173 0.917763 18.5118 1.20061L17.8397 2.12554C17.6342 2.40839 17.6969 2.80434 17.9798 3.00984C18.0922 3.09145 18.2224 3.13078 18.3514 3.13078C18.5472 3.13078 18.7402 3.04026 18.8641 2.86983L19.5361 1.94489C19.7416 1.662 19.679 1.26604 19.3961 1.06054Z" fill="#F6911E"/>
<path d="M6.15749 2.12178L5.48545 1.19685C5.27999 0.914097 4.88409 0.851378 4.60115 1.05678C4.31831 1.26228 4.25559 1.65824 4.46109 1.94108L5.13313 2.86602C5.25703 3.0366 5.45006 3.12707 5.6459 3.12707C5.77495 3.12707 5.90517 3.08774 6.01748 3.00608C6.30032 2.80063 6.36304 2.40468 6.15749 2.12178Z" fill="#F6911E"/>
<path d="M2.32276 14.3826C2.21471 14.0501 1.85757 13.8681 1.52499 13.9762L0.437631 14.3295C0.105053 14.4376 -0.0768692 14.7948 0.0311777 15.1273C0.118084 15.3949 0.366287 15.5649 0.633146 15.5649C0.697975 15.5649 0.763928 15.5549 0.828943 15.5337L1.9163 15.1804C2.24883 15.0723 2.4308 14.7152 2.32276 14.3826Z" fill="#F6911E"/>
<path d="M12.0002 21.4118C11.6506 21.4118 11.3671 21.6953 11.3671 22.0449V23.1883C11.3671 23.5379 11.6506 23.8214 12.0002 23.8214C12.3499 23.8214 12.6333 23.5379 12.6333 23.1883V22.0449C12.6333 21.6952 12.3499 21.4118 12.0002 21.4118Z" fill="#F6911E"/>
<path d="M23.5624 14.3304L22.475 13.977C22.1426 13.8691 21.7853 14.051 21.6773 14.3835C21.5692 14.7161 21.7511 15.0733 22.0837 15.1813L23.1711 15.5347C23.2361 15.5557 23.302 15.5658 23.3668 15.5658C23.6337 15.5658 23.8819 15.3957 23.9688 15.1281C24.0769 14.7956 23.8949 14.4384 23.5624 14.3304Z" fill="#F6911E"/>
</g>
<defs>
<clipPath id="clip0_3019_89089">
<rect width="24" height="24" fill="white"/>
</clipPath>
</defs>
</svg>
