<svg width="24" height="24" viewBox="0 0 24 24" fill="none" xmlns="http://www.w3.org/2000/svg">
<path d="M12 1.60001C10.72 1.60001 9.59999 2.72001 9.59999 4.00001C9.59999 5.28001 10.72 6.40001 12 6.40001C13.28 6.40001 14.4 5.28001 14.4 4.00001C14.4 2.72001 13.28 1.60001 12 1.60001ZM6.39999 8.00001V9.60001C6.39999 9.60001 9.59999 9.60001 9.59999 12.8V16C9.59999 19.2 6.39999 19.2 6.39999 19.2V20.8H17.6V19.2C17.6 19.2 14.4 19.2 14.4 16V9.60001C14.4 8.80001 13.6 8.00001 12.8 8.00001H6.39999Z" fill="#F6911E"/>
</svg>
