<svg width="65" height="64" viewBox="0 0 65 64" fill="none" xmlns="http://www.w3.org/2000/svg">
<rect x="0.666504" width="64" height="64" rx="32" fill="#FA9D21"/>
<path d="M45.8515 26.55L43.6315 24.33C43.627 24.3253 43.6216 24.3215 43.6156 24.3189C43.6095 24.3164 43.6031 24.315 43.5965 24.315C43.59 24.315 43.5835 24.3164 43.5775 24.3189C43.5715 24.3215 43.566 24.3253 43.5615 24.33C43.2084 24.6575 42.7422 24.8355 42.2606 24.8266C41.7791 24.8178 41.3197 24.6228 40.9789 24.2826C40.638 23.9423 40.4422 23.4833 40.4324 23.0018C40.4226 22.5203 40.5997 22.0538 40.9265 21.7C40.9313 21.6955 40.935 21.6901 40.9376 21.6841C40.9402 21.678 40.9415 21.6716 40.9415 21.665C40.9415 21.6585 40.9402 21.652 40.9376 21.646C40.935 21.64 40.9313 21.6345 40.9265 21.63L38.7065 19.41C38.6093 19.3107 38.4934 19.2317 38.3654 19.1774C38.2375 19.1231 38.1001 19.0947 37.9611 19.0938C37.8221 19.0928 37.6844 19.1194 37.5557 19.172C37.4271 19.2245 37.3101 19.302 37.2115 19.4C35.9615 20.65 34.6215 21.99 33.2365 23.375C33.2437 23.4479 33.2349 23.5214 33.2107 23.5905C33.1865 23.6596 33.1476 23.7225 33.0965 23.775C33.0501 23.8218 32.9948 23.8587 32.9338 23.8836C32.8728 23.9085 32.8074 23.9209 32.7415 23.92C32.7265 23.92 32.7115 23.915 32.6965 23.915C30.1715 26.44 27.5015 29.11 24.9365 31.675H40.3915C40.3645 31.5692 40.373 31.4575 40.4157 31.3571C40.4584 31.2566 40.5329 31.1729 40.6278 31.1189C40.7227 31.065 40.8327 31.0437 40.9409 31.0583C41.049 31.073 41.1494 31.1227 41.2265 31.2L41.5815 31.555C41.617 31.5906 41.6473 31.631 41.6715 31.675H42.2365L45.8615 28.05C46.0583 27.8494 46.1678 27.579 46.1659 27.298C46.164 27.0169 46.051 26.748 45.8515 26.55ZM34.5115 25.19C34.4651 25.2368 34.4097 25.2737 34.3488 25.2986C34.2878 25.3235 34.2224 25.3359 34.1565 25.335C34.0907 25.3354 34.0255 25.3228 33.9645 25.298C33.9036 25.2731 33.8482 25.2364 33.8015 25.19L33.4515 24.835C33.358 24.7415 33.3055 24.6147 33.3055 24.4825C33.3055 24.3503 33.358 24.2235 33.4515 24.13C33.545 24.0365 33.6718 23.984 33.804 23.984C33.9362 23.984 34.063 24.0365 34.1565 24.13L34.5115 24.485C34.5579 24.5313 34.5947 24.5862 34.6198 24.6467C34.6449 24.7072 34.6578 24.772 34.6578 24.8375C34.6578 24.903 34.6449 24.9678 34.6198 25.0283C34.5947 25.0888 34.5579 25.1438 34.5115 25.19ZM35.9265 26.605C35.8317 26.698 35.7043 26.75 35.5715 26.75C35.4388 26.75 35.3113 26.698 35.2165 26.605L34.8665 26.25C34.8191 26.2044 34.7814 26.1496 34.7556 26.0891C34.7298 26.0285 34.7165 25.9633 34.7165 25.8975C34.7165 25.8317 34.7298 25.7665 34.7556 25.706C34.7814 25.6454 34.8191 25.5907 34.8665 25.545C34.9128 25.4987 34.9677 25.4619 35.0282 25.4368C35.0887 25.4117 35.1535 25.3988 35.219 25.3988C35.2845 25.3988 35.3494 25.4117 35.4098 25.4368C35.4703 25.4619 35.5253 25.4987 35.5715 25.545L35.9265 25.895C36.0202 25.9894 36.0728 26.117 36.0728 26.25C36.0728 26.383 36.0202 26.5106 35.9265 26.605ZM37.3415 28.02C37.2459 28.1117 37.119 28.1636 36.9865 28.165C36.8539 28.1645 36.7266 28.1125 36.6315 28.02L36.2765 27.665C36.2302 27.6188 36.1934 27.5638 36.1683 27.5033C36.1432 27.4428 36.1303 27.378 36.1303 27.3125C36.1303 27.247 36.1432 27.1822 36.1683 27.1217C36.1934 27.0612 36.2302 27.0063 36.2765 26.96C36.3709 26.8663 36.4985 26.8138 36.6315 26.8138C36.7645 26.8138 36.8921 26.8663 36.9865 26.96L37.3415 27.31C37.4352 27.4044 37.4878 27.532 37.4878 27.665C37.4878 27.798 37.4352 27.9256 37.3415 28.02ZM38.7515 29.435C38.6584 29.5273 38.5327 29.5794 38.4015 29.58C38.2689 29.5795 38.1416 29.5275 38.0465 29.435L37.6915 29.08C37.6449 29.0334 37.6079 28.9781 37.5827 28.9171C37.5575 28.8562 37.5445 28.7909 37.5445 28.725C37.5445 28.6591 37.5575 28.5938 37.5827 28.5329C37.6079 28.472 37.6449 28.4166 37.6915 28.37C37.7381 28.3234 37.7935 28.2864 37.8544 28.2612C37.9153 28.236 37.9806 28.223 38.0465 28.223C38.1125 28.223 38.1777 28.236 38.2386 28.2612C38.2996 28.2864 38.3549 28.3234 38.4015 28.37L38.7515 28.725C38.8452 28.8194 38.8978 28.947 38.8978 29.08C38.8978 29.213 38.8452 29.3406 38.7515 29.435ZM40.1665 30.845C40.1209 30.8925 40.0661 30.9302 40.0056 30.956C39.945 30.9817 39.8798 30.995 39.814 30.995C39.7482 30.995 39.683 30.9817 39.6225 30.956C39.5619 30.9302 39.5072 30.8925 39.4615 30.845L39.1065 30.495C39.0128 30.4006 38.9603 30.273 38.9603 30.14C38.9603 30.007 39.0128 29.8794 39.1065 29.785C39.1528 29.7387 39.2077 29.7019 39.2682 29.6768C39.3287 29.6517 39.3935 29.6388 39.459 29.6388C39.5245 29.6388 39.5894 29.6517 39.6498 29.6768C39.7103 29.7019 39.7653 29.7387 39.8115 29.785L40.1665 30.14C40.2129 30.1863 40.2497 30.2412 40.2748 30.3017C40.2999 30.3622 40.3128 30.427 40.3128 30.4925C40.3128 30.558 40.2999 30.6228 40.2748 30.6833C40.2497 30.7438 40.2129 30.7988 40.1665 30.845Z" fill="white"/>
<path d="M29.6548 40.3613C29.5117 40.3613 29.3718 40.4038 29.2528 40.4833C29.1338 40.5628 29.041 40.6758 28.9862 40.808C28.9315 40.9403 28.9171 41.0858 28.9451 41.2261C28.973 41.3665 29.0419 41.4955 29.1431 41.5967C29.2443 41.6979 29.3732 41.7668 29.5136 41.7947C29.654 41.8226 29.7995 41.8083 29.9317 41.7535C30.0639 41.6987 30.177 41.606 30.2565 41.487C30.336 41.368 30.3784 41.2281 30.3784 41.085C30.3782 40.8931 30.3019 40.7091 30.1663 40.5735C30.0306 40.4378 29.8466 40.3615 29.6548 40.3613Z" fill="white"/>
<path d="M44.5215 36.93C44.5348 36.93 44.5475 36.9248 44.5569 36.9154C44.5662 36.906 44.5715 36.8933 44.5715 36.88V33.74C44.5727 33.459 44.4622 33.1889 44.2644 32.9892C44.0666 32.7895 43.7976 32.6765 43.5165 32.675H38.0137V32.8438C38.0137 32.9764 37.961 33.1036 37.8673 33.1974C37.7735 33.2911 37.6463 33.3438 37.5137 33.3438C37.3811 33.3438 37.2539 33.2911 37.1601 33.1974C37.0664 33.1036 37.0137 32.9764 37.0137 32.8438V32.675H20.2215C20.0822 32.6754 19.9444 32.7032 19.8159 32.7569C19.6873 32.8107 19.5707 32.8893 19.4727 32.9883C19.3747 33.0872 19.2971 33.2046 19.2446 33.3336C19.1921 33.4626 19.1655 33.6008 19.1665 33.74V36.88C19.1666 36.8933 19.1718 36.906 19.1812 36.9154C19.1906 36.9248 19.2033 36.93 19.2165 36.93C19.6975 36.9485 20.1526 37.1526 20.4863 37.4994C20.8201 37.8462 21.0065 38.3087 21.0065 38.7901C21.0065 39.2714 20.8201 39.7339 20.4863 40.0807C20.1526 40.4275 19.6975 40.6316 19.2165 40.65C19.2036 40.6509 19.1913 40.6565 19.1822 40.6657C19.173 40.6749 19.1674 40.6871 19.1665 40.7001V43.845C19.166 43.984 19.193 44.1216 19.2457 44.2501C19.2985 44.3786 19.3761 44.4954 19.4741 44.5939C19.5721 44.6924 19.6886 44.7705 19.8168 44.8239C19.9451 44.8773 20.0826 44.9049 20.2215 44.9051H37.0261C37.0206 44.8849 37.0165 44.8645 37.0137 44.8438V44.3438C37.0137 44.2112 37.0664 44.084 37.1601 43.9902C37.2539 43.8965 37.3811 43.8438 37.5137 43.8438C37.6463 43.8438 37.7735 43.8965 37.8673 43.9902C37.961 44.084 38.0137 44.2112 38.0137 44.3438V44.8438C38.0109 44.8645 38.0068 44.8849 38.0013 44.9051H43.5165C43.7968 44.9039 44.0652 44.7916 44.263 44.593C44.4607 44.3943 44.5717 44.1254 44.5715 43.845V40.7001C44.5707 40.6871 44.5651 40.6749 44.5559 40.6657C44.5467 40.6565 44.5345 40.6509 44.5215 40.65C44.0397 40.6329 43.5833 40.4295 43.2484 40.0825C42.9136 39.7356 42.7265 39.2722 42.7265 38.7901C42.7265 38.3079 42.9136 37.8445 43.2484 37.4976C43.5833 37.1506 44.0397 36.9472 44.5215 36.93ZM25.6785 34.7735C26.0193 34.7735 26.3525 34.8746 26.6359 35.064C26.9192 35.2534 27.1401 35.5226 27.2705 35.8375C27.4009 36.1524 27.435 36.4989 27.3685 36.8332C27.302 37.1674 27.1379 37.4745 26.8969 37.7155C26.6559 37.9565 26.3488 38.1206 26.0145 38.1871C25.6802 38.2536 25.3337 38.2195 25.0188 38.0891C24.7039 37.9587 24.4348 37.7379 24.2454 37.4545C24.056 37.1711 23.9549 36.838 23.9549 36.4971C23.9554 36.0401 24.1372 35.602 24.4603 35.2789C24.7834 34.9558 25.2215 34.774 25.6785 34.7735ZM24.4546 42.8086C24.3577 42.8086 24.2629 42.7804 24.1817 42.7274C24.1006 42.6745 24.0366 42.5991 23.9975 42.5104C23.9584 42.4217 23.9459 42.3236 23.9616 42.2279C23.9773 42.1323 24.0204 42.0433 24.0857 41.9717L30.5091 34.9366C30.5533 34.888 30.6066 34.8486 30.6661 34.8206C30.7255 34.7927 30.7899 34.7767 30.8556 34.7736C30.9212 34.7706 30.9868 34.7805 31.0486 34.8028C31.1104 34.8252 31.1671 34.8594 31.2157 34.9037C31.2642 34.948 31.3035 35.0015 31.3314 35.061C31.3592 35.1205 31.3751 35.1849 31.378 35.2505C31.381 35.3161 31.3709 35.3817 31.3485 35.4435C31.3261 35.5052 31.2917 35.5619 31.2473 35.6104L24.824 42.6455C24.7773 42.6971 24.7202 42.7382 24.6566 42.7663C24.593 42.7944 24.5242 42.8088 24.4546 42.8086ZM29.6546 42.8086C29.3137 42.8086 28.9804 42.7076 28.697 42.5182C28.4135 42.3288 28.1926 42.0596 28.0621 41.7446C27.9317 41.4297 27.8975 41.0831 27.9641 40.7487C28.0306 40.4144 28.1947 40.1073 28.4358 39.8662C28.6768 39.6252 28.9839 39.461 29.3183 39.3945C29.6527 39.328 29.9992 39.3621 30.3142 39.4926C30.6291 39.623 30.8983 39.844 31.0877 40.1274C31.2771 40.4109 31.3782 40.7441 31.3782 41.085C31.3777 41.542 31.1959 41.9801 30.8728 42.3032C30.5496 42.6263 30.1115 42.8081 29.6546 42.8086ZM38.0137 42.8438C38.0137 42.9764 37.961 43.1036 37.8673 43.1974C37.7735 43.2911 37.6463 43.3438 37.5137 43.3438C37.3811 43.3438 37.2539 43.2911 37.1601 43.1974C37.0664 43.1036 37.0137 42.9764 37.0137 42.8438V42.3438C37.0137 42.2112 37.0664 42.084 37.1601 41.9902C37.2539 41.8965 37.3811 41.8438 37.5137 41.8438C37.6463 41.8438 37.7735 41.8965 37.8673 41.9902C37.961 42.084 38.0137 42.2112 38.0137 42.3438V42.8438ZM38.0137 40.8438C38.0137 40.9764 37.961 41.1036 37.8673 41.1974C37.7735 41.2911 37.6463 41.3438 37.5137 41.3438C37.3811 41.3438 37.2539 41.2911 37.1601 41.1974C37.0664 41.1036 37.0137 40.9764 37.0137 40.8438V40.3438C37.0137 40.2112 37.0664 40.084 37.1601 39.9902C37.2539 39.8965 37.3811 39.8438 37.5137 39.8438C37.6463 39.8438 37.7735 39.8965 37.8673 39.9902C37.961 40.084 38.0137 40.2112 38.0137 40.3438V40.8438ZM38.0137 38.8438C38.0137 38.9764 37.961 39.1036 37.8673 39.1974C37.7735 39.2911 37.6463 39.3438 37.5137 39.3438C37.3811 39.3438 37.2539 39.2911 37.1601 39.1974C37.0664 39.1036 37.0137 38.9764 37.0137 38.8438V38.3438C37.0137 38.2112 37.0664 38.084 37.1601 37.9902C37.2539 37.8965 37.3811 37.8438 37.5137 37.8438C37.6463 37.8438 37.7735 37.8965 37.8673 37.9902C37.961 38.084 38.0137 38.2112 38.0137 38.3438V38.8438ZM38.0137 36.8438C38.0137 36.9764 37.961 37.1036 37.8673 37.1974C37.7735 37.2911 37.6463 37.3438 37.5137 37.3438C37.3811 37.3438 37.2539 37.2911 37.1601 37.1974C37.0664 37.1036 37.0137 36.9764 37.0137 36.8438V36.3438C37.0137 36.2112 37.0664 36.084 37.1601 35.9902C37.2539 35.8965 37.3811 35.8438 37.5137 35.8438C37.6463 35.8438 37.7735 35.8965 37.8673 35.9902C37.961 36.084 38.0137 36.2112 38.0137 36.3438V36.8438ZM38.0137 34.8438C38.0137 34.9764 37.961 35.1036 37.8673 35.1974C37.7735 35.2911 37.6463 35.3438 37.5137 35.3438C37.3811 35.3438 37.2539 35.2911 37.1601 35.1974C37.0664 35.1036 37.0137 34.9764 37.0137 34.8438V34.3438C37.0137 34.2112 37.0664 34.084 37.1601 33.9902C37.2539 33.8965 37.3811 33.8438 37.5137 33.8438C37.6463 33.8438 37.7735 33.8965 37.8673 33.9902C37.961 34.084 38.0137 34.2112 38.0137 34.3438V34.8438Z" fill="white"/>
<path d="M25.6787 37.2202C25.8218 37.2202 25.9616 37.1777 26.0806 37.0982C26.1995 37.0186 26.2922 36.9056 26.3469 36.7734C26.4016 36.6412 26.4159 36.4958 26.3879 36.3555C26.36 36.2151 26.291 36.0863 26.1898 35.9851C26.0886 35.884 25.9597 35.8152 25.8194 35.7873C25.679 35.7594 25.5336 35.7738 25.4014 35.8286C25.2692 35.8834 25.1563 35.9761 25.0769 36.0951C24.9974 36.2141 24.955 36.354 24.9551 36.4971C24.9553 36.6889 25.0316 36.8728 25.1673 37.0084C25.303 37.1439 25.4869 37.2201 25.6787 37.2202Z" fill="white"/>
</svg>
