<svg width="65" height="64" viewBox="0 0 65 64" fill="none" xmlns="http://www.w3.org/2000/svg">
<rect x="0.333496" width="64" height="64" rx="32" fill="#FA9D21"/>
<g clip-path="url(#clip0_136_65699)">
<path d="M47.6743 27.7551C47.2898 27.3706 47.0781 26.8594 47.0781 26.3157C47.0781 25.772 47.29 25.2607 47.6743 24.8762L48.3335 24.2173L40.1162 16L39.4573 16.6592C39.0728 17.0437 38.5615 17.2554 38.0178 17.2554C37.4741 17.2554 36.9629 17.0437 36.5784 16.6592L35.9192 16L33.0686 18.8506L34.3867 20.1689L33.0686 21.4871L31.7505 20.1689L16.3335 35.5857L16.9927 36.2449C17.3772 36.6294 17.5889 37.1406 17.5889 37.6843C17.5889 38.228 17.377 38.7393 16.9927 39.1238L16.3335 39.7827L24.5508 48L25.2097 47.3408C25.5942 46.9565 26.1055 46.7446 26.6492 46.7446C27.1931 46.7446 27.7041 46.9565 28.0886 47.3408L28.7478 48L44.1646 32.583L42.8464 31.2649L44.1646 29.9468L45.4829 31.2649L48.3335 28.4143L47.6743 27.7551ZM24.6521 41.9385L23.0149 40.3013L22.3657 40.9507L21.7864 40.3711L23.832 38.3254L24.4114 38.905L23.7622 39.554L25.3994 41.1912L24.6521 41.9385ZM26.4792 40.1113L24.2627 37.8948L25.01 37.1475L27.2266 39.364L26.4792 40.1113ZM29.0222 37.6699C28.3096 38.3823 27.3088 38.4265 26.6282 37.7458C25.9473 37.0649 25.9917 36.0645 26.7041 35.3521C27.1379 34.9182 27.6384 34.7344 28.1418 34.801L28.0911 35.6938C27.7966 35.6592 27.5464 35.7192 27.3469 35.9187C27.0366 36.229 27.043 36.6533 27.3818 36.9922C27.7205 37.3311 28.1448 37.3374 28.4553 37.0271C28.6548 36.8276 28.7148 36.5774 28.6802 36.283L29.573 36.2322C29.6396 36.7358 29.4561 37.2361 29.0222 37.6699ZM31.8752 34.7153L30.5864 34.5349L30.6055 34.8894L31.1533 35.4373L30.4187 36.1721L28.2021 33.9553L28.9368 33.2207L29.741 34.0251L29.665 32.4924L30.4788 31.6787L30.5674 33.5405L32.7397 33.8508L31.8752 34.7153ZM33.0789 33.512L30.8621 31.2952L32.6638 29.4934L33.2275 30.0571L32.1604 31.1243L32.4202 31.384L33.3574 30.4465L33.8958 30.9851L32.9585 31.9224L33.2498 32.2136L34.3579 31.1052L34.9216 31.6689L33.0789 33.512ZM35.9287 30.6619L34.2915 29.0247L33.6426 29.6738L33.063 29.0945L35.1086 27.0488L35.6882 27.6282L35.0388 28.2773L36.676 29.9146L35.9287 30.6619ZM35.8623 24.2808L34.4656 22.884L35.7837 21.5657L37.1804 22.9626L35.8623 24.2808ZM38.656 27.0745L37.259 25.6775L38.5771 24.3594L39.9741 25.7563L38.656 27.0745ZM41.4495 29.8682L40.0527 28.4712L41.3708 27.1531L42.7678 28.5498L41.4495 29.8682Z" fill="white"/>
</g>
<defs>
<clipPath id="clip0_136_65699">
<rect width="32" height="32" fill="white" transform="translate(16.3335 16)"/>
</clipPath>
</defs>
</svg>
