<svg width="64" height="64" viewBox="0 0 64 64" fill="none" xmlns="http://www.w3.org/2000/svg">
<rect width="64" height="64" rx="32" fill="#FA9D21"/>
<g clip-path="url(#clip0_136_65695)">
<path d="M45.9131 22.2328H43.5837C43.891 21.7466 44.0938 21.2008 44.1516 20.6235C44.3362 18.7787 43.3647 17.125 41.7106 16.3918C40.1903 15.7178 38.4817 15.9933 37.2514 17.1092L34.3101 19.7748C33.7373 19.1483 32.9139 18.7546 32 18.7546C31.0845 18.7546 30.2598 19.1496 29.6868 19.778L26.7418 17.1089C25.5095 15.993 23.8016 15.7186 22.2819 16.3921C20.6283 17.1254 19.6566 18.7797 19.8418 20.6245C19.8997 21.2013 20.1024 21.7468 20.4096 22.2328H18.0869C16.9343 22.2328 16 23.1672 16 24.3198V27.4502C16 28.0265 16.4672 28.4937 17.0435 28.4937H46.9566C47.5328 28.4937 48.0001 28.0265 48.0001 27.4502V24.3198C48 23.1672 47.0657 22.2328 45.9131 22.2328ZM28.8696 21.885V22.2328H23.9606C22.6636 22.2328 21.6429 21.0237 21.9668 19.6733C22.1095 19.0786 22.5387 18.5717 23.0939 18.3151C23.8563 17.9627 24.7008 18.0758 25.3411 18.6554L28.8704 21.8543C28.8702 21.8646 28.8696 21.8747 28.8696 21.885ZM42.0809 20.3465C42.0031 21.431 41.0234 22.233 39.9361 22.233H35.1304V21.8851C35.1304 21.8728 35.1297 21.8606 35.1296 21.8483C35.9291 21.1236 37.6635 19.5516 38.6042 18.6989C39.1388 18.2143 39.8869 17.9881 40.5784 18.1944C41.5707 18.4904 42.1534 19.3343 42.0809 20.3465Z" fill="white"/>
<path d="M18.0869 30.5807V45.8851C18.0869 47.0377 19.0212 47.972 20.1739 47.972H29.913V30.5807H18.0869Z" fill="white"/>
<path d="M34.0869 30.5807V47.972H43.826C44.9787 47.972 45.913 47.0377 45.913 45.8851V30.5807H34.0869Z" fill="white"/>
</g>
<defs>
<clipPath id="clip0_136_65695">
<rect width="32" height="32" fill="white" transform="translate(16 16)"/>
</clipPath>
</defs>
</svg>
