<svg width="49" height="24" viewBox="0 0 49 24" fill="none" xmlns="http://www.w3.org/2000/svg">
<g clip-path="url(#clip0_415_26465)">
<path d="M48.871 11.6872C48.8617 11.706 48.8523 11.7153 48.8523 11.7341C48.7867 12.0153 48.5524 12.2121 48.2712 12.2308C47.9806 12.2496 47.7182 12.0621 47.6245 11.7903C47.512 11.4435 47.7088 11.0686 48.0556 10.9655C48.4212 10.8624 48.7773 11.078 48.8617 11.4154C48.8617 11.4342 48.8804 11.4435 48.8898 11.4529C48.871 11.5279 48.871 11.6122 48.871 11.6872ZM48.7398 11.5935C48.7398 11.3404 48.543 11.0686 48.215 11.0686C47.9057 11.0686 47.7088 11.3217 47.7088 11.5841C47.6995 11.8466 47.9619 12.0996 48.2337 12.0996C48.4961 12.0902 48.7398 11.8559 48.7398 11.5935Z" fill="#02B74F"/>
<path d="M31.7093 14.1803C31.7468 14.2085 31.7656 14.2272 31.7937 14.2366C32.2248 14.4428 32.4404 14.7989 32.5247 15.2582C32.5529 15.4269 32.581 15.605 32.581 15.7737C32.581 16.2423 32.4216 16.6547 32.1217 17.0203C31.8687 17.3296 31.5219 17.4983 31.147 17.6107C30.9314 17.6764 30.7158 17.7045 30.4909 17.7045C29.5817 17.7045 28.6632 17.7045 27.7541 17.7045C27.6041 17.7045 27.5947 17.7045 27.5947 17.5545C27.5947 15.3894 27.5947 13.2337 27.5947 11.0686C27.5947 11.0593 27.5947 11.0592 27.5947 11.0499C27.5947 10.928 27.5947 10.928 27.7166 10.9374C27.7728 10.9374 27.8197 10.9374 27.8759 10.9374C28.682 10.9374 29.4974 10.9374 30.3034 10.9374C30.7439 10.9374 31.147 11.0686 31.5125 11.3123C31.9905 11.6216 32.2436 12.0809 32.3279 12.6245C32.4123 13.2056 32.2154 13.693 31.7937 14.096C31.7656 14.1241 31.7374 14.1429 31.7093 14.1803ZM28.9538 16.4673C29.0006 16.4673 29.0381 16.4766 29.085 16.4766C29.5067 16.4766 29.9285 16.4766 30.3503 16.4766C30.4346 16.4766 30.519 16.4767 30.6034 16.4579C30.8564 16.411 31.0626 16.2892 31.1657 16.0455C31.2688 15.8112 31.2782 15.5675 31.2126 15.3238C31.1188 14.9864 30.8564 14.7989 30.5096 14.7989C30.0222 14.8083 29.5442 14.7989 29.0569 14.7989C29.0194 14.7989 28.9819 14.7989 28.9444 14.8083C28.935 14.9114 28.935 16.3642 28.9538 16.4673ZM28.9444 12.9338C28.9444 13.14 28.9444 13.3462 28.9444 13.5524C28.9444 13.5711 28.9444 13.5992 28.9444 13.618C28.9444 13.6648 28.9631 13.693 29.01 13.693C29.1131 13.693 29.2068 13.7023 29.3099 13.7023C29.5349 13.7023 29.7598 13.693 29.9848 13.693C30.0972 13.693 30.2191 13.7023 30.3315 13.693C30.5377 13.6742 30.7158 13.5805 30.8377 13.4118C31.0064 13.1868 31.0157 12.9338 30.9314 12.6807C30.8283 12.362 30.5471 12.1746 30.2003 12.1746C29.816 12.1746 29.4318 12.1746 29.0381 12.1746C28.935 12.1746 28.9256 12.184 28.9256 12.2871C28.935 12.5026 28.9444 12.7182 28.9444 12.9338Z" fill="#02B74F"/>
<path d="M23.4149 17.6857C23.3681 17.6857 23.3306 17.6951 23.3024 17.6951C22.9463 17.6951 22.5901 17.6951 22.234 17.6951C22.1402 17.6951 22.1309 17.6951 22.1309 17.592C22.1309 17.1796 22.1309 16.7672 22.1309 16.3548C22.1309 14.5928 22.1309 12.8401 22.1309 11.078C22.1309 11.0311 22.1309 10.9936 22.1309 10.9374C22.1684 10.928 22.2058 10.928 22.234 10.928C23.0588 10.928 23.8835 10.928 24.7177 10.928C25.0176 10.928 25.2988 11.0218 25.5613 11.1436C25.8518 11.2748 26.1142 11.4342 26.3392 11.6685C26.686 12.0246 26.8734 12.4464 26.9297 12.9338C26.9578 13.2337 26.9578 13.5243 26.8922 13.8148C26.8266 14.1147 26.6953 14.3772 26.4985 14.6115C26.0955 15.0801 25.58 15.3332 24.9802 15.4269C24.8958 15.4363 24.8114 15.4363 24.7271 15.4363C24.3428 15.4363 23.9492 15.4363 23.5649 15.4363C23.5461 15.4363 23.5274 15.4363 23.5086 15.4363C23.4337 15.4363 23.4243 15.4457 23.4243 15.5206C23.4243 15.5488 23.4243 15.5769 23.4243 15.605C23.4243 16.2611 23.4243 16.9078 23.4243 17.5639C23.4149 17.592 23.4149 17.6389 23.4149 17.6857ZM23.4149 14.2085C23.4524 14.2178 23.4805 14.2272 23.5086 14.2272C23.9117 14.2272 24.3147 14.2366 24.7177 14.2272C25.177 14.2178 25.5238 13.9273 25.6175 13.4961C25.6456 13.3462 25.655 13.1962 25.6269 13.0369C25.58 12.7182 25.4394 12.4652 25.1489 12.3058C24.9895 12.2215 24.8302 12.1746 24.6521 12.1746C24.2772 12.1746 23.9023 12.1746 23.518 12.1746C23.5086 12.1746 23.4899 12.1746 23.4805 12.1746C23.4337 12.1746 23.4055 12.1933 23.4055 12.2496C23.4055 12.2683 23.4055 12.2871 23.4055 12.2964C23.4055 12.8963 23.4055 13.4961 23.4055 14.1054C23.4149 14.1335 23.4149 14.171 23.4149 14.2085Z" fill="#02B74F"/>
<path d="M15.2887 10.9374C15.3168 10.9374 15.3355 10.9374 15.3637 10.9374C15.7292 10.9374 16.0947 10.9374 16.4603 10.9374C16.5165 10.9374 16.5634 10.9374 16.6196 10.928C16.7133 10.9187 16.7133 10.928 16.7508 11.0124C16.8258 11.2561 16.9008 11.4998 16.9851 11.7435C17.2194 12.4652 17.4538 13.1869 17.6881 13.9086C17.913 14.5928 18.1286 15.277 18.3442 15.9612C18.3535 15.9893 18.3723 16.0174 18.391 16.0736C18.4191 16.0174 18.4379 15.9799 18.4473 15.9424C18.5222 15.6987 18.6066 15.4644 18.6816 15.2207C18.8971 14.5459 19.1127 13.8711 19.3283 13.1869C19.5626 12.4652 19.7875 11.7341 20.0219 11.0124C20.05 10.9187 20.0594 10.9187 20.1531 10.9187C20.5186 10.9187 20.8841 10.9187 21.2403 10.9187C21.3153 10.9187 21.3996 10.9187 21.4934 10.9187C21.484 10.9468 21.4746 10.9843 21.4653 11.0124C21.1185 12.034 20.7717 13.0556 20.4343 14.0773C20.1156 15.0145 19.8063 15.9518 19.4876 16.8891C19.4126 17.1234 19.3283 17.3577 19.2439 17.592C19.2158 17.6764 19.2158 17.6764 19.1221 17.6764C18.7191 17.6764 18.3254 17.6764 17.9224 17.6764C17.8287 17.6764 17.7443 17.6764 17.6506 17.6764C17.5569 17.6764 17.5569 17.6764 17.5287 17.592C17.3975 17.2077 17.2757 16.8328 17.1445 16.4485C16.9476 15.8581 16.7414 15.277 16.5352 14.6865C16.2447 13.8429 15.9635 12.9994 15.6729 12.1559C15.5417 11.7622 15.4105 11.3686 15.2793 10.9749C15.298 10.9843 15.298 10.9562 15.2887 10.9374Z" fill="#02B74F"/>
<path d="M7.44336 17.6951C7.44336 17.6576 7.44336 17.6201 7.44336 17.592C7.44336 16.6454 7.44336 15.6987 7.44336 14.7614C7.44336 14.6771 7.47148 14.6209 7.51834 14.5552C8.03384 13.946 8.54933 13.3368 9.06483 12.7276C9.28977 12.4651 9.50535 12.2027 9.73029 11.9496C10.1521 11.4623 10.6863 11.153 11.3143 11.003C11.5392 10.9468 11.7735 10.9187 12.0078 10.9187C12.4577 10.9187 12.8983 10.9187 13.3481 10.9187C13.3669 10.9187 13.3856 10.9187 13.395 10.9187C13.5637 10.9093 13.7043 11.0499 13.6199 11.2654C13.6012 11.3123 13.5731 11.3498 13.545 11.3873C13.2638 11.7153 12.9826 12.0434 12.7108 12.362C12.4765 12.6339 12.2515 12.9057 12.0172 13.1681C11.6423 13.5992 11.2674 14.0304 10.9019 14.4615C10.6301 14.7708 10.3676 15.0895 10.0958 15.3988C9.84276 15.6893 9.5897 15.9799 9.34601 16.2611C9.15856 16.4766 8.98048 16.7016 8.78365 16.9078C8.52122 17.189 8.23066 17.4327 7.8745 17.592C7.75266 17.6482 7.63081 17.6763 7.4996 17.6951C7.48085 17.7045 7.47148 17.7045 7.44336 17.6951Z" fill="#E00501"/>
<path d="M7.09694 17.7045C6.98447 17.7045 6.88137 17.6763 6.78764 17.6388C6.50646 17.5357 6.27214 17.3764 6.05657 17.1796C5.91598 17.0484 5.77539 16.9078 5.65355 16.7672C4.85687 15.8487 4.06019 14.9301 3.26352 14.0116C2.54182 13.1775 1.82013 12.3433 1.09843 11.4997C1.05157 11.4435 0.995333 11.3873 0.957842 11.3217C0.929724 11.2748 0.901606 11.2186 0.892234 11.1717C0.873488 11.0217 0.957842 10.9186 1.1078 10.9093C1.1453 10.9093 1.18279 10.9093 1.22028 10.9093C1.66079 10.9093 2.09193 10.9093 2.53245 10.9093C3.09481 10.9093 3.61968 11.0686 4.09768 11.3498C4.36949 11.5091 4.61318 11.7153 4.81938 11.959C5.55982 12.8307 6.29089 13.693 7.03133 14.5552C7.07819 14.6115 7.10631 14.6771 7.10631 14.7521C7.10631 15.6987 7.10631 16.6453 7.10631 17.592C7.09694 17.6388 7.09694 17.667 7.09694 17.7045Z" fill="#E00501"/>
<path d="M36.7706 17.6857C36.7706 17.5076 36.7706 17.3483 36.7706 17.1608C36.7237 17.1983 36.705 17.2077 36.6862 17.2264C36.3769 17.5357 35.9926 17.7326 35.5615 17.7982C34.8679 17.9013 34.2399 17.7513 33.7057 17.2639C33.3402 16.9265 33.0965 16.5048 32.9653 16.0361C32.8809 15.7268 32.8434 15.4082 32.8715 15.0895C32.9278 14.4146 33.1715 13.8242 33.6682 13.3555C34.015 13.0181 34.4274 12.8026 34.9148 12.7463C35.4022 12.6901 35.8708 12.7838 36.2926 13.0369C36.4238 13.1212 36.555 13.2056 36.6675 13.318C36.6956 13.3462 36.7237 13.3649 36.7612 13.393C36.7706 13.3555 36.7706 13.3274 36.7706 13.2993C36.7706 13.1868 36.7706 13.0837 36.7706 12.9713C36.7706 12.8963 36.7799 12.8869 36.8455 12.8869C36.9112 12.8869 36.9861 12.8869 37.0517 12.8869C37.3423 12.8869 37.6422 12.8775 37.9328 12.8775C37.9515 12.8775 37.9609 12.8869 37.989 12.8869C37.989 12.9244 37.9984 12.9619 37.9984 12.9994C37.9984 14.5271 37.9984 16.0549 37.9984 17.5732C37.9984 17.5826 37.9984 17.6014 37.9984 17.6107C37.9984 17.6763 37.989 17.6857 37.914 17.6951C37.9047 17.6951 37.8953 17.6951 37.8859 17.6951C37.5485 17.6951 37.2017 17.6951 36.8643 17.6951C36.8455 17.6951 36.8174 17.6951 36.7706 17.6857ZM36.8737 15.3144C36.8737 14.9958 36.7799 14.6865 36.6112 14.4615C36.2363 13.9741 35.7489 13.7586 35.1303 13.8804C34.5586 13.9929 34.015 14.5084 33.9963 15.2207C33.9869 15.605 34.1181 15.9424 34.3899 16.2236C34.6711 16.5235 35.0272 16.6828 35.449 16.6922C35.7208 16.6922 35.9833 16.6172 36.2082 16.4673C36.6206 16.1861 36.8549 15.7924 36.8737 15.3144Z" fill="#02B74F"/>
<path d="M39.6673 12.8869C39.6673 13.0556 39.6673 13.2243 39.6673 13.393C39.6767 13.393 39.6767 13.4024 39.686 13.4024C39.7048 13.3837 39.7235 13.3649 39.7423 13.3462C39.8266 13.2618 39.9016 13.1775 39.986 13.0931C40.2109 12.8963 40.4827 12.7838 40.7733 12.7369C41.1107 12.6807 41.4387 12.6807 41.7574 12.8026C42.0386 12.915 42.2916 13.065 42.4885 13.2993C42.6572 13.4961 42.7696 13.7305 42.8446 13.9835C42.9102 14.2178 42.9383 14.4615 42.9383 14.7146C42.9383 15.6612 42.9383 16.5985 42.9383 17.5451C42.9383 17.5826 42.9383 17.6201 42.9383 17.6763C42.9009 17.6857 42.8727 17.6857 42.8446 17.6857C42.5072 17.6857 42.1792 17.6857 41.8417 17.6857C41.748 17.6857 41.748 17.6763 41.748 17.5826C41.748 17.189 41.748 16.7953 41.748 16.4017C41.748 15.9049 41.748 15.4082 41.748 14.9114C41.748 14.6865 41.7011 14.4709 41.5887 14.2741C41.4481 14.0116 41.2231 13.871 40.9326 13.8242C40.7733 13.7961 40.6139 13.8148 40.4546 13.8523C40.1078 13.946 39.9016 14.1803 39.761 14.4896C39.686 14.6677 39.6579 14.8552 39.6579 15.0426C39.6579 15.8768 39.6579 16.7016 39.6579 17.5358C39.6579 17.5732 39.6579 17.6107 39.6579 17.6576C39.611 17.6576 39.5642 17.667 39.5267 17.667C39.2174 17.667 38.9175 17.667 38.6082 17.667C38.4863 17.667 38.4863 17.667 38.4863 17.5451C38.4863 16.4485 38.4863 15.3613 38.4863 14.2647C38.4863 13.8429 38.4863 13.4118 38.4863 12.99C38.4863 12.9525 38.4863 12.915 38.4863 12.8682C38.88 12.8869 39.2643 12.8869 39.6673 12.8869Z" fill="#02B74F"/>
<path d="M7.0786 14.0398C6.94739 13.8898 6.81617 13.7492 6.69432 13.5992C6.05698 12.8682 5.41964 12.1371 4.7823 11.4154C4.54798 11.153 4.37928 10.853 4.32304 10.4969C4.30429 10.3938 4.29492 10.2813 4.29492 10.1782C4.29492 9.21283 4.29492 8.24745 4.29492 7.27269C4.29492 7.24457 4.29492 7.21646 4.30429 7.17896C4.32304 7.05712 4.39802 6.99151 4.51987 7.00088C4.62296 7.01026 4.69795 7.05712 4.75418 7.1321C4.90414 7.31018 5.06348 7.48826 5.21344 7.66634C5.81329 8.35992 6.41314 9.06287 7.01299 9.75645C7.06923 9.82206 7.10672 9.89704 7.10672 9.99076C7.10672 11.3029 7.10672 12.6057 7.10672 13.9179C7.10672 13.946 7.10672 13.9835 7.10672 14.0116C7.08798 14.0304 7.0786 14.0304 7.0786 14.0398Z" fill="#E00501"/>
<path d="M7.44336 14.0397C7.44336 14.0022 7.44336 13.9741 7.44336 13.9366C7.44336 12.6245 7.44336 11.3123 7.44336 10.0095C7.44336 9.90639 7.47148 9.84078 7.53709 9.7658C7.90262 9.34403 8.26815 8.92226 8.62431 8.50049C8.98985 8.06935 9.36476 7.64758 9.73029 7.21644C9.76778 7.16957 9.81464 7.12271 9.87088 7.08522C9.91774 7.0571 9.97398 7.02898 10.0302 7.01961C10.1333 7.00086 10.2177 7.06647 10.2364 7.16957C10.2364 7.19769 10.2458 7.22581 10.2458 7.24455C10.2458 8.22868 10.2458 9.22219 10.2458 10.2063C10.2458 10.6375 10.0865 11.0124 9.80527 11.3404C9.35538 11.8653 8.90549 12.3901 8.44623 12.915C8.1838 13.2149 7.92137 13.5149 7.65893 13.8148C7.61207 13.8617 7.57458 13.9179 7.52771 13.9648C7.50897 13.9929 7.48085 14.021 7.4621 14.0491C7.4621 14.0491 7.45273 14.0491 7.44336 14.0397Z" fill="#E00501"/>
<path d="M47.802 17.6951C47.7645 17.6951 47.727 17.6951 47.6895 17.6951C47.3146 17.6951 46.9397 17.6951 46.5648 17.6951C46.4992 17.6951 46.4523 17.6763 46.4148 17.6201C46.1712 17.3296 45.9275 17.039 45.6932 16.7391C45.6088 16.636 45.5432 16.5329 45.4776 16.411C45.4026 16.2798 45.3745 16.1392 45.4213 15.9893C45.4401 15.933 45.4682 15.8674 45.5057 15.8206C45.6088 15.6987 45.7213 15.5769 45.8337 15.4644C45.9275 15.3707 45.9837 15.3707 46.0681 15.4644C46.1618 15.5675 46.2461 15.6706 46.3305 15.7831C46.7991 16.3735 47.2678 16.964 47.7364 17.5451C47.7645 17.5826 47.7926 17.6201 47.8207 17.6576C47.8114 17.6763 47.802 17.6857 47.802 17.6951Z" fill="#02B74F"/>
<path d="M28.9443 12.9338C28.9443 12.7182 28.9443 12.5026 28.9443 12.2871C28.9443 12.1746 28.9537 12.1746 29.0568 12.1746C29.4411 12.1746 29.8254 12.1746 30.219 12.1746C30.5658 12.1746 30.847 12.3714 30.9501 12.6807C31.0344 12.9338 31.0251 13.1868 30.8564 13.4118C30.7345 13.5805 30.5564 13.6742 30.3502 13.693C30.2378 13.7023 30.1159 13.693 30.0034 13.693C29.7785 13.693 29.5536 13.7023 29.3286 13.7023C29.2255 13.7023 29.1318 13.693 29.0287 13.693C28.9725 13.693 28.9537 13.6648 28.9631 13.618C28.9631 13.5992 28.9631 13.5711 28.9631 13.5524C28.9443 13.3462 28.9443 13.14 28.9443 12.9338Z" fill="white"/>
<path d="M23.415 14.2085C23.415 14.1616 23.415 14.1335 23.415 14.096C23.415 13.4961 23.415 12.8963 23.415 12.2871C23.415 12.2683 23.415 12.2496 23.415 12.2402C23.415 12.184 23.4432 12.1652 23.49 12.1652C23.4994 12.1652 23.5181 12.1652 23.5275 12.1652C23.9024 12.1652 24.2773 12.1652 24.6616 12.1652C24.8397 12.1652 24.999 12.2121 25.1584 12.2964C25.4489 12.4558 25.5895 12.7088 25.6364 13.0275C25.6551 13.1775 25.6551 13.3368 25.627 13.4868C25.5333 13.9273 25.1958 14.2085 24.7272 14.2178C24.3242 14.2272 23.9212 14.2178 23.5181 14.2178C23.49 14.2272 23.4619 14.2178 23.415 14.2085Z" fill="white"/>
<path d="M48.1488 11.6685C48.0738 11.7434 48.13 11.8372 48.0925 11.9122C48.0644 11.9122 48.0269 11.9122 47.9707 11.9122C47.9707 11.6966 47.9707 11.4904 47.9707 11.2748C48.0551 11.2467 48.28 11.2467 48.355 11.2748C48.43 11.3029 48.4768 11.3498 48.4768 11.4248C48.4862 11.4998 48.4768 11.5747 48.4018 11.631C48.3831 11.6497 48.3644 11.6591 48.3269 11.6872C48.3737 11.7622 48.4206 11.8278 48.4675 11.8934C48.3925 11.9309 48.3456 11.9309 48.2987 11.8747C48.2613 11.8278 48.2331 11.7809 48.205 11.7341C48.1956 11.7153 48.1769 11.6966 48.1488 11.6685ZM48.205 11.3967C48.1394 11.3967 48.1207 11.406 48.1113 11.4529C48.1019 11.5091 48.13 11.5466 48.1769 11.5466C48.2519 11.556 48.3175 11.5185 48.3175 11.4716C48.3175 11.4341 48.2894 11.406 48.2238 11.3967C48.2144 11.3967 48.205 11.3967 48.205 11.3967Z" fill="#02B74F"/>
<path d="M44.6063 13.768C44.6063 13.4587 44.6063 13.14 44.6063 12.8307C44.6063 12.512 44.6063 12.2027 44.6063 11.884C44.6063 11.5654 44.6063 11.2561 44.6063 10.9374C44.2033 10.9374 43.8097 10.9374 43.416 10.9374C43.416 10.9749 43.416 11.0124 43.416 11.0405C43.416 13.215 43.416 15.3988 43.416 17.5733C43.416 17.592 43.416 17.6201 43.416 17.6389C43.416 17.6764 43.4348 17.6951 43.4723 17.6951C43.491 17.6951 43.5191 17.6951 43.5379 17.6951C43.8472 17.6951 44.1565 17.6951 44.4658 17.6951C44.6063 17.6951 44.6063 17.6951 44.6063 17.5545C44.6063 17.189 44.6063 16.8141 44.6063 16.4485C44.6063 16.411 44.6157 16.3642 44.6157 16.3267L44.6063 14.7052C44.6063 14.3959 44.6063 14.0773 44.6063 13.768Z" fill="#02B74F"/>
<path d="M47.7275 12.8494C47.6338 12.8401 47.5401 12.8401 47.4464 12.8401C47.3433 12.8401 47.2402 12.8494 47.1371 12.8494C47.034 12.8494 46.9309 12.8494 46.8278 12.8494C46.4435 12.8682 46.1248 13.0275 45.8624 13.3181C45.5718 13.6461 45.2813 13.9742 44.9907 14.3022C44.8689 14.4428 44.747 14.5834 44.6252 14.724C44.6158 14.724 44.6158 14.7146 44.6064 14.7146L44.6158 16.3361C44.8408 16.3642 44.9532 16.3267 45.1032 16.1674C45.1219 16.1392 45.1501 16.1205 45.1688 16.0924C45.5343 15.68 45.8999 15.2582 46.256 14.8458C46.7622 14.2647 47.2589 13.6836 47.765 13.1025C47.7838 13.0837 47.8025 13.065 47.8119 13.0369C47.8588 12.9338 47.8213 12.8588 47.7275 12.8494Z" fill="#E00501"/>
</g>
<defs>
<clipPath id="clip0_415_26465">
<rect width="48" height="24" fill="white" transform="translate(0.889648)"/>
</clipPath>
</defs>
</svg>
