<svg width="49" height="24" viewBox="0 0 49 24" fill="none" xmlns="http://www.w3.org/2000/svg">
<g clip-path="url(#clip0_415_26492)">
<path d="M25.9158 4.83281L24.6643 6.08438L24.6033 6.14532L24.2049 6.54375L23.9049 6.84375L23.5064 7.24219L23.4455 7.30313L23.2721 7.47656L23.2111 7.5375L22.6252 8.12344L22.5643 8.18438C22.3861 8.3625 22.1939 8.50313 21.9877 8.62031C21.8846 8.67656 21.7768 8.72813 21.6643 8.77032C21.4205 8.86407 21.1627 8.92031 20.9049 8.93438C20.7455 8.94375 20.5861 8.93906 20.4268 8.92031C20.0846 8.87813 19.7518 8.77032 19.4471 8.59219C19.3158 8.51719 19.1846 8.4375 19.0721 8.32969C19.0486 8.30625 19.0252 8.28281 18.9971 8.25469L16.7143 5.97188L16.6674 5.925C16.6299 5.88281 16.5924 5.83125 16.5643 5.78438C16.4893 5.65313 16.4424 5.50781 16.4424 5.34375C16.4424 5.32031 16.4424 5.29219 16.4471 5.26875C16.4518 5.23125 16.4564 5.19375 16.4611 5.16094C16.4658 5.14688 16.4658 5.13281 16.4705 5.11875C16.4705 5.11406 16.4752 5.10938 16.4752 5.1C16.508 4.99219 16.5596 4.89375 16.6346 4.8C16.6533 4.77657 16.6721 4.75313 16.6955 4.72969L16.7377 4.69219L19.1658 2.25938L20.6377 0.796877C20.9658 0.468752 21.4908 0.45469 21.833 0.75469L25.9158 4.83281Z" fill="#045BA7"/>
<path d="M21.477 10.3078C21.2801 10.3078 21.0879 10.2656 20.9051 10.1813L20.4363 9.7172L20.3238 9.6047L20.3051 9.58595L20.0895 9.37032L19.002 8.26876C19.0254 8.2922 19.0488 8.32032 19.077 8.34376C19.1895 8.45626 19.3207 8.53126 19.452 8.61095C19.7566 8.78907 20.0895 8.89689 20.4316 8.93907C20.591 8.95782 20.7504 8.96251 20.9098 8.95314C21.1676 8.93907 21.4254 8.88282 21.6691 8.78907C21.777 8.74689 21.8848 8.69532 21.9926 8.63907C22.1988 8.52657 22.3957 8.38126 22.5691 8.20314L22.6301 8.1422L23.216 7.55626L23.277 7.49532L23.4504 7.32189L23.5113 7.26095L23.9098 6.86251L24.2051 6.5672L24.6035 6.16876L24.6645 6.10782L27.1863 3.56251L28.227 2.43751C28.2316 2.43282 28.2316 2.43282 28.2316 2.43282L28.2879 2.37657C28.6066 2.05782 29.1223 2.05782 29.441 2.37657L30.0129 2.94845L30.0316 2.9672C29.7785 2.95314 29.5254 3.04689 29.3332 3.23439L27.402 5.13282L27.3832 5.15626L24.027 8.46095L24.0223 8.45626L22.7848 9.67032L22.7754 9.6797C22.7707 9.68439 22.7473 9.71251 22.7004 9.75939C22.602 9.85314 22.4004 10.0313 22.1285 10.1625C22.0066 10.2188 21.8801 10.2609 21.7535 10.2891C21.6785 10.3031 21.6035 10.3125 21.5285 10.3172H21.477V10.3078Z" fill="#EA2127"/>
<path d="M33.0971 7.18594L33.0361 7.24688L30.3033 10.0219L27.4299 12.9375C27.3361 13.0313 27.2424 13.1109 27.1393 13.1859C27.1346 13.1906 27.1299 13.1906 27.1299 13.1953C27.1158 13.2047 27.1018 13.2141 27.0877 13.2234L27.083 13.2281C26.6518 13.5375 26.1174 13.7203 25.5455 13.7203C24.8377 13.7203 24.1955 13.4438 23.7221 12.9891C23.6986 12.9703 23.6799 12.9516 23.6564 12.9328L23.1643 12.4406L21.7768 11.0531L21.3127 10.5891L21.2471 10.5234C21.3221 10.5375 21.3971 10.5422 21.4768 10.5422H21.4814H21.5424C21.6314 10.5375 21.7205 10.5281 21.8049 10.5094C21.9455 10.4813 22.0908 10.4297 22.2314 10.3641C22.5361 10.2188 22.7611 10.0219 22.8689 9.91876C22.9111 9.87657 22.9439 9.84376 22.958 9.82501L24.0268 8.77501L24.0314 8.77969L27.7018 5.17032L27.7205 5.14688L29.5018 3.39376C29.7408 3.15938 30.1158 3.12657 30.3877 3.31407L30.8096 3.73594L33.1018 6.02813C33.1205 6.04688 33.1393 6.07032 33.158 6.08907C33.4158 6.41719 33.3971 6.88594 33.0971 7.18594Z" fill="#EA2127"/>
<path d="M24.2426 4.14375C24.177 4.20937 24.0738 4.20468 24.0082 4.13906C22.9254 3.05156 21.1582 3.04218 20.0707 4.125C18.9832 5.20781 18.9738 6.975 20.0567 8.0625L20.9051 8.91562C20.9098 8.92031 20.9145 8.92968 20.9192 8.93437C20.9145 8.93437 20.9098 8.93437 20.9051 8.93437C20.7504 8.94375 20.5957 8.93906 20.441 8.925L19.8176 8.29687C18.6082 7.07812 18.6129 5.1 19.8317 3.89062C21.0504 2.68125 23.0285 2.68593 24.2379 3.90937L24.2426 3.91406C24.3082 3.975 24.3082 4.08281 24.2426 4.14375Z" fill="#049BD8"/>
<path d="M25.5359 5.2125L25.3016 5.44687L24.8891 5.02969C24.8234 4.96406 24.8234 4.86094 24.8891 4.79531C24.9547 4.72969 25.0578 4.72969 25.1234 4.79531L25.5359 5.2125Z" fill="#049BD8"/>
<path d="M21.9883 8.6203C21.9836 8.6203 21.9836 8.62499 21.9789 8.62499C21.8758 8.68124 21.7727 8.72812 21.6649 8.77031L20.5118 7.6078C19.7899 6.88124 19.6868 5.74218 20.268 4.89843C20.3196 4.82343 20.4227 4.80468 20.4977 4.85624C20.5727 4.9078 20.5914 5.01093 20.5399 5.08593C20.0524 5.79843 20.1368 6.75937 20.7461 7.37343L21.9883 8.6203Z" fill="#049BD8"/>
<path d="M24.8423 5.90625L24.8376 5.91094L24.6642 6.08438L24.6079 6.14063L23.3095 4.83281C22.8267 4.35 22.1236 4.17656 21.472 4.3875C21.3829 4.41563 21.2892 4.36875 21.2611 4.27969C21.2329 4.19063 21.2798 4.09688 21.3689 4.06875C22.1376 3.82031 22.972 4.02188 23.5439 4.59375L24.8423 5.90625Z" fill="#049BD8"/>
<path d="M24.1441 6.60468L23.9098 6.83905L22.6113 5.52655C22.2926 5.2078 21.777 5.20312 21.4582 5.52187C21.1395 5.84062 21.1348 6.35624 21.4535 6.67499L22.2926 7.51874C22.3582 7.58436 22.3582 7.68749 22.2926 7.75311C22.227 7.81874 22.1238 7.81874 22.0582 7.75311L21.2191 6.90936C20.7738 6.45936 20.7738 5.72811 21.2238 5.2828C21.6738 4.83749 22.4051 4.83749 22.8504 5.28749L24.1441 6.60468Z" fill="#049BD8"/>
<path d="M23.45 7.29843L23.4453 7.30311L23.2719 7.47655L23.2156 7.5328L21.9125 6.2203C21.8469 6.15468 21.8469 6.05155 21.9125 5.98593C21.9781 5.9203 22.0813 5.9203 22.1469 5.98593L23.45 7.29843Z" fill="#049BD8"/>
<path d="M18.1814 22.5562C18.308 22.5562 18.3971 22.5328 18.458 22.4906C18.5189 22.4484 18.5564 22.3828 18.5752 22.2937C18.5846 22.2375 18.5799 22.1906 18.5564 22.1531C18.533 22.1156 18.4767 22.0687 18.3924 22.0125L18.0596 21.7828C17.9846 21.7312 17.9283 21.675 17.8861 21.6187C17.8486 21.5625 17.8252 21.5062 17.8158 21.4453C17.8064 21.3844 17.8111 21.3187 17.8299 21.2484C17.8674 21.0797 17.9517 20.9437 18.083 20.8453C18.2142 20.7469 18.4064 20.7 18.6502 20.7C18.7439 20.7 18.8377 20.714 18.9267 20.7375C19.0158 20.7609 19.0814 20.789 19.1236 20.8172C19.1424 20.8312 19.1564 20.8406 19.1658 20.85C19.1752 20.8594 19.1752 20.8734 19.1752 20.8922L19.133 21.089C19.1236 21.1359 19.0955 21.15 19.0533 21.1312C19.0064 21.1125 18.9361 21.0937 18.8424 21.075C18.7486 21.0562 18.6642 21.0469 18.5892 21.0469C18.3877 21.0469 18.2705 21.1125 18.2424 21.2484C18.233 21.2953 18.2377 21.3328 18.2658 21.3656C18.2892 21.3984 18.3455 21.4406 18.4252 21.4969L18.7299 21.7031C18.8189 21.764 18.8846 21.825 18.9314 21.8859C18.9736 21.9469 19.0017 22.0078 19.0111 22.0734C19.0205 22.139 19.0158 22.2094 18.9971 22.2937C18.9736 22.4015 18.9314 22.5 18.8611 22.589C18.7955 22.6781 18.6971 22.7531 18.5752 22.8094C18.4533 22.8656 18.3033 22.8937 18.1252 22.8937C18.008 22.8937 17.9002 22.8797 17.8064 22.8515C17.7127 22.8234 17.6517 22.8 17.6142 22.7765C17.5908 22.7625 17.5767 22.7484 17.5721 22.739C17.5674 22.7297 17.5627 22.7156 17.5674 22.6969L17.6096 22.5C17.6189 22.4578 17.6471 22.439 17.6892 22.4578C17.8627 22.5281 18.0267 22.5562 18.1814 22.5562Z" fill="#049BD8"/>
<path d="M19.827 22.5797C19.9348 22.5797 20.066 22.5562 20.216 22.514C20.2582 22.5047 20.277 22.5187 20.2676 22.5609L20.2301 22.7437C20.2254 22.7625 20.216 22.7765 20.2066 22.7859C20.1973 22.7953 20.1785 22.8094 20.1551 22.8187C20.0426 22.875 19.916 22.9031 19.766 22.9031C19.6348 22.9031 19.527 22.8797 19.4379 22.8281C19.3488 22.7812 19.2879 22.7015 19.2551 22.5984C19.2223 22.4953 19.2223 22.3594 19.2551 22.2L19.3113 21.9281C19.3441 21.7687 19.4004 21.6375 19.4801 21.5344C19.5598 21.4265 19.6535 21.3515 19.7613 21.3C19.8738 21.2484 19.991 21.225 20.1223 21.225C20.2723 21.225 20.3895 21.2531 20.4785 21.3094C20.4973 21.3187 20.5113 21.3281 20.5207 21.3422C20.5301 21.3515 20.5301 21.3656 20.5254 21.3844L20.4879 21.5672C20.4785 21.6094 20.4551 21.6234 20.4176 21.614C20.3566 21.5953 20.3051 21.5765 20.2535 21.5672C20.202 21.5578 20.1457 21.5484 20.0707 21.5484C19.8738 21.5484 19.752 21.675 19.6957 21.9281L19.6395 22.2C19.6113 22.3359 19.616 22.4344 19.6582 22.4906C19.6863 22.5469 19.7473 22.5797 19.827 22.5797Z" fill="#049BD8"/>
<path d="M21.3363 21.5437C21.1863 21.5437 21.027 21.5672 20.8582 21.6187C20.816 21.6281 20.7973 21.614 20.8066 21.5719L20.8441 21.3937C20.8488 21.375 20.8535 21.3609 20.8676 21.3515C20.8816 21.3422 20.8957 21.3281 20.9238 21.3187C20.9895 21.2953 21.0645 21.2719 21.1582 21.2531C21.2473 21.2344 21.3457 21.225 21.4488 21.225C21.5754 21.225 21.6738 21.2437 21.7535 21.2859C21.8332 21.3281 21.8895 21.389 21.9176 21.4734C21.9457 21.5578 21.9504 21.6609 21.9223 21.7781L21.7113 22.7625C21.7066 22.7812 21.702 22.8 21.6973 22.8047C21.6926 22.814 21.6785 22.8187 21.6598 22.8234C21.5707 22.8469 21.4816 22.8656 21.402 22.875C21.3176 22.889 21.2191 22.8937 21.102 22.8937C20.9426 22.8937 20.816 22.875 20.727 22.8422C20.6332 22.8094 20.5723 22.7578 20.5395 22.6875C20.5066 22.6172 20.502 22.5234 20.5254 22.4062L20.5301 22.3922C20.5488 22.3078 20.577 22.2328 20.6145 22.1719C20.652 22.1109 20.6988 22.0594 20.7645 22.0172C20.8254 21.975 20.9051 21.9469 20.9941 21.9234C21.0832 21.9047 21.1957 21.8953 21.3223 21.8953H21.5238L21.552 21.7687C21.5707 21.6797 21.566 21.6187 21.5285 21.5859C21.4863 21.5625 21.4254 21.5437 21.3363 21.5437ZM21.3691 22.589L21.4582 22.1625H21.2566C21.1676 22.1625 21.102 22.1719 21.0551 22.1859C21.0082 22.2 20.9754 22.2234 20.9566 22.2562C20.9379 22.289 20.9191 22.3359 20.9098 22.3922L20.9051 22.4109C20.8957 22.4672 20.8957 22.5094 20.9051 22.5375C20.9145 22.5656 20.9426 22.5844 20.9801 22.5984C21.0176 22.6125 21.0785 22.6172 21.1582 22.6172C21.2426 22.6125 21.3129 22.6078 21.3691 22.589Z" fill="#049BD8"/>
<path d="M23.3609 22.8187C23.3562 22.8328 23.3516 22.8469 23.3328 22.8609C23.3188 22.875 23.3047 22.8797 23.2906 22.8797H23.0234C23.0094 22.8797 22.9953 22.875 22.9859 22.8609C22.9766 22.8469 22.9766 22.8328 22.9766 22.8187L23.1781 21.8625C23.1922 21.7875 23.1969 21.7266 23.1922 21.6797C23.1828 21.6328 23.1594 21.6 23.1219 21.5812C23.0844 21.5625 23.0281 21.5484 22.9531 21.5484C22.8641 21.5484 22.7656 21.5578 22.6625 21.5812L22.4 22.8187C22.3953 22.8375 22.3906 22.8516 22.3766 22.8609C22.3625 22.875 22.3484 22.8797 22.3297 22.8797H22.0625C22.0437 22.8797 22.0344 22.875 22.025 22.8609C22.0156 22.8469 22.0156 22.8328 22.0156 22.8187L22.325 21.3703C22.3297 21.3422 22.3531 21.3234 22.3953 21.3141C22.4984 21.2859 22.6062 21.2672 22.7188 21.2531C22.8313 21.2391 22.9391 21.2297 23.0328 21.2297C23.2578 21.2297 23.4172 21.2812 23.5016 21.3797C23.5859 21.4781 23.6047 21.6422 23.5578 21.8625L23.3609 22.8187Z" fill="#049BD8"/>
<path d="M25.3487 22.8281C25.344 22.8562 25.3206 22.875 25.2831 22.8797C25.1987 22.8937 25.1237 22.8984 25.0534 22.8984C24.9362 22.8984 24.8518 22.8891 24.7909 22.8656C24.73 22.8422 24.6925 22.8 24.6737 22.7344C24.655 22.6687 24.6597 22.5703 24.6878 22.4437L24.88 21.5344L24.6503 21.4922C24.6128 21.4875 24.5987 21.464 24.6034 21.4359L24.6315 21.3047C24.6362 21.2906 24.6409 21.2766 24.655 21.2625C24.669 21.2531 24.6831 21.2437 24.7018 21.2437H24.9409L24.9925 21.0047C24.9972 20.9719 25.0206 20.9531 25.0628 20.9484L25.3393 20.9016H25.3534C25.3815 20.9016 25.3956 20.9156 25.3909 20.9437L25.3253 21.2437H25.6159C25.6347 21.2437 25.6487 21.2484 25.6534 21.2578C25.6628 21.2672 25.6628 21.2812 25.6628 21.3L25.6253 21.4687C25.6206 21.4828 25.6112 21.4969 25.5972 21.5109C25.5831 21.5203 25.569 21.5297 25.555 21.5297H25.2643L25.0722 22.4391C25.0581 22.5094 25.0534 22.5562 25.0628 22.575C25.0722 22.5937 25.1003 22.6031 25.1518 22.6031H25.3347C25.3768 22.6031 25.3909 22.6172 25.3862 22.6453L25.3487 22.8281Z" fill="#049BD8"/>
<path d="M27.0404 22.1812C27.0123 22.3172 26.9561 22.4437 26.8811 22.5515C26.8061 22.664 26.7076 22.7484 26.5904 22.8094C26.4732 22.8703 26.342 22.9031 26.192 22.9031C26.0467 22.9031 25.9248 22.8703 25.8357 22.8094C25.7467 22.7484 25.6811 22.664 25.6529 22.5515C25.6248 22.439 25.6248 22.3172 25.6529 22.1812L25.7045 21.9469C25.7326 21.8109 25.7842 21.6844 25.8639 21.5765C25.9389 21.464 26.0373 21.3797 26.1545 21.3187C26.2717 21.2578 26.4029 21.225 26.5482 21.225C26.6982 21.225 26.8154 21.2578 26.9045 21.3187C26.9936 21.3797 27.0545 21.464 27.0826 21.5765C27.1107 21.689 27.1107 21.8109 27.0826 21.9469L27.0404 22.1812ZM26.6607 22.1812L26.7123 21.9469C26.7357 21.825 26.7311 21.7312 26.6936 21.6609C26.6561 21.5906 26.5857 21.5578 26.4873 21.5578C26.3889 21.5578 26.3045 21.5906 26.2342 21.6609C26.1639 21.7312 26.117 21.825 26.0936 21.9469L26.042 22.1812C26.0186 22.3031 26.0232 22.3969 26.0607 22.4672C26.0982 22.5375 26.1686 22.5703 26.267 22.5703C26.3654 22.5703 26.4498 22.5375 26.5201 22.4672C26.5857 22.3969 26.6326 22.3031 26.6607 22.1812Z" fill="#049BD8"/>
<path d="M29.7268 21.3984C29.6753 21.6375 29.5628 21.8109 29.3847 21.9141C29.2065 22.0219 28.9956 22.0734 28.7472 22.0734C28.7331 22.0734 28.7003 22.0734 28.6487 22.0687C28.5972 22.064 28.5643 22.0641 28.5503 22.0641C28.5362 22.0641 28.5175 22.0641 28.494 22.0594L28.3347 22.8141C28.33 22.8328 28.3206 22.8469 28.3112 22.8562C28.2972 22.8656 28.2831 22.8703 28.269 22.8703H27.9784C27.9643 22.8703 27.9503 22.8656 27.9409 22.8516C27.9315 22.8422 27.9268 22.8281 27.9315 22.8094L28.3534 20.8172C28.3581 20.7891 28.3722 20.7703 28.3909 20.7562C28.4097 20.7422 28.4331 20.7328 28.4659 20.7281C28.63 20.7047 28.8222 20.6906 29.0425 20.6906C29.2909 20.6906 29.4831 20.7422 29.6143 20.8453C29.7456 20.9484 29.7878 21.1219 29.7362 21.3562L29.7268 21.3984ZM29.3284 21.3984L29.3331 21.375C29.3565 21.2531 29.3425 21.1687 29.2815 21.1172C29.2206 21.0656 29.1175 21.0375 28.9722 21.0375C28.8784 21.0375 28.794 21.0422 28.7143 21.0516L28.569 21.7406C28.6628 21.7453 28.7472 21.75 28.8268 21.75C28.93 21.75 29.0143 21.7359 29.0847 21.7125C29.155 21.6891 29.2065 21.6515 29.2487 21.6C29.2815 21.5437 29.3097 21.4781 29.3284 21.3984Z" fill="#049BD8"/>
<path d="M30.3549 21.5437C30.2049 21.5437 30.0455 21.5672 29.8768 21.6187C29.8346 21.6281 29.8158 21.614 29.8252 21.5719L29.8627 21.3937C29.8674 21.375 29.8721 21.3609 29.8861 21.3515C29.9002 21.3422 29.9143 21.3281 29.9424 21.3187C30.008 21.2953 30.083 21.2719 30.1768 21.2531C30.2658 21.2344 30.3643 21.225 30.4674 21.225C30.5939 21.225 30.6924 21.2437 30.7721 21.2859C30.8518 21.3281 30.908 21.389 30.9361 21.4734C30.9643 21.5578 30.9689 21.6609 30.9408 21.7781L30.7299 22.7625C30.7252 22.7812 30.7205 22.8 30.7158 22.8047C30.7111 22.814 30.6971 22.8187 30.6783 22.8234C30.5893 22.8469 30.5002 22.8656 30.4205 22.875C30.3361 22.889 30.2377 22.8937 30.1205 22.8937C29.9611 22.8937 29.8346 22.875 29.7455 22.8422C29.6518 22.8094 29.5908 22.7578 29.558 22.6875C29.5252 22.6172 29.5205 22.5234 29.5439 22.4062L29.5486 22.3922C29.5674 22.3078 29.5955 22.2328 29.633 22.1719C29.6705 22.1109 29.7174 22.0594 29.783 22.0172C29.8439 21.975 29.9236 21.9469 30.0127 21.9234C30.1018 21.9047 30.2143 21.8953 30.3408 21.8953H30.5424L30.5705 21.7687C30.5893 21.6797 30.5846 21.6187 30.5471 21.5859C30.5096 21.5625 30.4486 21.5437 30.3549 21.5437ZM30.3924 22.589L30.4814 22.1625H30.2799C30.1908 22.1625 30.1252 22.1719 30.0783 22.1859C30.0314 22.2 29.9986 22.2234 29.9799 22.2562C29.9611 22.289 29.9424 22.3359 29.933 22.3922L29.9283 22.4109C29.9189 22.4672 29.9189 22.5094 29.9283 22.5375C29.9377 22.5656 29.9658 22.5844 30.0033 22.5984C30.0408 22.6125 30.1018 22.6172 30.1814 22.6172C30.2658 22.6125 30.3314 22.6078 30.3924 22.589Z" fill="#049BD8"/>
<path d="M32.7503 21.2953C32.7503 21.3047 32.7456 21.3094 32.7409 21.3141L31.8972 23.0062C31.8409 23.1187 31.7847 23.2078 31.7331 23.2734C31.6769 23.3391 31.6113 23.3859 31.5269 23.4141C31.4472 23.4469 31.3394 23.4609 31.2128 23.4609C31.1659 23.4609 31.1097 23.4562 31.0534 23.4516C30.9972 23.4422 30.9503 23.4328 30.9175 23.4234C30.88 23.4141 30.8613 23.3953 30.8659 23.3719L30.9034 23.1891C30.9081 23.175 30.9128 23.1609 30.9269 23.1516C30.9409 23.1422 30.955 23.1375 30.9691 23.1375H30.9738C30.9972 23.1375 31.0534 23.1422 31.1331 23.1469C31.2128 23.1516 31.2691 23.1562 31.2972 23.1562C31.3394 23.1562 31.3769 23.1516 31.4097 23.1422C31.4425 23.1328 31.4706 23.1141 31.4941 23.0859C31.5175 23.0578 31.5456 23.0203 31.5691 22.9687L31.6113 22.8844H31.5691C31.5363 22.8844 31.5034 22.8797 31.48 22.8703C31.4519 22.8609 31.4284 22.8375 31.4097 22.8C31.3909 22.7625 31.3769 22.7109 31.3722 22.6453L31.2784 21.3187C31.2784 21.3141 31.2784 21.3047 31.2784 21.3C31.2831 21.2672 31.3066 21.2531 31.3441 21.2531H31.6347C31.6488 21.2531 31.6581 21.2578 31.6675 21.2672C31.6769 21.2766 31.6816 21.2906 31.6816 21.3047L31.7238 22.4812C31.7238 22.5234 31.7331 22.5469 31.7472 22.5469H31.7519H31.7659H31.7753L32.3519 21.3047C32.3659 21.2719 32.3894 21.2531 32.4222 21.2531H32.7175C32.7316 21.2531 32.7409 21.2578 32.7503 21.2672C32.7503 21.2719 32.7503 21.2812 32.7503 21.2953Z" fill="#049BD8"/>
<path fill-rule="evenodd" clip-rule="evenodd" d="M29.9244 17.9531L28.4104 15.7828L28.2557 15.6422H29.7463L30.7588 17.2828L30.8385 17.2172L31.4479 16.3078C31.5979 16.0828 31.5791 15.825 31.3635 15.6422H32.7744L31.1479 17.9531V19.6312L31.4338 19.9734H29.6854L29.9338 19.6359C29.9291 19.0781 29.9104 18.5109 29.9244 17.9531ZM25.8182 15.6469C25.94 15.8109 25.9729 15.8719 25.9869 16.0172C25.9963 16.1203 25.9916 16.1766 25.9541 16.275L24.8291 19.5375C24.7775 19.6734 24.6697 19.8187 24.5104 19.9641H25.7385C25.6494 19.8844 25.5885 19.7859 25.5697 19.6734C25.551 19.5703 25.551 19.5281 25.5744 19.4297L25.8229 18.6562H27.2525L27.4729 19.2516C27.4963 19.3125 27.5104 19.3734 27.515 19.4391C27.5338 19.6641 27.4635 19.8469 27.2854 19.9734H29.2119C29.0244 19.8047 28.851 19.6312 28.7525 19.4156L27.3463 15.6469C26.9385 15.6469 26.2213 15.6469 25.8182 15.6469ZM27.0416 18.0891H26.0197L26.5166 16.6781L27.0416 18.0891ZM21.9229 15.6469L22.8885 15.6422H23.3479H24.0604C24.7072 15.6422 25.2369 16.1719 25.2369 16.8187V16.9641C25.2369 17.6109 24.7072 18.1031 24.0604 18.1219L23.5307 18.1406C23.9619 17.9437 24.14 17.4422 24.0885 16.9922C24.0463 16.6312 23.8588 16.2844 23.5494 16.275L23.3525 16.2703V19.4906C23.3525 19.5516 23.3619 19.5797 23.3947 19.6359C23.4463 19.725 23.5166 19.8094 23.5916 19.8984C23.6104 19.9219 23.6291 19.9453 23.6479 19.9687H21.9838C22.0072 19.9359 22.0354 19.9078 22.0588 19.875C22.1104 19.8047 22.1525 19.7344 22.1854 19.65C22.2088 19.5984 22.2182 19.5609 22.2182 19.5047V16.0453C22.2088 15.8625 22.0307 15.7594 21.9229 15.6469Z" fill="#045BA7"/>
<path fill-rule="evenodd" clip-rule="evenodd" d="M12.8896 15.6281H14.235L15.3646 18.8672L16.3209 16.1859C16.3396 16.0828 16.3256 16.05 16.2834 15.9562C16.2318 15.8484 16.1756 15.7406 16.1193 15.6328H17.1225C17.0615 15.8531 16.9771 16.0922 16.8975 16.3125L15.599 20.0812C15.2428 20.0109 14.849 19.8703 14.5443 19.5797C14.3146 19.3641 14.235 19.1156 14.1178 18.8203L13.0396 15.9469C12.9975 15.8344 12.9459 15.7312 12.8896 15.6281ZM18.2615 17.1422V19.4531C18.2615 19.5469 18.285 19.5656 18.3412 19.6406L18.6084 19.9875H17.3428C17.4131 19.8797 17.4834 19.7719 17.5584 19.6594C17.6146 19.5703 17.6381 19.5375 17.6381 19.4344V16.2047L17.2818 15.6281H18.5943L20.7178 18.3656V16.1859C20.7178 16.0828 20.699 16.05 20.6428 15.9562C20.5725 15.8484 20.4975 15.7406 20.4271 15.6328H21.6928L21.4303 15.9797C21.374 16.0547 21.3506 16.0734 21.3506 16.1672V20.1047C20.8725 20.0437 20.4271 19.9266 20.0287 19.4156L18.2615 17.1422Z" fill="#EA2127"/>
<path fill-rule="evenodd" clip-rule="evenodd" d="M32.6807 16.6922C32.6807 16.5984 32.6947 16.5094 32.7182 16.4203C32.7463 16.3312 32.7838 16.2469 32.8307 16.1625C32.9244 16.0031 33.0604 15.8766 33.2338 15.7828C33.4119 15.6891 33.6135 15.6422 33.8479 15.6422C33.9416 15.6422 34.0307 15.6516 34.115 15.675C34.1994 15.6984 34.2791 15.7359 34.3635 15.7828C34.5182 15.8719 34.64 15.9984 34.7291 16.1625C34.776 16.2469 34.8088 16.3359 34.8369 16.4297C34.8604 16.5234 34.8744 16.6219 34.8744 16.7297C34.8744 16.8797 34.8416 17.0297 34.776 17.1891C34.7104 17.3437 34.6166 17.4797 34.4947 17.5828L34.6447 17.7281C34.7057 17.7844 34.7713 17.8406 34.8369 17.8875C34.9072 17.9391 34.9822 17.9812 35.0619 18.0187C35.1463 18.0562 35.2307 18.0797 35.3197 18.0891C35.24 18.1547 35.1557 18.2062 35.0713 18.2391C34.9822 18.2766 34.8885 18.2906 34.7947 18.2906C34.715 18.2906 34.6307 18.2766 34.5463 18.2391C34.4619 18.2062 34.3822 18.1641 34.3072 18.1125C34.2275 18.0609 34.1572 18.0047 34.0963 17.9531L33.9275 17.8125C33.9135 17.8125 33.8994 17.8125 33.8807 17.8125C33.8619 17.8125 33.8385 17.8172 33.8104 17.8219L33.7119 17.8312C33.5197 17.8312 33.3416 17.7797 33.1822 17.6766C33.0229 17.5781 32.901 17.4375 32.8119 17.2641C32.7697 17.1797 32.7369 17.0859 32.7135 16.9922C32.69 16.8937 32.6807 16.7953 32.6807 16.6922ZM33.2807 16.6969C33.2807 16.7625 33.29 16.8328 33.3041 16.9031C33.3182 16.9547 33.3322 17.0156 33.3604 17.0953C33.4025 17.2172 33.4635 17.3156 33.5432 17.3953C33.6229 17.475 33.7213 17.5125 33.8338 17.5125C33.9838 17.5125 34.0963 17.4516 34.1666 17.3344C34.2369 17.2172 34.2744 17.0672 34.2744 16.8797C34.2744 16.8328 34.2697 16.7531 34.2604 16.65C34.251 16.575 34.2369 16.5 34.2182 16.4391C34.1994 16.3734 34.1807 16.3125 34.1572 16.2656C34.115 16.1672 34.0541 16.0875 33.9744 16.0406C33.8994 15.9891 33.8104 15.9656 33.7072 15.9656C33.6604 15.9656 33.6135 15.975 33.576 15.9937C33.5338 16.0078 33.4963 16.0359 33.4635 16.0687C33.4025 16.1297 33.3557 16.2047 33.3275 16.2984C33.2994 16.3922 33.2854 16.4953 33.2854 16.6031C33.2854 16.6219 33.2854 16.6406 33.2854 16.6594C33.2854 16.6781 33.2807 16.6875 33.2807 16.6969ZM35.6572 16.7203C35.7229 16.7109 35.7838 16.6875 35.8354 16.65C35.8869 16.6125 35.9291 16.5656 35.9572 16.5094C35.9713 16.4812 35.9807 16.4531 35.99 16.425C35.9994 16.3969 35.9994 16.3641 35.9994 16.3312C35.9994 16.2328 35.976 16.1531 35.9197 16.0922C35.8682 16.0266 35.7885 15.9937 35.6807 15.9937H35.6572V16.7203ZM35.6572 16.8891V17.475C35.6572 17.6203 35.7041 17.7187 35.7932 17.7703V17.7844H34.94V17.7703C35.0244 17.7234 35.0713 17.625 35.0713 17.475V17.4187V16.0359C35.0713 15.9469 35.0619 15.8812 35.0479 15.8297C35.0338 15.7781 34.9963 15.7359 34.94 15.6984V15.6937H35.976C36.0932 15.6937 36.1963 15.7125 36.2854 15.7594C36.3791 15.8016 36.4494 15.8625 36.501 15.9516C36.5291 15.9937 36.5479 16.0406 36.5619 16.0922C36.576 16.1437 36.5854 16.2 36.5854 16.2562C36.5854 16.3359 36.5619 16.4203 36.5104 16.5141C36.4588 16.6078 36.3604 16.6875 36.215 16.7578L36.6229 17.4469C36.7213 17.5969 36.8104 17.7047 36.89 17.7656L36.5291 17.7937L36.44 17.7984H36.3557C36.276 17.7984 36.2104 17.7844 36.1635 17.7562C36.1166 17.7281 36.0744 17.6766 36.0322 17.5969L35.6572 16.8891Z" fill="#EA2127"/>
</g>
<defs>
<clipPath id="clip0_415_26492">
<rect width="24" height="24" fill="white" transform="translate(12.8896)"/>
</clipPath>
</defs>
</svg>
