<svg width="49" height="24" viewBox="0 0 49 24" fill="none" xmlns="http://www.w3.org/2000/svg">
<rect x="0.889648" width="48" height="24" rx="2" fill="#FBFAF8"/>
<path fill-rule="evenodd" clip-rule="evenodd" d="M33.056 7.44798C32.4787 7.23205 31.5742 7 30.444 7C27.5642 7 25.535 8.44574 25.5179 10.5164C25.5022 12.0486 26.9661 12.9017 28.072 13.4125C29.2061 13.9339 29.5879 14.2673 29.5819 14.7335C29.5747 15.4479 28.6765 15.7741 27.8388 15.7741C26.672 15.7741 26.0526 15.6133 25.0952 15.2154L24.7194 15.0457L24.3103 17.4315C24.9918 17.7285 26.2497 17.9868 27.557 18C30.621 18 32.6103 16.5712 32.6324 14.3594C32.643 13.1469 31.867 12.2243 30.186 11.4645C29.1665 10.9711 28.5429 10.6415 28.5497 10.1426C28.5497 9.70058 29.0771 9.22588 30.2179 9.22588C31.1723 9.21103 31.8619 9.41847 32.3996 9.63482L32.6614 9.757L33.056 7.44798ZM19.5721 17.8418L21.3944 7.18583H24.3087L22.4854 17.8418H19.5721ZM38.2784 7.19625H40.5307L42.8895 17.8446H40.1847C40.1847 17.8446 39.9177 16.6211 39.8305 16.2482C39.605 16.2482 38.6636 16.247 37.7788 16.2459L37.7664 16.2459C36.9867 16.2449 36.2538 16.244 36.0976 16.244C35.9844 16.532 35.4842 17.8446 35.4842 17.8446H32.4231L36.7515 8.0799C37.0588 7.38546 37.5803 7.19625 38.2784 7.19625ZM36.9358 14.0644C37.1772 13.4505 38.0975 11.0851 38.0975 11.0851C38.089 11.099 38.1457 10.9523 38.2231 10.752L38.2231 10.7519C38.3043 10.5418 38.4082 10.2728 38.4836 10.0682L38.6803 10.9871C38.6803 10.9871 39.2388 13.5303 39.3559 14.0644H36.9358ZM14.2743 14.46L17.1272 7.19358H20.2143L15.6263 17.8288L12.5422 17.833L9.93359 8.51291C11.7836 9.43601 13.4391 11.2805 13.9699 12.9833L14.2743 14.46Z" fill="#1A1F71"/>
<path fill-rule="evenodd" clip-rule="evenodd" d="M11.6271 7.18658H6.92668L6.88965 7.40803C10.5463 8.29083 12.9659 10.4221 13.9701 12.9835L12.948 8.08593C12.7718 7.411 12.2597 7.20992 11.6271 7.18658Z" fill="#F9A51A"/>
</svg>
