<svg width="32" height="33" viewBox="0 0 32 33" fill="none" xmlns="http://www.w3.org/2000/svg">
<path d="M30.7875 12.6877C30.9875 12.6439 31.1313 12.4689 31.1313 12.2627V7.8502C31.1313 7.6127 30.9375 7.41895 30.7 7.41895H1.30002C1.06252 7.41895 0.868774 7.6127 0.868774 7.8502V12.2627C0.868774 12.4689 1.01252 12.6439 1.21252 12.6877C2.74377 13.0002 3.94377 14.1939 4.25002 15.7252C4.67502 17.8314 3.31877 19.8877 1.21252 20.3127C1.01252 20.3564 0.868774 20.5314 0.868774 20.7377V25.1502C0.868774 25.3877 1.06252 25.5814 1.30002 25.5814H30.7063C30.9438 25.5814 31.1375 25.3877 31.1375 25.1502V20.7377C31.1375 20.5314 30.9938 20.3564 30.7938 20.3127C29.2625 20.0002 28.0625 18.8064 27.7563 17.2752C27.325 15.1689 28.6813 13.1127 30.7875 12.6877ZM26.9875 15.2064C26.275 17.7377 27.7438 20.3627 30.2688 21.0814V24.7189H22.9188V23.5814C22.9188 23.3439 22.725 23.1502 22.4875 23.1502C22.25 23.1502 22.0563 23.3439 22.0563 23.5814V24.7189H1.73127V21.0814C3.31877 20.6314 4.56252 19.3877 5.01252 17.8002C5.72502 15.2689 4.25627 12.6439 1.73127 11.9252V8.2877H22.0563V9.4252C22.0563 9.6627 22.25 9.85645 22.4875 9.85645C22.725 9.85645 22.9188 9.6627 22.9188 9.4252V8.2877H30.2688V11.9252C28.6813 12.3752 27.4375 13.6127 26.9875 15.2064Z" fill="#F6911E"/>
<path opacity="0.2" d="M30.2687 11.9251V8.2876H22.9187V9.4251C22.9187 9.6626 22.725 9.85635 22.4875 9.85635C22.25 9.85635 22.0562 9.6626 22.0562 9.4251V8.2876H1.7312V11.9251C4.2562 12.6376 5.7312 15.2688 5.01245 17.8001C4.56245 19.3876 3.3187 20.6251 1.7312 21.0751V24.7126H22.0562V23.5751C22.0562 23.3376 22.25 23.1438 22.4875 23.1438C22.725 23.1438 22.9187 23.3376 22.9187 23.5751V24.7126H30.2687V21.0751C27.7437 20.3626 26.2687 17.7313 26.9875 15.2001C27.4375 13.6126 28.6812 12.3751 30.2687 11.9251ZM10.2125 11.7063C11.3187 11.7063 12.2125 12.6001 12.2125 13.7063C12.2125 14.8063 11.3187 15.7001 10.2125 15.7063C9.11245 15.7063 8.21245 14.8126 8.21245 13.7063C8.2187 12.6001 9.11245 11.7063 10.2125 11.7063ZM9.04995 21.0563C8.81245 21.0563 8.6187 20.8626 8.6187 20.6251C8.6187 20.5126 8.66245 20.4001 8.7437 20.3188L16.7562 12.3001C16.9187 12.1251 17.1937 12.1251 17.3687 12.2876C17.5437 12.4563 17.5437 12.7251 17.3812 12.9001C17.375 12.9063 17.375 12.9063 17.3687 12.9126L9.3562 20.9313C9.27495 21.0126 9.16245 21.0563 9.04995 21.0563ZM15.7312 21.2626C14.6312 21.2626 13.7312 20.3688 13.7312 19.2626C13.7312 18.1563 14.625 17.2626 15.7312 17.2626C16.8375 17.2626 17.7312 18.1563 17.7312 19.2626C17.7312 20.3688 16.8375 21.2626 15.7312 21.2626ZM22.9187 21.2188C22.9187 21.4563 22.725 21.6501 22.4875 21.6501C22.25 21.6501 22.0562 21.4563 22.0562 21.2188V19.6438C22.0562 19.4063 22.25 19.2126 22.4875 19.2126C22.725 19.2126 22.9187 19.4063 22.9187 19.6438V21.2188ZM22.9187 17.2876C22.9187 17.5251 22.725 17.7188 22.4875 17.7188C22.25 17.7188 22.0562 17.5251 22.0562 17.2876V15.7126C22.0562 15.4751 22.25 15.2813 22.4875 15.2813C22.725 15.2813 22.9187 15.4751 22.9187 15.7126V17.2876ZM22.9187 13.3563C22.9187 13.5938 22.725 13.7876 22.4875 13.7876C22.25 13.7876 22.0562 13.5938 22.0562 13.3563V11.7813C22.0562 11.5438 22.25 11.3501 22.4875 11.3501C22.725 11.3501 22.9187 11.5438 22.9187 11.7813V13.3563Z" fill="#F6911E"/>
<path d="M22.9188 11.7813V13.3563C22.9188 13.5938 22.725 13.7876 22.4875 13.7876C22.25 13.7876 22.0563 13.5938 22.0563 13.3563V11.7813C22.0563 11.5438 22.25 11.3501 22.4875 11.3501C22.725 11.3501 22.9188 11.5438 22.9188 11.7813Z" fill="#F6911E"/>
<path d="M22.9188 15.7125V17.2875C22.9188 17.525 22.725 17.7188 22.4875 17.7188C22.25 17.7188 22.0563 17.525 22.0563 17.2875V15.7125C22.0563 15.475 22.25 15.2813 22.4875 15.2813C22.725 15.2812 22.9188 15.475 22.9188 15.7125Z" fill="#F6911E"/>
<path d="M22.9188 19.6437V21.2187C22.9188 21.4562 22.725 21.6499 22.4875 21.6499C22.25 21.6499 22.0563 21.4562 22.0563 21.2187V19.6437C22.0563 19.4062 22.25 19.2124 22.4875 19.2124C22.725 19.2124 22.9188 19.4062 22.9188 19.6437Z" fill="#F6911E"/>
<path d="M17.3813 12.9061C17.375 12.9123 17.375 12.9123 17.3688 12.9186L9.35627 20.9311C9.27502 21.0123 9.16252 21.0561 9.05002 21.0561C8.81252 21.0561 8.61877 20.8623 8.61877 20.6248C8.61877 20.5123 8.66252 20.3998 8.74377 20.3186L16.7563 12.2998C16.9188 12.1248 17.1938 12.1248 17.3688 12.2873C17.5438 12.4561 17.5438 12.7311 17.3813 12.9061Z" fill="#F6911E"/>
<path d="M15.7312 17.2686C14.6312 17.2686 13.7312 18.1623 13.7312 19.2686C13.7312 20.3686 14.625 21.2686 15.7312 21.2686C16.8312 21.2686 17.725 20.3748 17.7312 19.2686C17.7312 18.1623 16.8375 17.2686 15.7312 17.2686ZM15.7312 20.3998C15.1062 20.3998 14.6 19.8936 14.6 19.2686C14.6 18.6436 15.1062 18.1373 15.7312 18.1373C16.3562 18.1373 16.8625 18.6436 16.8625 19.2686C16.8625 19.8936 16.3562 20.3998 15.7312 20.3998Z" fill="#F6911E"/>
<path opacity="0.2" d="M16.8625 19.2689C16.8625 19.8939 16.3562 20.4002 15.7312 20.4002C15.1062 20.4002 14.6 19.8939 14.6 19.2689C14.6 18.6439 15.1062 18.1377 15.7312 18.1377C16.3562 18.1377 16.8625 18.6439 16.8625 19.2689Z" fill="#F6911E"/>
<path d="M10.2125 11.7061C9.11252 11.7061 8.21252 12.5998 8.21252 13.7061C8.21252 14.8123 9.10627 15.7061 10.2125 15.7061C11.3125 15.7061 12.2063 14.8123 12.2125 13.7061C12.2125 12.5998 11.3188 11.7061 10.2125 11.7061ZM10.2125 14.8373C9.58752 14.8373 9.08127 14.3311 9.08127 13.7061C9.08127 13.0811 9.58752 12.5748 10.2125 12.5748C10.8375 12.5748 11.3438 13.0811 11.3438 13.7061C11.3438 14.3311 10.8375 14.8373 10.2125 14.8373Z" fill="#F6911E"/>
<path opacity="0.2" d="M11.3438 13.7064C11.3438 14.3314 10.8375 14.8377 10.2125 14.8377C9.58755 14.8377 9.0813 14.3314 9.0813 13.7064C9.0813 13.0814 9.58755 12.5752 10.2125 12.5752C10.8375 12.5752 11.3438 13.0814 11.3438 13.7064Z" fill="#F6911E"/>
</svg>
