<svg width="33" height="33" viewBox="0 0 33 33" fill="none" xmlns="http://www.w3.org/2000/svg">
<g clip-path="url(#clip0_730_58138)">
<path d="M32.5105 19.975C32.3167 19.5063 31.8605 19.2 31.3542 19.2H27.5417V2.0625C27.5417 1.2375 26.8667 0.5625 26.0417 0.5625H15.1355C14.3105 0.5625 13.6355 1.2375 13.6355 2.0625V6.3C12.873 6.125 12.0792 6.03125 11.2605 6.03125C5.4855 6.03125 0.791748 10.725 0.791748 16.5C0.791748 22.275 5.4855 26.9688 11.2605 26.9688C12.2667 26.9688 13.2355 26.825 14.1605 26.5625L19.7042 32.1063C19.9417 32.3438 20.2542 32.475 20.5855 32.475C20.9167 32.475 21.2355 32.3438 21.4667 32.1063L32.2355 21.3375C32.598 20.9812 32.7042 20.4438 32.5105 19.975ZM11.2605 25.9688C6.04175 25.9688 1.79175 21.7188 1.79175 16.5C1.79175 11.2812 6.04175 7.03125 11.2605 7.03125C16.4792 7.03125 20.7292 11.2812 20.7292 16.5C20.7292 21.7188 16.4792 25.9688 11.2605 25.9688ZM31.5292 20.6313L20.7605 31.3937C20.698 31.4562 20.623 31.4688 20.5855 31.4688C20.548 31.4688 20.473 31.4562 20.4105 31.3937L15.2105 26.1938C19.0292 24.6313 21.7292 20.875 21.7292 16.5C21.7292 11.9062 18.7542 7.99375 14.6355 6.5875V2.0625C14.6355 1.7875 14.8605 1.5625 15.1355 1.5625H26.0417C26.3167 1.5625 26.5417 1.7875 26.5417 2.0625V19.2C26.5417 19.75 26.9917 20.2 27.5417 20.2H31.3542C31.5042 20.2 31.5667 20.3063 31.5855 20.3563C31.6042 20.4062 31.6355 20.525 31.5292 20.6313Z" fill="#F6911E"/>
<path opacity="0.2" d="M31.5292 20.6313L20.7605 31.3937C20.698 31.4562 20.623 31.4688 20.5855 31.4688C20.548 31.4688 20.473 31.4562 20.4105 31.3937L15.2105 26.1938C19.0292 24.6313 21.7292 20.875 21.7292 16.5C21.7292 11.9062 18.7542 7.99375 14.6355 6.5875V2.0625C14.6355 1.7875 14.8605 1.5625 15.1355 1.5625H26.0417C26.3167 1.5625 26.5417 1.7875 26.5417 2.0625V19.2C26.5417 19.75 26.9917 20.2 27.5417 20.2H31.3542C31.5042 20.2 31.5667 20.3063 31.5855 20.3563C31.6042 20.4062 31.6355 20.525 31.5292 20.6313Z" fill="#F6911E"/>
<path opacity="0.2" d="M11.2605 7.03125C6.04175 7.03125 1.79175 11.2812 1.79175 16.5C1.79175 21.7188 6.04175 25.9688 11.2605 25.9688C16.4792 25.9688 20.7292 21.7188 20.7292 16.5C20.7292 11.2812 16.4792 7.03125 11.2605 7.03125ZM11.2605 24.3375C6.94175 24.3375 3.423 20.825 3.423 16.5C3.423 12.175 6.9355 8.6625 11.2605 8.6625C15.5855 8.6625 19.098 12.1813 19.098 16.5C19.098 20.8188 15.5792 24.3375 11.2605 24.3375Z" fill="#F6911E"/>
<path d="M13.7668 18.0563V18.5188C13.7668 19.6376 12.873 20.5501 11.7605 20.5751V21.0563C11.7605 21.3313 11.5355 21.5563 11.2605 21.5563C10.9855 21.5563 10.7605 21.3313 10.7605 21.0563V20.5751C9.64802 20.5438 8.75427 19.6376 8.75427 18.5188V18.4751C8.75427 18.2001 8.97927 17.9751 9.25427 17.9751C9.52927 17.9751 9.75427 18.2001 9.75427 18.4751V18.5188C9.75427 19.1001 10.2293 19.5751 10.8105 19.5751H11.7043C12.2855 19.5751 12.7605 19.1001 12.7605 18.5188V18.0563C12.7605 17.4751 12.2855 17.0001 11.7043 17.0001H10.8105C9.67302 17.0001 8.75427 16.0751 8.75427 14.9438V14.4813C8.75427 13.3626 9.64802 12.4501 10.7605 12.4251V11.9438C10.7605 11.6688 10.9855 11.4438 11.2605 11.4438C11.5355 11.4438 11.7605 11.6688 11.7605 11.9438V12.4251C12.873 12.4563 13.7668 13.3626 13.7668 14.4813C13.7668 14.7563 13.5418 14.9813 13.2668 14.9813C12.9918 14.9813 12.7668 14.7563 12.7668 14.4813C12.7668 13.9001 12.2918 13.4251 11.7105 13.4251H10.8168C10.2355 13.4251 9.76052 13.9001 9.76052 14.4813V14.9438C9.76052 15.5251 10.2355 16.0001 10.8168 16.0001H11.7105C12.8418 16.0001 13.7668 16.9251 13.7668 18.0563Z" fill="#F6911E"/>
<path d="M11.2605 8.6626C6.94172 8.6626 3.42297 12.1751 3.42297 16.5001C3.42297 20.8251 6.93547 24.3376 11.2605 24.3376C15.5855 24.3376 19.098 20.8188 19.098 16.5001C19.098 12.1813 15.5792 8.6626 11.2605 8.6626ZM11.2605 23.3376C7.49172 23.3376 4.42297 20.2688 4.42297 16.5001C4.42297 12.7313 7.49172 9.6626 11.2605 9.6626C15.0292 9.6626 18.098 12.7313 18.098 16.5001C18.098 20.2688 15.0292 23.3376 11.2605 23.3376Z" fill="#F6911E"/>
<path opacity="0.2" d="M11.2605 9.6626C7.49172 9.6626 4.42297 12.7313 4.42297 16.5001C4.42297 20.2688 7.49172 23.3376 11.2605 23.3376C15.0292 23.3376 18.098 20.2688 18.098 16.5001C18.098 12.7313 15.0292 9.6626 11.2605 9.6626ZM10.8105 16.0001H11.7042C12.8417 16.0001 13.7605 16.9251 13.7605 18.0563V18.5188C13.7605 19.6376 12.8667 20.5501 11.7542 20.5751V21.0563C11.7542 21.3313 11.5292 21.5563 11.2542 21.5563C10.9792 21.5563 10.7542 21.3313 10.7542 21.0563V20.5751C9.64172 20.5438 8.74797 19.6376 8.74797 18.5188V18.4751C8.74797 18.2001 8.97297 17.9751 9.24797 17.9751C9.52297 17.9751 9.74797 18.2001 9.74797 18.4751V18.5188C9.74797 19.1001 10.223 19.5751 10.8042 19.5751H11.698C12.2792 19.5751 12.7542 19.1001 12.7542 18.5188V18.0563C12.7542 17.4751 12.2792 17.0001 11.698 17.0001H10.8042C9.66672 17.0001 8.74797 16.0751 8.74797 14.9438V14.4813C8.74797 13.3626 9.64172 12.4501 10.7542 12.4251V11.9438C10.7542 11.6688 10.9792 11.4438 11.2542 11.4438C11.5292 11.4438 11.7542 11.6688 11.7542 11.9438V12.4251C12.8667 12.4563 13.7605 13.3626 13.7605 14.4813C13.7605 14.7563 13.5355 14.9813 13.2605 14.9813C12.9855 14.9813 12.7605 14.7563 12.7605 14.4813C12.7605 13.9001 12.2855 13.4251 11.7042 13.4251H10.8105C10.2292 13.4251 9.75422 13.9001 9.75422 14.4813V14.9438C9.75422 15.5251 10.2292 16.0001 10.8105 16.0001Z" fill="#F6911E"/>
</g>
<defs>
<clipPath id="clip0_730_58138">
<rect width="32" height="32" fill="white" transform="translate(0.666748 0.5)"/>
</clipPath>
</defs>
</svg>
