<svg width="140" height="140" viewBox="0 0 140 140" fill="none" xmlns="http://www.w3.org/2000/svg">
<path d="M70 138.359C107.754 138.359 138.359 107.754 138.359 70C138.359 32.2462 107.754 1.64062 70 1.64062C32.2462 1.64062 1.64062 32.2462 1.64062 70C1.64062 107.754 32.2462 138.359 70 138.359Z" fill="#EEEEEE"/>
<path fill-rule="evenodd" clip-rule="evenodd" d="M84.3195 79.8885C84.0512 75.9904 81.0714 75.6803 79.0418 77.3289L76.5652 79.3414C74.5357 80.9908 74.2257 83.9744 78.1632 84.6363L84.5858 92.3441L90.528 87.3858L84.3195 79.8885Z" fill="white"/>
<path fill-rule="evenodd" clip-rule="evenodd" d="M42.2462 32.8978C30.4957 42.4457 28.6934 59.786 38.2285 71.5522C47.7642 83.3186 65.0808 85.1235 76.8315 75.5754C88.5817 66.0275 90.3849 48.6874 80.8502 36.9214C71.3148 25.1548 53.997 23.3498 42.2462 32.8978ZM83.003 83.1925C67.0589 96.1479 43.5608 93.6992 30.6215 77.7332C17.6837 61.7668 20.1293 38.237 36.0738 25.2813C52.0189 12.3257 75.5174 14.7742 88.4561 30.741C101.394 46.7064 98.9488 70.2368 83.0032 83.1925" fill="#DDDDDD"/>
<path d="M59.5811 84.3511C76.1907 84.3511 89.6554 70.8684 89.6554 54.2367C89.6554 37.605 76.1907 24.1223 59.5811 24.1223C42.9716 24.1223 29.5068 37.605 29.5068 54.2367C29.5068 70.8684 42.9716 84.3511 59.5811 84.3511Z" fill="white"/>
<path fill-rule="evenodd" clip-rule="evenodd" d="M59.6691 72.3236C58.7832 72.3236 58.0103 72.0364 57.3496 71.4622C56.6888 70.888 56.3587 70.085 56.3587 69.0527C56.3587 68.1369 56.6777 67.3665 57.317 66.7412C57.9557 66.1162 58.7398 65.8037 59.6691 65.8037C60.5835 65.8037 61.3529 66.1162 61.9775 66.7412C62.6015 67.3665 62.9137 68.1369 62.9137 69.0527C62.9137 70.0704 62.5871 70.8702 61.9337 71.4515C61.2804 72.0326 60.5255 72.3236 59.6691 72.3236ZM49.0415 48.4237C49.0415 47.0424 49.4841 45.6434 50.3699 44.2257C51.2553 42.8085 52.5477 41.6348 54.2463 40.704C55.9449 39.7739 57.9268 39.3083 60.1916 39.3083C62.2967 39.3083 64.1551 39.6975 65.7668 40.475C67.3782 41.2529 68.6229 42.3107 69.5016 43.648C70.3798 44.9856 70.8192 46.4391 70.8192 48.0093C70.8192 49.2451 70.5687 50.3284 70.0679 51.2583C69.5668 52.1891 68.9715 52.9921 68.282 53.6682C67.5922 54.3441 66.3547 55.4818 64.5689 57.0807C64.0753 57.5317 63.6793 57.928 63.382 58.2692C63.0843 58.611 62.8629 58.9237 62.7178 59.2069C62.5772 59.4785 62.4641 59.7634 62.3801 60.0573C62.3003 60.341 62.1805 60.839 62.021 61.5512C61.745 63.0633 60.881 63.8189 59.4296 63.8189C58.6742 63.8189 58.0391 63.5721 57.5239 63.0777C57.0082 62.5837 56.7508 61.8493 56.7508 60.8753C56.7508 59.6541 56.9393 58.5965 57.317 57.7023C57.6943 56.8082 58.1953 56.0234 58.8196 55.3473C59.4438 54.6712 60.286 53.8682 61.3458 52.9376C62.2748 52.1236 62.9465 51.5093 63.3601 51.0948C63.7713 50.6842 64.1232 50.2182 64.4056 49.7103C64.6887 49.2015 64.8301 48.6493 64.8301 48.0529C64.8301 46.8899 64.3981 45.9086 63.5344 45.1089C62.6704 44.3095 61.5562 43.9098 60.1916 43.9098C58.5943 43.9098 57.4185 44.313 56.6637 45.12C55.9084 45.9266 55.2699 47.1152 54.7472 48.6853C54.2534 50.3284 53.3172 51.1495 51.9381 51.1495C51.1247 51.1495 50.4386 50.8625 49.88 50.2881C49.321 49.7139 49.0415 49.0923 49.0415 48.4237ZM110.085 108.116L92.0618 85.8753L82.3823 94.0401L100.259 116.1C101.906 118.132 104.886 118.443 106.915 116.794L109.393 114.781C111.422 113.132 111.732 110.148 110.085 108.116" fill="#CCCCCC"/>
</svg>
